<svg width="16" height="16" viewBox="0 0 16 16" fill="none" xmlns="http://www.w3.org/2000/svg">
<g clip-path="url(#clip0_6003_2430)">
<path d="M7.99036 -0.00976067C8.03571 -0.00967523 8.03571 -0.00967523 8.08197 -0.00958806C8.52987 -0.00816843 8.96568 0.0077343 9.40638 0.0937549C9.44843 0.1013 9.44843 0.1013 9.49132 0.108998C11.3604 0.447204 13.1577 1.51151 14.3126 3.03126C14.3256 3.04814 14.3387 3.06502 14.3521 3.08242C14.5922 3.39476 14.8029 3.72163 15.0001 4.0625C15.0124 4.08367 15.0248 4.10483 15.0375 4.12664C15.4494 4.84284 15.7183 5.64206 15.8849 6.44922C15.8895 6.47143 15.8941 6.49364 15.8989 6.51652C15.9921 7.00535 16.0118 7.49396 16.0099 7.99024C16.0098 8.03559 16.0098 8.03559 16.0097 8.08185C16.0083 8.52975 15.9924 8.96556 15.9064 9.40625C15.9013 9.43429 15.8963 9.46232 15.8911 9.4912C15.5529 11.3603 14.4886 13.1576 12.9689 14.3125C12.952 14.3255 12.9351 14.3385 12.9177 14.352C12.6054 14.5921 12.2785 14.8028 11.9376 15C11.9165 15.0123 11.8953 15.0246 11.8735 15.0373C11.1573 15.4493 10.3581 15.7182 9.55091 15.8848C9.5287 15.8894 9.50649 15.894 9.48361 15.8987C8.99478 15.992 8.50617 16.0117 8.00989 16.0098C7.97966 16.0097 7.94943 16.0097 7.91828 16.0096C7.47038 16.0082 7.03457 15.9923 6.59388 15.9063C6.56584 15.9012 6.53781 15.8962 6.50893 15.891C4.63986 15.5528 2.84255 14.4885 1.68763 12.9688C1.67461 12.9519 1.66158 12.935 1.64817 12.9176C1.40806 12.6052 1.19736 12.2784 1.00013 11.9375C0.987805 11.9163 0.975484 11.8952 0.962789 11.8734C0.550842 11.1572 0.28192 10.358 0.115361 9.55079C0.110754 9.52858 0.106147 9.50637 0.1014 9.48349C0.00810708 8.99466 -0.0115858 8.50605 -0.0096386 8.00977C-0.00958164 7.97954 -0.00952468 7.94931 -0.00946599 7.91816C-0.00804636 7.47026 0.00785637 7.03445 0.093877 6.59375C0.101423 6.55171 0.101423 6.55171 0.109121 6.50881C0.447326 4.63974 1.51163 2.84243 3.03138 1.68751C3.04826 1.67448 3.06514 1.66146 3.08254 1.64805C3.39488 1.40794 3.72175 1.19724 4.06263 1.00001C4.08379 0.987683 4.10495 0.975362 4.12676 0.962667C4.84297 0.55072 5.64218 0.281798 6.44935 0.115239C6.47155 0.110632 6.49376 0.106025 6.51664 0.101278C7.00547 0.00798501 7.49409 -0.0117079 7.99036 -0.00976067ZM7.46888 3.34376C7.40658 3.4675 7.39902 3.56913 7.40027 3.70667C7.40058 3.76513 7.40058 3.76513 7.40088 3.82477C7.40141 3.8652 7.40193 3.90562 7.40247 3.94727C7.40275 3.9883 7.40303 4.02933 7.40333 4.0716C7.40406 4.17274 7.40509 4.27387 7.40638 4.375C7.35822 4.38582 7.35822 4.38582 7.30909 4.39686C7.04553 4.45804 6.80312 4.52869 6.56263 4.65625C6.53713 4.66931 6.51163 4.68236 6.48536 4.69581C5.99112 4.96838 5.66616 5.39398 5.49427 5.92774C5.38535 6.42229 5.43183 6.95706 5.70643 7.39173C5.75962 7.46254 5.81554 7.52827 5.87513 7.59375C5.89265 7.61414 5.91017 7.63452 5.92823 7.65552C6.38104 8.14861 7.04874 8.38699 7.66288 8.60389C8.52942 8.9136 8.52942 8.9136 8.72278 9.29493C8.77901 9.52384 8.7799 9.7303 8.65638 9.9375C8.46839 10.1598 8.18721 10.2447 7.90638 10.2813C7.29304 10.3105 6.73539 10.193 6.15638 10C6.00131 9.98509 5.90376 10.0053 5.77125 10.0794C5.6317 10.201 5.57209 10.355 5.52356 10.5293C5.51309 10.5657 5.50262 10.6021 5.49183 10.6395C5.45062 10.8379 5.45038 10.9841 5.56263 11.1563C6.00418 11.5678 6.79998 11.6065 7.37513 11.625C7.37431 11.6537 7.37349 11.6824 7.37265 11.7119C7.36998 11.8186 7.36802 11.9253 7.36654 12.032C7.36576 12.0782 7.36469 12.1243 7.36334 12.1704C7.36144 12.2368 7.36056 12.3032 7.35987 12.3696C7.35905 12.4096 7.35823 12.4495 7.35739 12.4906C7.36633 12.5974 7.36633 12.5974 7.44291 12.6692C7.5963 12.7552 7.74993 12.738 7.922 12.7363C7.95725 12.7371 7.9925 12.7378 8.02881 12.7386C8.06285 12.7385 8.09689 12.7385 8.13196 12.7384C8.17834 12.7384 8.17834 12.7384 8.22565 12.7385C8.34903 12.7105 8.39427 12.6637 8.46888 12.5625C8.48263 12.4754 8.48734 12.4081 8.48414 12.3217C8.48391 12.299 8.48369 12.2763 8.48347 12.253C8.4826 12.181 8.48064 12.1091 8.47864 12.0371C8.47786 11.9881 8.47715 11.9392 8.47651 11.8902C8.47479 11.7705 8.4721 11.6509 8.46888 11.5313C8.49539 11.529 8.49539 11.529 8.52244 11.5268C9.10695 11.4708 9.68806 11.1779 10.0739 10.7321C10.4835 10.2189 10.5768 9.66905 10.5314 9.03125C10.4699 8.5772 10.2242 8.17718 9.87317 7.89063C9.42632 7.55288 8.90893 7.34956 8.39257 7.1429C7.42403 6.75406 7.42403 6.75406 7.25013 6.40625C7.23427 6.23265 7.2263 6.08068 7.30286 5.92188C7.51814 5.68914 7.77176 5.60023 8.08338 5.58265C8.52432 5.57019 8.95232 5.62764 9.37195 5.76319C9.52538 5.8054 9.64492 5.80343 9.78919 5.72852C9.94442 5.59799 10.0165 5.48078 10.0704 5.28516C10.0809 5.2485 10.0914 5.21185 10.1022 5.17408C10.1403 4.98881 10.1496 4.83937 10.0425 4.67591C9.79179 4.37465 9.30012 4.34806 8.93618 4.31295C8.80133 4.30113 8.66643 4.29053 8.53138 4.28125C8.5317 4.25841 8.53203 4.23556 8.53237 4.21202C8.53367 4.10814 8.53448 4.00427 8.53528 3.9004C8.53607 3.84647 8.53607 3.84647 8.53687 3.79145C8.53707 3.7567 8.53727 3.72196 8.53748 3.68616C8.53781 3.65425 8.53813 3.62234 8.53847 3.58946C8.52841 3.46266 8.50386 3.37856 8.41272 3.28789C8.3294 3.24204 8.27475 3.23791 8.17994 3.23755C8.14862 3.23743 8.1173 3.23731 8.08503 3.23719C8.03623 3.23773 8.03623 3.23773 7.98645 3.23829C7.95405 3.23792 7.92164 3.23756 7.88825 3.23719C7.66013 3.23329 7.66013 3.23329 7.46888 3.34376Z" fill="#656565"/>
</g>
<defs>
<clipPath id="clip0_6003_2430">
<rect width="16" height="16" fill="white"/>
</clipPath>
</defs>
</svg>
