<svg width="32" height="33" viewBox="0 0 32 33" fill="none" xmlns="http://www.w3.org/2000/svg">
<g filter="url(#filter0_d_5544_1690)">
<circle cx="16" cy="14.7676" r="12" fill="#FCFCFC"/>
</g>
<g clip-path="url(#clip0_5544_1690)">
<path d="M18.9845 6.00826C18.9494 5.96907 17.6861 6.02373 16.5868 7.21688C15.4875 8.40901 15.6566 9.77645 15.6814 9.81151C15.7061 9.84657 17.2489 9.90123 18.2337 8.51419C19.2186 7.12716 19.0195 6.04848 18.9845 6.00826ZM22.4021 18.1079C22.3526 18.0089 20.0044 16.8354 20.223 14.579C20.4416 12.3226 21.9504 11.7028 21.9741 11.6358C21.9978 11.5688 21.3584 10.8211 20.6809 10.4426C20.1833 10.1761 19.6328 10.0232 19.069 9.99507C18.9577 9.99198 18.571 9.8971 17.7759 10.1147C17.252 10.258 16.0712 10.7221 15.7464 10.7407C15.4205 10.7592 14.4511 10.2024 13.4085 10.0549C12.7413 9.92598 12.0339 10.19 11.5275 10.3931C11.0222 10.5953 10.0611 11.1707 9.3887 12.7C8.71633 14.2284 9.06799 16.6497 9.31961 17.4025C9.57124 18.1554 9.96414 19.3867 10.6324 20.2859C11.2264 21.3007 12.0143 22.005 12.3432 22.2443C12.6722 22.4835 13.6003 22.6423 14.2438 22.3134C14.7615 21.9957 15.6958 21.8132 16.065 21.8266C16.4332 21.84 17.1592 21.9854 17.9027 22.3824C18.4915 22.5856 19.0484 22.501 19.6063 22.2742C20.1642 22.0463 20.9717 21.1821 21.9143 19.43C22.2718 18.6153 22.4344 18.1746 22.4021 18.1079Z" fill="black"/>
<path d="M18.9845 6.00826C18.9494 5.96907 17.6861 6.02373 16.5868 7.21688C15.4875 8.40901 15.6566 9.77645 15.6814 9.81151C15.7061 9.84657 17.2489 9.90123 18.2337 8.51419C19.2186 7.12716 19.0195 6.04848 18.9845 6.00826ZM22.4021 18.1079C22.3526 18.0089 20.0044 16.8354 20.223 14.579C20.4416 12.3226 21.9504 11.7028 21.9741 11.6358C21.9978 11.5688 21.3584 10.8211 20.6809 10.4426C20.1833 10.1761 19.6328 10.0232 19.069 9.99507C18.9577 9.99198 18.571 9.8971 17.7759 10.1147C17.252 10.258 16.0712 10.7221 15.7464 10.7407C15.4205 10.7592 14.4511 10.2024 13.4085 10.0549C12.7413 9.92598 12.0339 10.19 11.5275 10.3931C11.0222 10.5953 10.0611 11.1707 9.3887 12.7C8.71633 14.2284 9.06799 16.6497 9.31961 17.4025C9.57124 18.1554 9.96414 19.3867 10.6324 20.2859C11.2264 21.3007 12.0143 22.005 12.3432 22.2443C12.6722 22.4835 13.6003 22.6423 14.2438 22.3134C14.7615 21.9957 15.6958 21.8132 16.065 21.8266C16.4332 21.84 17.1592 21.9854 17.9027 22.3824C18.4915 22.5856 19.0484 22.501 19.6063 22.2742C20.1642 22.0463 20.9717 21.1821 21.9143 19.43C22.2718 18.6153 22.4344 18.1746 22.4021 18.1079Z" fill="black"/>
</g>
<defs>
<filter id="filter0_d_5544_1690" x="0" y="0.767578" width="32" height="32" filterUnits="userSpaceOnUse" color-interpolation-filters="sRGB">
<feFlood flood-opacity="0" result="BackgroundImageFix"/>
<feColorMatrix in="SourceAlpha" type="matrix" values="0 0 0 0 0 0 0 0 0 0 0 0 0 0 0 0 0 0 127 0" result="hardAlpha"/>
<feOffset dy="2"/>
<feGaussianBlur stdDeviation="2"/>
<feComposite in2="hardAlpha" operator="out"/>
<feColorMatrix type="matrix" values="0 0 0 0 0 0 0 0 0 0 0 0 0 0 0 0 0 0 0.05 0"/>
<feBlend mode="normal" in2="BackgroundImageFix" result="effect1_dropShadow_5544_1690"/>
<feBlend mode="normal" in="SourceGraphic" in2="effect1_dropShadow_5544_1690" result="shape"/>
</filter>
<clipPath id="clip0_5544_1690">
<rect width="16.5" height="16.5" fill="white" transform="translate(8 6)"/>
</clipPath>
</defs>
</svg>
