<svg version="1.2" xmlns="http://www.w3.org/2000/svg" viewBox="0 0 24 25" width="24" height="25">
	<title>Apple_1</title>
	<defs>
		<clipPath clipPathUnits="userSpaceOnUse" id="cp1">
			<path d="m4 4h16.5v16.5h-16.5z"/>
		</clipPath>
	</defs>
	<style>
		.s0 { fill: #fcfcfc } 
		.s1 { fill: #000000 } 
	</style>
	<g>
		<path fill-rule="evenodd" class="s0" d="m12 24.8c-6.6 0-12-5.4-12-12 0-6.7 5.4-12 12-12 6.6 0 12 5.3 12 12 0 6.6-5.4 12-12 12z"/>
	</g>
	<g id="Clip-Path" clip-path="url(#cp1)">
		<g>
			<path class="s1" d="m15 4c-0.1 0-1.3 0-2.4 1.2-1.1 1.2-0.9 2.6-0.9 2.6 0 0 1.5 0.1 2.5-1.3 1-1.4 0.8-2.5 0.8-2.5zm3.4 12.1c0-0.1-2.4-1.3-2.2-3.5 0.2-2.3 1.8-2.9 1.8-3 0 0-0.6-0.8-1.3-1.2q-0.8-0.4-1.6-0.4c-0.1 0-0.5-0.1-1.3 0.1-0.5 0.2-1.7 0.6-2.1 0.6-0.3 0.1-1.2-0.5-2.3-0.6-0.7-0.2-1.4 0.1-1.9 0.3-0.5 0.2-1.4 0.8-2.1 2.3-0.7 1.5-0.3 3.9-0.1 4.7 0.3 0.8 0.7 2 1.3 2.9 0.6 1 1.4 1.7 1.7 1.9 0.4 0.3 1.3 0.4 1.9 0.1 0.6-0.3 1.5-0.5 1.9-0.5 0.3 0 1.1 0.2 1.8 0.6 0.6 0.2 1.1 0.1 1.7-0.1 0.6-0.3 1.4-1.1 2.3-2.9q0.6-1.2 0.5-1.3z"/>
			<path class="s1" d="m15 4c-0.1 0-1.3 0-2.4 1.2-1.1 1.2-0.9 2.6-0.9 2.6 0 0 1.5 0.1 2.5-1.3 1-1.4 0.8-2.5 0.8-2.5zm3.4 12.1c0-0.1-2.4-1.3-2.2-3.5 0.2-2.3 1.8-2.9 1.8-3 0 0-0.6-0.8-1.3-1.2q-0.8-0.4-1.6-0.4c-0.1 0-0.5-0.1-1.3 0.1-0.5 0.2-1.7 0.6-2.1 0.6-0.3 0.1-1.2-0.5-2.3-0.6-0.7-0.2-1.4 0.1-1.9 0.3-0.5 0.2-1.4 0.8-2.1 2.3-0.7 1.5-0.3 3.9-0.1 4.7 0.3 0.8 0.7 2 1.3 2.9 0.6 1 1.4 1.7 1.7 1.9 0.4 0.3 1.3 0.4 1.9 0.1 0.6-0.3 1.5-0.5 1.9-0.5 0.3 0 1.1 0.2 1.8 0.6 0.6 0.2 1.1 0.1 1.7-0.1 0.6-0.3 1.4-1.1 2.3-2.9q0.6-1.2 0.5-1.3z"/>
		</g>
	</g>
</svg>