<svg width="9" height="8" viewBox="0 0 9 8" fill="none" xmlns="http://www.w3.org/2000/svg">
<path d="M8.10154 3.59644C8.10153 3.60321 8.10151 3.60998 8.10149 3.61696C8.10077 3.80014 8.07389 3.9717 8.02946 4.14942C8.02775 4.15628 8.02605 4.16314 8.0243 4.17021C7.92906 4.543 7.70674 4.88189 7.43341 5.14799C7.4159 5.1654 7.39843 5.18282 7.38131 5.20063C7.37059 5.21176 7.35944 5.22246 7.34826 5.23314C7.34316 5.23314 7.33805 5.23314 7.33278 5.23314C7.33023 5.2408 7.32767 5.24846 7.32504 5.25636C7.30482 5.27539 7.28244 5.29174 7.26036 5.30856C7.24678 5.31894 7.23332 5.32947 7.21985 5.33999C7.07508 5.45202 6.91405 5.54065 6.7501 5.62136C6.7156 5.63836 6.68159 5.65613 6.64772 5.67436C6.60952 5.69491 6.57111 5.7148 6.53224 5.73405C6.46643 5.76681 6.40102 5.80034 6.33567 5.83402C6.32381 5.84012 6.31195 5.84622 6.30009 5.85232C6.21911 5.89401 6.13827 5.93597 6.05746 5.97799C6.0015 6.00702 5.94527 6.03545 5.88878 6.06344C5.84678 6.08432 5.80522 6.10588 5.76381 6.1279C5.67982 6.17231 5.59494 6.21486 5.50994 6.25731C5.49357 6.2655 5.4772 6.27369 5.46083 6.28188C5.42675 6.29893 5.39266 6.31596 5.35857 6.33299C5.31541 6.35455 5.27226 6.37613 5.22912 6.39773C5.19537 6.41461 5.16162 6.43149 5.12786 6.44836C5.11197 6.4563 5.09609 6.46424 5.08021 6.47219C4.96983 6.52743 4.85885 6.58128 4.74735 6.63422C4.73002 6.64247 4.7127 6.65073 4.69537 6.65899C4.67518 6.66861 4.65499 6.67822 4.63479 6.68782C4.58765 6.7103 4.54091 6.73351 4.49422 6.75693C4.43497 6.78662 4.37542 6.81571 4.3158 6.84467C4.30995 6.84752 4.30409 6.85036 4.29806 6.8533C4.21302 6.8946 4.12765 6.93506 4.04178 6.97463C3.9645 7.01027 3.88759 7.04668 3.81071 7.08319C3.69496 7.13813 3.57894 7.19247 3.46262 7.24622C3.40544 7.27265 3.34828 7.29911 3.29111 7.32557C3.28432 7.32871 3.27753 7.33186 3.27054 7.33509C3.17281 7.38034 3.0753 7.42602 2.97793 7.47205C2.89203 7.51263 2.80568 7.55211 2.7191 7.59121C2.6383 7.62773 2.55819 7.66549 2.47842 7.70421C2.39936 7.74255 2.31975 7.7796 2.23996 7.81639C2.20241 7.83372 2.165 7.85132 2.12766 7.86912C1.93991 7.9584 1.93991 7.9584 1.84455 7.98112C1.83922 7.9825 1.83389 7.98387 1.82839 7.98529C1.76741 7.99953 1.70607 8.00003 1.64377 7.99999C1.63811 7.99999 1.63245 8 1.62662 8C1.53465 7.99971 1.45071 7.99206 1.36462 7.9579C1.35614 7.9546 1.35614 7.9546 1.34748 7.95124C1.26638 7.91872 1.19823 7.87574 1.13239 7.81857C1.12662 7.81357 1.12084 7.80857 1.11489 7.80342C0.981277 7.67873 0.904987 7.48718 0.898477 7.30658C0.894186 7.11903 0.942786 6.95974 1.07399 6.82059C1.22728 6.66432 1.42578 6.56323 1.61735 6.46221C1.65539 6.44202 1.69312 6.42129 1.73086 6.40055C1.8842 6.31654 2.03942 6.23594 2.19789 6.16202C2.23523 6.14455 2.27219 6.12643 2.309 6.10785C2.35679 6.08371 2.40502 6.0607 2.45354 6.03808C2.48873 6.02161 2.52353 6.0045 2.55815 5.9869C2.68733 5.92152 2.81956 5.86136 2.95204 5.80304C3.0181 5.77394 3.08336 5.74318 3.14851 5.71213C3.26974 5.65438 3.39215 5.5996 3.51511 5.54567C3.59616 5.51012 3.67709 5.4744 3.75611 5.43449C3.78504 5.41997 3.81443 5.4067 3.8441 5.39376C3.91762 5.36137 3.99068 5.32799 4.06374 5.29458C4.06949 5.29195 4.07523 5.28933 4.08114 5.28663C4.14535 5.25729 4.20945 5.22774 4.27338 5.19781C4.30823 5.18152 4.34323 5.16559 4.37831 5.14982C4.43904 5.12252 4.49918 5.09453 4.55847 5.06423C4.60804 5.03912 4.65859 5.01624 4.70913 4.99317C4.77348 4.96376 4.83645 4.93318 4.89845 4.89913C4.92827 4.88326 4.95859 4.86895 4.98925 4.8548C5.04299 4.82997 5.09538 4.80309 5.14762 4.77525C5.19139 4.75197 5.23556 4.72966 5.28002 4.70773C5.39766 4.64946 5.51207 4.58511 5.62633 4.52053C5.64901 4.50776 5.67176 4.49518 5.69463 4.48276C5.70136 4.4791 5.70808 4.47544 5.71501 4.47166C5.72749 4.46487 5.73998 4.45808 5.75247 4.45131C5.85556 4.39533 5.95593 4.33519 6.05555 4.27327C6.06276 4.26882 6.06997 4.26437 6.0774 4.25978C6.12357 4.23091 6.16713 4.20006 6.20988 4.16635C6.22106 4.15757 6.23226 4.14881 6.24348 4.14008C6.24828 4.13629 6.25309 4.1325 6.25805 4.12859C6.27229 4.11846 6.27229 4.11846 6.28909 4.11082C6.30597 4.10356 6.30597 4.10356 6.311 4.07975C6.32258 4.06863 6.32258 4.06863 6.3376 4.05653C6.4551 3.95603 6.5604 3.81095 6.58192 3.65401C6.58295 3.64714 6.58398 3.64028 6.58504 3.63321C6.60451 3.4687 6.54201 3.30797 6.44316 3.17843C6.41925 3.14889 6.39454 3.12058 6.3684 3.09299C6.35686 3.08056 6.34573 3.06783 6.33455 3.05507C6.2562 2.96852 6.16853 2.9217 6.06377 2.87267C6.04819 2.86517 6.03261 2.85765 6.01704 2.8501C5.987 2.83557 5.9569 2.82116 5.92675 2.80685C5.87121 2.78044 5.81628 2.75286 5.7614 2.72511C5.69337 2.69079 5.62513 2.65711 5.55627 2.62448C5.46866 2.58294 5.3817 2.54057 5.29647 2.49434C5.25039 2.46941 5.20347 2.44664 5.1561 2.42427C5.05312 2.3753 4.95113 2.32436 4.84919 2.27327C4.82316 2.26023 4.79712 2.24721 4.77108 2.23418C4.72193 2.2096 4.67279 2.185 4.62366 2.16039C4.56811 2.13257 4.51254 2.10477 4.45698 2.07697C4.37473 2.03581 4.29247 1.99465 4.21023 1.95347C4.18818 1.94243 4.16614 1.9314 4.14409 1.92036C4.11523 1.90591 4.08638 1.89146 4.05753 1.87701C4.04636 1.87141 4.03518 1.86581 4.02401 1.86022C4.01489 1.85565 4.00577 1.85108 3.99637 1.84637C3.96681 1.83171 3.93698 1.8177 3.90699 1.80396C3.86022 1.78225 3.81468 1.75892 3.76939 1.73429C3.72814 1.71202 3.68598 1.69205 3.64348 1.67231C3.60686 1.65528 3.57055 1.63775 3.53446 1.61963C3.52952 1.61716 3.52457 1.61468 3.51947 1.61214C3.48895 1.59683 3.45859 1.58124 3.4283 1.56547C3.25445 1.47569 3.0619 1.42459 2.86756 1.48314C2.75624 1.51866 2.66315 1.57393 2.57993 1.65688C2.57405 1.66258 2.56817 1.66828 2.56212 1.67415C2.43607 1.80411 2.39799 1.9638 2.40031 2.14026C2.40477 2.30151 2.48708 2.44696 2.603 2.5569C2.6713 2.61543 2.74498 2.66772 2.81989 2.71737C2.82509 2.72082 2.8303 2.72427 2.83566 2.72783C2.91703 2.78137 3.00046 2.82971 3.08667 2.87507C3.15261 2.90993 3.21682 2.94661 3.27418 2.99459C3.30625 3.02107 3.33975 3.04243 3.37529 3.06377C3.46813 3.12017 3.54846 3.19046 3.61719 3.27471C3.62489 3.2839 3.62489 3.2839 3.63274 3.29328C3.75717 3.45187 3.80713 3.65226 3.7838 3.85064C3.75776 4.03662 3.66522 4.19464 3.51572 4.30899C3.346 4.42884 3.13178 4.45051 2.93112 4.41686C2.84851 4.40129 2.76824 4.3763 2.6883 4.35068C2.68103 4.34836 2.67377 4.34603 2.66629 4.34364C2.25793 4.21099 1.83561 4.00694 1.53492 3.69271C1.51575 3.67339 1.49646 3.65424 1.4768 3.63541C1.42074 3.58111 1.37274 3.52284 1.32591 3.46049C1.32051 3.4534 1.3151 3.44632 1.30953 3.43902C1.12706 3.19501 1.01528 2.91582 0.962096 2.61674C0.960708 2.60899 0.95932 2.60124 0.95789 2.59325C0.868663 2.06782 1.00322 1.48628 1.25767 1.02443C1.26618 1.00897 1.27455 0.993432 1.28264 0.977746C1.36707 0.815288 1.48317 0.670949 1.61232 0.542204C1.61846 0.535798 1.6246 0.529392 1.63092 0.522792C1.68525 0.466708 1.7434 0.418657 1.80584 0.371906C1.81006 0.368686 1.81428 0.365465 1.81862 0.362147C1.94217 0.267953 2.07807 0.196535 2.22201 0.138911C2.23663 0.133028 2.25115 0.126889 2.26564 0.120693C2.37558 0.075099 2.49452 0.0496121 2.61137 0.0288917C2.61826 0.0276588 2.62515 0.0264258 2.63225 0.0251555C2.94228 -0.0266691 3.27522 0.00684149 3.57849 0.0777556C3.58507 0.0792486 3.59164 0.0807416 3.59842 0.0822799C3.80509 0.12971 4.00396 0.207189 4.1965 0.29466C4.2207 0.305618 4.24493 0.316468 4.26917 0.327327C4.42862 0.398791 4.58741 0.471639 4.74579 0.545443C4.81619 0.578228 4.88676 0.610569 4.95771 0.642147C5.00627 0.663838 5.0538 0.687221 5.10119 0.711353C5.16311 0.742589 5.22597 0.771927 5.28857 0.801748C5.33693 0.82482 5.38521 0.848046 5.4335 0.871264C5.47351 0.890491 5.51355 0.909647 5.55367 0.92864C5.62294 0.961478 5.69188 0.994472 5.75925 1.0311C5.79252 1.04918 5.82616 1.06631 5.86009 1.08309C5.90627 1.10595 5.95196 1.12961 5.99749 1.15373C6.04175 1.17717 6.08614 1.20021 6.13102 1.22243C6.25202 1.28252 6.37122 1.34551 6.48855 1.41248C6.52824 1.43511 6.56805 1.45719 6.60853 1.47836C6.84074 1.60102 7.07537 1.73737 7.2786 1.90459C7.28269 1.90789 7.28679 1.91118 7.29101 1.91458C7.35587 1.96691 7.41548 2.02439 7.47454 2.08311C7.48165 2.09015 7.48877 2.09719 7.4961 2.10445C7.54299 2.15156 7.58581 2.20072 7.62693 2.25292C7.63106 2.2581 7.63519 2.26328 7.63945 2.26861C7.93744 2.64554 8.10369 3.11599 8.10154 3.59644Z" fill="#282828"/>
</svg>
