<?xml version="1.0" standalone="no"?>
<!DOCTYPE svg PUBLIC "-//W3C//DTD SVG 20010904//EN"
 "http://www.w3.org/TR/2001/REC-SVG-20010904/DTD/svg10.dtd">
<svg version="1.0" xmlns="http://www.w3.org/2000/svg"
 width="84.000000pt" height="76.000000pt" viewBox="0 0 84.000000 76.000000"
 preserveAspectRatio="xMidYMid meet">

<g transform="translate(0.000000,76.000000) scale(0.100000,-0.100000)"
fill="#000000" stroke="none">
<path d="M354 750 c-45 -10 -95 -43 -122 -80 -39 -52 -161 -306 -173 -358 -33
-142 60 -254 211 -255 85 0 144 40 189 130 37 75 20 143 -36 143 -38 0 -53
-12 -94 -71 -35 -53 -43 -59 -74 -59 -36 0 -65 28 -65 62 0 10 34 86 75 168
130 260 156 251 327 -117 42 -90 88 -183 102 -208 31 -52 65 -66 105 -44 47
26 40 68 -34 230 -168 363 -216 434 -310 458 -49 12 -56 12 -101 1z"/>
</g>
</svg>
