<svg xmlns="http://www.w3.org/2000/svg" width="145" height="125" viewBox="0 0 145 125" fill="none" transform="matrix(1, 0, 0, 1, 0, 0)">
<path d="M64.9903 0.000354236C65.1127 0.000642757 65.2351 0.000931279 65.3612 0.00122854C68.6714 0.0137034 71.7717 0.478549 74.9832 1.24707C75.1071 1.27651 75.2311 1.30596 75.3588 1.3363C82.0954 2.98332 88.2195 6.82832 93.028 11.5555C93.3427 11.8584 93.6575 12.1605 93.9793 12.4565C94.1804 12.642 94.3738 12.8349 94.5667 13.0281C94.5667 13.1165 94.5667 13.2048 94.5667 13.2958C94.7052 13.34 94.8437 13.3842 94.9864 13.4297C95.3302 13.7794 95.6257 14.1666 95.9296 14.5484C96.1172 14.7833 96.3075 15.0161 96.4977 15.2491C98.5222 17.7527 100.124 20.5378 101.582 23.3732C101.889 23.97 102.21 24.5581 102.54 25.1438C102.911 25.8044 103.271 26.4688 103.619 27.141C104.211 28.2792 104.817 29.4104 105.425 30.5407C105.535 30.7458 105.646 30.9508 105.756 31.1559C106.509 32.5565 107.267 33.9546 108.027 35.3522C108.551 36.32 109.065 37.2925 109.571 38.2695C109.948 38.9958 110.338 39.7147 110.736 40.4308C111.538 41.8834 112.307 43.3515 113.074 44.8214C113.222 45.1045 113.37 45.3877 113.518 45.6708C113.826 46.2603 114.134 46.8498 114.442 47.4394C114.831 48.1858 115.222 48.932 115.612 49.6782C115.917 50.2618 116.222 50.8456 116.527 51.4294C116.67 51.7042 116.814 51.9789 116.957 52.2535C117.956 54.1625 118.929 56.0819 119.885 58.0102C120.034 58.3099 120.184 58.6095 120.333 58.9092C120.507 59.2583 120.681 59.6075 120.854 59.9569C121.26 60.7722 121.68 61.5806 122.103 62.388C122.639 63.4129 123.165 64.4427 123.688 65.4738C123.74 65.575 123.791 65.6762 123.844 65.7805C124.591 67.2514 125.322 68.7279 126.037 70.2129C126.681 71.5494 127.339 72.8795 127.999 74.2091C128.991 76.2111 129.973 78.2176 130.945 80.2293C131.422 81.2182 131.9 82.2069 132.379 83.1955C132.435 83.3129 132.492 83.4303 132.551 83.5513C133.368 85.2415 134.194 86.928 135.026 88.6119C135.759 90.0975 136.472 91.591 137.179 93.0884C137.839 94.4858 138.521 95.8712 139.221 97.2508C139.914 98.6181 140.583 99.995 141.248 101.375C141.561 102.024 141.879 102.671 142.201 103.317C143.814 106.564 143.814 106.564 144.225 108.213C144.25 108.306 144.275 108.398 144.3 108.493C144.558 109.547 144.567 110.608 144.566 111.686C144.566 111.784 144.566 111.882 144.566 111.983C144.561 113.573 144.423 115.025 143.805 116.514C143.746 116.66 143.746 116.66 143.685 116.81C143.097 118.213 142.321 119.391 141.287 120.53C141.197 120.63 141.107 120.73 141.014 120.833C138.76 123.144 135.299 124.463 132.035 124.576C128.646 124.65 125.768 123.809 123.253 121.54C120.429 118.889 118.603 115.456 116.777 112.143C116.412 111.485 116.038 110.832 115.663 110.18C114.145 107.528 112.688 104.843 111.352 102.103C111.037 101.457 110.709 100.817 110.373 100.181C109.937 99.3544 109.521 98.5202 109.113 97.6811C108.815 97.0725 108.506 96.4707 108.188 95.8718C107.006 93.6378 105.919 91.3509 104.865 89.0596C104.34 87.9172 103.784 86.7886 103.222 85.6617C102.179 83.5652 101.189 81.4481 100.214 79.3215C99.572 77.9198 98.9265 76.5201 98.2053 75.1536C97.943 74.6532 97.7031 74.1448 97.4693 73.6318C96.8841 72.3602 96.2808 71.0966 95.677 69.8331C95.6296 69.7337 95.5822 69.6344 95.5333 69.5321C95.0031 68.4217 94.4691 67.3131 93.9283 66.2074C93.634 65.6047 93.3461 64.9995 93.0611 64.3927C92.5678 63.3424 92.062 62.3022 91.5145 61.2769C91.0607 60.4196 90.6472 59.5453 90.2304 58.6712C89.6988 57.5583 89.1463 56.4693 88.531 55.397C88.2443 54.8812 87.9855 54.357 87.73 53.8266C87.2811 52.8972 86.7955 51.9911 86.2923 51.0877C85.8717 50.3307 85.4686 49.5668 85.0722 48.7979C84.0192 46.7634 82.8565 44.7847 81.6893 42.8086C81.4587 42.4163 81.2313 42.0227 81.0069 41.6272C80.9407 41.5109 80.8745 41.3946 80.8063 41.2747C80.6836 41.0589 80.5609 40.843 80.4385 40.6269C79.427 38.8441 78.3402 37.1082 77.2213 35.3853C77.1408 35.2606 77.0603 35.1358 76.9774 35.0073C76.4558 34.2088 75.8982 33.4554 75.2892 32.7161C75.1305 32.5228 74.9722 32.3291 74.8143 32.1351C74.7459 32.052 74.6774 31.9688 74.6068 31.8831C74.4237 31.6368 74.4237 31.6368 74.2856 31.3462C74.1544 31.0543 74.1544 31.0543 73.7242 30.9674C73.5232 30.7671 73.5232 30.7671 73.3046 30.5072C71.4884 28.4751 68.8668 26.654 66.0307 26.2818C65.9067 26.264 65.7826 26.2462 65.6548 26.2279C62.6821 25.8912 59.7775 26.9721 57.4367 28.6816C56.9028 29.0952 56.3913 29.5225 55.8927 29.9746C55.6681 30.1742 55.438 30.3667 55.2074 30.56C53.6434 31.9151 52.7973 33.4313 51.9114 35.243C51.7758 35.5126 51.6398 35.782 51.5034 36.0513C51.2409 36.5709 50.9804 37.0913 50.7219 37.6128C50.2447 38.5734 49.7463 39.5234 49.2448 40.4725C48.6246 41.649 48.016 42.8293 47.4264 44.0202C46.6757 45.5353 45.91 47.0393 45.0746 48.5134C44.6241 49.3103 44.2127 50.1218 43.8084 50.941C42.9234 52.7221 42.0029 54.4859 41.0797 56.249C40.8441 56.6992 40.6087 57.1496 40.3734 57.5999C39.9291 58.4499 39.4846 59.2997 39.0399 60.1494C38.5372 61.1102 38.0348 62.0712 37.5324 63.0321C36.7887 64.4547 36.0448 65.8772 35.3007 67.2996C35.1012 67.6809 34.9018 68.0622 34.7023 68.4435C34.4413 68.9426 34.1802 69.4416 33.9189 69.9405C33.8178 70.1338 33.7167 70.327 33.6156 70.5202C33.533 70.678 33.4504 70.8357 33.3653 70.9982C33.1005 71.5096 32.8473 72.0253 32.5989 72.544C32.2066 73.353 31.7851 74.1406 31.3399 74.9238C30.9376 75.6373 30.5767 76.3663 30.2199 77.1015C29.9121 77.7347 29.5954 78.3627 29.2679 78.9868C29.2232 79.0724 29.1786 79.1579 29.1325 79.2461C28.856 79.774 28.5741 80.299 28.2893 80.8229C26.6668 83.8297 25.7435 87.1597 26.8014 90.5207C27.4434 92.446 28.4421 94.0559 29.9411 95.4953C30.044 95.5969 30.147 95.6986 30.2531 95.8033C32.6016 97.9832 35.4874 98.6418 38.6761 98.6016C41.5901 98.5246 44.2183 97.1011 46.2051 95.0963C47.2627 93.915 48.2077 92.6407 49.105 91.3452C49.1673 91.2552 49.2296 91.1652 49.2939 91.0725C50.2614 89.6651 51.135 88.2222 51.9547 86.7313C52.5846 85.5909 53.2475 84.4804 54.1145 83.4883C54.5931 82.9336 54.979 82.3543 55.3647 81.7396C56.3838 80.1341 57.6541 78.7448 59.1765 77.556C59.3426 77.423 59.3426 77.4229 59.512 77.2872C62.3779 75.1351 65.9992 74.2711 69.5841 74.6745C72.9447 75.1249 75.8004 76.7254 77.8666 79.311C80.0324 82.2462 80.4241 85.9511 79.8159 89.4215C79.5347 90.8501 79.083 92.2384 78.6201 93.621C78.5781 93.7467 78.5361 93.8723 78.4928 94.0017C76.0957 101.064 72.4085 108.368 66.7301 113.568C66.3809 113.9 66.035 114.234 65.6947 114.574C64.7133 115.543 63.6604 116.373 62.5337 117.183C62.4056 117.277 62.2776 117.37 62.1457 117.467C57.7362 120.622 52.691 122.555 47.2865 123.475C47.1464 123.499 47.0064 123.523 46.8621 123.548C37.367 125.091 26.8581 122.764 18.5123 118.363C18.2329 118.216 17.9521 118.071 17.6686 117.931C14.7329 116.471 12.1246 114.463 9.79804 112.23C9.68228 112.124 9.56651 112.017 9.44724 111.908C8.43377 110.969 7.56544 109.963 6.72063 108.883C6.66243 108.81 6.60423 108.737 6.54427 108.662C4.84211 106.525 3.55153 104.175 2.51023 101.685C2.40391 101.432 2.29297 101.181 2.18101 100.931C1.3571 99.0294 0.896529 96.9723 0.522096 94.9514C0.499815 94.8323 0.477535 94.7132 0.454579 94.5904C-0.48193 89.2284 0.123631 83.4704 1.4051 78.2254C1.43208 78.1116 1.45906 77.9979 1.48686 77.8807C2.34396 74.3064 3.74406 70.867 5.32473 67.537C5.52275 67.1186 5.71882 66.6994 5.91505 66.2802C7.20646 63.5227 8.52287 60.7763 9.85657 58.0372C10.449 56.8197 11.0334 55.5992 11.6041 54.3721C11.9961 53.5323 12.4186 52.7103 12.8547 51.8906C13.4191 50.8199 13.9493 49.7327 14.4882 48.65C14.9051 47.8137 15.3248 46.9786 15.7444 46.1435C16.0918 45.4516 16.438 44.7591 16.7812 44.0652C17.3746 42.8671 17.9709 41.6748 18.6327 40.5097C18.9595 39.9343 19.269 39.3526 19.5723 38.7656C19.9854 37.967 20.4129 37.1768 20.8487 36.3893C21.2723 35.6239 21.6887 34.8562 22.0902 34.08C23.1761 31.9874 24.3145 29.9258 25.5246 27.8966C25.9336 27.2103 26.3326 26.5217 26.7151 25.8216C28.9316 21.8056 31.3957 17.7478 34.4173 14.233C34.4769 14.1621 34.5366 14.0913 34.598 14.0183C35.5436 12.8965 36.5823 11.8657 37.6434 10.8443C37.7706 10.7212 37.8979 10.5982 38.029 10.4714C38.8803 9.66039 39.7687 8.91974 40.712 8.20859C40.8056 8.13717 40.8991 8.06576 40.9955 7.99218C47.8068 2.83851 56.3082 -0.0367253 64.9903 0.000354236Z" fill="#3322ff"/>
</svg>