<svg width="27" height="28" viewBox="0 0 27 28" fill="none" xmlns="http://www.w3.org/2000/svg">
<circle cx="13.6668" cy="14.0003" r="13.3333" fill="#3023F4"/>
<path d="M13.5292 9.16419C13.6517 9.22081 13.6517 9.22081 13.7766 9.27857C17.7405 11.1136 17.7405 11.1136 18.3941 12.4975C18.6466 13.4603 18.5 14.3759 18.0028 15.2273C17.1984 16.2953 15.622 16.8284 14.4368 17.3719C14.0714 17.54 13.7131 17.7205 13.3547 17.9029C12.7694 18.1997 12.1751 18.4712 11.5733 18.7327C11.251 18.8732 10.9363 19.0193 10.6249 19.1825C10.2338 19.3801 9.90812 19.4285 9.47516 19.3444C9.21657 19.1828 9.07053 19.0757 8.93462 18.8038C8.87856 18.5201 8.87727 18.2768 8.93462 17.993C9.37231 17.4357 10.0445 17.132 10.6689 16.8331C10.7636 16.7867 10.8583 16.7404 10.9558 16.6926C11.6264 16.3666 12.3039 16.0572 12.9854 15.7549C13.6889 15.4424 14.3796 15.1085 15.0607 14.7498C15.1142 14.7217 15.1677 14.6935 15.2228 14.6646C15.9454 14.3013 15.9454 14.3013 16.4121 13.6687C16.4064 13.3443 16.3916 13.129 16.1918 12.8678C15.8516 12.5868 15.4719 12.4054 15.0783 12.209C14.9921 12.1655 14.906 12.122 14.8172 12.0772C14.6351 11.9857 14.4529 11.8945 14.2706 11.8037C13.9919 11.6647 13.7143 11.5238 13.4367 11.3827C13.2595 11.2939 13.0822 11.2052 12.9049 11.1166C12.8221 11.0744 12.7393 11.0322 12.654 10.9887C12.0846 10.704 12.0846 10.704 11.4571 10.6957C11.2001 10.8745 11.0461 11.011 10.9567 11.3176C10.9297 11.5989 10.9448 11.7867 11.1204 12.0143C11.4687 12.3237 11.8712 12.5688 12.2665 12.8135C12.4668 12.9618 12.5886 13.0958 12.7184 13.3083C12.7663 13.7397 12.7837 13.9267 12.5495 14.2937C12.2839 14.5515 12.2088 14.5666 11.8288 14.6034C10.9879 14.5899 10.2442 14.1717 9.64724 13.6018C9.03066 12.873 8.85809 12.0776 8.93462 11.1462C9.10201 10.3354 9.44146 9.59021 10.1371 9.10754C11.2752 8.45802 12.3892 8.62307 13.5292 9.16419Z" fill="#FBFBFE"/>
</svg>
