<svg width="20" height="20" viewBox="0 0 20 20" fill="none" xmlns="http://www.w3.org/2000/svg">
<path d="M1.25114 6.64062C6.48473 6.64062 11.7183 6.64062 17.1105 6.64062C17.1105 8.41953 17.1105 10.1984 17.1105 12.0312C16.9683 12.0028 16.8402 11.969 16.7036 11.9232C15.6499 11.5726 14.5526 11.672 13.5553 12.1468C12.6276 12.6141 11.8887 13.4464 11.5397 14.4258C11.4899 14.5768 11.4461 14.7285 11.4074 14.8828C11.4002 14.9112 11.393 14.9396 11.3856 14.9688C11.1734 15.8954 11.349 16.8038 11.7199 17.6562C11.759 17.7474 11.798 17.8385 11.8371 17.9297C10.7197 17.9324 9.6024 17.9344 8.48506 17.9357C8.35301 17.9358 8.22095 17.936 8.08889 17.9361C8.06261 17.9362 8.03632 17.9362 8.00923 17.9362C7.58415 17.9367 7.15906 17.9377 6.73397 17.9387C6.29746 17.9398 5.86095 17.9405 5.42443 17.9407C5.17939 17.9409 4.93435 17.9412 4.68931 17.9421C4.4585 17.9429 4.22769 17.9431 3.99687 17.9429C3.91233 17.943 3.82779 17.9432 3.74325 17.9437C2.9236 17.9478 2.9236 17.9478 2.57926 17.8125C2.53611 17.7959 2.49295 17.7793 2.44849 17.7621C1.88572 17.4852 1.53975 17.0756 1.31858 16.4919C1.2721 16.3517 1.24625 16.2288 1.24633 16.0807C1.24625 16.0469 1.24617 16.0131 1.24609 15.9783C1.24626 15.9229 1.24626 15.9229 1.24644 15.8664C1.24641 15.8271 1.24637 15.7878 1.24634 15.7474C1.24627 15.615 1.24649 15.4826 1.2467 15.3502C1.24671 15.2539 1.24671 15.1577 1.24669 15.0615C1.24668 14.8295 1.24685 14.5975 1.2471 14.3656C1.24738 14.0973 1.24741 13.829 1.24744 13.5607C1.24765 12.8523 1.24819 12.1439 1.24869 11.4355C1.2495 9.85322 1.25031 8.2709 1.25114 6.64062ZM3.90983 8.97461C3.72452 9.26661 3.73778 9.57685 3.73881 9.91037C3.73893 9.99464 3.73801 10.0789 3.73702 10.1631C3.72757 10.6276 3.72757 10.6276 3.91813 11.0379C4.19292 11.2927 4.56236 11.2634 4.91151 11.2623C4.99578 11.2622 5.07999 11.2631 5.16425 11.2641C5.62872 11.2736 5.62872 11.2736 6.03901 11.083C6.29387 10.8082 6.26453 10.4388 6.26347 10.0896C6.26334 10.0054 6.26426 9.92114 6.26525 9.83688C6.27471 9.37242 6.27471 9.37242 6.08414 8.96213C5.80935 8.70726 5.43992 8.7366 5.09076 8.73767C5.00649 8.73779 4.92228 8.73687 4.83802 8.73589C4.33028 8.7259 4.33028 8.7259 3.90983 8.97461ZM8.12385 8.93433C8.10607 8.95729 8.0883 8.98025 8.06998 9.00391C8.0515 9.02687 8.03302 9.04983 8.01398 9.07349C7.90925 9.23294 7.92387 9.40248 7.92289 9.58572C7.92267 9.61795 7.92244 9.65018 7.92221 9.68338C7.92184 9.75157 7.92159 9.81977 7.92144 9.88797C7.92106 9.99188 7.91985 10.0958 7.91862 10.1997C7.91836 10.266 7.91816 10.3324 7.91801 10.3987C7.91752 10.4296 7.91704 10.4605 7.91654 10.4923C7.91752 10.7358 7.97993 10.891 8.13346 11.084C8.40417 11.3006 8.7639 11.2633 9.09414 11.2623C9.17806 11.2622 9.26193 11.2631 9.34585 11.2641C9.81296 11.2757 9.81296 11.2757 10.2201 11.0775C10.3973 10.8764 10.3988 10.6932 10.4011 10.4376C10.4014 10.4038 10.4017 10.3699 10.402 10.335C10.4026 10.2633 10.403 10.1916 10.4033 10.1199C10.404 10.0107 10.4057 9.90161 10.4074 9.79248C10.4078 9.7227 10.4081 9.65291 10.4084 9.58313C10.4091 9.55073 10.4098 9.51833 10.4105 9.48495C10.4096 9.25983 10.3656 9.13021 10.2355 8.94531C9.94061 8.70688 9.61898 8.74155 9.25751 8.74062C9.16929 8.74024 9.08112 8.73902 8.99291 8.73779C8.52849 8.72799 8.52849 8.72799 8.12385 8.93433ZM12.2277 8.98438C12.1005 9.17517 12.1032 9.34022 12.1012 9.56238C12.1009 9.59624 12.1006 9.63011 12.1002 9.66501C12.0997 9.73672 12.0993 9.80843 12.099 9.88014C12.0983 9.98929 12.0966 10.0984 12.0949 10.2075C12.0945 10.2773 12.0941 10.3471 12.0939 10.4169C12.0932 10.4493 12.0925 10.4817 12.0918 10.515C12.0926 10.7402 12.1367 10.8698 12.2668 11.0547C12.5572 11.2895 12.8698 11.2584 13.2259 11.2594C13.3109 11.2598 13.3958 11.261 13.4808 11.2622C13.9604 11.2695 13.9604 11.2695 14.3822 11.0657C14.4082 11.0312 14.4082 11.0312 14.4347 10.9961C14.4529 10.9731 14.471 10.9502 14.4897 10.9265C14.5919 10.7659 14.5784 10.5975 14.5794 10.4143C14.5797 10.3659 14.5797 10.3659 14.5801 10.3166C14.5804 10.2484 14.5807 10.1802 14.5808 10.112C14.5812 10.0081 14.5824 9.90424 14.5837 9.80034C14.5839 9.73399 14.5841 9.66764 14.5843 9.60129C14.5847 9.5704 14.5852 9.5395 14.5857 9.50768C14.5848 9.26355 14.5232 9.10768 14.3664 8.91602C14.102 8.69968 13.7572 8.73671 13.4334 8.73767C13.3464 8.73779 13.2593 8.73687 13.1722 8.73589C12.6521 8.7236 12.6521 8.7236 12.2277 8.98438ZM3.85368 13.6279C3.71398 13.8966 3.74258 14.2043 3.74175 14.5001C3.74137 14.5819 3.74016 14.6636 3.73893 14.7454C3.73318 15.2175 3.73318 15.2175 3.93546 15.6311C3.9699 15.6571 3.9699 15.6571 4.00504 15.6836C4.028 15.7017 4.05097 15.7198 4.07462 15.7385C4.23526 15.8407 4.40362 15.8273 4.58686 15.8282C4.61909 15.8285 4.65131 15.8287 4.68451 15.8289C4.75271 15.8293 4.82091 15.8295 4.88911 15.8297C4.99302 15.8301 5.0969 15.8313 5.2008 15.8325C5.26715 15.8328 5.3335 15.833 5.39985 15.8331C5.44619 15.8339 5.44619 15.8339 5.49346 15.8346C5.73695 15.8336 5.89211 15.7712 6.08512 15.6177C6.29944 15.3498 6.26332 14.9982 6.26132 14.6715C6.2609 14.59 6.26132 14.5085 6.26182 14.427C6.26666 13.9752 6.26666 13.9752 6.10465 13.562C5.89898 13.3621 5.69985 13.3415 5.42731 13.3424C5.39361 13.3422 5.35991 13.342 5.32519 13.3418C5.25418 13.3416 5.18316 13.3416 5.11215 13.342C5.00404 13.3423 4.896 13.3412 4.78789 13.3399C4.71865 13.3399 4.6494 13.3399 4.58015 13.34C4.54811 13.3396 4.51608 13.3391 4.48308 13.3387C4.21127 13.3419 4.03207 13.412 3.85368 13.6279ZM8.0358 13.6157C7.91647 13.7881 7.9234 13.9512 7.92152 14.1533C7.9212 14.1853 7.92088 14.2174 7.92056 14.2504C7.92002 14.3183 7.9196 14.3861 7.91929 14.454C7.91884 14.5231 7.91805 14.5921 7.91689 14.6612C7.91521 14.7613 7.91459 14.8613 7.91419 14.9614C7.91351 14.9919 7.91282 15.0224 7.91212 15.0538C7.91297 15.2724 7.96149 15.4438 8.08707 15.625C8.31078 15.803 8.48887 15.8268 8.76655 15.8282C8.79877 15.8285 8.831 15.8287 8.8642 15.8289C8.9324 15.8293 9.0006 15.8295 9.0688 15.8297C9.1727 15.8301 9.27658 15.8313 9.38048 15.8325C9.44683 15.8328 9.51318 15.833 9.57954 15.8331C9.62587 15.8339 9.62587 15.8339 9.67315 15.8346C9.88984 15.8337 10.0557 15.7959 10.2216 15.6445C10.3877 15.4312 10.3988 15.2707 10.4011 15.0079C10.4014 14.9741 10.4017 14.9402 10.402 14.9053C10.4026 14.8336 10.403 14.7619 10.4033 14.6902C10.404 14.581 10.4057 14.4719 10.4074 14.3628C10.4078 14.293 10.4081 14.2232 10.4084 14.1534C10.4091 14.121 10.4098 14.0886 10.4105 14.0553C10.4096 13.8298 10.3734 13.6968 10.2355 13.5156C10.024 13.3547 9.85397 13.3361 9.59327 13.3386C9.55866 13.3385 9.52406 13.3383 9.4884 13.3382C9.41562 13.3381 9.34284 13.3383 9.27006 13.339C9.15903 13.3398 9.04809 13.339 8.93706 13.338C8.86609 13.3381 8.79511 13.3383 8.72413 13.3386C8.67468 13.3381 8.67468 13.3381 8.62423 13.3377C8.36246 13.3418 8.21425 13.418 8.0358 13.6157Z" fill="#666666"/>
<path d="M3.39111 2.06836C3.42563 2.06853 3.46015 2.06871 3.49571 2.06889C3.58048 2.06935 3.66524 2.07005 3.75 2.0708C3.75116 2.10408 3.75116 2.10408 3.75235 2.13804C3.77032 3.18645 3.77032 3.18645 4.27002 4.0816C4.49902 4.28834 4.74202 4.41432 5.03906 4.49267C5.07129 4.50154 5.10352 4.5104 5.13672 4.51953C5.61025 4.57872 6.06495 4.47511 6.44531 4.18017C6.78678 3.87416 6.9563 3.53614 7.03125 3.08642C7.04414 2.75127 7.05703 2.41611 7.07031 2.0708C8.44961 2.0708 9.82891 2.0708 11.25 2.0708C11.2629 2.3415 11.2758 2.6122 11.2891 2.89111C11.3352 3.36509 11.4713 3.81189 11.8359 4.14111C12.053 4.31461 12.2711 4.42198 12.5391 4.49267C12.5874 4.50597 12.5874 4.50597 12.6367 4.51953C13.1103 4.57872 13.5649 4.47511 13.9453 4.18017C14.3118 3.85172 14.5064 3.4578 14.5393 2.96658C14.5407 2.92526 14.5421 2.88394 14.5436 2.84137C14.5452 2.7963 14.5469 2.75123 14.5486 2.7048C14.5509 2.63509 14.5509 2.63509 14.5532 2.56396C14.5549 2.51658 14.5566 2.4692 14.5583 2.42038C14.5625 2.30385 14.5665 2.18733 14.5703 2.0708C15.2821 2.0507 15.8525 2.10656 16.416 2.58838C16.8335 2.98401 16.998 3.38872 17.1094 3.9458C17.1094 4.57744 17.1094 5.20908 17.1094 5.85986C11.8758 5.85986 6.64219 5.85986 1.25 5.85986C1.25 3.28333 1.25 3.28333 1.86493 2.62164C2.29651 2.21992 2.81514 2.06277 3.39111 2.06836Z" fill="#666666"/>
<path d="M17.4164 13.1175C18.1369 13.6739 18.5949 14.4118 18.7518 15.3123C18.7676 15.4861 18.7705 15.6579 18.7689 15.8324C18.7686 15.8784 18.7682 15.9245 18.7678 15.972C18.7501 16.8725 18.3788 17.6123 17.7704 18.2664C17.0957 18.9118 16.239 19.2027 15.3136 19.1958C14.7068 19.1784 14.1964 19.0137 13.6737 18.7108C13.6232 18.6818 13.6232 18.6818 13.5718 18.6522C12.8131 18.1787 12.3124 17.386 12.1112 16.5233C11.9463 15.604 12.1166 14.6706 12.6514 13.9017C13.7976 12.3782 15.8398 12.0269 17.4164 13.1175ZM16.3778 14.7298C16.3505 14.7546 16.3231 14.7795 16.295 14.8051C16.1698 14.9232 16.0471 15.0435 15.9259 15.1657C15.9003 15.1913 15.8748 15.2169 15.8484 15.2433C15.768 15.324 15.6876 15.4048 15.6073 15.4857C15.5523 15.5409 15.4972 15.5961 15.4422 15.6513C15.3083 15.7856 15.1746 15.92 15.0409 16.0545C14.8524 15.9688 14.7292 15.8249 14.5886 15.6773C14.4434 15.5248 14.4434 15.5248 14.2596 15.4295C14.0942 15.4325 14.0075 15.4536 13.8715 15.5491C13.7877 15.6684 13.7572 15.7482 13.7672 15.895C13.796 15.9939 13.8367 16.0429 13.9062 16.1186C13.931 16.1457 13.9558 16.1728 13.9813 16.2007C14.0087 16.2298 14.0361 16.2589 14.0643 16.2889C14.0932 16.3199 14.1222 16.351 14.152 16.383C14.2454 16.4821 14.3402 16.5797 14.4354 16.6771C14.4673 16.7107 14.4992 16.7444 14.532 16.7791C14.7177 16.9684 14.7177 16.9684 14.9542 17.0801C15.1742 17.0627 15.3055 16.9327 15.4582 16.7826C15.4932 16.7483 15.5283 16.714 15.5644 16.6787C15.6021 16.6413 15.6398 16.604 15.6775 16.5666C15.6967 16.5477 15.7158 16.5287 15.7356 16.5092C15.8369 16.409 15.938 16.3087 16.0389 16.2081C16.1429 16.1046 16.2475 16.0018 16.3524 15.8991C16.4332 15.8197 16.5135 15.7398 16.5937 15.6598C16.6321 15.6217 16.6706 15.5837 16.7094 15.546C16.7636 15.4931 16.817 15.4394 16.8704 15.3857C16.9009 15.3554 16.9315 15.3252 16.963 15.294C17.0518 15.1688 17.0647 15.0738 17.0721 14.9217C17.0106 14.7792 16.9367 14.682 16.7987 14.6092C16.6072 14.5724 16.517 14.6028 16.3778 14.7298Z" fill="#666666"/>
<path d="M13.3341 0.900882C13.5498 1.02121 13.6703 1.16957 13.7492 1.40625C13.7535 1.46391 13.7558 1.52173 13.7567 1.57955C13.7573 1.6145 13.758 1.64946 13.7586 1.68548C13.7604 1.84553 13.7619 2.00558 13.7628 2.16564C13.7635 2.24986 13.7646 2.33407 13.7661 2.41828C13.7682 2.54009 13.769 2.66184 13.7696 2.78366C13.7705 2.82099 13.7714 2.85831 13.7723 2.89677C13.7715 3.15189 13.7173 3.31786 13.5539 3.51563C13.3089 3.74263 13.1207 3.76824 12.7915 3.76175C12.6101 3.74609 12.481 3.71485 12.3429 3.59375C12.1841 3.40034 12.066 3.21755 12.0626 2.96247C12.0621 2.92986 12.0616 2.89725 12.0611 2.86365C12.0606 2.81091 12.0606 2.81091 12.0602 2.75711C12.0599 2.72074 12.0595 2.68436 12.0592 2.64689C12.0587 2.56982 12.0583 2.49275 12.058 2.41569C12.0573 2.29849 12.0556 2.18133 12.0538 2.06414C12.0534 1.98914 12.0531 1.91414 12.0529 1.83915C12.0522 1.80438 12.0515 1.76962 12.0508 1.73381C12.0517 1.4647 12.1165 1.25937 12.2939 1.05378C12.3157 1.03635 12.3375 1.01893 12.36 1.00098C12.3817 0.982953 12.4034 0.964926 12.4258 0.946353C12.7074 0.762526 13.0326 0.763876 13.3341 0.900882Z" fill="#666666"/>
<path d="M5.83413 0.900882C6.04976 1.02121 6.17028 1.16957 6.24917 1.40625C6.25349 1.46391 6.25576 1.52173 6.25671 1.57955C6.25733 1.6145 6.25796 1.64946 6.25861 1.68548C6.26035 1.84553 6.26195 2.00558 6.26285 2.16564C6.26349 2.24986 6.26456 2.33407 6.26605 2.41828C6.2682 2.54009 6.26905 2.66184 6.26962 2.78366C6.27051 2.82099 6.27139 2.85831 6.2723 2.89677C6.2715 3.15189 6.21726 3.31786 6.05386 3.51563C5.80894 3.74263 5.62073 3.76824 5.29153 3.76175C5.11012 3.74609 4.981 3.71485 4.84292 3.59375C4.68407 3.40034 4.566 3.21755 4.56257 2.96247C4.56207 2.92986 4.56157 2.89725 4.56105 2.86365C4.56062 2.81091 4.56062 2.81091 4.56018 2.75711C4.55986 2.72074 4.55955 2.68436 4.55922 2.64689C4.55868 2.56982 4.55826 2.49275 4.55796 2.41569C4.55729 2.29849 4.55557 2.18133 4.55385 2.06414C4.55345 1.98914 4.55312 1.91414 4.55285 1.83915C4.55217 1.80438 4.55149 1.76962 4.55078 1.73381C4.55171 1.4647 4.61653 1.25937 4.79394 1.05378C4.81575 1.03635 4.83755 1.01893 4.86001 1.00098C4.88172 0.982953 4.90342 0.964926 4.92578 0.946353C5.20737 0.762526 5.53263 0.763876 5.83413 0.900882Z" fill="#666666"/>
</svg>
