<svg width="20" height="20" viewBox="0 0 20 20" fill="none" xmlns="http://www.w3.org/2000/svg">
<path d="M1.63218 1.71343C1.66166 1.71336 1.69114 1.71329 1.72152 1.71322C1.82016 1.71304 1.91881 1.71313 2.01745 1.71323C2.08895 1.71316 2.16045 1.71307 2.23194 1.71296C2.42832 1.71272 2.62469 1.71273 2.82107 1.71277C3.03289 1.71278 3.24472 1.71257 3.45654 1.71238C3.87151 1.71206 4.28647 1.71195 4.70144 1.71193C5.03872 1.71191 5.376 1.71183 5.71328 1.7117C6.66944 1.71136 7.62561 1.71118 8.58177 1.71121C8.63332 1.71121 8.68487 1.71121 8.73798 1.71121C8.76378 1.71122 8.78958 1.71122 8.81616 1.71122C9.62678 1.71124 10.4374 1.71095 11.248 1.71041C12.159 1.70981 13.0699 1.70948 13.9808 1.70951C14.4631 1.70953 14.9453 1.70942 15.4276 1.709C15.8381 1.70864 16.2487 1.70856 16.6593 1.70882C16.8687 1.70895 17.0782 1.70895 17.2876 1.70861C17.4795 1.70831 17.6713 1.70836 17.8631 1.7087C17.9324 1.70876 18.0017 1.70869 18.0711 1.70847C19.0432 1.70563 19.0432 1.70563 19.3756 2.03095C19.5473 2.22884 19.654 2.38073 19.6539 2.64893C19.654 2.68794 19.654 2.72695 19.6541 2.76715C19.654 2.81012 19.6539 2.8531 19.6538 2.89738C19.6538 2.96572 19.6538 2.96572 19.6539 3.03544C19.6539 3.16211 19.6538 3.28878 19.6536 3.41544C19.6534 3.55196 19.6535 3.68848 19.6535 3.825C19.6535 4.06159 19.6534 4.29819 19.6532 4.53478C19.6529 4.87686 19.6528 5.21894 19.6527 5.56102C19.6527 6.11599 19.6524 6.67096 19.652 7.22593C19.6517 7.7651 19.6514 8.30427 19.6512 8.84344C19.6512 8.877 19.6512 8.91056 19.6512 8.94514C19.6511 9.20761 19.651 9.47008 19.651 9.73255C19.6506 11.0195 19.6498 12.3065 19.6491 13.5935C16.1299 13.5935 12.6108 13.5935 8.98501 13.5935C8.90767 13.413 8.83033 13.2325 8.75064 13.0466C8.64946 12.894 8.55389 12.7563 8.43814 12.6169C8.40702 12.5791 8.40702 12.5791 8.37527 12.5406C8.02893 12.16 7.46993 11.8659 6.9521 11.8301C6.21532 11.7993 5.59494 11.9233 5.02993 12.4313C4.66051 12.7787 4.50329 13.1133 4.29751 13.5935C2.99556 13.5935 1.69361 13.5935 0.3522 13.5935C0.348755 12.1805 0.34587 10.7676 0.344221 9.35465C0.344026 9.18782 0.343824 9.02099 0.343617 8.85417C0.343576 8.82096 0.343535 8.78774 0.343493 8.75353C0.342813 8.21583 0.341581 7.67813 0.340145 7.14043C0.338684 6.58867 0.337816 6.0369 0.337499 5.48514C0.337285 5.14469 0.336608 4.80425 0.335338 4.46381C0.334512 4.23033 0.334263 3.99685 0.334466 3.76336C0.334566 3.62867 0.334413 3.49399 0.333574 3.3593C0.332797 3.21314 0.332984 3.06702 0.333411 2.92086C0.332955 2.87846 0.3325 2.83605 0.332031 2.79236C0.334412 2.49083 0.391902 2.27949 0.593747 2.05201C0.637328 2.015 0.637328 2.015 0.68179 1.97724C0.710744 1.95196 0.739697 1.92669 0.769528 1.90064C1.02679 1.71583 1.32498 1.71251 1.63218 1.71343ZM2.73501 3.90595C2.73501 5.04033 2.73501 6.1747 2.73501 7.34345C4.70728 7.34345 6.67954 7.34345 8.71158 7.34345C8.71158 6.20908 8.71158 5.0747 8.71158 3.90595C6.73931 3.90595 4.76704 3.90595 2.73501 3.90595ZM12.8913 3.90595C12.8913 5.09189 12.8913 6.27783 12.8913 7.4997C13.1233 7.4997 13.3553 7.4997 13.5944 7.4997C13.5968 7.54965 13.5991 7.59961 13.6016 7.65107C13.6049 7.7178 13.6082 7.78453 13.6115 7.85127C13.613 7.88405 13.6145 7.91683 13.6161 7.9506C13.6264 8.15361 13.6448 8.35301 13.6725 8.55439C13.8162 8.49336 13.9133 8.40455 14.0265 8.29804C14.2079 8.13027 14.394 7.97146 14.5864 7.81632C14.6913 7.73433 14.6913 7.73433 14.7905 7.63289C14.9394 7.50961 15.0737 7.51097 15.2611 7.51301C15.2948 7.5126 15.3285 7.51219 15.3633 7.51176C15.4718 7.51066 15.5803 7.51087 15.6888 7.51115C15.7561 7.51066 15.8233 7.51008 15.8905 7.50942C16.1391 7.50757 16.3878 7.5074 16.6364 7.50703C17.1923 7.50461 17.7482 7.50219 18.3209 7.4997C18.3209 6.31377 18.3209 5.12783 18.3209 3.90595C16.5292 3.90595 14.7374 3.90595 12.8913 3.90595ZM10.3064 4.45115C10.2651 4.47529 10.2238 4.49944 10.1813 4.52432C10.1378 4.54987 10.0943 4.57542 10.0495 4.60175C10.0066 4.62685 9.96366 4.65196 9.91946 4.67782C9.8032 4.7459 9.68698 4.81404 9.57095 4.88252C9.53478 4.89902 9.4986 4.91553 9.46134 4.93254C9.36345 4.99475 9.36345 4.99475 9.34789 5.12045C9.34288 5.31672 9.34288 5.31672 9.34159 5.51304C9.34146 5.5973 9.33842 5.68112 9.3352 5.76531C9.32519 6.04734 9.32519 6.04734 9.44267 6.29311C9.53456 6.35535 9.62585 6.39997 9.7272 6.44501C9.79224 6.48331 9.85689 6.52228 9.92114 6.5619C9.98582 6.59955 10.0506 6.63709 10.1154 6.67451C10.1485 6.69394 10.1817 6.71338 10.2159 6.73341C10.2475 6.75174 10.2792 6.77006 10.3118 6.78895C10.3544 6.81371 10.3544 6.81371 10.398 6.83898C10.4677 6.88053 10.4677 6.88053 10.5475 6.8747C10.5475 6.03681 10.5475 5.19892 10.5475 4.33564C10.464 4.33564 10.3751 4.41093 10.3064 4.45115ZM5.57681 9.54316C5.36043 9.87546 5.30829 10.1918 5.3522 10.5856C5.43532 10.9427 5.67108 11.2457 5.9772 11.445C6.30725 11.6271 6.65831 11.6609 7.02548 11.5755C7.36042 11.4564 7.64651 11.2075 7.81802 10.8966C7.96698 10.579 7.98354 10.2514 7.89859 9.91196C7.7706 9.56312 7.54628 9.29386 7.21499 9.1208C6.56638 8.85696 6.03776 9.06941 5.57681 9.54316Z" fill="#666666"/>
<path d="M0.351636 14.1797C6.71961 14.1797 13.0876 14.1797 19.6485 14.1797C19.6485 15.3288 19.6485 15.3288 19.4083 15.6039C19.3796 15.6286 19.3509 15.6533 19.3214 15.6787C19.2929 15.704 19.2644 15.7293 19.235 15.7553C19.0359 15.8925 18.8361 15.9098 18.6003 15.9085C18.57 15.9086 18.5398 15.9088 18.5086 15.9089C18.4072 15.9093 18.3057 15.9091 18.2043 15.9089C18.1308 15.909 18.0574 15.9092 17.984 15.9094C17.7821 15.9099 17.5802 15.9099 17.3784 15.9098C17.1607 15.9098 16.943 15.9102 16.7253 15.9106C16.2988 15.9112 15.8723 15.9114 15.4457 15.9115C15.0991 15.9115 14.7524 15.9117 14.4058 15.9119C13.5832 15.9125 12.7605 15.913 11.9379 15.9129C11.8984 15.9129 11.8984 15.9129 11.8582 15.9129C11.7249 15.9129 11.5915 15.9129 11.4582 15.9129C11.4317 15.9129 11.4052 15.9129 11.3779 15.9129C11.3244 15.9129 11.2708 15.9129 11.2173 15.9129C10.3841 15.9129 9.55096 15.9134 8.71779 15.9145C7.7817 15.9157 6.84561 15.9164 5.90952 15.9163C5.41389 15.9163 4.91826 15.9165 4.42263 15.9173C4.00067 15.9181 3.57872 15.9182 3.15675 15.9177C2.94144 15.9174 2.72614 15.9174 2.51083 15.9181C2.3137 15.9187 2.11659 15.9186 1.91946 15.9179C1.84817 15.9178 1.77688 15.918 1.70559 15.9184C0.953744 15.9227 0.953744 15.9227 0.642316 15.6569C0.618096 15.6278 0.593876 15.5988 0.568922 15.5688C0.543996 15.5399 0.519071 15.5109 0.49339 15.4811C0.210438 15.0787 0.351636 14.7267 0.351636 14.1797Z" fill="#666666"/>
<path d="M6.73813 16.4776C6.81706 16.4771 6.896 16.4765 6.97493 16.4757C7.18914 16.4741 7.40329 16.4747 7.61751 16.4758C7.84168 16.4767 8.06584 16.4759 8.29001 16.4753C8.66647 16.4747 9.04291 16.4755 9.41936 16.4772C9.8546 16.4791 10.2898 16.4785 10.725 16.4766C11.0987 16.475 11.4724 16.4748 11.846 16.4757C12.0692 16.4762 12.2924 16.4763 12.5156 16.4751C12.7254 16.4741 12.9352 16.4748 13.145 16.4769C13.222 16.4773 13.299 16.4772 13.376 16.4764C13.9584 16.4711 13.9584 16.4711 14.1195 16.5998C14.181 16.6903 14.2203 16.7723 14.2578 16.8746C14.2839 16.9173 14.3101 16.96 14.337 17.004C14.4117 17.1325 14.4863 17.261 14.5605 17.3898C14.587 17.4351 14.6135 17.4804 14.64 17.5258C14.6777 17.591 14.6777 17.591 14.7162 17.6575C14.7388 17.6966 14.7615 17.7357 14.7848 17.776C14.8437 17.8901 14.8847 18.0019 14.9219 18.1246C14.8564 18.2171 14.8024 18.2738 14.6887 18.2956C14.5875 18.3011 14.4873 18.3017 14.386 18.3007C14.3471 18.301 14.3082 18.3012 14.268 18.3014C14.1372 18.3021 14.0063 18.3016 13.8754 18.3011C13.7818 18.3013 13.6881 18.3016 13.5944 18.3019C13.3662 18.3026 13.1379 18.3025 12.9097 18.302C12.7242 18.3017 12.5388 18.3016 12.3533 18.3018C12.3269 18.3018 12.3005 18.3018 12.2733 18.3018C12.2197 18.3019 12.1661 18.3019 12.1125 18.302C11.6098 18.3024 11.107 18.3019 10.6042 18.3011C10.1728 18.3004 9.74126 18.3005 9.30977 18.3012C8.80883 18.3021 8.30789 18.3024 7.80694 18.3019C7.75354 18.3019 7.70013 18.3018 7.64673 18.3018C7.62045 18.3018 7.59417 18.3017 7.5671 18.3017C7.38182 18.3016 7.19654 18.3018 7.01127 18.3022C6.76195 18.3026 6.51264 18.3023 6.26333 18.3014C6.17168 18.3012 6.08003 18.3013 5.98838 18.3016C5.86356 18.302 5.73878 18.3015 5.61396 18.3007C5.55917 18.3012 5.55917 18.3012 5.50328 18.3018C5.25734 18.2988 5.25734 18.2988 5.13253 18.2015C5.11457 18.1761 5.09662 18.1508 5.07812 18.1246C5.12941 17.9553 5.19519 17.8105 5.28381 17.6575C5.30894 17.6141 5.33407 17.5706 5.35995 17.5258C5.37304 17.5034 5.38613 17.481 5.39961 17.458C5.43903 17.3905 5.47808 17.3228 5.51712 17.2551C5.59115 17.1276 5.66525 17.0004 5.74219 16.8746C5.75282 16.8456 5.76346 16.8166 5.77441 16.7867C5.95226 16.3954 6.37028 16.4739 6.73813 16.4776Z" fill="#666666"/>
<path d="M14.4596 4.83138C14.4878 4.83106 14.5161 4.83073 14.5452 4.83039C14.6388 4.82945 14.7323 4.82911 14.8259 4.82885C14.8909 4.8285 14.956 4.82815 15.021 4.82778C15.1574 4.82714 15.2938 4.82684 15.4302 4.82673C15.6049 4.82652 15.7795 4.82504 15.9542 4.82326C16.0886 4.8221 16.2229 4.82182 16.3573 4.82178C16.4217 4.82161 16.4861 4.82113 16.5505 4.82031C16.6406 4.81926 16.7307 4.81945 16.8209 4.81994C16.8721 4.81974 16.9234 4.81954 16.9762 4.81934C17.1445 4.84952 17.2021 4.90479 17.3054 5.03866C17.3274 5.17782 17.3274 5.17782 17.3054 5.3121C17.2325 5.40448 17.1757 5.45508 17.071 5.50741C16.9819 5.51181 16.8927 5.51364 16.8035 5.51433C16.776 5.51458 16.7485 5.51484 16.7201 5.5151C16.6289 5.51587 16.5377 5.51633 16.4465 5.51672C16.3998 5.51696 16.3998 5.51696 16.3521 5.5172C16.1873 5.51802 16.0224 5.51858 15.8576 5.51894C15.6873 5.51937 15.5171 5.52072 15.3469 5.52227C15.2159 5.52329 15.085 5.52362 14.9541 5.52376C14.8913 5.52395 14.8286 5.5244 14.7658 5.52513C14.6779 5.52608 14.5901 5.52604 14.5022 5.52577C14.4272 5.52611 14.4272 5.52611 14.3507 5.52646C14.1959 5.50399 14.1318 5.46303 14.0242 5.35116C13.9876 5.21465 13.9705 5.1228 14.0144 4.98739C14.1378 4.82081 14.2671 4.83294 14.4596 4.83138Z" fill="#666666"/>
<path d="M14.416 5.92643C14.4562 5.92605 14.4963 5.92568 14.5377 5.9253C14.5811 5.92533 14.6244 5.92537 14.669 5.92541C14.7136 5.92524 14.7581 5.92507 14.804 5.9249C14.8983 5.92467 14.9926 5.92466 15.0869 5.92482C15.2312 5.92495 15.3756 5.92403 15.5199 5.92304C15.6115 5.92295 15.703 5.92293 15.7945 5.92297C15.8378 5.92261 15.881 5.92225 15.9256 5.92188C15.9659 5.92212 16.0062 5.92236 16.0477 5.92261C16.083 5.92259 16.1184 5.92256 16.1549 5.92254C16.2688 5.94005 16.3224 5.97652 16.4062 6.05434C16.4542 6.18868 16.458 6.32317 16.4185 6.45962C16.3358 6.56197 16.2477 6.5971 16.1178 6.61166C16.0834 6.61196 16.0489 6.61226 16.0134 6.61257C15.9742 6.61307 15.9349 6.61356 15.8945 6.61408C15.8523 6.61416 15.8102 6.61425 15.7668 6.61434C15.7015 6.61473 15.7015 6.61473 15.6348 6.61513C15.5428 6.61552 15.4508 6.61571 15.3587 6.6157C15.2179 6.61587 15.0772 6.61729 14.9364 6.61877C14.847 6.619 14.7576 6.61915 14.6681 6.61922C14.626 6.61979 14.584 6.62035 14.5406 6.62092C14.2494 6.61915 14.2494 6.61915 14.0954 6.52914C14.0021 6.42002 13.9844 6.35386 13.9844 6.21059C14.0803 5.99961 14.1872 5.92759 14.416 5.92643Z" fill="#666666"/>
<path d="M5 4.80469C5.14126 4.84 5.22975 4.87938 5.35431 4.95041C5.39258 4.97214 5.43085 4.99386 5.47028 5.01625C5.51006 5.03909 5.54984 5.06192 5.59082 5.08545C5.62969 5.10753 5.66857 5.12961 5.70862 5.15236C5.82427 5.21826 5.93951 5.28484 6.05469 5.35156C6.09299 5.3734 6.1313 5.39523 6.17077 5.41773C6.20648 5.43844 6.2422 5.45916 6.27899 5.4805C6.31106 5.49894 6.34313 5.51739 6.37617 5.53639C6.39899 5.55274 6.4218 5.56909 6.44531 5.58594C6.44531 5.61172 6.44531 5.6375 6.44531 5.66406C6.40401 5.68707 6.40401 5.68707 6.36187 5.71054C6.23502 5.78125 6.10823 5.85205 5.98145 5.92285C5.93814 5.94697 5.89484 5.97109 5.85022 5.99594C5.61484 6.12748 5.38202 6.2615 5.15318 6.40417C5.07812 6.44531 5.07812 6.44531 5 6.44531C5 5.90391 5 5.3625 5 4.80469Z" fill="#666666"/>
</svg>
