<svg width="21" height="20" viewBox="0 0 21 20" fill="none" xmlns="http://www.w3.org/2000/svg">
<path d="M3.25335 2.29463C3.2799 2.29449 3.30644 2.29436 3.33379 2.29422C3.42269 2.29385 3.51158 2.29404 3.60048 2.29423C3.66488 2.29409 3.72928 2.29391 3.79368 2.2937C3.97062 2.29322 4.14756 2.29323 4.3245 2.29332C4.51535 2.29334 4.70619 2.29291 4.89703 2.29254C5.27092 2.29189 5.6448 2.29167 6.01869 2.29163C6.32258 2.29159 6.62647 2.29143 6.93036 2.29118C7.79185 2.2905 8.65333 2.29014 9.51481 2.29019C9.58448 2.2902 9.58448 2.2902 9.65556 2.2902C9.70206 2.29021 9.74857 2.29021 9.79648 2.29021C10.5502 2.29025 11.304 2.2895 12.0577 2.2884C12.8316 2.28727 13.6054 2.28673 14.3793 2.2868C14.8138 2.28683 15.2483 2.28661 15.6828 2.28577C16.0527 2.28506 16.4226 2.28489 16.7925 2.28542C16.9813 2.28568 17.17 2.28568 17.3587 2.285C17.5316 2.28439 17.7044 2.2845 17.8772 2.28518C17.9397 2.2853 18.0021 2.28516 18.0646 2.28472C18.3905 2.2826 18.6726 2.28701 18.958 2.46093C18.9834 2.47571 19.0088 2.49048 19.035 2.50571C19.3059 2.67001 19.4578 2.94474 19.544 3.24218C19.5539 3.35755 19.5539 3.35755 19.554 3.48112C19.5543 3.52845 19.5545 3.57578 19.5548 3.62454C19.5547 3.67673 19.5545 3.72892 19.5544 3.78111C19.5546 3.83681 19.5547 3.89251 19.555 3.94821C19.5554 4.1011 19.5554 4.25399 19.5553 4.40688C19.5553 4.57184 19.5557 4.7368 19.5561 4.90177C19.5568 5.22489 19.557 5.54802 19.557 5.87114C19.5571 6.1338 19.5572 6.39646 19.5575 6.65913C19.5582 7.40388 19.5585 8.14864 19.5585 8.89339C19.5585 8.93354 19.5585 8.97368 19.5584 9.01505C19.5584 9.05524 19.5584 9.09544 19.5584 9.13685C19.5584 9.78831 19.5592 10.4398 19.5603 11.0912C19.5614 11.7602 19.5619 12.4291 19.5618 13.0981C19.5618 13.4737 19.562 13.8492 19.5629 14.2248C19.5636 14.5445 19.5638 14.8642 19.5632 15.184C19.563 15.3471 19.563 15.5102 19.5636 15.6733C19.5643 15.8227 19.5641 15.9721 19.5635 16.1215C19.5633 16.2009 19.5639 16.2804 19.5645 16.3598C19.5624 16.6451 19.5328 16.8615 19.3877 17.1094C19.3729 17.1349 19.3582 17.1604 19.3429 17.1867C19.1785 17.4565 18.9039 17.6105 18.6065 17.6953C18.4776 17.7052 18.4776 17.7052 18.3346 17.7054C18.2948 17.7056 18.2948 17.7056 18.2542 17.7058C18.1653 17.7061 18.0764 17.7059 17.9875 17.7058C17.9231 17.7059 17.8587 17.7061 17.7943 17.7063C17.6173 17.7068 17.4404 17.7068 17.2634 17.7067C17.0726 17.7066 16.8818 17.7071 16.6909 17.7074C16.317 17.7081 15.9431 17.7083 15.5693 17.7084C15.2654 17.7084 14.9615 17.7086 14.6576 17.7088C13.7961 17.7095 12.9346 17.7098 12.0731 17.7098C12.0035 17.7098 12.0035 17.7098 11.9324 17.7098C11.8859 17.7098 11.8394 17.7098 11.7915 17.7098C11.0377 17.7097 10.284 17.7105 9.5302 17.7116C8.75635 17.7127 7.9825 17.7133 7.20866 17.7132C6.77416 17.7132 6.33966 17.7134 5.90516 17.7142C5.53524 17.7149 5.16532 17.7151 4.7954 17.7146C4.60667 17.7143 4.41794 17.7143 4.22922 17.715C4.05637 17.7156 3.88355 17.7155 3.71071 17.7148C3.64825 17.7147 3.58579 17.7148 3.52334 17.7153C3.19741 17.7174 2.91539 17.713 2.62991 17.5391C2.6045 17.5243 2.57909 17.5095 2.55291 17.4943C2.28207 17.33 2.13018 17.0552 2.04397 16.7578C2.03409 16.6424 2.03409 16.6424 2.03392 16.5189C2.03367 16.4715 2.03342 16.4242 2.03316 16.3754C2.03327 16.3233 2.0334 16.2711 2.03352 16.2189C2.03338 16.1632 2.0332 16.1075 2.03299 16.0518C2.03251 15.8989 2.03252 15.746 2.03261 15.5931C2.03263 15.4281 2.0322 15.2632 2.03183 15.0982C2.03118 14.7751 2.03096 14.452 2.03092 14.1288C2.03088 13.8662 2.03072 13.6035 2.03047 13.3409C2.02979 12.5961 2.02943 11.8513 2.02948 11.1066C2.02949 11.0664 2.02949 11.0263 2.02949 10.9849C2.0295 10.9447 2.0295 10.9045 2.0295 10.8631C2.02954 10.2117 2.02879 9.56023 2.02769 8.90878C2.02656 8.23981 2.02602 7.57084 2.02609 6.90188C2.02612 6.52632 2.0259 6.15078 2.02506 5.77523C2.02435 5.45548 2.02418 5.13574 2.02471 4.816C2.02497 4.6529 2.02497 4.48981 2.02429 4.32671C2.02368 4.17729 2.02379 4.02788 2.02447 3.87846C2.02465 3.79905 2.02406 3.71963 2.02344 3.64021C2.02559 3.35485 2.05516 3.13849 2.20022 2.89062C2.215 2.86511 2.22977 2.8396 2.245 2.81331C2.46193 2.45737 2.84988 2.2951 3.25335 2.29463ZM2.77395 3.23974C2.6546 3.45635 2.66365 3.66579 2.66516 3.90701C2.66521 3.94054 2.66527 3.97408 2.66532 4.00864C2.66554 4.11529 2.66603 4.22195 2.66653 4.32861C2.66673 4.40111 2.6669 4.47362 2.66706 4.54612C2.66749 4.72345 2.66817 4.90079 2.66897 5.07812C3.18884 5.08083 3.7087 5.08292 4.22858 5.08419C4.46998 5.0848 4.71138 5.08563 4.95278 5.08696C5.1858 5.08823 5.41881 5.08893 5.65183 5.08924C5.74068 5.08945 5.82953 5.08988 5.91837 5.09051C6.04293 5.09136 6.16747 5.09148 6.29203 5.09142C6.32867 5.09184 6.3653 5.09226 6.40305 5.0927C6.66759 5.09145 6.8605 5.05574 7.0635 4.87304C7.11184 4.81987 7.11184 4.81987 7.16116 4.76562C7.20496 4.72234 7.24892 4.67922 7.29299 4.63622C7.40992 4.51929 7.51878 4.39736 7.6267 4.27215C7.72993 4.15479 7.83609 4.04033 7.94241 3.92577C8.09242 3.76398 8.24085 3.6013 8.38507 3.43429C8.48974 3.31392 8.59701 3.19587 8.70397 3.07754C8.76692 3.01802 8.76692 3.01802 8.76272 2.96874C8.02827 2.96509 7.29382 2.96234 6.55936 2.96065C6.21833 2.95984 5.87731 2.95874 5.53629 2.95696C5.23904 2.9554 4.94179 2.95439 4.64453 2.95404C4.48715 2.95384 4.32978 2.95336 4.1724 2.95222C4.02421 2.95116 3.87603 2.95084 3.72783 2.95107C3.67351 2.95103 3.61918 2.95072 3.56486 2.95012C3.2051 2.94634 3.00438 2.94703 2.77395 3.23974ZM9.48156 4.24789C9.26806 4.59104 9.20954 4.95267 9.29495 5.34713C9.40469 5.69841 9.61039 5.96171 9.93704 6.13525C10.2637 6.2659 10.6359 6.26717 10.9673 6.1499C11.3156 5.98387 11.514 5.74771 11.6533 5.39062C11.7512 5.07706 11.714 4.73718 11.59 4.43771C11.4365 4.14765 11.2247 3.94261 10.9183 3.8211C10.3826 3.68306 9.83324 3.79475 9.48156 4.24789ZM12.6066 4.24789C12.3931 4.59104 12.3345 4.95267 12.4199 5.34713C12.5297 5.69841 12.7354 5.96171 13.062 6.13525C13.3887 6.2659 13.7609 6.26717 14.0923 6.1499C14.4406 5.98387 14.639 5.74771 14.7783 5.39062C14.8762 5.07706 14.839 4.73718 14.715 4.43771C14.5615 4.14765 14.3497 3.94261 14.0433 3.8211C13.5076 3.68306 12.9582 3.79475 12.6066 4.24789ZM15.7316 4.24789C15.5181 4.59104 15.4595 4.95267 15.5449 5.34713C15.6547 5.69841 15.8604 5.96171 16.187 6.13525C16.5137 6.2659 16.8859 6.26717 17.2173 6.1499C17.5656 5.98387 17.764 5.74771 17.9033 5.39062C18.0012 5.07706 17.964 4.73718 17.84 4.43771C17.6865 4.14765 17.4747 3.94261 17.1683 3.8211C16.6326 3.68306 16.0832 3.79475 15.7316 4.24789ZM5.44241 8.47656C5.39354 8.52399 5.39354 8.52399 5.34368 8.57238C4.69001 9.24519 4.4098 10.1181 4.4125 11.0419C4.42496 11.7914 4.64902 12.5152 5.09085 13.125C5.11602 13.1602 5.1412 13.1955 5.16714 13.2318C5.72922 13.9688 6.60484 14.4045 7.51272 14.5312C8.52174 14.6104 9.49393 14.4083 10.2862 13.75C11.0156 13.1208 11.4688 12.26 11.545 11.2936C11.5987 10.2453 11.3065 9.33433 10.6072 8.54736C9.98001 7.87165 9.12195 7.45905 8.19998 7.40691C7.12995 7.3724 6.21193 7.72062 5.44241 8.47656ZM12.5662 8.04077C12.4926 8.15664 12.4903 8.22463 12.5127 8.35937C12.5857 8.44932 12.6438 8.50305 12.7471 8.55468C12.8026 8.55851 12.8582 8.55995 12.9139 8.56017C12.9488 8.56039 12.9838 8.56061 13.0199 8.56084C13.0776 8.56091 13.0776 8.56091 13.1365 8.56097C13.177 8.56117 13.2175 8.56136 13.2592 8.56156C13.3935 8.56213 13.5278 8.5624 13.6622 8.56261C13.7553 8.56284 13.8484 8.56306 13.9416 8.56329C14.137 8.5637 14.3325 8.56393 14.528 8.56406C14.7786 8.56428 15.0293 8.56522 15.2799 8.56633C15.4724 8.56706 15.6648 8.56726 15.8573 8.56732C15.9497 8.56744 16.0421 8.56775 16.1345 8.56826C16.2637 8.56893 16.3929 8.56886 16.5222 8.5686C16.5604 8.56896 16.5987 8.56932 16.6381 8.56969C16.8302 8.56851 16.9685 8.5668 17.1221 8.43749C17.212 8.32749 17.212 8.32749 17.1953 8.20312C17.1552 8.0656 17.1253 8.04069 17.0049 7.96874C16.9173 7.95123 16.9173 7.95123 16.8226 7.9536C16.7861 7.95321 16.7496 7.95283 16.712 7.95243C16.6723 7.9526 16.6326 7.95278 16.5916 7.95296C16.5496 7.95269 16.5075 7.95242 16.4642 7.95215C16.325 7.95143 16.1858 7.95158 16.0467 7.95181C15.95 7.95163 15.8534 7.95142 15.7568 7.95119C15.5543 7.95084 15.3517 7.95093 15.1492 7.95132C14.8894 7.95177 14.6295 7.95098 14.3697 7.94984C14.1702 7.94912 13.9707 7.94913 13.7712 7.94936C13.6753 7.94936 13.5795 7.94912 13.4837 7.94864C13.3499 7.94806 13.2161 7.94847 13.0823 7.94914C13.0425 7.94877 13.0028 7.94839 12.9618 7.948C12.7504 7.94773 12.7504 7.94773 12.5662 8.04077ZM13.8624 9.68135C13.7931 9.76463 13.7931 9.76463 13.7823 9.88281C13.806 10.0254 13.8449 10.069 13.958 10.1562C14.0939 10.2015 14.2003 10.2005 14.3436 10.201C14.3707 10.2011 14.3979 10.2012 14.4258 10.2014C14.5156 10.2017 14.6053 10.2018 14.695 10.2019C14.7575 10.202 14.8199 10.2021 14.8823 10.2023C15.0132 10.2025 15.1441 10.2026 15.275 10.2025C15.4425 10.2025 15.6101 10.2031 15.7776 10.2037C15.9066 10.2042 16.0355 10.2043 16.1645 10.2042C16.2263 10.2043 16.288 10.2045 16.3498 10.2048C16.4363 10.2051 16.5227 10.205 16.6092 10.2048C16.6584 10.2049 16.7076 10.2049 16.7582 10.205C16.8852 10.1955 16.9705 10.1754 17.083 10.1172C17.1643 10.0328 17.1643 10.0328 17.2002 9.92187C17.1705 9.78391 17.144 9.70942 17.044 9.60937C16.946 9.60121 16.8523 9.5979 16.7543 9.59802C16.7244 9.59776 16.6946 9.59749 16.6638 9.59722C16.5648 9.59648 16.4658 9.59633 16.3668 9.59625C16.2981 9.59599 16.2294 9.59573 16.1607 9.59546C16.0165 9.59499 15.8724 9.59484 15.7282 9.59489C15.5434 9.5949 15.3587 9.59383 15.1739 9.59249C15.0319 9.59162 14.89 9.59146 14.748 9.5915C14.6799 9.59141 14.6118 9.59106 14.5437 9.59046C14.4484 9.58969 14.3531 9.58992 14.2578 9.59039C14.2296 9.58995 14.2015 9.58951 14.1724 9.58906C14.04 9.59072 13.9695 9.60073 13.8624 9.68135ZM12.5518 11.3281C12.4963 11.4391 12.5004 11.5178 12.5127 11.6406C12.563 11.7335 12.563 11.7335 12.669 11.7969C12.8079 11.8205 12.9458 11.8178 13.0865 11.8165C13.1502 11.8168 13.1502 11.8168 13.2153 11.8171C13.3559 11.8176 13.4965 11.8169 13.6371 11.8162C13.7347 11.8163 13.8323 11.8163 13.9299 11.8164C14.1344 11.8165 14.339 11.816 14.5435 11.8151C14.78 11.8141 15.0165 11.814 15.253 11.8144C15.4805 11.8149 15.7081 11.8146 15.9356 11.8141C16.0325 11.8139 16.1293 11.8139 16.2261 11.814C16.3613 11.8141 16.4964 11.8135 16.6315 11.8127C16.6718 11.8128 16.712 11.813 16.7535 11.8132C16.7902 11.8128 16.827 11.8124 16.8648 11.812C16.8968 11.8119 16.9287 11.8118 16.9617 11.8117C17.0642 11.7932 17.0978 11.7608 17.1612 11.6797C17.2072 11.5546 17.2082 11.5033 17.1563 11.3794C17.0669 11.2691 17.0242 11.2504 16.8877 11.2109C16.7561 11.1995 16.6249 11.1999 16.4928 11.2002C16.4531 11.2 16.4134 11.1998 16.3726 11.1996C16.2416 11.1991 16.1106 11.1991 15.9797 11.1992C15.8886 11.199 15.7974 11.1989 15.7063 11.1987C15.5154 11.1984 15.3244 11.1984 15.1335 11.1986C14.8889 11.1988 14.6442 11.1982 14.3996 11.1973C14.2115 11.1967 14.0233 11.1966 13.8351 11.1968C13.7449 11.1967 13.6548 11.1965 13.5646 11.1962C13.4384 11.1957 13.3123 11.1959 13.1862 11.1964C13.149 11.1961 13.1118 11.1958 13.0734 11.1955C12.8708 11.1971 12.7263 11.2127 12.5518 11.3281ZM11.7431 13.4032C11.6083 13.5984 11.6013 13.7811 11.5998 14.0105C11.5994 14.0431 11.5991 14.0757 11.5987 14.1093C11.5982 14.1782 11.5978 14.2471 11.5977 14.316C11.5972 14.4204 11.5953 14.5246 11.5933 14.629C11.5853 15.1384 11.5853 15.1384 11.8096 15.5859C12.0955 15.857 12.3694 15.9101 12.7534 15.9104C12.7928 15.9107 12.8322 15.911 12.8728 15.9114C13.0028 15.9123 13.1328 15.9127 13.2628 15.9129C13.3535 15.9133 13.4442 15.9136 13.5349 15.914C13.725 15.9146 13.915 15.9149 14.1051 15.9151C14.348 15.9153 14.5909 15.9167 14.8338 15.9185C15.0211 15.9197 15.2084 15.92 15.3958 15.92C15.4853 15.9202 15.5748 15.9207 15.6643 15.9215C15.7899 15.9225 15.9153 15.9223 16.0409 15.9218C16.0775 15.9224 16.1141 15.923 16.1517 15.9236C16.447 15.9204 16.6987 15.8343 16.9235 15.6376C17.2238 15.327 17.219 14.9268 17.2155 14.5202C17.2149 14.4338 17.2155 14.3474 17.2162 14.261C17.2168 13.9095 17.1967 13.6113 17 13.3105C16.6716 12.9964 16.3303 12.9628 15.893 12.9631C15.857 12.9629 15.8209 12.9628 15.7838 12.9627C15.6652 12.9623 15.5466 12.9622 15.4281 12.9622C15.3452 12.9621 15.2624 12.9619 15.1795 12.9618C15.0061 12.9616 14.8327 12.9615 14.6592 12.9615C14.4376 12.9615 14.2159 12.961 13.9942 12.9603C13.8232 12.9599 13.6522 12.9598 13.4811 12.9598C13.3994 12.9598 13.3177 12.9596 13.236 12.9593C13.1215 12.9589 13.007 12.959 12.8925 12.9593C12.8425 12.9589 12.8425 12.9589 12.7914 12.9586C12.3446 12.9609 12.0408 13.0582 11.7431 13.4032Z" fill="#666666"/>
<path d="M9.91962 8.67289C10.4829 9.15288 10.8819 9.84077 10.9513 10.5859C11.0098 11.4551 10.8706 12.24 10.2877 12.9206C10.2617 12.9494 10.2358 12.9781 10.2091 13.0078C10.186 13.0345 10.1629 13.0612 10.139 13.0888C9.61173 13.6611 8.86396 13.9366 8.10322 13.9927C7.31652 14.0192 6.56996 13.7415 5.98057 13.225C5.42494 12.7046 5.0365 12.0472 4.99927 11.271C4.97921 10.3066 5.20234 9.52474 5.88245 8.81495C6.97977 7.76254 8.74196 7.75101 9.91962 8.67289ZM6.65439 9.2187C6.46564 9.47823 6.4155 9.68618 6.41434 10.0089C6.4141 10.0563 6.41385 10.1036 6.41359 10.1524C6.41355 10.203 6.4135 10.2537 6.41346 10.3059C6.41333 10.359 6.4132 10.4121 6.41306 10.4653C6.41283 10.5764 6.41276 10.6875 6.41278 10.7987C6.41278 10.9403 6.41225 11.0818 6.41158 11.2234C6.41114 11.3331 6.41107 11.4428 6.41109 11.5525C6.41102 11.6298 6.4106 11.7071 6.41017 11.7844C6.41126 12.2195 6.43781 12.5568 6.75937 12.8784C6.93172 13.0111 7.11829 13.0914 7.33843 13.0815C7.62995 13.0343 7.83383 12.9278 8.0756 12.7619C8.11231 12.7376 8.14901 12.7132 8.18683 12.688C8.30311 12.6105 8.41868 12.5321 8.53428 12.4536C8.61211 12.4016 8.68998 12.3497 8.76789 12.2978C9.49681 11.868 9.49681 11.868 9.97471 11.2109C10.012 10.9551 9.98951 10.7168 9.85753 10.492C9.76731 10.3749 9.66568 10.2972 9.54502 10.2148C9.52135 10.1983 9.49768 10.1818 9.4733 10.1647C9.39337 10.1093 9.31302 10.0545 9.23252 9.99995C9.18902 9.97042 9.18902 9.97042 9.14464 9.94029C8.95532 9.81218 8.76507 9.68554 8.57424 9.55969C8.47481 9.494 8.37569 9.42788 8.27656 9.36175C8.21244 9.31938 8.1483 9.27704 8.08414 9.23472C8.055 9.21519 8.02586 9.19566 7.99584 9.17554C7.55754 8.88864 7.02747 8.75235 6.65439 9.2187Z" fill="#666666"/>
<path d="M12.7454 13.574C12.8045 13.5737 12.8045 13.5737 12.8648 13.5734C12.9951 13.5729 13.1253 13.5736 13.2557 13.5743C13.3461 13.5743 13.4366 13.5742 13.5271 13.5741C13.7168 13.574 13.9064 13.5745 14.0961 13.5754C14.3394 13.5765 14.5826 13.5764 14.8259 13.5759C15.0128 13.5756 15.1996 13.5759 15.3865 13.5764C15.4762 13.5766 15.5659 13.5766 15.6556 13.5765C15.7809 13.5764 15.9062 13.577 16.0315 13.5779C16.0873 13.5776 16.0873 13.5776 16.1442 13.5773C16.3939 13.5801 16.3939 13.5801 16.5197 13.6459C16.6799 13.8306 16.6253 14.1285 16.6266 14.3602C16.627 14.4187 16.6278 14.4772 16.629 14.5357C16.6306 14.6203 16.6313 14.7049 16.6317 14.7896C16.6322 14.8402 16.6328 14.8908 16.6334 14.943C16.6121 15.0997 16.5693 15.1626 16.4588 15.2733C16.3699 15.3178 16.3201 15.3177 16.2213 15.3184C16.1713 15.3189 16.1713 15.3189 16.1202 15.3194C16.0836 15.3196 16.0469 15.3197 16.0091 15.3199C15.9706 15.3202 15.932 15.3206 15.8923 15.3209C15.7643 15.3219 15.6363 15.3225 15.5083 15.3231C15.4647 15.3233 15.421 15.3235 15.3761 15.3237C15.1451 15.3247 14.9141 15.3255 14.6832 15.3261C14.4444 15.3267 14.2056 15.3285 13.9668 15.3305C13.7834 15.3318 13.6 15.3322 13.4166 15.3324C13.3285 15.3327 13.2405 15.3333 13.1524 15.3342C13.0293 15.3355 12.9061 15.3355 12.783 15.3352C12.7465 15.3358 12.7101 15.3365 12.6726 15.3371C12.4973 15.3354 12.4201 15.3302 12.276 15.2224C12.1776 15.0843 12.1734 14.9681 12.1764 14.8044C12.1763 14.7747 12.1762 14.745 12.1761 14.7144C12.1761 14.6519 12.1767 14.5893 12.1776 14.5268C12.179 14.4312 12.1785 14.3357 12.1777 14.2401C12.178 14.1792 12.1783 14.1183 12.1788 14.0574C12.1786 14.0289 12.1785 14.0004 12.1783 13.971C12.181 13.8509 12.1905 13.7662 12.2561 13.6642C12.412 13.5554 12.5596 13.5722 12.7454 13.574Z" fill="#666666"/>
<path d="M7.30646 9.48413C7.49846 9.55392 7.65752 9.66234 7.82648 9.77592C7.88238 9.81286 7.88238 9.81286 7.9394 9.85054C8.01806 9.90263 8.09659 9.95491 8.175 10.0074C8.29455 10.0874 8.41448 10.1667 8.53449 10.246C8.61101 10.2968 8.68751 10.3476 8.76398 10.3985C8.79964 10.4221 8.83529 10.4458 8.87202 10.4701C9.37698 10.8085 9.37698 10.8085 9.42072 10.9936C9.35229 11.2936 8.98113 11.4652 8.7382 11.6279C8.70272 11.6517 8.66725 11.6756 8.6307 11.7002C8.55615 11.7502 8.48153 11.8001 8.40684 11.8499C8.29273 11.9262 8.17904 12.0031 8.06536 12.0801C7.99263 12.1288 7.91987 12.1774 7.84708 12.226C7.81326 12.249 7.77945 12.272 7.7446 12.2957C7.4409 12.4966 7.4409 12.4966 7.24055 12.4999C7.06222 12.4167 7.06222 12.4167 7.00617 12.3046C7.00159 12.2227 6.99954 12.1406 6.99864 12.0586C6.99832 12.0334 6.998 12.0081 6.99767 11.9821C6.9967 11.8985 6.99605 11.8149 6.99549 11.7313C6.99528 11.7028 6.99507 11.6742 6.99486 11.6448C6.99382 11.4936 6.99306 11.3424 6.9925 11.1913C6.99185 11.0352 6.9901 10.8792 6.98811 10.7231C6.98679 10.6031 6.98634 10.483 6.98612 10.3629C6.98586 10.3054 6.98526 10.2479 6.98433 10.1904C6.98309 10.1098 6.98309 10.0292 6.98338 9.9486C6.98306 9.90277 6.98275 9.85695 6.98242 9.80974C7.01757 9.6287 7.11557 9.49863 7.30646 9.48413Z" fill="#666666"/>
<path d="M4.11299 3.7431C4.17323 3.74234 4.17323 3.74234 4.23468 3.74158C4.27822 3.74129 4.32176 3.741 4.36661 3.7407C4.43352 3.74023 4.43352 3.74023 4.50178 3.73975C4.59628 3.73921 4.69079 3.73879 4.7853 3.73848C4.93002 3.73781 5.07471 3.73609 5.21943 3.73437C5.31113 3.73397 5.40284 3.73364 5.49454 3.73338C5.53792 3.73269 5.5813 3.73201 5.626 3.73131C5.6664 3.73142 5.7068 3.73153 5.74843 3.73165C5.78393 3.73142 5.81944 3.73119 5.85601 3.73096C5.98135 3.75599 6.02803 3.80861 6.10764 3.90626C6.12839 3.98438 6.12839 3.98438 6.12717 4.06251C6.12758 4.08829 6.12798 4.11407 6.12839 4.14063C6.09823 4.2542 6.04088 4.30049 5.95139 4.37501C5.85654 4.39459 5.85654 4.39459 5.74967 4.39461C5.70952 4.39497 5.66937 4.39534 5.628 4.39572C5.58487 4.39528 5.54173 4.39484 5.49729 4.39439C5.43055 4.39447 5.43055 4.39447 5.36246 4.39456C5.26842 4.3945 5.17438 4.39404 5.08034 4.39323C4.93631 4.3921 4.79233 4.39243 4.64829 4.39294C4.55694 4.3927 4.46559 4.39237 4.37424 4.39195C4.33111 4.39206 4.28797 4.39218 4.24353 4.39229C4.20338 4.3918 4.16323 4.3913 4.12186 4.39079C4.06896 4.39048 4.06896 4.39048 4.01499 4.39015C3.90013 4.37182 3.84694 4.33847 3.76389 4.25782C3.72078 4.10261 3.7086 4.01993 3.7761 3.87208C3.87986 3.74142 3.9529 3.74483 4.11299 3.7431Z" fill="#666666"/>
<path d="M16.9668 4.3751C17.1576 4.46369 17.2688 4.57492 17.3574 4.76572C17.3869 4.98446 17.3876 5.16943 17.2939 5.37119C17.1153 5.55925 16.9938 5.63493 16.7324 5.64463C16.471 5.63493 16.3496 5.55925 16.1709 5.37119C16.0772 5.16943 16.078 4.98446 16.1074 4.76572C16.2823 4.38898 16.5819 4.32329 16.9668 4.3751Z" fill="#666666"/>
<path d="M13.8418 4.3751C14.0326 4.46369 14.1438 4.57492 14.2324 4.76572C14.2619 4.98446 14.2626 5.16943 14.1689 5.37119C13.9903 5.55925 13.8688 5.63493 13.6074 5.64463C13.346 5.63493 13.2246 5.55925 13.0459 5.37119C12.9522 5.16943 12.953 4.98446 12.9824 4.76572C13.1573 4.38898 13.4569 4.32329 13.8418 4.3751Z" fill="#666666"/>
<path d="M10.7168 4.3751C10.9076 4.46369 11.0188 4.57492 11.1074 4.76572C11.1369 4.98446 11.1376 5.16943 11.0439 5.37119C10.8653 5.55925 10.7438 5.63493 10.4824 5.64463C10.221 5.63493 10.0996 5.55925 9.9209 5.37119C9.82723 5.16943 9.82798 4.98446 9.85742 4.76572C10.0323 4.38898 10.3319 4.32329 10.7168 4.3751Z" fill="#666666"/>
</svg>
