<svg width="16" height="16" viewBox="0 0 16 16" fill="none" xmlns="http://www.w3.org/2000/svg">
<g clip-path="url(#clip0_6003_2464)">
<path d="M1.94616 -0.0121682C2.00056 -0.0122987 2.05496 -0.01247 2.10937 -0.0126782C2.25817 -0.0131286 2.40696 -0.0129976 2.55576 -0.0127667C2.71651 -0.0126186 2.87725 -0.01301 3.038 -0.0133298C3.35265 -0.0138666 3.6673 -0.0138932 3.98195 -0.0137293C4.23775 -0.0136029 4.49355 -0.0136483 4.74935 -0.0138152C4.78579 -0.0138386 4.82222 -0.013862 4.85976 -0.0138861C4.93379 -0.013934 5.00781 -0.013982 5.08184 -0.0140303C5.7757 -0.0144591 6.46957 -0.0142894 7.16343 -0.0139308C7.79786 -0.0136204 8.4323 -0.0140248 9.06673 -0.0147725C9.71858 -0.0155349 10.3704 -0.0158349 11.0223 -0.0156271C11.3881 -0.015518 11.7539 -0.0155874 12.1197 -0.0161349C12.4311 -0.0165952 12.7425 -0.0166145 13.0539 -0.0160702C13.2127 -0.0158044 13.3714 -0.0157368 13.5302 -0.0162156C13.6758 -0.0166489 13.8213 -0.0164986 13.9668 -0.0158956C14.0193 -0.0157783 14.0718 -0.0158688 14.1242 -0.016196C14.6568 -0.0192786 15.1227 0.100855 15.5241 0.47065C15.8914 0.862704 16.0154 1.30492 16.0128 1.83156C16.0129 1.87359 16.0131 1.91561 16.0133 1.95764C16.0137 2.07224 16.0136 2.18683 16.0134 2.30142C16.0132 2.42536 16.0136 2.5493 16.0139 2.67323C16.0145 2.91569 16.0145 3.15815 16.0143 3.40061C16.0142 3.59777 16.0143 3.79493 16.0144 3.9921C16.0144 4.02021 16.0145 4.04832 16.0145 4.07728C16.0145 4.13439 16.0146 4.19151 16.0146 4.24862C16.0151 4.78368 16.0149 5.31874 16.0145 5.85379C16.0142 6.34273 16.0146 6.83167 16.0154 7.3206C16.0161 7.8233 16.0164 8.32599 16.0162 8.82868C16.0161 9.11064 16.0162 9.3926 16.0167 9.67457C16.0172 9.9146 16.0172 10.1546 16.0167 10.3946C16.0164 10.517 16.0163 10.6393 16.0168 10.7616C16.0173 10.8739 16.0171 10.9861 16.0165 11.0983C16.0163 11.1576 16.0168 11.2169 16.0172 11.2762C16.0137 11.6856 15.8979 12.0142 15.6569 12.3437C15.6421 12.3642 15.6273 12.3848 15.6121 12.406C15.4486 12.6144 15.2121 12.7718 14.9694 12.8749C14.9488 12.8749 14.9282 12.8749 14.9069 12.8749C14.9067 12.8481 14.9065 12.8213 14.9064 12.7937C14.9045 12.539 14.9023 12.2844 14.8995 12.0297C14.8982 11.8989 14.8969 11.768 14.8961 11.6372C14.8953 11.5105 14.894 11.3839 14.8924 11.2572C14.8919 11.2093 14.8916 11.1613 14.8914 11.1134C14.8876 10.2842 14.6223 9.56013 14.0319 8.9687C14.0086 8.94501 13.9853 8.92132 13.9612 8.89692C13.634 8.58325 13.2471 8.37598 12.8132 8.24995C12.7804 8.24 12.7476 8.23005 12.7138 8.21979C11.9936 8.03239 11.1974 8.15461 10.5575 8.52643C10.3425 8.66405 10.1513 8.82108 9.96941 8.99995C9.94528 9.02367 9.92115 9.0474 9.89629 9.07185C9.42892 9.55998 9.15854 10.2521 9.15049 10.9246C9.15018 10.9471 9.14987 10.9697 9.14955 10.993C9.14857 11.0669 9.14779 11.1408 9.14702 11.2147C9.14637 11.2662 9.14572 11.3177 9.14505 11.3693C9.14333 11.5043 9.14179 11.6394 9.14027 11.7745C9.1387 11.9125 9.13696 12.0506 9.13524 12.1886C9.13189 12.4591 9.12871 12.7295 9.12566 12.9999C8.15668 13.0021 7.1877 13.0037 6.21872 13.0047C6.1042 13.0049 5.98968 13.005 5.87515 13.0051C5.85235 13.0051 5.82956 13.0051 5.80607 13.0052C5.43742 13.0056 5.06878 13.0063 4.70014 13.0072C4.32158 13.0081 3.94303 13.0086 3.56447 13.0088C3.35197 13.0089 3.13947 13.0092 2.92696 13.0099C2.72679 13.0105 2.52663 13.0107 2.32646 13.0105C2.25314 13.0106 2.17983 13.0108 2.10651 13.0111C1.50237 13.0139 0.962551 12.9746 0.497726 12.5353C0.281298 12.2932 0.120119 12.0332 0.0319059 11.7187C0.0264132 11.7001 0.0209205 11.6816 0.0152613 11.6625C-0.00223593 11.5801 -0.00338547 11.5041 -0.00353849 11.4198C-0.0036778 11.3842 -0.00381708 11.3485 -0.00396061 11.3119C-0.00395485 11.2727 -0.00394914 11.2336 -0.0039432 11.1932C-0.00404633 11.1513 -0.0041628 11.1093 -0.00429142 11.0673C-0.00460433 10.9518 -0.00472061 10.8363 -0.00480354 10.7208C-0.00492557 10.5962 -0.0052249 10.4717 -0.00549769 10.3471C-0.0061152 10.0463 -0.00642987 9.74547 -0.00670791 9.44462C-0.00684491 9.3029 -0.00701259 9.16118 -0.00717628 9.01945C-0.00770793 8.54823 -0.00816088 8.07701 -0.00838721 7.60578C-0.00844689 7.4835 -0.00850693 7.36122 -0.00856805 7.23894C-0.00858317 7.20855 -0.00859825 7.17816 -0.00861382 7.14685C-0.0088731 6.65474 -0.00966474 6.16264 -0.01068 5.67054C-0.0117141 5.16513 -0.0122763 4.65973 -0.0123761 4.15433C-0.0124437 3.87063 -0.0127163 3.58694 -0.0135156 3.30325C-0.0141949 3.06159 -0.014445 2.81993 -0.0141416 2.57827C-0.0139998 2.45506 -0.0140572 2.33186 -0.0146654 2.20865C-0.0152183 2.09564 -0.0151836 1.98264 -0.0146998 1.86963C-0.0145911 1.80983 -0.0150937 1.75003 -0.015625 1.69023C-0.0122284 1.23086 0.158794 0.815218 0.471359 0.476509C0.902091 0.0729275 1.37695 -0.0143989 1.94616 -0.0121682ZM4.11589 2.23432C4.0275 2.36528 4.01894 2.46933 4.03191 2.62495C4.1021 2.7975 4.16924 2.86521 4.33548 2.94345C4.45906 2.98713 4.57823 2.98591 4.70815 2.98457C4.73754 2.98476 4.76693 2.98496 4.79721 2.98516C4.89518 2.98566 4.99313 2.98527 5.09111 2.98487C5.16155 2.98504 5.232 2.98526 5.30244 2.98553C5.49342 2.9861 5.6844 2.98588 5.87539 2.98549C6.07538 2.98517 6.27537 2.98546 6.47536 2.98566C6.8327 2.9859 7.19004 2.98551 7.54737 2.98488C7.87107 2.98432 8.19475 2.98442 8.51845 2.98499C8.89476 2.98566 9.27107 2.98591 9.64738 2.98554C9.84643 2.98535 10.0455 2.98532 10.2445 2.98573C10.4317 2.98609 10.6188 2.98584 10.8059 2.98512C10.8746 2.98496 10.9432 2.985 11.0118 2.98528C11.1056 2.98562 11.1994 2.98519 11.2932 2.98457C11.3338 2.98499 11.3338 2.98499 11.3752 2.98541C11.5565 2.98309 11.692 2.94379 11.8444 2.8437C11.9302 2.75112 11.9651 2.6467 11.9753 2.52155C11.9656 2.34253 11.9122 2.24632 11.7819 2.12495C11.637 2.04553 11.4936 2.05361 11.3329 2.0543C11.3033 2.05418 11.2737 2.05406 11.2432 2.05394C11.1439 2.05362 11.0446 2.05374 10.9454 2.05386C10.8742 2.05373 10.8031 2.05357 10.7319 2.05338C10.5386 2.05296 10.3453 2.05294 10.152 2.05302C9.9907 2.05306 9.8294 2.0529 9.66809 2.05275C9.26584 2.05239 8.8636 2.05241 8.46135 2.05261C8.11209 2.05278 7.76283 2.05242 7.41357 2.05183C7.05486 2.05122 6.69615 2.05098 6.33743 2.05108C6.13608 2.05114 5.93473 2.05106 5.73337 2.05062C5.54405 2.05023 5.35474 2.05029 5.16542 2.0507C5.0959 2.05077 5.02639 2.05069 4.95688 2.05043C4.86204 2.0501 4.76722 2.05036 4.67239 2.05075C4.64483 2.05052 4.61728 2.05029 4.58889 2.05005C4.39197 2.05179 4.25482 2.08413 4.11589 2.23432ZM2.09831 4.2519C2.02371 4.38037 2.01183 4.51101 2.03191 4.6562C2.11614 4.81564 2.20445 4.91163 2.37566 4.9687C2.43784 4.97166 2.50011 4.97273 2.56236 4.9728C2.62125 4.97298 2.62125 4.97298 2.68133 4.97317C2.72514 4.97314 2.76895 4.97312 2.81276 4.97308C2.85911 4.97317 2.90546 4.97326 2.95182 4.97337C3.07951 4.97362 3.2072 4.97367 3.3349 4.9737C3.47249 4.97376 3.61008 4.97399 3.74768 4.9742C4.04868 4.97463 4.34968 4.97481 4.65069 4.97495C4.83856 4.97504 5.02643 4.97517 5.2143 4.97531C5.73423 4.97569 6.25416 4.97601 6.77409 4.97612C6.80738 4.97613 6.84067 4.97613 6.87497 4.97614C6.90834 4.97615 6.94171 4.97615 6.97609 4.97616C7.04371 4.97618 7.11133 4.97619 7.17895 4.9762C7.21249 4.97621 7.24603 4.97622 7.28059 4.97622C7.82425 4.97635 8.36791 4.97689 8.91158 4.97762C9.46945 4.97836 10.0273 4.97875 10.5852 4.97879C10.8986 4.97882 11.2119 4.979 11.5252 4.97956C11.792 4.98004 12.0588 4.98021 12.3256 4.97995C12.4618 4.97982 12.5979 4.97986 12.7341 4.98029C12.8587 4.98069 12.9833 4.98065 13.108 4.98027C13.1531 4.98021 13.1982 4.98031 13.2433 4.98058C13.3046 4.98093 13.3659 4.98064 13.4272 4.98032C13.4612 4.98034 13.4953 4.98036 13.5303 4.98038C13.6825 4.96173 13.7832 4.90809 13.8854 4.79487C13.9749 4.66561 13.9853 4.56123 13.9694 4.4062C13.9157 4.25932 13.8486 4.1809 13.7194 4.0937C13.6183 4.06 13.5454 4.05843 13.439 4.05825C13.3802 4.05804 13.3802 4.05804 13.3201 4.05783C13.2763 4.05783 13.2325 4.05784 13.1888 4.05785C13.1424 4.05774 13.0961 4.05763 13.0498 4.0575C12.9221 4.05719 12.7945 4.05707 12.6669 4.05699C12.5293 4.05687 12.3918 4.05657 12.2543 4.05629C11.922 4.05568 11.5897 4.05536 11.2574 4.05508C11.101 4.05495 10.9446 4.05478 10.7882 4.05461C10.2684 4.05408 9.74863 4.05363 9.22884 4.0534C9.09392 4.05334 8.959 4.05328 8.82408 4.05322C8.79055 4.05321 8.75701 4.05319 8.72246 4.05318C8.17902 4.05292 7.63559 4.05212 7.09215 4.05111C6.53445 4.05008 5.97675 4.04951 5.41905 4.04941C5.10582 4.04935 4.7926 4.04907 4.47937 4.04827C4.21266 4.0476 3.94596 4.04734 3.67924 4.04765C3.54314 4.04779 3.40705 4.04773 3.27094 4.04712C3.14634 4.04658 3.02174 4.0466 2.89714 4.04709C2.85207 4.04717 2.807 4.04703 2.76193 4.04666C2.39052 4.04295 2.39052 4.04295 2.09831 4.2519ZM2.06316 6.31245C2.0243 6.42903 2.01559 6.53512 2.03191 6.6562C2.1081 6.80859 2.19785 6.88484 2.34441 6.9687C2.44091 6.98715 2.44091 6.98715 2.54363 6.98443C2.58329 6.98475 2.62295 6.98508 2.66382 6.98541C2.7076 6.98514 2.75138 6.98486 2.79516 6.98457C2.84185 6.98471 2.88854 6.98491 2.93523 6.98516C3.06343 6.98568 3.19161 6.98542 3.31981 6.98504C3.45811 6.98475 3.5964 6.98519 3.73469 6.98553C4.00557 6.98609 4.27645 6.98597 4.54732 6.98561C4.76745 6.98533 4.98758 6.98529 5.2077 6.98542C5.25468 6.98545 5.25468 6.98545 5.3026 6.98548C5.36622 6.98552 5.42984 6.98556 5.49345 6.9856C6.09014 6.98596 6.68683 6.98555 7.28352 6.98488C7.79563 6.98432 8.30773 6.98442 8.81984 6.98499C9.41438 6.98566 10.0089 6.98592 10.6035 6.98554C10.6668 6.9855 10.7302 6.98546 10.7936 6.98542C10.8404 6.98539 10.8404 6.98539 10.8881 6.98536C11.108 6.98526 11.3279 6.98544 11.5478 6.98573C11.8157 6.98608 12.0836 6.98599 12.3516 6.98532C12.4883 6.98499 12.625 6.98487 12.7618 6.98528C12.8869 6.98565 13.012 6.98545 13.1372 6.98478C13.1825 6.98464 13.2278 6.98471 13.2731 6.98502C13.3346 6.9854 13.3961 6.98493 13.4577 6.98443C13.509 6.9844 13.509 6.9844 13.5613 6.98436C13.7192 6.95849 13.816 6.87662 13.9186 6.75776C13.9794 6.63615 13.9947 6.53829 13.9694 6.4062C13.9256 6.28871 13.8678 6.20497 13.7663 6.12885C13.6328 6.06877 13.521 6.05851 13.3746 6.05834C13.3358 6.05822 13.2969 6.0581 13.2569 6.05798C13.2137 6.058 13.1705 6.05803 13.1272 6.05806C13.0814 6.05798 13.0356 6.05788 12.9897 6.05778C12.8636 6.05752 12.7375 6.05747 12.6113 6.05744C12.4753 6.05739 12.3394 6.05715 12.2034 6.05694C11.906 6.05652 11.6086 6.05633 11.3112 6.05619C11.1256 6.0561 10.9399 6.05597 10.7543 6.05583C10.2404 6.05545 9.72654 6.05513 9.21266 6.05502C9.16332 6.05501 9.16332 6.05501 9.11299 6.055C9.08002 6.05499 9.04704 6.05499 9.01307 6.05498C8.94626 6.05497 8.87944 6.05495 8.81263 6.05494C8.76292 6.05493 8.76292 6.05493 8.7122 6.05492C8.17502 6.05479 7.63785 6.05425 7.10068 6.05352C6.54934 6.05278 5.99799 6.05239 5.44665 6.05235C5.13702 6.05233 4.82739 6.05215 4.51777 6.05158C4.25415 6.0511 3.99053 6.05094 3.72691 6.0512C3.59239 6.05132 3.45787 6.05129 3.32335 6.05085C3.20019 6.05045 3.07704 6.05049 2.95388 6.05087C2.90934 6.05093 2.8648 6.05083 2.82026 6.05056C2.5008 6.04873 2.28161 6.05544 2.06316 6.31245ZM2.08269 9.77338C2.01106 9.91663 2.00278 10.0352 2.05144 10.1851C2.11245 10.3123 2.19396 10.3828 2.3229 10.4434C2.51295 10.5007 2.71687 10.486 2.91375 10.4849C2.96516 10.485 3.01656 10.4853 3.06797 10.4855C3.20704 10.4861 3.3461 10.4859 3.48518 10.4855C3.63097 10.4852 3.77675 10.4855 3.92254 10.4857C4.16729 10.4859 4.41204 10.4856 4.65679 10.485C4.9395 10.4843 5.2222 10.4845 5.50491 10.4852C5.74796 10.4858 5.99101 10.4859 6.23407 10.4855C6.37909 10.4853 6.52411 10.4853 6.66914 10.4857C6.80547 10.4861 6.9418 10.4858 7.07813 10.4851C7.12808 10.485 7.17803 10.485 7.22797 10.4853C7.57464 10.4942 7.57464 10.4942 7.87566 10.3437C7.97456 10.224 8.02871 10.1252 8.03191 9.9687C7.9806 9.80624 7.91151 9.70386 7.78191 9.5937C7.6737 9.55763 7.58948 9.55824 7.47527 9.55785C7.4535 9.55773 7.43174 9.55762 7.40931 9.5575C7.33619 9.55715 7.26307 9.55703 7.18995 9.55691C7.13759 9.55672 7.08524 9.55651 7.03288 9.55629C6.89051 9.55575 6.74814 9.55542 6.60577 9.55516C6.51683 9.555 6.4279 9.55481 6.33896 9.55461C6.06075 9.55402 5.78254 9.55357 5.50432 9.55331C5.18309 9.55301 4.86186 9.55219 4.54063 9.55092C4.29238 9.54998 4.04413 9.54952 3.79588 9.54941C3.64758 9.54934 3.4993 9.54906 3.35101 9.54827C3.21149 9.54755 3.07199 9.54741 2.93248 9.54774C2.88131 9.54775 2.83014 9.54755 2.77897 9.54712C2.70903 9.54657 2.63913 9.54679 2.56919 9.5472C2.53008 9.54713 2.49097 9.54706 2.45067 9.54698C2.28529 9.57105 2.19002 9.6491 2.08269 9.77338Z" fill="#656565"/>
<path d="M13.2413 9.41458C13.6414 9.73273 13.9082 10.1826 14 10.6875C14.0588 11.2913 13.9302 11.8156 13.5586 12.3007C13.2169 12.7021 12.746 12.9613 12.2179 13.0052C11.624 13.0379 11.0977 12.8802 10.6417 12.4847C10.236 12.0827 10.0252 11.5896 10.0176 11.0214C10.0211 10.4707 10.2178 9.99701 10.5938 9.5937C10.8177 9.37743 11.0541 9.23681 11.3438 9.12495C11.3829 9.109 11.3829 9.109 11.4229 9.09273C12.0287 8.88568 12.7368 9.04317 13.2413 9.41458Z" fill="#656565"/>
<path d="M10.031 13.125C10.0479 13.1378 10.0648 13.1505 10.0822 13.1637C10.1045 13.1805 10.1269 13.1973 10.1498 13.2146C10.183 13.2395 10.183 13.2395 10.2167 13.265C10.8626 13.7425 11.6217 13.9706 12.4212 13.8647C12.9662 13.7745 13.5225 13.5496 13.9261 13.1641C13.9685 13.125 13.9685 13.125 13.9997 13.125C14.0026 13.4559 14.0048 13.7867 14.0062 14.1176C14.0068 14.2713 14.0077 14.4249 14.0091 14.5785C14.0105 14.7269 14.0113 14.8752 14.0116 15.0235C14.0118 15.08 14.0123 15.1366 14.0129 15.1931C14.0138 15.2724 14.014 15.3517 14.0139 15.431C14.0144 15.4543 14.0148 15.4776 14.0153 15.5016C14.0138 15.6902 13.9457 15.7927 13.8259 15.9316C13.7194 16.0196 13.5792 16.0222 13.4469 16.0198C13.2188 15.9762 13.0305 15.8184 12.8435 15.6875C12.7233 15.6038 12.603 15.5204 12.4824 15.4372C12.4299 15.4007 12.3777 15.3637 12.3256 15.3266C12.2933 15.3041 12.261 15.2816 12.2277 15.2584C12.1989 15.238 12.17 15.2176 12.1402 15.1965C12.0678 15.1496 12.0678 15.1496 12.0025 15.1647C11.9316 15.1895 11.8775 15.2207 11.815 15.2623C11.7914 15.2778 11.7679 15.2933 11.7436 15.3094C11.7185 15.3262 11.6933 15.343 11.6674 15.3604C11.6284 15.3862 11.6284 15.3862 11.5886 15.4125C11.5054 15.4676 11.4225 15.5228 11.3396 15.5781C11.2564 15.6334 11.1731 15.6885 11.0899 15.7437C11.0381 15.778 10.9864 15.8124 10.9346 15.8469C10.9113 15.8624 10.8879 15.878 10.8638 15.894C10.833 15.9146 10.833 15.9146 10.8015 15.9355C10.6583 16.0274 10.5093 16.0132 10.3435 16C10.1955 15.9402 10.102 15.8296 10.031 15.6875C10.0281 15.6064 10.027 15.5262 10.0274 15.4452C10.0274 15.4202 10.0274 15.3952 10.0274 15.3694C10.0274 15.2866 10.0277 15.2037 10.0279 15.1208C10.028 15.0635 10.028 15.0061 10.0281 14.9488C10.0282 14.7976 10.0285 14.6465 10.0288 14.4953C10.0291 14.3412 10.0293 14.187 10.0294 14.0328C10.0298 13.7302 10.0303 13.4276 10.031 13.125Z" fill="#656565"/>
</g>
<defs>
<clipPath id="clip0_6003_2464">
<rect width="16" height="16" fill="white"/>
</clipPath>
</defs>
</svg>
