<svg width="64" height="15" viewBox="0 0 64 15" fill="none" xmlns="http://www.w3.org/2000/svg">
<path d="M56.3679 0.44395C57.7524 1.25021 58.5627 2.4953 59.2543 3.85542C59.3286 3.99747 59.4029 4.13952 59.4794 4.28588C59.7143 4.73614 59.9461 5.18773 60.178 5.63939C60.3323 5.93577 60.4868 6.23205 60.6414 6.52825C61.0206 7.2561 61.3941 7.98642 61.7656 8.71783C61.9825 9.14157 62.2038 9.56299 62.4259 9.98432C62.5625 10.249 62.6989 10.5137 62.8353 10.7785C62.956 11.0095 63.0768 11.2404 63.2012 11.4784C63.4888 12.222 63.5354 12.7653 63.4607 13.5515C63.0536 14.0955 62.7557 14.302 62.1028 14.5405C61.3726 14.5574 61.0918 14.3653 60.5075 13.9521C60.1392 13.3966 60.1392 13.3966 59.7825 12.6751C59.7148 12.5413 59.6471 12.4074 59.5774 12.2695C59.4183 11.9539 59.2606 11.6377 59.1039 11.321C58.575 10.2519 58.0384 9.18631 57.5006 8.1212C57.3071 7.73639 57.1155 7.35074 56.9241 6.96495C56.023 5.15993 56.023 5.15993 54.8122 3.53618C54.1794 3.28579 54.1794 3.28579 53.5466 3.53618C52.5864 4.65471 51.9475 6.08618 51.2658 7.36703C51.1599 7.55992 51.054 7.7528 50.9449 7.95152C50.845 8.13924 50.745 8.32695 50.6421 8.52036C50.5516 8.68849 50.4611 8.85661 50.3679 9.02983C50.134 9.64402 50.0921 10.0991 50.1716 10.7472C50.7492 11.1946 50.7492 11.1946 51.3202 11.1416C52.0651 10.8733 52.2604 10.4819 52.6765 9.84582C53.452 8.78067 53.452 8.78067 54.3244 8.44368C55.0232 8.54383 55.0232 8.54383 55.656 8.93193C56.1168 9.60198 56.1704 9.94435 56.0004 10.7253C55.5189 12.2492 54.7086 13.2288 53.3357 14.1524C51.7956 14.6399 50.2051 14.4455 48.7436 13.8167C47.6784 13.2162 47.1526 12.4879 46.6911 11.4107C46.3027 9.45129 47.1935 7.53614 48.1018 5.82718C48.2066 5.62644 48.3114 5.4257 48.4194 5.21888C48.7171 4.65532 49.0207 4.09516 49.3278 3.53618C49.4001 3.40268 49.4724 3.26919 49.5468 3.13165C50.9269 0.63402 53.4396 -0.771277 56.3679 0.44395Z" fill="#3221FF"/>
<path d="M25.3316 0.261128C25.6928 0.257812 26.0539 0.252348 26.415 0.244696C26.9352 0.233724 27.455 0.229344 27.9753 0.226407C28.217 0.219595 28.217 0.219595 28.4635 0.212646C29.2743 0.215706 29.6351 0.264783 30.2418 0.793191C30.5552 1.33279 30.5552 1.33279 30.5552 2.0589C30.3186 2.8173 30.2024 2.95306 29.5005 3.33585C28.9594 3.40407 28.9594 3.40407 28.3568 3.39453C28.0326 3.39163 28.0326 3.39163 27.7018 3.38866C27.4774 3.38363 27.2531 3.37859 27.022 3.37341C26.6806 3.36934 26.6806 3.36934 26.3323 3.36519C25.7711 3.35812 25.21 3.34734 24.6489 3.33585C24.6489 4.32736 24.6489 5.31888 24.6489 6.34044C25.0361 6.30326 25.4233 6.26608 25.8223 6.22777C26.65 6.22033 27.0347 6.22495 27.677 6.7348C28.6567 7.9471 28.6567 7.9471 28.6567 8.3435C27.3342 8.3435 26.0116 8.3435 24.6489 8.3435C24.6489 9.33502 24.6489 10.3265 24.6489 11.3481C24.9717 11.3411 25.2944 11.3342 25.627 11.327C26.0524 11.3213 26.4779 11.3159 26.9033 11.3105C27.2221 11.303 27.2221 11.303 27.5473 11.2953C29.574 11.2762 29.574 11.2762 30.3443 11.949C30.5431 12.6415 30.627 13.1217 30.4102 13.8144C30.0617 14.2398 29.8212 14.3572 29.2896 14.553C28.3577 14.6285 27.4249 14.619 26.4901 14.6162C26.0354 14.6156 25.581 14.6203 25.1264 14.6254C24.8357 14.6258 24.545 14.626 24.2542 14.6258C23.9912 14.6264 23.7281 14.627 23.4571 14.6276C22.6918 14.5468 22.3035 14.3929 21.6958 13.9521C21.2153 13.2676 21.2198 13.0185 21.216 12.214C21.214 11.9806 21.212 11.7473 21.2099 11.5069C21.2101 11.2547 21.2103 11.0024 21.2105 10.7425C21.2096 10.4834 21.2087 10.2243 21.2077 9.95737C21.2062 9.40878 21.2062 8.86021 21.2073 8.31162C21.2086 7.61 21.205 6.90848 21.2001 6.20687C21.1962 5.53623 21.197 4.86562 21.1973 4.19497C21.1944 3.8178 21.1944 3.8178 21.1914 3.433C21.1927 3.19841 21.194 2.96382 21.1954 2.72212C21.1953 2.51621 21.1951 2.3103 21.195 2.09815C21.5124 -0.173984 23.4474 0.273819 25.3316 0.261128Z" fill="#1F1F1F"/>
<path d="M8.03648 0.168457C9.27325 0.422919 9.77024 1.20507 10.515 2.13396C10.7401 2.41283 10.7401 2.41283 10.9698 2.69732C11.2891 3.09866 11.6059 3.5017 11.9207 3.9062C12.4117 4.5354 12.9116 5.15701 13.4154 5.77703C14.2614 6.81866 15.1049 7.86206 15.9467 8.90682C16.0586 9.04565 16.1706 9.18449 16.2859 9.32753C16.5038 9.59804 16.7212 9.86894 16.9379 10.1402C17.1644 10.4217 17.3935 10.7013 17.6246 10.9792C17.7395 11.1193 17.8544 11.2593 17.9728 11.4036C18.077 11.5288 18.1812 11.654 18.2885 11.783C18.6884 12.388 18.6557 12.8652 18.5306 13.5514C18.2933 14.0271 18.2933 14.0271 17.8978 14.3526C17.171 14.5777 16.8072 14.6333 16.1123 14.3143C15.5245 13.9161 15.2063 13.5401 14.7997 12.9755C14.1685 12.1204 13.5231 11.2835 12.8485 10.4592C11.8443 9.23075 10.863 7.98633 9.88219 6.74101C9.88022 6.936 9.87824 7.131 9.87621 7.3319C9.86778 8.05807 9.8539 8.78407 9.83841 9.51013C9.83247 9.82387 9.82799 10.1376 9.82502 10.4514C9.82049 10.9035 9.81064 11.3553 9.79979 11.8073C9.7994 12.0165 9.7994 12.0165 9.799 12.2298C9.76893 13.186 9.54421 13.6828 8.8275 14.3526C8.31334 14.5529 8.31334 14.5529 7.77281 14.5529C7.2912 14.3243 6.88895 14.1143 6.50718 13.7517C6.48292 13.3627 6.4735 12.9729 6.46984 12.5833C6.46714 12.3332 6.46443 12.0832 6.46164 11.8256C6.45992 11.5503 6.45835 11.2751 6.45692 10.9999C6.45606 10.8618 6.4552 10.7238 6.45431 10.5816C6.44991 9.85073 6.44689 9.11992 6.44492 8.38908C6.44259 7.63397 6.43533 6.87898 6.42695 6.12391C6.42144 5.54361 6.41967 4.96333 6.41891 4.38301C6.41789 4.10469 6.41543 3.82636 6.41152 3.54806C6.40639 3.15828 6.40709 2.76844 6.40805 2.37862C6.40681 2.15683 6.40557 1.93503 6.4043 1.70651C6.57642 0.74607 7.06832 0.398298 8.03648 0.168457Z" fill="#1F1F1F"/>
<path d="M34.4439 0.206055C35.9237 0.452591 36.7709 1.92465 37.6672 2.99156C38.1511 3.53915 38.6636 4.03972 39.2031 4.53768C39.2893 4.4316 39.3754 4.32553 39.4642 4.21624C39.8557 3.73464 40.2479 3.25356 40.6402 2.77248C40.7757 2.60555 40.9112 2.43862 41.0509 2.26663C41.2477 2.02553 41.2477 2.02553 41.4485 1.77955C41.5689 1.63165 41.6893 1.48375 41.8133 1.33136C42.659 0.34697 42.659 0.34697 43.5142 0.243612C44.2656 0.331246 44.2656 0.331246 44.7798 0.644225C45.2524 1.34424 45.2249 1.70739 45.1094 2.53461C44.7055 3.19979 44.2032 3.77433 43.6856 4.36241C43.5518 4.51966 43.418 4.67691 43.2802 4.83892C42.9084 5.27501 42.5327 5.70768 42.1563 6.14013C41.8744 6.47347 41.5927 6.80703 41.3125 7.14166C41.5909 7.70363 41.903 8.18676 42.2996 8.67995C42.4087 8.81654 42.5177 8.95313 42.6301 9.09386C42.7434 9.23458 42.8568 9.37531 42.9737 9.5203C45.0788 12.1419 45.0788 12.1419 45.2017 12.9756C45.0962 13.6337 44.9978 13.9072 44.4766 14.3527C43.7952 14.5637 43.4027 14.6278 42.7339 14.3668C41.8748 13.75 41.3192 12.9618 40.6929 12.1368C40.4103 11.7714 40.1274 11.4063 39.8442 11.0414C39.7018 10.8573 39.5594 10.6732 39.4126 10.4835C38.7906 9.68816 38.1472 8.90943 37.5024 8.13067C36.4557 6.85652 35.4151 5.57807 34.3911 4.28729C34.2634 4.12977 34.1358 3.97225 34.0042 3.80995C33.3703 3.00353 32.8832 2.37902 32.875 1.33278C33.3012 0.557015 33.531 0.363663 34.4439 0.206055Z" fill="#1F1F1F"/>
<path d="M1.93359 0.28125C2.76258 0.33462 2.99237 0.377335 3.55518 0.932245C3.6609 1.48715 3.6609 1.48715 3.66101 2.16773C3.66299 2.4224 3.66497 2.67707 3.667 2.93946C3.66479 3.21767 3.6624 3.49588 3.65982 3.77409C3.65986 4.05921 3.66017 4.34433 3.66075 4.62945C3.66105 5.2269 3.6584 5.82426 3.65359 6.42169C3.6476 7.18759 3.64818 7.95332 3.65087 8.71922C3.65234 9.30795 3.65069 9.89664 3.64807 10.4854C3.64712 10.7678 3.64705 11.0501 3.64788 11.3325C3.64849 11.7272 3.64455 12.1218 3.64041 12.5164C3.63927 12.741 3.63813 12.9655 3.63696 13.1969C3.55518 13.7518 3.55518 13.7518 3.26476 14.1186C2.78711 14.4453 2.45644 14.5264 1.86768 14.5531C1.13227 14.2283 0.846099 13.9993 0.39111 13.3512C0.33612 12.8371 0.33612 12.8371 0.333175 12.214C0.331164 11.9807 0.329153 11.7474 0.327082 11.507C0.327274 11.2547 0.327466 11.0025 0.327664 10.7426C0.32676 10.4835 0.325857 10.2244 0.324925 9.95744C0.323351 9.40885 0.323412 8.86028 0.324523 8.31169C0.325744 7.61007 0.322177 6.90855 0.317278 6.20694C0.313415 5.53631 0.314209 4.86569 0.314481 4.19505C0.311567 3.81787 0.311567 3.81787 0.308594 3.43307C0.309908 3.19848 0.311222 2.96389 0.312575 2.72219C0.312442 2.51628 0.31231 2.31037 0.312173 2.09822C0.454672 1.07817 0.839454 0.359665 1.93359 0.28125Z" fill="#1F1F1F"/>
<path d="M16.9502 0.218506C17.8174 0.35085 18.0167 0.470706 18.5322 1.1324C18.606 1.66957 18.6312 2.12179 18.6146 2.65661C18.6134 2.80219 18.6122 2.94778 18.611 3.09777C18.6063 3.56116 18.5957 4.02424 18.585 4.48753C18.5807 4.80233 18.5769 5.11714 18.5734 5.43195C18.5641 6.20225 18.5496 6.97233 18.5322 7.74251C15.2343 4.62454 15.2343 4.62454 15.1836 2.6347C15.2344 1.39634 15.5557 0.431318 16.9502 0.218506Z" fill="#1F1F1F"/>
<path d="M34.9844 9.74561C35.6279 9.80915 35.8084 9.92368 36.2335 10.4036C36.3608 10.5872 36.488 10.7708 36.6191 10.96C36.7486 11.1441 36.878 11.3282 37.0114 11.5178C37.1082 11.6601 37.205 11.8024 37.3047 11.949C36.7339 13.033 36.1128 13.9324 34.9844 14.553C34.312 14.5905 34.312 14.5905 33.7188 14.3526C33.2046 13.9145 33.2046 13.9145 32.875 13.3511C32.9215 12.3057 33.3776 11.6625 34.0483 10.8723C34.1379 10.7631 34.2275 10.6539 34.3198 10.5414C34.5392 10.2745 34.7615 10.0098 34.9844 9.74561Z" fill="#1F1F1F"/>
</svg>
