<svg width="16" height="16" viewBox="0 0 16 16" fill="none" xmlns="http://www.w3.org/2000/svg">
<path d="M13.3234 4.74607C13.3619 4.77777 13.3996 4.81041 13.4367 4.84373C13.4616 4.8654 13.4865 4.88708 13.5122 4.9094C13.9251 5.2924 14.1557 5.82394 14.1937 6.38365C14.2084 6.95363 14.0413 7.50814 13.6555 7.93748C13.6338 7.96238 13.6121 7.98727 13.5898 8.01292C13.2992 8.32627 12.9604 8.48688 12.5617 8.62498C12.5809 8.62857 12.6 8.63216 12.6198 8.63585C13.3346 8.77265 13.9024 8.98824 14.4367 9.49998C14.4724 9.53219 14.4724 9.53219 14.5089 9.56504C15.0075 10.0309 15.3247 10.7609 15.3491 11.4403C15.3525 11.5924 15.3525 11.7446 15.3524 11.8967C15.3525 11.953 15.3526 12.0093 15.3528 12.0656C15.353 12.183 15.353 12.3004 15.3528 12.4178C15.3527 12.5676 15.3532 12.7175 15.3539 12.8674C15.3544 12.9834 15.3544 13.0994 15.3543 13.2155C15.3543 13.2707 15.3545 13.3259 15.3548 13.3812C15.3567 13.7589 15.3477 14.0683 15.0957 14.3725C14.7805 14.6865 14.4096 14.6968 13.9913 14.6961C13.9431 14.6962 13.895 14.6964 13.8468 14.6965C13.7165 14.697 13.5862 14.697 13.4559 14.6969C13.3469 14.6969 13.2378 14.697 13.1288 14.6972C12.8715 14.6975 12.6141 14.6975 12.3568 14.6973C12.0918 14.6972 11.8269 14.6975 11.562 14.6982C11.334 14.6988 11.106 14.6989 10.8781 14.6988C10.7421 14.6988 10.6062 14.6989 10.4703 14.6993C10.3424 14.6997 10.2145 14.6996 10.0866 14.6992C10.0399 14.6992 9.99314 14.6992 9.9464 14.6995C9.56253 14.7015 9.23812 14.6614 8.93673 14.4062C8.63057 14.0894 8.64137 13.7165 8.64302 13.3034C8.64296 13.2475 8.64287 13.1916 8.64275 13.1357C8.64261 13.0187 8.64281 12.9017 8.64325 12.7847C8.64378 12.636 8.64348 12.4874 8.64292 12.3387C8.64258 12.2232 8.64269 12.1077 8.64293 11.9922C8.64299 11.9375 8.64292 11.8827 8.6427 11.828C8.6401 11.0036 8.85666 10.2113 9.44893 9.61265C9.47584 9.58578 9.50275 9.55891 9.53048 9.53123C9.56117 9.49721 9.56117 9.49721 9.59249 9.46251C10.0686 8.94468 10.7682 8.74704 11.4367 8.62498C11.4159 8.61813 11.3951 8.61128 11.3736 8.60423C11.0026 8.47658 10.7153 8.30889 10.4367 8.03123C10.4149 8.01008 10.393 7.98893 10.3704 7.96714C10.0992 7.68642 9.91719 7.31946 9.84298 6.93748C9.83234 6.88624 9.83234 6.88624 9.82149 6.83397C9.76864 6.21027 9.88553 5.61251 10.291 5.12034C10.3081 5.10125 10.3253 5.08215 10.343 5.06248C10.3646 5.03759 10.3863 5.01269 10.4086 4.98704C11.1745 4.16133 12.4256 4.11201 13.3234 4.74607Z" fill="#656565"/>
<path d="M2.54717 1.30429C2.58546 1.30418 2.62374 1.30406 2.66319 1.30393C2.76865 1.30367 2.87411 1.30368 2.97957 1.30381C3.09362 1.30389 3.20767 1.30361 3.32173 1.30337C3.54486 1.30298 3.76799 1.30292 3.99112 1.30299C4.17256 1.30305 4.35401 1.30299 4.53546 1.30286C4.56133 1.30284 4.58719 1.30282 4.61385 1.3028C4.66641 1.30277 4.71896 1.30273 4.77152 1.30269C5.26393 1.30235 5.75633 1.30242 6.24874 1.30261C6.6987 1.30277 7.14865 1.30242 7.59861 1.30183C8.06122 1.30122 8.52383 1.30096 8.98645 1.30108C9.24593 1.30114 9.50541 1.30106 9.76489 1.30062C9.98579 1.30025 10.2067 1.3002 10.4276 1.30058C10.5402 1.30076 10.6527 1.3008 10.7653 1.30042C10.8876 1.30002 11.01 1.30035 11.1323 1.30075C11.1675 1.30052 11.2026 1.30029 11.2389 1.30005C11.7218 1.30332 12.1754 1.45118 12.5293 1.78705C12.6856 1.95511 12.8124 2.13383 12.9062 2.34369C12.9149 2.36318 12.9236 2.38267 12.9326 2.40274C13.0379 2.68443 13.0101 2.98936 13.0058 3.2851C13.0053 3.34239 13.0049 3.39968 13.0045 3.45697C13.0035 3.59631 13.0019 3.73562 13 3.87494C12.9543 3.86209 12.9543 3.86209 12.9078 3.84897C12.6847 3.78713 12.4675 3.73176 12.2363 3.71088C12.2014 3.70725 12.2014 3.70725 12.1659 3.70355C12.1106 3.69785 12.0553 3.69259 12 3.68744C11.9993 3.66809 11.9987 3.64873 11.9981 3.62879C11.9951 3.53961 11.9917 3.45044 11.9882 3.36127C11.9868 3.31562 11.9868 3.31562 11.9853 3.26905C11.9763 2.89921 11.9763 2.89921 11.8085 2.58197C11.7917 2.5624 11.7749 2.54282 11.7575 2.52265C11.5451 2.3591 11.3159 2.36145 11.0593 2.36283C11.0216 2.36266 10.984 2.36249 10.9452 2.36232C10.8412 2.36195 10.7372 2.362 10.6332 2.36223C10.5208 2.36238 10.4084 2.36198 10.2961 2.36167C10.0761 2.36113 9.85621 2.3611 9.63627 2.36127C9.45748 2.36139 9.27868 2.36135 9.09988 2.36118C9.07441 2.36116 9.04894 2.36113 9.0227 2.36111C8.97095 2.36106 8.91921 2.36101 8.86746 2.36096C8.38246 2.36054 7.89747 2.36071 7.41248 2.36106C6.96902 2.36137 6.52556 2.36097 6.0821 2.36022C5.62645 2.35946 5.1708 2.35916 4.71515 2.35937C4.45945 2.35948 4.20377 2.35941 3.94807 2.35886C3.73042 2.3584 3.51277 2.35838 3.29512 2.35892C3.18413 2.35919 3.07316 2.35926 2.96217 2.35878C2.84172 2.35827 2.72128 2.35873 2.60082 2.35928C2.56594 2.35898 2.53106 2.35868 2.49513 2.35837C2.26997 2.36049 2.06201 2.38898 1.88793 2.54406C1.73861 2.71247 1.70941 2.86897 1.71035 3.0874C1.7102 3.11173 1.71006 3.13606 1.70992 3.16113C1.70952 3.24254 1.70957 3.32396 1.70962 3.40538C1.70944 3.4638 1.70922 3.52222 1.70899 3.58064C1.70844 3.73928 1.70829 3.89792 1.70825 4.05657C1.70821 4.15571 1.70807 4.25485 1.70791 4.35399C1.70733 4.69995 1.70707 5.04591 1.70712 5.39187C1.70716 5.71422 1.7065 6.03655 1.70551 6.3589C1.7047 6.63576 1.70436 6.91262 1.7044 7.18948C1.70442 7.35479 1.70424 7.52009 1.70358 7.6854C1.70297 7.84091 1.70297 7.99642 1.70342 8.15194C1.70349 8.20893 1.70334 8.26592 1.70296 8.32291C1.70248 8.4009 1.70277 8.47885 1.70325 8.55683C1.70293 8.57922 1.70261 8.60161 1.70228 8.62468C1.70479 8.81016 1.76158 8.97321 1.88782 9.11038C2.06705 9.26792 2.22729 9.29044 2.45894 9.28989C2.48625 9.29007 2.51357 9.29026 2.54171 9.29044C2.63321 9.29097 2.72471 9.29106 2.81621 9.29116C2.88182 9.29145 2.94742 9.29176 3.01302 9.29211C3.19114 9.29296 3.36926 9.29343 3.54739 9.29384C3.73353 9.29433 3.91966 9.29516 4.1058 9.29596C4.45829 9.29743 4.81079 9.29858 5.16328 9.29961C5.56458 9.3008 5.96588 9.30235 6.36717 9.30392C7.19268 9.30715 8.01819 9.30994 8.8437 9.31244C8.80104 9.42349 8.7558 9.50885 8.68355 9.60346C8.13904 10.3698 8.03264 11.231 8.02132 12.1463C8.02067 12.1912 8.02001 12.236 8.01935 12.2809C8.01765 12.3973 8.01609 12.5136 8.01457 12.63C8.01298 12.7494 8.01125 12.8689 8.00954 12.9883C8.00621 13.2213 8.00303 13.4544 7.99995 13.6874C7.26571 13.6896 6.53147 13.6913 5.79722 13.6923C5.4563 13.6928 5.11538 13.6934 4.77446 13.6945C4.47733 13.6954 4.1802 13.6961 3.88306 13.6963C3.72572 13.6964 3.56838 13.6967 3.41104 13.6974C3.26294 13.698 3.11485 13.6982 2.96674 13.698C2.9124 13.6981 2.85805 13.6983 2.80371 13.6986C2.72946 13.6991 2.65523 13.699 2.58098 13.6987C2.55952 13.699 2.53806 13.6993 2.51595 13.6995C2.32947 13.6978 2.21089 13.6365 2.06636 13.5234C1.94139 13.3616 1.9784 13.1283 1.99995 12.9374C2.0836 12.6126 2.29334 12.3134 2.58125 12.1379C2.77547 12.0388 2.92188 11.996 3.14097 11.9964C3.17118 11.9964 3.17118 11.9964 3.20199 11.9964C3.26827 11.9964 3.33455 11.9966 3.40083 11.9969C3.4469 11.9969 3.49296 11.997 3.53902 11.997C3.66006 11.9971 3.7811 11.9974 3.90213 11.9978C4.02572 11.9981 4.14931 11.9983 4.2729 11.9984C4.51525 11.9988 4.7576 11.9993 4.99995 11.9999C4.99995 11.7834 4.99995 11.5668 4.99995 11.3437C4.86967 11.3447 4.86967 11.3447 4.73675 11.3457C4.4485 11.3478 4.16025 11.3491 3.87199 11.3502C3.69737 11.3508 3.52276 11.3517 3.34814 11.3531C3.17935 11.3545 3.01057 11.3552 2.84178 11.3556C2.77766 11.3558 2.71354 11.3562 2.64942 11.3569C2.29606 11.3605 1.98709 11.3566 1.6562 11.2187C1.63201 11.2087 1.60781 11.1986 1.58289 11.1883C1.18831 11.0143 0.906169 10.6795 0.749953 10.2831C0.672457 10.066 0.651587 9.87695 0.651815 9.64831C0.651675 9.60448 0.651675 9.60448 0.651533 9.55977C0.651262 9.4618 0.651215 9.36383 0.651168 9.26586C0.651023 9.19564 0.650866 9.12541 0.650698 9.05518C0.650288 8.86432 0.650086 8.67345 0.649948 8.48258C0.649856 8.36328 0.649728 8.24397 0.649588 8.12466C0.64921 7.79399 0.648885 7.46331 0.648779 7.13264C0.648773 7.11149 0.648766 7.09033 0.648759 7.06854C0.648752 7.04734 0.648745 7.02614 0.648738 7.0043C0.648724 6.96134 0.64871 6.91838 0.648696 6.87542C0.648689 6.85411 0.648682 6.83281 0.648675 6.81085C0.648552 6.46596 0.648007 6.12108 0.647279 5.77619C0.646536 5.42164 0.646156 5.06709 0.646112 4.71254C0.646079 4.51367 0.645895 4.31479 0.645336 4.11591C0.64482 3.92869 0.644754 3.74148 0.645028 3.55426C0.645052 3.48573 0.644917 3.4172 0.644607 3.34868C0.642003 2.73624 0.704291 2.25333 1.14314 1.79022C1.54756 1.40737 2.00463 1.30248 2.54717 1.30429ZM6.42378 10.0546C6.34337 10.2219 6.3252 10.342 6.37691 10.5214C6.46206 10.667 6.55497 10.7579 6.7187 10.8124C6.88419 10.8262 6.99839 10.8207 7.13924 10.7288C7.24239 10.6403 7.30037 10.5397 7.3232 10.4056C7.32999 10.2576 7.30005 10.1532 7.2187 10.0312C7.09675 9.90053 7.00174 9.84789 6.8221 9.83759C6.65052 9.8521 6.53599 9.92804 6.42378 10.0546Z" fill="#656565"/>
<path d="M7.5 3.12505C7.52715 3.13902 7.5543 3.153 7.58228 3.1674C7.94467 3.36915 8.18308 3.67299 8.31055 4.07036C8.41246 4.51241 8.35082 4.94441 8.12109 5.33598C7.90049 5.65707 7.63716 5.82654 7.28125 5.9688C7.33509 5.97284 7.33509 5.97284 7.39001 5.97697C7.85019 6.0165 8.21408 6.13423 8.59375 6.4063C8.61393 6.42068 8.63411 6.43506 8.65491 6.44988C9.05847 6.76598 9.23289 7.23841 9.34375 7.7188C9.34375 8.03848 9.34375 8.35817 9.34375 8.68755C7.68344 8.68755 6.02313 8.68755 4.3125 8.68755C4.3125 7.47635 4.3125 7.47635 4.51953 7.08598C4.53031 7.06512 4.54108 7.04426 4.55219 7.02276C4.65428 6.83322 4.78188 6.68 4.9375 6.5313C4.95663 6.51156 4.97577 6.49182 4.99548 6.47148C5.37793 6.10127 5.89255 5.99054 6.40625 5.9688C6.38281 5.96042 6.35936 5.95204 6.33521 5.94341C5.90619 5.77915 5.6254 5.52306 5.42773 5.10747C5.27169 4.72438 5.26835 4.32801 5.40625 3.93755C5.58685 3.53478 5.8482 3.25102 6.26172 3.08208C6.64437 2.93874 7.13542 2.932 7.5 3.12505Z" fill="#656565"/>
</svg>
