<svg width="60" height="41" viewBox="0 0 60 41" fill="none" xmlns="http://www.w3.org/2000/svg">
<path d="M23.7621 0.0264878C23.9011 0.0302977 23.9011 0.0302977 24.0429 0.0341845C24.7287 0.0535692 25.4139 0.0801223 26.0993 0.108079C26.3161 0.116701 26.533 0.125308 26.7499 0.133901C27.2001 0.151848 27.6502 0.170129 28.1004 0.18863C28.6742 0.212164 29.248 0.234604 29.8219 0.256768C30.2681 0.274163 30.7142 0.292258 31.1604 0.310546C31.3719 0.319114 31.5835 0.327442 31.7951 0.335514C33.3485 0.395194 34.7316 0.549694 36.2022 0.974685C36.3202 1.00821 36.4383 1.04174 36.56 1.07628C36.9463 1.18619 37.3322 1.29707 37.718 1.40799C37.9916 1.48608 38.2652 1.56412 38.5388 1.64212C40.517 2.20691 42.4922 2.7788 44.4661 3.35347C46.8063 4.03465 49.1502 4.70704 51.4945 5.37859C51.7575 5.45408 52.0205 5.52977 52.2834 5.60569C52.8202 5.76062 53.3569 5.91436 53.8986 6.05773C54.1316 6.12074 54.1316 6.12074 54.3694 6.18502C54.497 6.21813 54.6245 6.25123 54.756 6.28535C55.3755 6.53537 55.6354 6.98573 55.9134 7.48136C56.007 7.64678 56.007 7.64678 56.1025 7.81555C56.1686 7.93452 56.2346 8.05349 56.3027 8.17607C56.4089 8.36698 56.5152 8.55787 56.6215 8.74874C56.6956 8.88188 56.7696 9.01506 56.8435 9.14828C57.0705 9.55601 57.3054 9.95987 57.5475 10.3618C58.4579 11.8738 59.1354 13.2222 59.2625 14.9246C59.3072 15.4581 59.384 15.9888 59.4567 16.5201C59.4862 16.7376 59.5156 16.9552 59.5451 17.1727C59.5598 17.2821 59.5746 17.3915 59.5899 17.5042C59.6046 17.613 59.6193 17.7218 59.6344 17.8339C59.6559 17.9934 59.6559 17.9934 59.6779 18.1561C60.1104 21.3981 60.1104 21.3981 59.6592 21.9372C59.5408 22.001 59.4224 22.0648 59.3004 22.1305C59.1808 22.2047 59.0611 22.279 58.9379 22.3555C58.8038 22.4318 58.6697 22.5081 58.5316 22.5868C58.3773 22.6753 58.2232 22.7639 58.069 22.8525C57.9462 22.9229 57.9462 22.9229 57.8209 22.9947C57.3538 23.2636 56.8904 23.5368 56.4269 23.8098C56.3396 23.8611 56.2523 23.9123 56.1623 23.9651C55.9822 24.0711 55.8037 24.1792 55.6269 24.2889C55.3241 24.4626 55.3241 24.4626 54.9408 24.627C54.2412 24.9614 53.8492 25.2184 53.6407 25.8596C53.4939 26.4476 53.4134 27.0412 53.336 27.6375C53.291 27.9456 53.2442 28.2535 53.1952 28.5613C53.1654 28.7518 53.1382 28.9426 53.1139 29.1337C53.1013 29.2201 53.0887 29.3064 53.0758 29.3954C53.0659 29.471 53.0561 29.5466 53.0459 29.6245C52.9296 29.9225 52.7674 30.0506 52.4662 30.2421C52.125 30.3216 52.125 30.3216 51.7293 30.3626C51.5808 30.3788 51.4324 30.395 51.2795 30.4117C51.1198 30.4273 50.96 30.443 50.7954 30.4591C50.6296 30.4766 50.4637 30.4942 50.2979 30.5119C49.8623 30.5581 49.4264 30.6022 48.9904 30.6459C48.5462 30.6908 48.1023 30.7379 47.6584 30.7847C47.0108 30.8526 46.3632 30.9197 45.7153 30.9852C45.5849 30.9984 45.4545 31.0116 45.3201 31.0251C45.0106 31.0532 45.0106 31.0532 44.762 31.0532C44.7633 31.2272 44.7633 31.2272 44.7645 31.4046C44.7721 32.4967 44.7777 33.5888 44.7813 34.681C44.7833 35.2425 44.7859 35.8039 44.7902 36.3654C44.7942 36.9072 44.7964 37.4489 44.7974 37.9906C44.7981 38.1974 44.7994 38.4042 44.8014 38.6111C44.8041 38.9004 44.8045 39.1898 44.8044 39.4792C44.8064 39.6078 44.8064 39.6078 44.8084 39.7391C44.8062 40.0778 44.7925 40.3338 44.599 40.6373C44.3893 40.7871 44.3893 40.7871 43.9733 40.8413C43.418 40.775 43.2376 40.6449 42.8438 40.3245C42.7262 40.2314 42.6086 40.1383 42.4875 40.0425C42.377 39.9536 42.2664 39.8647 42.1526 39.7731C41.9857 39.6514 41.8176 39.5309 41.6478 39.4119C41.2806 39.1519 40.92 38.8868 40.5605 38.6198C40.1409 38.3102 39.7131 38.0145 39.2713 37.7262C38.6085 37.2894 37.993 36.8186 37.3745 36.3413C36.9299 35.9998 36.4794 35.6734 36.0017 35.3625C35.3496 34.9381 34.749 34.4764 34.1436 34.0091C33.6017 33.593 33.0475 33.2012 32.4537 32.8344C32.1663 32.6301 31.9802 32.4686 31.7578 32.2255C31.0747 31.5284 30.4351 31.1388 29.3297 31.0219C28.3518 30.9524 27.3687 30.9599 26.3881 30.969C25.9215 30.972 25.4552 30.9676 24.9887 30.9635C24.4618 30.9592 23.935 30.9555 23.4081 30.9578C20.6217 30.9671 20.6217 30.9671 20.0343 30.6476C19.9101 30.4321 19.9101 30.4321 19.8 30.1624C19.7582 30.0616 19.7163 29.9608 19.6732 29.8569C19.6073 29.6931 19.6073 29.6931 19.5402 29.526C19.4711 29.3583 19.4711 29.3583 19.4006 29.1873C19.2534 28.8294 19.1079 28.4711 18.9626 28.1128C18.8159 27.7545 18.669 27.3964 18.5219 27.0382C18.4304 26.8151 18.3393 26.5919 18.2485 26.3686C18.2074 26.2678 18.1663 26.167 18.124 26.0631C18.0879 25.9741 18.0517 25.8851 18.0145 25.7934C17.9274 25.5763 17.9274 25.5763 17.7976 25.3751C17.7002 25.4086 17.6028 25.442 17.5025 25.4765C16.5791 25.6844 15.7441 25.6377 14.8654 25.3216C14.2779 25.0278 13.6939 24.5753 13.484 24.0285C13.4723 23.971 13.4606 23.9135 13.4485 23.8542C13.339 23.8653 13.2294 23.8764 13.1165 23.8879C11.818 24.0145 10.5166 24.1107 9.21366 24.2009C9.01473 24.2147 8.81581 24.2286 8.61691 24.2427C7.99107 24.2868 7.36517 24.3259 6.73849 24.3612C6.60826 24.3699 6.47804 24.3786 6.34387 24.3876C6.23447 24.3922 6.12506 24.3968 6.01235 24.4016C5.92241 24.4062 5.83247 24.4108 5.7398 24.4156C5.34569 24.3277 5.23035 24.1256 4.99885 23.8542C4.80694 23.5358 4.64676 23.2083 4.48616 22.8787C4.43761 22.7811 4.38905 22.6834 4.33903 22.5828C4.17925 22.2606 4.02107 21.9379 3.86304 21.6152C3.75235 21.3905 3.64163 21.1659 3.53086 20.9412C3.29909 20.4705 3.06817 19.9996 2.83777 19.5285C2.54272 18.9254 2.24515 18.3232 1.94688 17.7212C1.71756 17.2575 1.48983 16.7933 1.26254 16.329C1.1535 16.1067 1.04391 15.8847 0.93376 15.6628C0.779803 15.3522 0.628058 15.041 0.476833 14.7296C0.408289 14.5929 0.408289 14.5929 0.33836 14.4535C0.0422837 13.8362 -0.158992 13.2711 0.168003 12.63C0.233436 12.549 0.298869 12.4681 0.366285 12.3847C0.440118 12.2912 0.51395 12.1976 0.59002 12.1012C0.67124 12.0021 0.752461 11.903 0.836143 11.8009C1.00861 11.5834 1.18092 11.3659 1.35308 11.1482C1.48718 10.9804 1.48718 10.9804 1.62399 10.8092C2.05345 10.2666 2.46556 9.71557 2.87867 9.16467C3.00108 9.00302 3.00108 9.00302 3.12597 8.83811C3.51653 8.32206 3.90337 7.80469 4.27925 7.28145C4.45467 7.03765 4.63197 6.79478 4.80943 6.55197C4.9333 6.38104 5.05444 6.2088 5.1755 6.03654C5.25176 5.93248 5.32801 5.82843 5.40658 5.72122C5.47201 5.62967 5.53745 5.53813 5.60486 5.44382C6.18307 4.90419 7.11769 4.69842 7.92139 4.44745C8.02116 4.4159 8.12093 4.38435 8.22373 4.35184C8.4377 4.28421 8.65176 4.21674 8.86589 4.14943C9.44103 3.96857 10.0155 3.78635 10.5901 3.60421C10.7064 3.56736 10.8227 3.5305 10.9426 3.49253C11.9167 3.18358 12.8878 2.86887 13.8576 2.55098C14.1175 2.46595 14.3776 2.3814 14.6378 2.29697C15.5393 2.00402 16.4379 1.70641 17.3329 1.40043C17.8099 1.23789 18.2882 1.0778 18.7666 0.917994C18.9969 0.840383 19.2267 0.761708 19.4559 0.681867C19.7784 0.569614 20.1026 0.461326 20.4275 0.353644C20.5196 0.320449 20.6118 0.287255 20.7067 0.253055C21.6969 -0.066349 22.7181 -0.00506378 23.7621 0.0264878ZM23.2651 1.34462C23.5122 1.96862 23.7842 2.58137 24.0786 3.1915C24.1201 3.27815 24.1617 3.36481 24.2045 3.45409C24.3363 3.72905 24.4686 4.00389 24.6009 4.27872C24.7308 4.5493 24.8606 4.8199 24.9905 5.09051C25.076 5.26862 25.1615 5.4467 25.2472 5.62476C25.4596 6.06637 25.6708 6.50833 25.8796 6.95107C25.9197 7.03582 25.9597 7.12057 26.001 7.20789C26.0769 7.36859 26.1525 7.52938 26.2278 7.69026C26.3696 8.0419 26.3696 8.0419 26.6201 8.34084C26.8501 8.36847 27.0806 8.39333 27.3113 8.41688C28.205 8.53394 28.7935 8.76941 29.4004 9.31676C29.552 9.4976 29.7019 9.67944 29.8508 9.86176C31.8474 9.64013 33.835 9.37862 35.8221 9.10699C36.2494 9.04858 36.6768 8.99063 37.1042 8.9328C37.5163 8.87699 37.9283 8.8208 38.3403 8.76464C38.4933 8.74393 38.6463 8.72323 38.8039 8.70191C38.9447 8.68259 39.0855 8.66328 39.2306 8.64339C39.3543 8.62652 39.4781 8.60965 39.6056 8.59227C39.9302 8.54714 39.9302 8.54714 40.2887 8.44223C40.4202 8.26765 40.4202 8.26765 40.5061 8.05567C40.5388 7.986 40.5715 7.91634 40.6051 7.84456C40.6743 7.58245 40.6545 7.47719 40.5372 7.2255C40.2691 6.96104 40.2691 6.96104 39.9244 6.68776C39.8608 6.63545 39.7971 6.58313 39.7316 6.52924C39.5211 6.3567 39.3094 6.18529 39.0975 6.01391C38.9509 5.8943 38.8043 5.77464 38.6578 5.65493C38.3506 5.4043 38.0428 5.1542 37.7346 4.90449C37.3392 4.58417 36.9452 4.26273 36.5516 3.94092C36.2492 3.69376 35.9461 3.44711 35.6428 3.20062C35.4972 3.08226 35.3519 2.96377 35.2067 2.84514C35.0038 2.67958 34.8002 2.51469 34.5963 2.34997C34.4805 2.25595 34.3647 2.16193 34.2454 2.06507C33.761 1.7133 33.2747 1.72545 32.6565 1.70145C32.5629 1.69748 32.4693 1.69351 32.3728 1.68942C32.0632 1.67639 31.7536 1.66397 31.4439 1.65157C31.2286 1.64266 31.0133 1.63371 30.798 1.62473C30.3466 1.60598 29.8951 1.58751 29.4437 1.56926C28.8655 1.54589 28.2874 1.52204 27.7092 1.49801C27.1575 1.47509 26.6058 1.45242 26.0541 1.42977C25.949 1.42543 25.8439 1.4211 25.7356 1.41663C25.4373 1.40436 25.139 1.39227 24.8407 1.38024C24.709 1.37479 24.709 1.37479 24.5746 1.36923C24.1376 1.3518 23.7026 1.34074 23.2651 1.34462ZM21.6497 2.05438C21.3891 2.28043 21.1415 2.50832 20.8964 2.74513C20.8235 2.81465 20.7506 2.88416 20.6756 2.95579C20.1739 3.43607 19.6814 3.92222 19.1946 4.41259C18.8784 4.72815 18.5561 5.03915 18.2325 5.3497C17.6229 5.93526 17.0232 6.52682 16.4308 7.1241C16.3353 7.20867 16.2398 7.29324 16.1415 7.38036C15.9006 7.61347 15.9006 7.61347 15.9624 7.86595C16.0016 7.9411 16.0409 8.01626 16.0813 8.09369C16.1189 8.16911 16.1566 8.24452 16.1954 8.32222C16.232 8.39529 16.2687 8.46835 16.3065 8.54363C16.3495 8.67849 16.3912 8.81365 16.4308 8.94921C18.3199 9.19978 20.2092 9.44931 22.1001 9.69065C22.2339 9.708 22.3676 9.72536 22.5054 9.74323C22.6295 9.75895 22.7537 9.77467 22.8816 9.79086C22.9892 9.80462 23.0968 9.81839 23.2076 9.83257C23.5255 9.8629 23.8156 9.88562 24.1349 9.86176C24.4041 9.58723 24.4041 9.58723 24.6319 9.25339C24.7955 9.08304 24.9609 8.91381 25.129 8.74642C25.0977 8.68202 25.0663 8.61762 25.0341 8.55127C24.7361 7.93844 24.4382 7.32559 24.1405 6.7127C23.9874 6.39776 23.8344 6.08284 23.6813 5.76793C23.5044 5.40423 23.3277 5.04051 23.151 4.67677C23.0702 4.51066 23.0702 4.51066 22.9877 4.34118C22.6185 3.58079 22.2564 2.81828 21.8982 2.05438C21.8162 2.05438 21.7342 2.05438 21.6497 2.05438ZM18.6512 2.4215C18.5412 2.45707 18.4313 2.49264 18.318 2.52929C18.1926 2.56943 18.0672 2.60956 17.938 2.65091C17.8008 2.69573 17.6637 2.74054 17.5224 2.78672C17.3087 2.85551 17.3087 2.85551 17.0906 2.92569C16.7043 3.05022 16.3183 3.17544 15.9324 3.30101C15.5347 3.43028 15.1366 3.55875 14.7385 3.68731C14.1053 3.89195 13.4724 4.09715 12.8396 4.30278C12.1842 4.51574 11.5284 4.72786 10.8722 4.93923C10.4681 5.06945 10.0642 5.20007 9.66039 5.33086C9.47928 5.38947 9.29812 5.44797 9.11691 5.50635C8.86962 5.58611 8.62263 5.66645 8.37571 5.74696C8.24105 5.79064 8.10639 5.83432 7.96765 5.87932C7.3712 6.09418 6.96816 6.27068 6.62976 6.73358C6.56715 6.81777 6.50454 6.90196 6.44004 6.9887C6.3745 7.07939 6.30897 7.17008 6.24145 7.26352C6.09878 7.4563 5.95608 7.64905 5.81334 7.84179C5.74057 7.94093 5.66781 8.04007 5.59285 8.14221C5.23983 8.62099 4.87841 9.09548 4.51734 9.57025C4.41652 9.7036 4.41652 9.7036 4.31366 9.83965C4.03271 10.2109 3.75091 10.5812 3.45725 10.9458C3.37652 11.0461 3.29579 11.1463 3.21261 11.2496C3.11122 11.3725 3.11122 11.3725 3.00778 11.4979C2.96774 11.5603 2.92769 11.6226 2.88643 11.6869C2.92744 11.7538 2.96844 11.8207 3.01069 11.8896C5.38903 11.1201 7.76736 10.3505 10.2178 9.55757C10.2588 9.18951 10.2998 8.82145 10.342 8.44223C10.6691 7.73405 11.1256 7.28013 11.9467 6.91775C12.7077 6.65181 13.47 6.62639 14.2562 6.8326C14.6927 6.85626 14.6927 6.85626 14.9542 6.6401C15.2551 6.37079 15.5334 6.09245 15.8095 5.80598C15.9905 5.62632 16.1717 5.44676 16.3531 5.26732C16.4447 5.17491 16.5364 5.0825 16.6307 4.98729C16.9577 4.66082 17.2916 4.3397 17.6268 4.0189C18.1574 3.51026 18.6702 2.99266 19.1645 2.45996C18.9193 2.33122 18.9193 2.33122 18.6512 2.4215ZM37.555 2.86553C38.2667 3.55477 39.0178 4.20775 39.7887 4.85295C39.9468 4.98622 40.1036 5.12047 40.2593 5.25566C40.4859 5.45226 40.7163 5.64536 40.9478 5.83806C41.0165 5.89898 41.0851 5.9599 41.1558 6.02267C41.3585 6.1873 41.523 6.31118 41.7798 6.41434C42.1409 6.40202 42.4378 6.31321 42.7739 6.21155C43.8434 6.12123 44.6624 6.24144 45.5387 6.75021C45.8804 7.02271 45.8804 7.02271 46.3774 7.63108C48.8993 7.27975 48.8993 7.27975 51.4721 6.92132C51.1049 6.62171 50.6411 6.53779 50.1586 6.40444C50.0482 6.37338 49.9378 6.34232 49.8241 6.31032C49.5836 6.24272 49.343 6.17538 49.1023 6.10827C48.4547 5.92764 47.8078 5.74508 47.1608 5.56279C47.0261 5.52488 46.8913 5.48696 46.7525 5.4479C45.2577 5.02691 43.7671 4.59627 42.2768 4.16465C42.027 4.09236 41.7772 4.02007 41.5273 3.94778C41.2905 3.8792 41.0536 3.81063 40.8168 3.74204C40.7051 3.70974 40.5935 3.67743 40.4785 3.64414C39.9837 3.50081 39.4891 3.35689 38.9956 3.21066C38.9139 3.18653 38.8321 3.16239 38.7479 3.13753C38.5359 3.07481 38.324 3.01172 38.1122 2.94859C37.8183 2.85495 37.8183 2.85495 37.555 2.86553ZM42.2768 7.83387C41.9794 8.17835 41.8725 8.43923 41.9041 8.85415C42.0129 9.36452 42.3854 9.59681 42.8748 9.89978C43.3094 10.0011 43.7125 9.95831 44.1407 9.86176C44.564 9.644 44.8587 9.44475 45.0106 9.0506C45.0689 8.62233 45.0458 8.39627 44.8009 8.01131C44.3861 7.60881 44.1087 7.45077 43.4651 7.38393C42.9301 7.43754 42.6835 7.54727 42.2768 7.83387ZM11.9807 8.53729C11.756 8.85581 11.6699 9.08395 11.7545 9.45182C11.8958 9.83526 12.0563 10.0983 12.47 10.3244C12.9201 10.4968 13.3142 10.5177 13.8019 10.4495C14.2972 10.3002 14.5796 10.0386 14.8154 9.65897C14.9264 9.25977 14.865 8.93882 14.6601 8.56264C14.2843 8.17934 14.0608 8.0594 13.4641 7.9416C12.7992 7.89109 12.4225 8.1519 11.9807 8.53729ZM51.0641 8.16743C50.6441 8.22228 50.224 8.27499 49.8027 8.32282C49.3162 8.37812 48.8318 8.44238 48.3471 8.50719C48.1966 8.52309 48.046 8.53899 47.8909 8.55537C47.462 8.61703 47.1322 8.6763 46.7502 8.84781C46.5063 9.15069 46.3704 9.4278 46.2413 9.77385C46.0878 10.1707 45.8647 10.3815 45.5076 10.6729C45.4256 10.7064 45.3436 10.7398 45.2591 10.7743C45.5039 11.5443 45.7903 12.2956 46.1129 13.0462C46.1806 13.2053 46.1806 13.2053 46.2498 13.3676C46.3929 13.7031 46.5366 14.0385 46.6803 14.3738C46.7762 14.5986 46.8721 14.8235 46.9679 15.0483C47.2931 15.8116 47.2931 15.8116 47.6219 16.5737C47.7075 16.7725 47.7907 16.972 47.8723 17.1719C47.9144 17.2726 47.9565 17.3734 47.9999 17.4772C48.037 17.5683 48.0742 17.6594 48.1125 17.7532C48.2291 18.0076 48.2291 18.0076 48.6257 18.1452C48.7654 18.1596 48.9051 18.174 49.049 18.1888C49.1887 18.2058 49.3284 18.2228 49.4723 18.2403C49.6626 18.2587 49.6626 18.2587 49.8567 18.2775C49.9432 18.3055 50.0297 18.3334 50.1188 18.3623C50.3839 18.4033 50.3839 18.4033 50.6391 18.1919C50.7397 18.1031 50.8403 18.0142 50.944 17.9226C51.3849 17.5372 51.8395 17.1867 52.3287 16.8421C52.7662 16.5296 53.1861 16.2022 53.6078 15.8757C53.793 15.733 53.9783 15.5902 54.1636 15.4476C54.2544 15.3776 54.3452 15.3077 54.4388 15.2356C55.3387 14.5446 56.2403 13.8552 57.188 13.2078C56.7644 12.2715 56.2872 11.3671 55.7668 10.4638C55.6648 10.2849 55.6648 10.2849 55.5608 10.1024C55.1242 9.33983 54.672 8.58461 54.2058 7.83387C53.1591 7.83387 52.0953 8.0325 51.0641 8.16743ZM25.8745 9.96315C25.576 10.2823 25.401 10.5742 25.3775 10.9771C25.5807 11.5022 25.8102 11.787 26.3716 12.0924C26.7277 12.2377 26.9696 12.2249 27.3656 12.1938C27.833 11.9845 28.2475 11.7794 28.484 11.3827C28.5796 10.9774 28.5811 10.6319 28.3558 10.2566C28.0246 9.89254 27.7322 9.71805 27.1793 9.64629C26.656 9.63192 26.3075 9.71079 25.8745 9.96315ZM39.2108 9.87975C39.0677 9.89879 39.0677 9.89879 38.9217 9.91822C38.6068 9.9602 38.292 10.0027 37.9772 10.0451C37.7585 10.0745 37.5397 10.1038 37.3209 10.1331C36.8627 10.1945 36.4046 10.2561 35.9465 10.318C35.3585 10.3973 34.7704 10.476 34.1823 10.5546C33.7307 10.615 33.2792 10.6757 32.8277 10.7365C32.6108 10.7656 32.3939 10.7947 32.1769 10.8237C31.8743 10.8641 31.5718 10.905 31.2693 10.946C31.1792 10.9579 31.0891 10.9699 30.9963 10.9822C30.5338 11.0433 30.5338 11.0433 30.0994 11.1799C30.002 11.382 29.9154 11.5875 29.8353 11.7946C29.7914 11.9066 29.7475 12.0186 29.7023 12.134C29.6693 12.2207 29.6363 12.3073 29.6023 12.3966C29.679 12.4642 29.7558 12.5318 29.8348 12.6014C30.3724 13.0788 30.898 13.5579 31.3963 14.0633C31.7967 14.4683 32.2126 14.855 32.6467 15.2357C33.0904 15.6249 33.5166 16.0208 33.9281 16.4334C34.066 16.5683 34.066 16.5683 34.2067 16.7059C34.4485 16.9594 34.4485 16.9594 34.6048 17.1938C34.7834 17.441 34.8833 17.5294 35.194 17.6691C35.9557 17.7417 36.7246 17.7368 37.4307 17.4663C38.0618 16.9877 38.3416 16.2722 38.6578 15.6349C38.7549 15.4542 38.853 15.2738 38.9519 15.0937C39.1474 14.7356 39.3384 14.3761 39.5259 14.0151C39.8794 13.3385 40.2773 12.6817 40.677 12.0227C40.7945 11.8262 40.9114 11.6293 41.0274 11.4322C41.0742 11.3533 41.121 11.2744 41.1692 11.1931C41.2811 10.9803 41.3741 10.8019 41.407 10.5715C41.1179 10.2513 41.1179 10.2513 40.7857 9.96315C40.7242 9.86277 40.7242 9.86277 40.6615 9.76036C40.1633 9.76036 39.6999 9.81336 39.2108 9.87975ZM15.9891 10.427C15.9349 10.4977 15.8808 10.5684 15.825 10.6412C15.4668 11.0698 15.1003 11.3069 14.5669 11.5855C14.6549 12.5132 14.8654 13.4166 15.0794 14.3291C15.118 14.4951 15.1565 14.6611 15.195 14.8272C15.2753 15.1731 15.356 15.519 15.4369 15.8649C15.5407 16.3083 15.6437 16.7518 15.7465 17.1953C15.8258 17.5372 15.9054 17.8791 15.9851 18.2211C16.0232 18.3846 16.0613 18.5483 16.0993 18.7119C16.1522 18.9398 16.2055 19.1676 16.2589 19.3954C16.2892 19.525 16.3194 19.6545 16.3506 19.788C16.4233 20.1041 16.4233 20.1041 16.555 20.4068C16.8231 20.5077 16.8231 20.5077 17.1453 20.5716C17.2523 20.5959 17.3593 20.6202 17.4695 20.6452C17.7847 20.7084 18.1001 20.7628 18.4189 20.8124C19.3608 19.6364 20.2788 18.449 21.1895 17.2568C21.5367 16.8025 21.8852 16.3489 22.2358 15.8963C22.3564 15.7405 22.4767 15.5846 22.5967 15.4286C22.9155 15.0149 23.2404 14.6054 23.5733 14.1991C23.6438 14.1117 23.7143 14.0243 23.787 13.9343C23.9227 13.7664 24.0601 13.5994 24.1995 13.4336C24.5667 13.008 24.5667 13.008 24.5596 12.5131C24.5015 12.4412 24.4433 12.3693 24.3834 12.2952C24.1416 11.9164 23.9776 11.5996 23.8864 11.1799C22.9737 11.0604 22.061 10.9414 21.1481 10.8229C20.7242 10.7679 20.3003 10.7127 19.8765 10.6572C19.389 10.5934 18.9013 10.5301 18.4136 10.467C18.186 10.437 18.186 10.437 17.9538 10.4065C17.8121 10.3882 17.6703 10.3699 17.5243 10.3511C17.3998 10.3349 17.2754 10.3187 17.1472 10.302C16.5128 10.2078 16.5128 10.2078 15.9891 10.427ZM9.8209 11.0163C9.70268 11.0549 9.70268 11.0549 9.58207 11.0942C9.32103 11.1795 9.06025 11.2652 8.79946 11.351C8.61874 11.4101 8.43801 11.4692 8.25727 11.5283C7.78114 11.684 7.30522 11.8402 6.82934 11.9964C6.34389 12.1557 5.85824 12.3145 5.3726 12.4735C4.41943 12.7854 3.46647 13.0979 2.51365 13.4106C2.75173 13.8441 3.12104 14.0947 3.5621 14.3928C3.64015 14.4465 3.71821 14.5001 3.79863 14.5553C4.03219 14.7154 4.26676 14.8743 4.50181 15.0329C4.62419 15.1155 4.74656 15.1981 4.87265 15.2832C5.2037 15.5049 5.53593 15.7254 5.86867 15.9454C6.66967 16.4765 7.46345 17.0137 8.24994 17.559C8.78377 17.9285 9.32478 18.2905 9.8678 18.651C10.2598 18.914 10.6467 19.1815 11.0332 19.4499C11.6161 19.8544 12.2067 20.2494 12.8064 20.6373C13.1494 20.8602 13.4859 21.0888 13.8213 21.3193C13.9906 21.2579 14.1554 21.1884 14.3183 21.1165C14.4337 21.0664 14.549 21.0162 14.6678 20.9645C14.9604 20.7441 14.9604 20.7441 14.9522 20.5282C14.7504 19.1911 14.4394 17.8658 14.1405 16.5412C14.0354 16.0753 13.9325 15.6092 13.8347 15.1421C13.7396 14.6879 13.639 14.2346 13.5346 13.7817C13.4959 13.6097 13.4591 13.4374 13.4243 13.2648C13.2835 12.333 13.2835 12.333 12.6593 11.6029C12.3359 11.4917 12.3359 11.4917 12.0108 11.4426C11.5715 11.3554 11.3272 11.1446 11.0099 10.8931C10.638 10.6345 10.2208 10.8853 9.8209 11.0163ZM42.7739 11.2813C42.7303 11.355 42.6867 11.4286 42.6418 11.5045C42.58 11.609 42.5182 11.7135 42.4545 11.8211C42.3849 11.9388 42.3152 12.0565 42.2435 12.1778C42.0883 12.4401 41.9331 12.7023 41.7779 12.9646C41.4069 13.5917 41.0359 14.2189 40.6651 14.8462C40.5076 15.1127 40.35 15.3792 40.1925 15.6457C40.1173 15.7728 40.0422 15.9 39.9671 16.0272C39.8616 16.2058 39.756 16.3843 39.6504 16.5629C39.5905 16.6642 39.5307 16.7655 39.469 16.8698C39.3451 17.0775 39.2168 17.2834 39.0855 17.488C38.8981 17.7567 38.8981 17.7567 38.9296 18.024C39.0779 18.3467 39.3075 18.6004 39.5431 18.8859C39.6085 19.0521 39.6085 19.0521 39.6751 19.2217C39.7328 19.3566 39.7328 19.3566 39.7916 19.4942C40.2343 19.6146 40.6555 19.6298 41.1172 19.6499C41.2109 19.6542 41.3045 19.6586 41.401 19.6631C41.5994 19.6722 41.7977 19.6812 41.9961 19.6899C42.2969 19.7032 42.5976 19.7172 42.8984 19.7313C43.0916 19.7401 43.2849 19.7489 43.4782 19.7576C43.6114 19.7638 43.6114 19.7638 43.7474 19.7701C44.0027 19.7812 44.258 19.7905 44.5135 19.7984C44.6506 19.8029 44.6506 19.8029 44.7905 19.8074C45.3211 19.8357 45.3211 19.8357 45.7503 19.6131C45.8035 19.532 45.8566 19.451 45.9114 19.3675C46.1515 19.0149 46.3951 18.7612 46.7502 18.4803C46.498 17.6838 46.1973 16.9076 45.8648 16.1312C45.8166 16.0177 45.7684 15.9041 45.7187 15.7872C45.6174 15.549 45.5159 15.3108 45.4142 15.0727C45.2591 14.7098 45.1047 14.3466 44.9504 13.9835C44.8514 13.7509 44.7524 13.5184 44.6533 13.2858C44.6075 13.1782 44.5616 13.0705 44.5144 12.9596C44.2741 12.3973 44.0275 11.8378 43.768 11.2813C43.4399 11.2813 43.1119 11.2813 42.7739 11.2813ZM27.7526 13.3632C27.4105 13.4249 27.1142 13.3842 26.7662 13.3567C26.2074 13.3521 26.2074 13.3521 25.7446 13.5801C25.518 13.8357 25.334 14.0953 25.1523 14.3738C25.0056 14.5794 24.8588 14.785 24.712 14.9905C24.6009 15.1514 24.6009 15.1514 24.4876 15.3155C24.1154 15.8462 23.7121 16.3604 23.3117 16.877C23.1552 17.0814 22.9989 17.2859 22.8428 17.4905C22.4374 18.0204 22.0285 18.5484 21.6186 19.076C20.9117 19.9863 20.2225 20.9051 19.5373 21.8263C19.9295 21.9273 20.2056 21.9239 20.6083 21.8629C20.7802 21.8375 20.7802 21.8375 20.9557 21.8116C21.0806 21.7923 21.2054 21.773 21.3341 21.7531C21.5323 21.7234 21.5323 21.7234 21.7346 21.6932C22.1718 21.6276 22.6087 21.5608 23.0457 21.494C23.3486 21.4483 23.6516 21.4027 23.9545 21.3572C24.7522 21.2371 25.5497 21.1159 26.3471 20.9946C27.1607 20.8709 27.9745 20.7483 28.7883 20.6256C30.3853 20.3846 31.9821 20.1426 33.5786 19.8998C33.6689 19.7062 33.7564 19.5117 33.8427 19.3168C33.8917 19.2086 33.9407 19.1003 33.9912 18.9888C34.1069 18.6936 34.1069 18.6936 33.982 18.456C33.7647 18.2055 33.518 17.9877 33.2602 17.7642C32.8361 17.3921 32.4305 17.0141 32.0409 16.6172C31.5612 16.1316 31.0517 15.676 30.5295 15.2213C30.022 14.7768 29.5495 14.316 29.0854 13.8407C28.8073 13.5561 28.8073 13.5561 28.484 13.3092C28.0261 13.2908 28.0261 13.2908 27.7526 13.3632ZM57.0463 15.0186C56.9653 15.081 56.8844 15.1433 56.8009 15.2075C56.7134 15.2754 56.6259 15.3432 56.5357 15.4131C56.3526 15.5541 56.1694 15.6952 55.9862 15.8361C55.8948 15.9065 55.8034 15.9769 55.7093 16.0494C55.3554 16.321 54.9984 16.5897 54.6407 16.858C54.3713 17.0606 54.1021 17.2635 53.833 17.4663C53.7068 17.5614 53.7068 17.5614 53.5781 17.6584C53.308 17.8623 53.0384 18.0667 52.769 18.2712C52.6846 18.3348 52.6002 18.3983 52.5132 18.4639C51.8806 18.9427 51.8806 18.9427 51.3478 19.4942C51.4403 19.7802 51.4403 19.7802 51.5963 20.1026C51.6657 20.6211 51.6442 21.0746 51.4022 21.5601C51.1971 21.9596 51.1971 21.9596 51.3478 22.3333C51.5843 22.5815 51.5843 22.5815 51.8759 22.8276C52.2943 23.1957 52.6986 23.5667 53.0875 23.9556C53.5165 23.8277 53.8601 23.6821 54.2247 23.4581C54.3204 23.3999 54.4161 23.3416 54.5147 23.2816C54.6655 23.1886 54.6655 23.1886 54.8193 23.0937C55.0302 22.9652 55.2412 22.8367 55.4523 22.7084C55.5564 22.6449 55.6605 22.5814 55.7678 22.516C56.2626 22.2165 56.7643 21.9253 57.2669 21.6346C57.4479 21.5298 57.6287 21.4246 57.8093 21.3193C57.8987 21.279 57.9881 21.2386 58.0802 21.197C58.3454 21.0231 58.3454 21.0231 58.3389 20.7161C58.3245 20.591 58.3101 20.466 58.2952 20.3371C58.2877 20.2669 58.2802 20.1967 58.2725 20.1244C58.2454 19.8803 58.214 19.6366 58.1821 19.3928C58.1586 19.2029 58.1351 19.0129 58.1117 18.8229C58.0333 18.2013 57.9487 17.5804 57.8637 16.9594C57.8343 16.7421 57.8049 16.5248 57.7756 16.3074C57.7045 15.7811 57.6328 15.2549 57.5608 14.7287C57.3367 14.7287 57.2017 14.8984 57.0463 15.0186ZM2.88643 15.6412C2.97125 16.066 3.1376 16.4394 3.33278 16.8387C3.36552 16.906 3.39826 16.9733 3.432 17.0427C3.53974 17.264 3.64823 17.485 3.75674 17.706C3.83183 17.8598 3.90687 18.0137 3.98187 18.1675C4.17894 18.5716 4.37664 18.9754 4.57448 19.3792C4.77643 19.7916 4.97778 20.2043 5.17917 20.6169C5.5741 21.4258 5.96969 22.2345 6.36571 23.043C7.24155 22.9902 8.11726 22.936 8.99289 22.8809C9.29081 22.8623 9.58876 22.844 9.88673 22.826C10.3149 22.8002 10.743 22.7732 11.1711 22.746C11.3711 22.7343 11.3711 22.7343 11.5751 22.7223C11.7617 22.7101 11.7617 22.7101 11.9519 22.6977C12.0612 22.691 12.1705 22.6842 12.2831 22.6772C12.5897 22.636 12.8073 22.5599 13.0757 22.4347C11.9686 21.6632 11.9686 21.6632 10.8391 20.9138C10.2858 20.556 9.74721 20.1855 9.20961 19.8123C8.7831 19.5165 8.35313 19.2248 7.91896 18.9366C7.41405 18.6013 6.91582 18.2604 6.42007 17.9163C5.85039 17.5211 5.27407 17.1345 4.68772 16.7558C4.2127 16.4464 3.74573 16.1291 3.27814 15.8123C3.05104 15.6308 3.05104 15.6308 2.88643 15.6412ZM35.5668 19.1901C35.2674 19.5368 35.1633 19.7935 35.2018 20.2103C35.2873 20.6027 35.4553 20.8391 35.8153 21.1165C36.2776 21.3471 36.6714 21.3414 37.1909 21.2726C37.5683 21.1866 37.7854 21.0427 38.052 20.8124C38.3055 20.4381 38.3641 20.1209 38.3005 19.697C38.0166 19.2594 37.7469 18.9774 37.1822 18.7845C36.4791 18.7115 36.1024 18.8126 35.5668 19.1901ZM47.3715 19.697C47.0281 20.0998 46.9117 20.4269 46.9987 20.9138C47.2555 21.2955 47.5087 21.6288 47.9928 21.8263C48.5181 21.8671 48.8429 21.8744 49.3286 21.7122C49.7551 21.4222 50.068 21.1592 50.1387 20.6927C50.1234 20.3406 50.0683 20.0947 49.8033 19.8111C49.4714 19.5608 49.1686 19.4108 48.7461 19.2788C48.2036 19.2968 47.808 19.4352 47.3715 19.697ZM39.7916 20.8124C39.6591 20.9669 39.5304 21.1237 39.4033 21.2813C39.2952 21.4119 39.2952 21.4119 39.1849 21.5451C38.9988 21.9222 39.1128 22.0619 39.2946 22.4347C39.421 22.6345 39.5542 22.8316 39.6926 23.026C39.7726 23.1392 39.8526 23.2523 39.935 23.3689C40.0219 23.4906 40.1087 23.6122 40.1955 23.7338C40.3765 23.9893 40.5571 24.2449 40.7377 24.5006C40.7834 24.5652 40.8291 24.6298 40.8762 24.6964C41.3278 25.3352 41.7676 25.9791 42.2069 26.6235C42.4779 27.0189 42.7498 27.4139 43.0224 27.8086C43.0809 27.8933 43.1395 27.9781 43.1998 28.0654C43.3539 28.2869 43.5099 28.5074 43.667 28.7275C43.7106 28.7903 43.7541 28.8532 43.799 28.9179C43.9287 29.1031 43.9287 29.1031 44.1407 29.3295C44.5676 29.3295 44.6434 29.2786 44.9746 29.076C45.0665 29.0203 45.1584 28.9647 45.253 28.9073C45.3524 28.8459 45.4518 28.7844 45.5542 28.7211C45.6584 28.6576 45.7626 28.5941 45.8699 28.5286C46.7524 27.9893 47.6283 27.4428 48.5039 26.896C49.6069 26.2082 50.7242 25.5366 51.8449 24.8681C51.4067 24.386 50.9616 23.9116 50.4935 23.4486C50.3479 23.3043 50.3479 23.3043 50.1994 23.1571C50.1273 23.086 50.0552 23.0149 49.981 22.9416C49.8943 22.9576 49.8076 22.9735 49.7184 22.99C48.6606 23.1465 47.7045 23.1315 46.7614 22.6862C46.2108 22.368 45.9079 22.022 45.678 21.5019C45.6295 21.3934 45.6295 21.3934 45.5801 21.2826C45.5442 21.2004 45.5442 21.2004 45.5076 21.1165C43.6032 20.9906 41.7006 20.8792 39.7916 20.8124ZM31.8764 21.3855C31.7587 21.4033 31.641 21.4211 31.5198 21.4394C31.133 21.4981 30.7465 21.5576 30.36 21.6172C30.091 21.6582 29.822 21.6991 29.553 21.7399C28.8467 21.8474 28.1406 21.9556 27.4345 22.064C26.7132 22.1745 25.9918 22.2844 25.2705 22.3943C23.8563 22.6098 22.4423 22.8262 21.0284 23.043C21.3066 23.2798 21.5118 23.4039 21.8921 23.5146C21.9909 23.5438 22.0896 23.573 22.1913 23.6031C22.2983 23.6338 22.4053 23.6645 22.5156 23.6962C22.6275 23.7291 22.7394 23.7619 22.8547 23.7958C23.2189 23.9027 23.5837 24.0084 23.9485 24.114C24.4469 24.2594 24.9452 24.4052 25.4435 24.5509C25.6279 24.6047 25.6279 24.6047 25.8161 24.6595C26.5339 24.8694 27.2485 25.0848 27.9598 25.309C28.0782 25.346 28.0782 25.346 28.1991 25.3839C28.555 25.4953 28.9101 25.6079 29.2642 25.7231C29.3861 25.7612 29.5079 25.7993 29.6334 25.8385C29.7365 25.8717 29.8397 25.905 29.946 25.9392C30.2247 26.0029 30.2247 26.0029 30.4894 25.9117C30.7344 25.7729 30.8678 25.6524 31.0342 25.4516C31.091 25.3843 31.1478 25.317 31.2063 25.2477C31.2665 25.1747 31.3266 25.1017 31.3886 25.0266C31.5198 24.8708 31.6514 24.7151 31.7832 24.5596C31.8523 24.4779 31.9215 24.3961 31.9927 24.3119C32.4404 23.791 32.9091 23.2825 33.3757 22.7727C33.716 22.3991 34.0441 22.0302 34.3242 21.6235C34.1978 21.4067 34.1978 21.4067 33.9514 21.2179C33.2389 21.1739 32.5725 21.2771 31.8764 21.3855ZM15.1571 22.2699C14.9242 22.555 14.8254 22.7015 14.8154 23.043C15.0026 23.5013 15.1893 23.8815 15.6852 24.1584C16.273 24.2993 16.6694 24.3145 17.2229 24.0887C17.7168 23.7336 17.9415 23.5501 17.984 23.005C17.9701 22.6607 17.9061 22.458 17.6423 22.1875C17.2184 21.8652 17.0119 21.743 16.4385 21.6932C15.8518 21.7421 15.5572 21.9253 15.1571 22.2699ZM35.5668 22.4347C35.5061 22.5033 35.5061 22.5033 35.4441 22.5733C35.3209 22.7125 35.1976 22.8518 35.0743 22.9911C34.9302 23.154 34.786 23.3169 34.6419 23.4798C34.2613 23.9102 33.88 24.3402 33.4976 24.7695C33.4252 24.8509 33.3528 24.9323 33.2783 25.0161C33.1395 25.1721 33.0006 25.328 32.8614 25.4838C32.5408 25.8447 32.2341 26.204 31.9633 26.5919C33.2025 27.1295 34.4453 27.661 35.6988 28.1761C35.8059 28.2205 35.9131 28.2649 36.0234 28.3106C36.1228 28.3512 36.2221 28.3918 36.3245 28.4336C36.4123 28.4696 36.5001 28.5056 36.5905 28.5428C36.8077 28.6331 36.8077 28.6331 37.0579 28.6197C36.9867 27.2908 36.8153 25.9788 36.6152 24.659C36.5858 24.4617 36.5564 24.2644 36.5271 24.0671C36.4562 23.5905 36.3845 23.114 36.3124 22.6375C36.0663 22.5705 35.8203 22.5036 35.5668 22.4347ZM38.052 23.3472C38.1273 24.5444 38.2568 25.7341 38.417 26.9256C38.4429 27.1218 38.468 27.3181 38.4921 27.5145C38.6339 28.6692 38.8002 29.6924 39.4189 30.749C39.4716 30.8427 39.5243 30.9364 39.5785 31.0329C39.7435 31.3204 39.9143 31.6051 40.0868 31.8897C40.5404 32.6479 40.9831 33.4088 41.4085 34.1778C41.4713 34.2914 41.4713 34.2914 41.5354 34.4073C41.7426 34.7822 41.9487 35.1575 42.154 35.5331C42.23 35.6712 42.3061 35.8093 42.3822 35.9475C42.4821 36.1304 42.4821 36.1304 42.5841 36.3169C42.7482 36.5875 42.9213 36.7989 43.1467 37.0355C43.1876 36.2183 43.2182 35.4014 43.2368 34.5836C43.2457 34.2036 43.2578 33.824 43.2779 33.4442C43.3834 31.3935 43.1358 29.9728 41.6142 28.2501C41.347 27.9422 41.1284 27.6261 40.909 27.2941C40.8437 27.1983 40.7783 27.1026 40.711 27.0039C40.6485 26.9119 40.586 26.8198 40.5217 26.7249C39.75 25.5942 38.9662 24.4695 38.1763 23.3472C38.1353 23.3472 38.0942 23.3472 38.052 23.3472ZM19.2887 24.057C19.1415 24.4175 19.1963 24.5155 19.3403 24.8688C19.3818 24.972 19.4233 25.0751 19.4661 25.1815C19.5122 25.2927 19.5582 25.4039 19.6057 25.5185C19.6522 25.6326 19.6987 25.7467 19.7465 25.8643C19.8451 26.1056 19.9443 26.3468 20.044 26.5879C20.1969 26.9582 20.3476 27.3291 20.4981 27.7001C20.594 27.934 20.69 28.168 20.7862 28.4019C20.8315 28.5135 20.8768 28.6252 20.9235 28.7402C20.9875 28.894 20.9875 28.894 21.0528 29.0509C21.0902 29.1416 21.1275 29.2324 21.166 29.3258C21.2543 29.5501 21.2543 29.5501 21.5254 29.6337C21.8365 29.6497 22.1445 29.6599 22.4559 29.6658C22.5507 29.6679 22.6456 29.67 22.7432 29.6722C23.0544 29.6789 23.3655 29.6848 23.6767 29.6907C23.782 29.6929 23.8874 29.695 23.996 29.6972C25.9483 29.737 27.8978 29.7433 29.8508 29.7351C29.8508 28.8986 29.8508 28.0621 29.8508 27.2002C29.4618 27.0838 29.0727 26.9673 28.6718 26.8473C28.1406 26.6883 27.6095 26.5292 27.0783 26.3701C26.9411 26.329 26.8039 26.2879 26.6626 26.2455C25.2388 25.8191 23.8152 25.3922 22.3938 24.9604C22.2915 24.9294 22.1892 24.8983 22.0838 24.8663C21.6097 24.7222 21.1357 24.5779 20.6618 24.4332C20.4953 24.3825 20.3289 24.3318 20.1624 24.2812C20.0196 24.2376 19.8769 24.194 19.7297 24.149C19.4495 24.0513 19.4495 24.0513 19.2887 24.057ZM51.3022 26.7511C51.2137 26.8079 51.1251 26.8647 51.0339 26.9233C50.9376 26.9854 50.8413 27.0475 50.742 27.1115C49.7923 27.7204 48.8278 28.3101 47.8492 28.8877C47.754 28.9442 47.6588 29.0008 47.5608 29.059C47.4761 29.1089 47.3914 29.1588 47.3042 29.2102C47.2444 29.2496 47.1846 29.2889 47.123 29.3295C47.123 29.363 47.123 29.3964 47.123 29.4309C48.5808 29.3567 50.0254 29.1848 51.4721 29.0253C51.5349 28.717 51.5969 28.4086 51.6585 28.1001C51.6762 28.0133 51.694 27.9265 51.7123 27.8371C51.8022 27.3831 51.8671 26.9522 51.8449 26.4905C51.6223 26.4905 51.4708 26.6421 51.3022 26.7511ZM31.4662 27.91C31.4371 28.2816 31.4196 28.6531 31.4041 29.0253C31.3958 29.1298 31.3874 29.2342 31.3789 29.3418C31.365 29.785 31.356 30.1108 31.6698 30.4844C31.921 30.6919 32.1783 30.8743 32.4603 31.0532C32.5694 31.1288 32.6785 31.2043 32.7909 31.2821C32.9386 31.3759 32.9386 31.3759 33.0894 31.4715C33.6719 31.8525 34.2171 32.2568 34.7591 32.6755C35.2837 33.0805 35.8094 33.4738 36.3745 33.8416C36.9396 34.2093 37.4652 34.6026 37.9899 35.0076C38.6349 35.5053 39.2902 35.977 39.9838 36.4295C40.4287 36.722 40.8563 37.0296 41.2828 37.3397C41.3238 37.2728 41.3648 37.2058 41.407 37.1369C41.2753 36.8735 41.1351 36.6221 40.9823 36.3669C40.9365 36.2887 40.8907 36.2106 40.8435 36.13C40.6931 35.8738 40.5414 35.6181 40.3896 35.3625C40.1825 35.011 39.9759 34.6594 39.7693 34.3077C39.7178 34.2203 39.6663 34.1328 39.6132 34.0426C39.3048 33.5177 39.0035 32.9907 38.7112 32.4597C38.6447 32.3394 38.5783 32.2192 38.5098 32.0953C38.389 31.8753 38.2692 31.655 38.1507 31.4342C38.0968 31.3366 38.0429 31.239 37.9874 31.1384C37.9425 31.0551 37.8975 30.9718 37.8511 30.886C37.4703 30.3579 36.9665 30.072 36.3017 29.8091C36.0832 29.7216 36.0832 29.7216 35.8604 29.6324C35.7056 29.5715 35.5508 29.5107 35.3959 29.4499C35.0818 29.3248 34.7681 29.199 34.4543 29.0732C34.3778 29.0427 34.3014 29.0123 34.2226 28.9808C33.4782 28.6831 32.75 28.3643 32.0244 28.0375C31.7356 27.8948 31.7356 27.8948 31.4662 27.91Z" fill="white"/>
</svg>
