<svg width="60" height="42" viewBox="0 0 60 42" fill="none" xmlns="http://www.w3.org/2000/svg">
<path d="M23.7621 0.461546C23.9011 0.465356 23.9011 0.465356 24.0429 0.469243C24.7287 0.488628 25.4139 0.515181 26.0993 0.543137C26.3161 0.551759 26.533 0.560367 26.7499 0.568959C27.2001 0.586906 27.6502 0.605188 28.1004 0.623688C28.6742 0.647222 29.248 0.669662 29.8219 0.691827C30.2681 0.709221 30.7142 0.727316 31.1604 0.745605C31.3719 0.754173 31.5835 0.762501 31.7951 0.770572C33.3485 0.830252 34.7316 0.984752 36.2022 1.40974C36.3202 1.44327 36.4383 1.4768 36.56 1.51134C36.9463 1.62125 37.3322 1.73213 37.718 1.84305C37.9916 1.92113 38.2652 1.99918 38.5388 2.07717C40.517 2.64197 42.4922 3.21385 44.4661 3.78853C46.8063 4.46971 49.1502 5.14209 51.4945 5.81365C51.7575 5.88913 52.0205 5.96483 52.2834 6.04075C52.8202 6.19568 53.3569 6.34942 53.8986 6.49279C54.1316 6.55579 54.1316 6.55579 54.3694 6.62008C54.497 6.65318 54.6245 6.68629 54.756 6.72041C55.3755 6.97042 55.6354 7.42079 55.9134 7.91642C56.007 8.08184 56.007 8.08184 56.1025 8.25061C56.1686 8.36958 56.2346 8.48855 56.3027 8.61113C56.4089 8.80204 56.5152 8.99293 56.6215 9.1838C56.6956 9.31694 56.7696 9.45012 56.8435 9.58334C57.0705 9.99107 57.3054 10.3949 57.5475 10.7968C58.4579 12.3088 59.1354 13.6573 59.2625 15.3597C59.3072 15.8931 59.384 16.4239 59.4567 16.9552C59.4862 17.1727 59.5156 17.3902 59.5451 17.6077C59.5598 17.7171 59.5746 17.8265 59.5899 17.9392C59.6046 18.048 59.6193 18.1569 59.6344 18.269C59.6559 18.4284 59.6559 18.4284 59.6779 18.5911C60.1104 21.8332 60.1104 21.8332 59.6592 22.3723C59.5408 22.4361 59.4224 22.4998 59.3004 22.5656C59.1808 22.6398 59.0611 22.714 58.9379 22.7905C58.8038 22.8669 58.6697 22.9432 58.5316 23.0218C58.3773 23.1104 58.2232 23.1989 58.069 23.2876C57.9462 23.358 57.9462 23.358 57.8209 23.4297C57.3538 23.6987 56.8904 23.9718 56.4269 24.2449C56.3396 24.2961 56.2523 24.3474 56.1623 24.4002C55.9822 24.5062 55.8037 24.6142 55.6269 24.7239C55.3241 24.8976 55.3241 24.8976 54.9408 25.062C54.2412 25.3965 53.8492 25.6535 53.6407 26.2946C53.4939 26.8826 53.4134 27.4763 53.336 28.0725C53.291 28.3807 53.2442 28.6886 53.1952 28.9963C53.1654 29.1869 53.1382 29.3777 53.1139 29.5688C53.1013 29.6551 53.0887 29.7415 53.0758 29.8304C53.0659 29.906 53.0561 29.9816 53.0459 30.0595C52.9296 30.3576 52.7674 30.4856 52.4662 30.6771C52.125 30.7567 52.125 30.7567 51.7293 30.7976C51.5808 30.8138 51.4324 30.83 51.2795 30.8467C51.1198 30.8624 50.96 30.878 50.7954 30.8942C50.6296 30.9116 50.4637 30.9292 50.2979 30.947C49.8623 30.9932 49.4264 31.0373 48.9904 31.081C48.5462 31.1259 48.1023 31.1729 47.6584 31.2197C47.0108 31.2876 46.3632 31.3547 45.7153 31.4202C45.5849 31.4334 45.4545 31.4466 45.3201 31.4602C45.0106 31.4883 45.0106 31.4883 44.762 31.4883C44.7633 31.6622 44.7633 31.6622 44.7645 31.8397C44.7721 32.9318 44.7777 34.0239 44.7813 35.116C44.7833 35.6775 44.7859 36.239 44.7902 36.8005C44.7942 37.3422 44.7964 37.8839 44.7974 38.4257C44.7981 38.6325 44.7994 38.8393 44.8014 39.0461C44.8041 39.3355 44.8045 39.6248 44.8044 39.9142C44.8064 40.0429 44.8064 40.0429 44.8084 40.1741C44.8062 40.5129 44.7925 40.7688 44.599 41.0724C44.3893 41.2221 44.3893 41.2221 43.9733 41.2764C43.418 41.21 43.2376 41.08 42.8438 40.7595C42.7262 40.6665 42.6086 40.5734 42.4875 40.4775C42.377 40.3886 42.2664 40.2998 42.1526 40.2082C41.9857 40.0865 41.8176 39.9659 41.6478 39.847C41.2806 39.587 40.92 39.3219 40.5605 39.0548C40.1409 38.7452 39.7131 38.4496 39.2713 38.1613C38.6085 37.7245 37.993 37.2537 37.3745 36.7764C36.9299 36.4349 36.4794 36.1085 36.0017 35.7975C35.3496 35.3731 34.749 34.9115 34.1436 34.4442C33.6017 34.028 33.0475 33.6363 32.4537 33.2695C32.1663 33.0652 31.9802 32.9037 31.7578 32.6606C31.0747 31.9634 30.4351 31.5739 29.3297 31.4569C28.3518 31.3875 27.3687 31.395 26.3881 31.4041C25.9215 31.4071 25.4552 31.4026 24.9887 31.3986C24.4618 31.3942 23.935 31.3905 23.4081 31.3929C20.6217 31.4022 20.6217 31.4022 20.0343 31.0827C19.9101 30.8672 19.9101 30.8672 19.8 30.5975C19.7582 30.4967 19.7163 30.3958 19.6732 30.292C19.6073 30.1281 19.6073 30.1281 19.5402 29.961C19.4711 29.7934 19.4711 29.7934 19.4006 29.6223C19.2534 29.2645 19.1079 28.9062 18.9626 28.5478C18.8159 28.1896 18.669 27.8314 18.5219 27.4733C18.4304 27.2502 18.3393 27.027 18.2485 26.8037C18.2074 26.7029 18.1663 26.602 18.124 26.4982C18.0879 26.4092 18.0517 26.3202 18.0145 26.2285C17.9274 26.0113 17.9274 26.0113 17.7976 25.8102C17.7002 25.8436 17.6028 25.8771 17.5025 25.9116C16.5791 26.1194 15.7441 26.0727 14.8654 25.7567C14.2779 25.4629 13.6939 25.0103 13.484 24.4635C13.4723 24.406 13.4606 24.3485 13.4485 24.2893C13.339 24.3004 13.2294 24.3115 13.1165 24.3229C11.818 24.4495 10.5166 24.5458 9.21366 24.636C9.01473 24.6498 8.81581 24.6637 8.61691 24.6778C7.99107 24.7219 7.36517 24.761 6.73849 24.7962C6.60826 24.805 6.47804 24.8137 6.34387 24.8227C6.23447 24.8273 6.12506 24.8319 6.01235 24.8366C5.92241 24.8413 5.83247 24.8459 5.7398 24.8506C5.34569 24.7627 5.23035 24.5607 4.99885 24.2893C4.80694 23.9709 4.64676 23.6434 4.48616 23.3138C4.43761 23.2161 4.38905 23.1185 4.33903 23.0178C4.17925 22.6957 4.02107 22.373 3.86304 22.0503C3.75235 21.8256 3.64163 21.6009 3.53086 21.3763C3.29909 20.9056 3.06817 20.4347 2.83777 19.9635C2.54272 19.3605 2.24515 18.7582 1.94688 18.1562C1.71756 17.6925 1.48983 17.2284 1.26254 16.764C1.1535 16.5418 1.04391 16.3197 0.93376 16.0979C0.779803 15.7873 0.628058 15.4761 0.476833 15.1646C0.408289 15.028 0.408289 15.028 0.33836 14.8886C0.0422837 14.2713 -0.158992 13.7062 0.168003 13.065C0.233436 12.9841 0.298869 12.9032 0.366285 12.8198C0.440118 12.7262 0.51395 12.6327 0.59002 12.5363C0.67124 12.4372 0.752461 12.3381 0.836143 12.236C1.00861 12.0185 1.18092 11.8009 1.35308 11.5833C1.48718 11.4154 1.48718 11.4154 1.62399 11.2442C2.05345 10.7017 2.46556 10.1506 2.87867 9.59973C3.00108 9.43808 3.00108 9.43808 3.12597 9.27317C3.51653 8.75712 3.90337 8.23975 4.27925 7.71651C4.45467 7.47271 4.63197 7.22984 4.80943 6.98703C4.9333 6.8161 5.05444 6.64386 5.1755 6.4716C5.25176 6.36754 5.32801 6.26348 5.40658 6.15627C5.47201 6.06473 5.53745 5.97319 5.60486 5.87888C6.18307 5.33925 7.11769 5.13348 7.92139 4.88251C8.02116 4.85096 8.12093 4.81941 8.22373 4.7869C8.4377 4.71927 8.65176 4.6518 8.86589 4.58449C9.44103 4.40363 10.0155 4.22141 10.5901 4.03927C10.7064 4.00241 10.8227 3.96556 10.9426 3.92759C11.9167 3.61864 12.8878 3.30393 13.8576 2.98604C14.1175 2.901 14.3776 2.81646 14.6378 2.73203C15.5393 2.43908 16.4379 2.14147 17.3329 1.83549C17.8099 1.67295 18.2882 1.51286 18.7666 1.35305C18.9969 1.27544 19.2267 1.19677 19.4559 1.11693C19.7784 1.00467 20.1026 0.896385 20.4275 0.788702C20.5196 0.755508 20.6118 0.722314 20.7067 0.688114C21.6969 0.36871 22.7181 0.429995 23.7621 0.461546ZM23.2651 1.77968C23.5122 2.40368 23.7842 3.01643 24.0786 3.62656C24.1201 3.71321 24.1617 3.79987 24.2045 3.88915C24.3363 4.16411 24.4686 4.43895 24.6009 4.71378C24.7308 4.98436 24.8606 5.25496 24.9905 5.52557C25.076 5.70368 25.1615 5.88176 25.2472 6.05982C25.4596 6.50143 25.6708 6.94339 25.8796 7.38613C25.9197 7.47088 25.9597 7.55563 26.001 7.64295C26.0769 7.80365 26.1525 7.96444 26.2278 8.12532C26.3696 8.47696 26.3696 8.47696 26.6201 8.7759C26.8501 8.80352 27.0806 8.82838 27.3113 8.85194C28.205 8.969 28.7935 9.20447 29.4004 9.75182C29.552 9.93266 29.7019 10.1145 29.8508 10.2968C31.8474 10.0752 33.835 9.81367 35.8221 9.54205C36.2494 9.48364 36.6768 9.42569 37.1042 9.36786C37.5163 9.31204 37.9283 9.25585 38.3403 9.19969C38.4933 9.17899 38.6463 9.15829 38.8039 9.13696C38.9447 9.11765 39.0855 9.09834 39.2306 9.07845C39.3543 9.06158 39.4781 9.04471 39.6056 9.02733C39.9302 8.98219 39.9302 8.98219 40.2887 8.87729C40.4202 8.70271 40.4202 8.70271 40.5061 8.49073C40.5388 8.42106 40.5715 8.35139 40.6051 8.27962C40.6743 8.01751 40.6545 7.91225 40.5372 7.66056C40.2691 7.3961 40.2691 7.3961 39.9244 7.12282C39.8608 7.0705 39.7971 7.01819 39.7316 6.9643C39.5211 6.79176 39.3094 6.62035 39.0975 6.44897C38.9509 6.32936 38.8043 6.2097 38.6578 6.08999C38.3506 5.83936 38.0428 5.58926 37.7346 5.33955C37.3392 5.01923 36.9452 4.69779 36.5516 4.37597C36.2492 4.12882 35.9461 3.88217 35.6428 3.63568C35.4972 3.51732 35.3519 3.39883 35.2067 3.2802C35.0038 3.11464 34.8002 2.94975 34.5963 2.78503C34.4805 2.69101 34.3647 2.59699 34.2454 2.50013C33.761 2.14836 33.2747 2.16051 32.6565 2.13651C32.5629 2.13254 32.4693 2.12857 32.3728 2.12448C32.0632 2.11145 31.7536 2.09903 31.4439 2.08663C31.2286 2.07772 31.0133 2.06877 30.798 2.05979C30.3466 2.04104 29.8951 2.02257 29.4437 2.00432C28.8655 1.98095 28.2874 1.9571 27.7092 1.93306C27.1575 1.91015 26.6058 1.88748 26.0541 1.86483C25.949 1.86049 25.8439 1.85616 25.7356 1.85169C25.4373 1.83942 25.139 1.82733 24.8407 1.8153C24.709 1.80985 24.709 1.80985 24.5746 1.80429C24.1376 1.78685 23.7026 1.77579 23.2651 1.77968ZM21.6497 2.48944C21.3891 2.71549 21.1415 2.94337 20.8964 3.18019C20.8235 3.24971 20.7506 3.31922 20.6756 3.39085C20.1739 3.87113 19.6814 4.35728 19.1946 4.84765C18.8784 5.16321 18.5561 5.47421 18.2325 5.78476C17.6229 6.37032 17.0232 6.96188 16.4308 7.55916C16.3353 7.64373 16.2398 7.72829 16.1415 7.81542C15.9006 8.04853 15.9006 8.04853 15.9624 8.30101C16.0016 8.37616 16.0409 8.45132 16.0813 8.52875C16.1189 8.60416 16.1566 8.67958 16.1954 8.75728C16.232 8.83035 16.2687 8.90341 16.3065 8.97869C16.3495 9.11355 16.3912 9.24871 16.4308 9.38426C18.3199 9.63484 20.2092 9.88437 22.1001 10.1257C22.2339 10.1431 22.3676 10.1604 22.5054 10.1783C22.6295 10.194 22.7537 10.2097 22.8816 10.2259C22.9892 10.2397 23.0968 10.2534 23.2076 10.2676C23.5255 10.298 23.8156 10.3207 24.1349 10.2968C24.4041 10.0223 24.4041 10.0223 24.6319 9.68845C24.7955 9.5181 24.9609 9.34887 25.129 9.18148C25.0977 9.11708 25.0663 9.05268 25.0341 8.98633C24.7361 8.3735 24.4382 7.76064 24.1405 7.14776C23.9874 6.83282 23.8344 6.51789 23.6813 6.20299C23.5044 5.83929 23.3277 5.47557 23.151 5.11183C23.0702 4.94571 23.0702 4.94571 22.9877 4.77624C22.6185 4.01585 22.2564 3.25333 21.8982 2.48944C21.8162 2.48944 21.7342 2.48944 21.6497 2.48944ZM18.6512 2.85656C18.5412 2.89213 18.4313 2.9277 18.318 2.96435C18.1926 3.00449 18.0672 3.04462 17.938 3.08597C17.8008 3.13078 17.6637 3.1756 17.5224 3.22177C17.3087 3.29057 17.3087 3.29057 17.0906 3.36075C16.7043 3.48528 16.3183 3.6105 15.9324 3.73607C15.5347 3.86534 15.1366 3.99381 14.7385 4.12237C14.1053 4.32701 13.4724 4.53221 12.8396 4.73784C12.1842 4.9508 11.5284 5.16292 10.8722 5.37429C10.4681 5.50451 10.0642 5.63513 9.66039 5.76592C9.47928 5.82453 9.29812 5.88303 9.11691 5.94141C8.86962 6.02117 8.62263 6.1015 8.37571 6.18202C8.24105 6.2257 8.10639 6.26938 7.96765 6.31438C7.3712 6.52924 6.96816 6.70574 6.62976 7.16864C6.56715 7.25283 6.50454 7.33702 6.44004 7.42376C6.3745 7.51445 6.30897 7.60514 6.24145 7.69858C6.09878 7.89135 5.95608 8.08411 5.81334 8.27685C5.74057 8.37599 5.66781 8.47512 5.59285 8.57727C5.23983 9.05605 4.87841 9.53054 4.51734 10.0053C4.41652 10.1387 4.41652 10.1387 4.31366 10.2747C4.03271 10.6459 3.75091 11.0162 3.45725 11.3809C3.37652 11.4811 3.29579 11.5814 3.21261 11.6847C3.11122 11.8076 3.11122 11.8076 3.00778 11.933C2.96774 11.9953 2.92769 12.0577 2.88643 12.1219C2.92744 12.1888 2.96844 12.2558 3.01069 12.3247C5.38903 11.5551 7.76736 10.7855 10.2178 9.99263C10.2588 9.62457 10.2998 9.25651 10.342 8.87729C10.6691 8.16911 11.1256 7.71519 11.9467 7.35281C12.7077 7.08687 13.47 7.06145 14.2562 7.26765C14.6927 7.29132 14.6927 7.29132 14.9542 7.07516C15.2551 6.80585 15.5334 6.52751 15.8095 6.24103C15.9905 6.06137 16.1717 5.88182 16.3531 5.70238C16.4447 5.60997 16.5364 5.51756 16.6307 5.42235C16.9577 5.09588 17.2916 4.77476 17.6268 4.45396C18.1574 3.94531 18.6702 3.42772 19.1645 2.89501C18.9193 2.76628 18.9193 2.76628 18.6512 2.85656ZM37.555 3.30059C38.2667 3.98983 39.0178 4.64281 39.7887 5.28801C39.9468 5.42128 40.1036 5.55553 40.2593 5.69072C40.4859 5.88731 40.7163 6.08042 40.9478 6.27312C41.0165 6.33404 41.0851 6.39496 41.1558 6.45772C41.3585 6.62235 41.523 6.74624 41.7798 6.8494C42.1409 6.83708 42.4378 6.74827 42.7739 6.64661C43.8434 6.55629 44.6624 6.6765 45.5387 7.18527C45.8804 7.45777 45.8804 7.45777 46.3774 8.06614C48.8993 7.7148 48.8993 7.7148 51.4721 7.35637C51.1049 7.05677 50.6411 6.97285 50.1586 6.8395C50.0482 6.80844 49.9378 6.77738 49.8241 6.74538C49.5836 6.67778 49.343 6.61044 49.1023 6.54333C48.4547 6.3627 47.8078 6.18014 47.1608 5.99785C47.0261 5.95993 46.8913 5.92202 46.7525 5.88296C45.2577 5.46197 43.7671 5.03132 42.2768 4.59971C42.027 4.52742 41.7772 4.45513 41.5273 4.38284C41.2905 4.31426 41.0536 4.24568 40.8168 4.1771C40.7051 4.14479 40.5935 4.11249 40.4785 4.0792C39.9837 3.93587 39.4891 3.79195 38.9956 3.64572C38.9139 3.62159 38.8321 3.59745 38.7479 3.57259C38.5359 3.50987 38.324 3.44678 38.1122 3.38364C37.8183 3.29001 37.8183 3.29001 37.555 3.30059ZM42.2768 8.26892C41.9794 8.61341 41.8725 8.87429 41.9041 9.28921C42.0129 9.79957 42.3854 10.0319 42.8748 10.3348C43.3094 10.4362 43.7125 10.3934 44.1407 10.2968C44.564 10.0791 44.8587 9.87981 45.0106 9.48566C45.0689 9.05739 45.0458 8.83133 44.8009 8.44637C44.3861 8.04387 44.1087 7.88583 43.4651 7.81899C42.9301 7.87259 42.6835 7.98233 42.2768 8.26892ZM11.9807 8.97235C11.756 9.29086 11.6699 9.519 11.7545 9.88688C11.8958 10.2703 12.0563 10.5334 12.47 10.7594C12.9201 10.9318 13.3142 10.9527 13.8019 10.8846C14.2972 10.7352 14.5796 10.4737 14.8154 10.094C14.9264 9.69483 14.865 9.37388 14.6601 8.9977C14.2843 8.6144 14.0608 8.49446 13.4641 8.37666C12.7992 8.32614 12.4225 8.58696 11.9807 8.97235ZM51.0641 8.60249C50.6441 8.65733 50.224 8.71005 49.8027 8.75788C49.3162 8.81317 48.8318 8.87744 48.3471 8.94225C48.1966 8.95815 48.046 8.97405 47.8909 8.99043C47.462 9.05209 47.1322 9.11136 46.7502 9.28287C46.5063 9.58575 46.3704 9.86286 46.2413 10.2089C46.0878 10.6058 45.8647 10.8166 45.5076 11.108C45.4256 11.1414 45.3436 11.1749 45.2591 11.2094C45.5039 11.9794 45.7903 12.7307 46.1129 13.4812C46.1806 13.6403 46.1806 13.6403 46.2498 13.8026C46.3929 14.1382 46.5366 14.4735 46.6803 14.8089C46.7762 15.0337 46.8721 15.2585 46.9679 15.4834C47.2931 16.2466 47.2931 16.2466 47.6219 17.0088C47.7075 17.2076 47.7907 17.407 47.8723 17.6069C47.9144 17.7077 47.9565 17.8084 47.9999 17.9122C48.037 18.0033 48.0742 18.0944 48.1125 18.1883C48.2291 18.4426 48.2291 18.4426 48.6257 18.5803C48.7654 18.5946 48.9051 18.609 49.049 18.6238C49.1887 18.6408 49.3284 18.6578 49.4723 18.6753C49.6626 18.6938 49.6626 18.6938 49.8567 18.7126C49.9432 18.7405 50.0297 18.7685 50.1188 18.7973C50.3839 18.8383 50.3839 18.8383 50.6391 18.627C50.7397 18.5381 50.8403 18.4493 50.944 18.3577C51.3849 17.9723 51.8395 17.6217 52.3287 17.2771C52.7662 16.9647 53.1861 16.6373 53.6078 16.3108C53.793 16.168 53.9783 16.0253 54.1636 15.8826C54.2544 15.8127 54.3452 15.7427 54.4388 15.6707C55.3387 14.9796 56.2403 14.2903 57.188 13.6428C56.7644 12.7065 56.2872 11.8022 55.7668 10.8988C55.6648 10.7199 55.6648 10.7199 55.5608 10.5374C55.1242 9.77489 54.672 9.01967 54.2058 8.26892C53.1591 8.26892 52.0953 8.46756 51.0641 8.60249ZM25.8745 10.3982C25.576 10.7174 25.401 11.0093 25.3775 11.4122C25.5807 11.9373 25.8102 12.2221 26.3716 12.5275C26.7277 12.6728 26.9696 12.66 27.3656 12.6289C27.833 12.4195 28.2475 12.2145 28.484 11.8177C28.5796 11.4124 28.5811 11.067 28.3558 10.6917C28.0246 10.3276 27.7322 10.1531 27.1793 10.0814C26.656 10.067 26.3075 10.1459 25.8745 10.3982ZM39.2108 10.3148C39.0677 10.3339 39.0677 10.3339 38.9217 10.3533C38.6068 10.3953 38.292 10.4377 37.9772 10.4802C37.7585 10.5095 37.5397 10.5388 37.3209 10.5681C36.8627 10.6295 36.4046 10.6912 35.9465 10.753C35.3585 10.8323 34.7704 10.9111 34.1823 10.9896C33.7307 11.05 33.2792 11.1107 32.8277 11.1715C32.6108 11.2007 32.3939 11.2298 32.1769 11.2587C31.8743 11.2992 31.5718 11.34 31.2693 11.381C31.1792 11.393 31.0891 11.405 30.9963 11.4173C30.5338 11.4783 30.5338 11.4783 30.0994 11.6149C30.002 11.817 29.9154 12.0226 29.8353 12.2296C29.7914 12.3417 29.7475 12.4537 29.7023 12.5691C29.6693 12.6557 29.6363 12.7424 29.6023 12.8317C29.679 12.8993 29.7558 12.9668 29.8348 13.0364C30.3724 13.5139 30.898 13.993 31.3963 14.4984C31.7967 14.9034 32.2126 15.29 32.6467 15.6707C33.0904 16.06 33.5166 16.4559 33.9281 16.8684C34.066 17.0033 34.066 17.0033 34.2067 17.1409C34.4485 17.3944 34.4485 17.3944 34.6048 17.6289C34.7834 17.8761 34.8833 17.9645 35.194 18.1042C35.9557 18.1768 36.7246 18.1719 37.4307 17.9014C38.0618 17.4228 38.3416 16.7073 38.6578 16.07C38.7549 15.8893 38.853 15.7089 38.9519 15.5288C39.1474 15.1706 39.3384 14.8112 39.5259 14.4501C39.8794 13.7736 40.2773 13.1168 40.677 12.4578C40.7945 12.2612 40.9114 12.0644 41.0274 11.8672C41.0742 11.7883 41.121 11.7094 41.1692 11.6281C41.2811 11.4154 41.3741 11.237 41.407 11.0066C41.1179 10.6863 41.1179 10.6863 40.7857 10.3982C40.7242 10.2978 40.7242 10.2978 40.6615 10.1954C40.1633 10.1954 39.6999 10.2484 39.2108 10.3148ZM15.9891 10.862C15.9349 10.9327 15.8808 11.0034 15.825 11.0763C15.4668 11.5048 15.1003 11.742 14.5669 12.0205C14.6549 12.9482 14.8654 13.8517 15.0794 14.7641C15.118 14.9302 15.1565 15.0962 15.195 15.2623C15.2753 15.6082 15.356 15.9541 15.4369 16.3C15.5407 16.7433 15.6437 17.1868 15.7465 17.6303C15.8258 17.9723 15.9054 18.3142 15.9851 18.6561C16.0232 18.8197 16.0613 18.9833 16.0993 19.1469C16.1522 19.3748 16.2055 19.6026 16.2589 19.8304C16.2892 19.96 16.3194 20.0896 16.3506 20.2231C16.4233 20.5392 16.4233 20.5392 16.555 20.8418C16.8231 20.9428 16.8231 20.9428 17.1453 21.0066C17.2523 21.0309 17.3593 21.0552 17.4695 21.0803C17.7847 21.1434 18.1001 21.1978 18.4189 21.2474C19.3608 20.0714 20.2788 18.8841 21.1895 17.6919C21.5367 17.2375 21.8852 16.784 22.2358 16.3314C22.3564 16.1756 22.4767 16.0197 22.5967 15.8636C22.9155 15.4499 23.2404 15.0404 23.5733 14.6342C23.6438 14.5468 23.7143 14.4594 23.787 14.3694C23.9227 14.2014 24.0601 14.0345 24.1995 13.8687C24.5667 13.443 24.5667 13.443 24.5596 12.9481C24.5015 12.8762 24.4433 12.8043 24.3834 12.7303C24.1416 12.3515 23.9776 12.0347 23.8864 11.6149C22.9737 11.4955 22.061 11.3765 21.1481 11.258C20.7242 11.203 20.3003 11.1478 19.8765 11.0923C19.389 11.0284 18.9013 10.9652 18.4136 10.902C18.186 10.8721 18.186 10.8721 17.9538 10.8415C17.8121 10.8233 17.6703 10.805 17.5243 10.7862C17.3998 10.77 17.2754 10.7537 17.1472 10.737C16.5128 10.6428 16.5128 10.6428 15.9891 10.862ZM9.8209 11.4514C9.70268 11.4899 9.70268 11.4899 9.58207 11.5293C9.32103 11.6145 9.06025 11.7003 8.79946 11.786C8.61874 11.8452 8.43801 11.9043 8.25727 11.9634C7.78114 12.1191 7.30522 12.2752 6.82934 12.4314C6.34389 12.5907 5.85824 12.7496 5.3726 12.9085C4.41943 13.2205 3.46647 13.5329 2.51365 13.8456C2.75173 14.2792 3.12104 14.5298 3.5621 14.8279C3.64015 14.8815 3.71821 14.9351 3.79863 14.9904C4.03219 15.1504 4.26676 15.3094 4.50181 15.4679C4.62419 15.5505 4.74656 15.6331 4.87265 15.7183C5.2037 15.94 5.53593 16.1605 5.86867 16.3805C6.66967 16.9116 7.46345 17.4487 8.24994 17.994C8.78377 18.3636 9.32478 18.7255 9.8678 19.0861C10.2598 19.3491 10.6467 19.6166 11.0332 19.8849C11.6161 20.2894 12.2067 20.6844 12.8064 21.0724C13.1494 21.2953 13.4859 21.5239 13.8213 21.7544C13.9906 21.693 14.1554 21.6235 14.3183 21.5516C14.4337 21.5014 14.549 21.4512 14.6678 21.3995C14.9604 21.1791 14.9604 21.1791 14.9522 20.9633C14.7504 19.6261 14.4394 18.3008 14.1405 16.9763C14.0354 16.5103 13.9325 16.0442 13.8347 15.5772C13.7396 15.1229 13.639 14.6697 13.5346 14.2168C13.4959 14.0447 13.4591 13.8724 13.4243 13.6999C13.2835 12.768 13.2835 12.768 12.6593 12.038C12.3359 11.9267 12.3359 11.9267 12.0108 11.8777C11.5715 11.7905 11.3272 11.5796 11.0099 11.3282C10.638 11.0695 10.2208 11.3203 9.8209 11.4514ZM42.7739 11.7163C42.7303 11.79 42.6867 11.8637 42.6418 11.9396C42.58 12.0441 42.5182 12.1485 42.4545 12.2562C42.3849 12.3739 42.3152 12.4916 42.2435 12.6128C42.0883 12.8751 41.9331 13.1374 41.7779 13.3997C41.4069 14.0268 41.0359 14.654 40.6651 15.2812C40.5076 15.5477 40.35 15.8142 40.1925 16.0807C40.1173 16.2079 40.0422 16.335 39.9671 16.4622C39.8616 16.6408 39.756 16.8194 39.6504 16.998C39.5905 17.0992 39.5307 17.2005 39.469 17.3049C39.3451 17.5125 39.2168 17.7184 39.0855 17.923C38.8981 18.1917 38.8981 18.1917 38.9296 18.4591C39.0779 18.7818 39.3075 19.0355 39.5431 19.3209C39.6085 19.4872 39.6085 19.4872 39.6751 19.6568C39.7328 19.7917 39.7328 19.7917 39.7916 19.9293C40.2343 20.0497 40.6555 20.0649 41.1172 20.0849C41.2109 20.0893 41.3045 20.0937 41.401 20.0982C41.5994 20.1073 41.7977 20.1162 41.9961 20.125C42.2969 20.1383 42.5976 20.1523 42.8984 20.1663C43.0916 20.1752 43.2849 20.1839 43.4782 20.1927C43.6114 20.1989 43.6114 20.1989 43.7474 20.2052C44.0027 20.2163 44.258 20.2255 44.5135 20.2335C44.6506 20.2379 44.6506 20.2379 44.7905 20.2425C45.3211 20.2708 45.3211 20.2708 45.7503 20.0481C45.8035 19.9671 45.8566 19.886 45.9114 19.8026C46.1515 19.45 46.3951 19.1962 46.7502 18.9153C46.498 18.1188 46.1973 17.3427 45.8648 16.5662C45.8166 16.4527 45.7684 16.3392 45.7187 16.2222C45.6174 15.984 45.5159 15.7459 45.4142 15.5078C45.2591 15.1448 45.1047 14.7817 44.9504 14.4185C44.8514 14.186 44.7524 13.9534 44.6533 13.7209C44.6075 13.6132 44.5616 13.5056 44.5144 13.3947C44.2741 12.8324 44.0275 12.2729 43.768 11.7163C43.4399 11.7163 43.1119 11.7163 42.7739 11.7163ZM27.7526 13.7983C27.4105 13.8599 27.1142 13.8192 26.7662 13.7918C26.2074 13.7872 26.2074 13.7872 25.7446 14.0151C25.518 14.2708 25.334 14.5303 25.1523 14.8089C25.0056 15.0145 24.8588 15.22 24.712 15.4256C24.6009 15.5864 24.6009 15.5864 24.4876 15.7506C24.1154 16.2812 23.7121 16.7955 23.3117 17.312C23.1552 17.5165 22.9989 17.721 22.8428 17.9256C22.4374 18.4555 22.0285 18.9835 21.6186 19.511C20.9117 20.4213 20.2225 21.3401 19.5373 22.2614C19.9295 22.3623 20.2056 22.3589 20.6083 22.298C20.7802 22.2726 20.7802 22.2726 20.9557 22.2467C21.0806 22.2274 21.2054 22.208 21.3341 22.1881C21.5323 22.1585 21.5323 22.1585 21.7346 22.1282C22.1718 22.0626 22.6087 21.9959 23.0457 21.9291C23.3486 21.8834 23.6516 21.8378 23.9545 21.7922C24.7522 21.6721 25.5497 21.551 26.3471 21.4297C27.1607 21.306 27.9745 21.1834 28.7883 21.0607C30.3853 20.8197 31.9821 20.5776 33.5786 20.3349C33.6689 20.1412 33.7564 19.9467 33.8427 19.7519C33.8917 19.6436 33.9407 19.5354 33.9912 19.4239C34.1069 19.1287 34.1069 19.1287 33.982 18.891C33.7647 18.6405 33.518 18.4228 33.2602 18.1992C32.8361 17.8271 32.4305 17.4492 32.0409 17.0522C31.5612 16.5667 31.0517 16.1111 30.5295 15.6564C30.022 15.2119 29.5495 14.751 29.0854 14.2758C28.8073 13.9911 28.8073 13.9911 28.484 13.7442C28.0261 13.7258 28.0261 13.7258 27.7526 13.7983ZM57.0463 15.4537C56.9653 15.516 56.8844 15.5784 56.8009 15.6426C56.7134 15.7104 56.6259 15.7783 56.5357 15.8482C56.3526 15.9892 56.1694 16.1302 55.9862 16.2712C55.8948 16.3416 55.8034 16.4119 55.7093 16.4845C55.3554 16.756 54.9984 17.0248 54.6407 17.293C54.3713 17.4957 54.1021 17.6985 53.833 17.9014C53.7068 17.9965 53.7068 17.9965 53.5781 18.0934C53.308 18.2973 53.0384 18.5017 52.769 18.7062C52.6846 18.7698 52.6002 18.8334 52.5132 18.8989C51.8806 19.3778 51.8806 19.3778 51.3478 19.9293C51.4403 20.2153 51.4403 20.2153 51.5963 20.5377C51.6657 21.0562 51.6442 21.5096 51.4022 21.9952C51.1971 22.3946 51.1971 22.3946 51.3478 22.7683C51.5843 23.0165 51.5843 23.0165 51.8759 23.2626C52.2943 23.6307 52.6986 24.0017 53.0875 24.3907C53.5165 24.2628 53.8601 24.1171 54.2247 23.8932C54.3204 23.8349 54.4161 23.7767 54.5147 23.7167C54.6655 23.6237 54.6655 23.6237 54.8193 23.5288C55.0302 23.4003 55.2412 23.2718 55.4523 23.1434C55.5564 23.0799 55.6605 23.0165 55.7678 22.9511C56.2626 22.6516 56.7643 22.3604 57.2669 22.0697C57.4479 21.9649 57.6287 21.8596 57.8093 21.7544C57.8987 21.714 57.9881 21.6737 58.0802 21.6321C58.3454 21.4581 58.3454 21.4581 58.3389 21.1512C58.3245 21.0261 58.3101 20.901 58.2952 20.7721C58.2877 20.702 58.2802 20.6318 58.2725 20.5595C58.2454 20.3153 58.214 20.0717 58.1821 19.8279C58.1586 19.6379 58.1351 19.4479 58.1117 19.258C58.0333 18.6364 57.9487 18.0154 57.8637 17.3944C57.8343 17.1771 57.8049 16.9598 57.7756 16.7425C57.7045 16.2162 57.6328 15.69 57.5608 15.1638C57.3367 15.1638 57.2017 15.3335 57.0463 15.4537ZM2.88643 16.0763C2.97125 16.5011 3.1376 16.8745 3.33278 17.2738C3.36552 17.3411 3.39826 17.4084 3.432 17.4778C3.53974 17.699 3.64823 17.92 3.75674 18.141C3.83183 18.2949 3.90687 18.4487 3.98187 18.6026C4.17894 19.0066 4.37664 19.4105 4.57448 19.8143C4.77643 20.2267 4.97778 20.6393 5.17917 21.052C5.5741 21.8609 5.96969 22.6696 6.36571 23.4781C7.24155 23.4252 8.11726 23.3711 8.99289 23.316C9.29081 23.2974 9.58876 23.2791 9.88673 23.2611C10.3149 23.2352 10.743 23.2082 11.1711 23.181C11.3711 23.1693 11.3711 23.1693 11.5751 23.1573C11.7617 23.1452 11.7617 23.1452 11.9519 23.1328C12.0612 23.126 12.1705 23.1193 12.2831 23.1123C12.5897 23.0711 12.8073 22.9949 13.0757 22.8697C11.9686 22.0982 11.9686 22.0982 10.8391 21.3488C10.2858 20.991 9.74721 20.6206 9.20961 20.2473C8.7831 19.9516 8.35313 19.6599 7.91896 19.3716C7.41405 19.0364 6.91582 18.6955 6.42007 18.3513C5.85039 17.9562 5.27407 17.5695 4.68772 17.1908C4.2127 16.8815 3.74573 16.5642 3.27814 16.2474C3.05104 16.0659 3.05104 16.0659 2.88643 16.0763ZM35.5668 19.6251C35.2674 19.9719 35.1633 20.2285 35.2018 20.6454C35.2873 21.0378 35.4553 21.2742 35.8153 21.5516C36.2776 21.7821 36.6714 21.7764 37.1909 21.7077C37.5683 21.6216 37.7854 21.4777 38.052 21.2474C38.3055 20.8732 38.3641 20.5559 38.3005 20.1321C38.0166 19.6944 37.7469 19.4124 37.1822 19.2195C36.4791 19.1465 36.1024 19.2477 35.5668 19.6251ZM47.3715 20.1321C47.0281 20.5349 46.9117 20.862 46.9987 21.3488C47.2555 21.7305 47.5087 22.0639 47.9928 22.2614C48.5181 22.3022 48.8429 22.3094 49.3286 22.1473C49.7551 21.8573 50.068 21.5942 50.1387 21.1278C50.1234 20.7757 50.0683 20.5297 49.8033 20.2462C49.4714 19.9958 49.1686 19.8458 48.7461 19.7138C48.2036 19.7319 47.808 19.8702 47.3715 20.1321ZM39.7916 21.2474C39.6591 21.402 39.5304 21.5588 39.4033 21.7164C39.2952 21.8469 39.2952 21.8469 39.1849 21.9802C38.9988 22.3572 39.1128 22.497 39.2946 22.8697C39.421 23.0696 39.5542 23.2666 39.6926 23.4611C39.7726 23.5742 39.8526 23.6874 39.935 23.804C40.0219 23.9256 40.1087 24.0472 40.1955 24.1689C40.3765 24.4243 40.5571 24.68 40.7377 24.9356C40.7834 25.0003 40.8291 25.0649 40.8762 25.1314C41.3278 25.7702 41.7676 26.4142 42.2069 27.0586C42.4779 27.454 42.7498 27.849 43.0224 28.2436C43.0809 28.3284 43.1395 28.4132 43.1998 28.5005C43.3539 28.722 43.5099 28.9425 43.667 29.1625C43.7106 29.2254 43.7541 29.2882 43.799 29.353C43.9287 29.5382 43.9287 29.5382 44.1407 29.7646C44.5676 29.7646 44.6434 29.7137 44.9746 29.5111C45.0665 29.4554 45.1584 29.3997 45.253 29.3423C45.3524 29.2809 45.4518 29.2195 45.5542 29.1562C45.6584 29.0927 45.7626 29.0292 45.8699 28.9637C46.7524 28.4243 47.6283 27.8778 48.5039 27.3311C49.6069 26.6433 50.7242 25.9716 51.8449 25.3032C51.4067 24.821 50.9616 24.3467 50.4935 23.8837C50.3479 23.7394 50.3479 23.7394 50.1994 23.5922C50.1273 23.5211 50.0552 23.45 49.981 23.3767C49.8943 23.3927 49.8076 23.4086 49.7184 23.425C48.6606 23.5815 47.7045 23.5665 46.7614 23.1212C46.2108 22.803 45.9079 22.4571 45.678 21.937C45.6295 21.8284 45.6295 21.8284 45.5801 21.7177C45.5442 21.6355 45.5442 21.6355 45.5076 21.5516C43.6032 21.4257 41.7006 21.3142 39.7916 21.2474ZM31.8764 21.8205C31.7587 21.8383 31.641 21.8561 31.5198 21.8745C31.133 21.9331 30.7465 21.9927 30.36 22.0522C30.091 22.0932 29.822 22.1341 29.553 22.175C28.8467 22.2825 28.1406 22.3907 27.4345 22.499C26.7132 22.6096 25.9918 22.7194 25.2705 22.8293C23.8563 23.0449 22.4423 23.2612 21.0284 23.4781C21.3066 23.7148 21.5118 23.8389 21.8921 23.9496C21.9909 23.9789 22.0896 24.0081 22.1913 24.0382C22.2983 24.0689 22.4053 24.0996 22.5156 24.1312C22.6275 24.1641 22.7394 24.197 22.8547 24.2309C23.2189 24.3378 23.5837 24.4435 23.9485 24.5491C24.4469 24.6944 24.9452 24.8402 25.4435 24.9859C25.6279 25.0397 25.6279 25.0397 25.8161 25.0946C26.5339 25.3045 27.2485 25.5199 27.9598 25.744C28.0782 25.7811 28.0782 25.7811 28.1991 25.8189C28.555 25.9303 28.9101 26.043 29.2642 26.1581C29.3861 26.1962 29.5079 26.2343 29.6334 26.2736C29.7365 26.3068 29.8397 26.34 29.946 26.3742C30.2247 26.4379 30.2247 26.4379 30.4894 26.3468C30.7344 26.208 30.8678 26.0875 31.0342 25.8866C31.091 25.8193 31.1478 25.7521 31.2063 25.6827C31.2665 25.6098 31.3266 25.5368 31.3886 25.4616C31.5198 25.3058 31.6514 25.1502 31.7832 24.9947C31.8523 24.9129 31.9215 24.8312 31.9927 24.747C32.4404 24.226 32.9091 23.7175 33.3757 23.2078C33.716 22.8341 34.0441 22.4652 34.3242 22.0586C34.1978 21.8417 34.1978 21.8417 33.9514 21.653C33.2389 21.609 32.5725 21.7121 31.8764 21.8205ZM15.1571 22.705C14.9242 22.99 14.8254 23.1365 14.8154 23.4781C15.0026 23.9364 15.1893 24.3166 15.6852 24.5934C16.273 24.7344 16.6694 24.7496 17.2229 24.5237C17.7168 24.1687 17.9415 23.9852 17.984 23.4401C17.9701 23.0957 17.9061 22.893 17.6423 22.6226C17.2184 22.3002 17.0119 22.1781 16.4385 22.1283C15.8518 22.1771 15.5572 22.3603 15.1571 22.705ZM35.5668 22.8697C35.5061 22.9383 35.5061 22.9383 35.4441 23.0083C35.3209 23.1476 35.1976 23.2869 35.0743 23.4261C34.9302 23.589 34.786 23.7519 34.6419 23.9148C34.2613 24.3452 33.88 24.7753 33.4976 25.2046C33.4252 25.286 33.3528 25.3673 33.2783 25.4512C33.1395 25.6072 33.0006 25.7631 32.8614 25.9188C32.5408 26.2797 32.2341 26.639 31.9633 27.0269C33.2025 27.5646 34.4453 28.096 35.6988 28.6112C35.8059 28.6556 35.9131 28.6999 36.0234 28.7456C36.1228 28.7862 36.2221 28.8268 36.3245 28.8686C36.4123 28.9047 36.5001 28.9407 36.5905 28.9778C36.8077 29.0682 36.8077 29.0682 37.0579 29.0548C36.9867 27.7258 36.8153 26.4139 36.6152 25.0941C36.5858 24.8968 36.5564 24.6995 36.5271 24.5021C36.4562 24.0255 36.3845 23.549 36.3124 23.0725C36.0663 23.0056 35.8203 22.9387 35.5668 22.8697ZM38.052 23.7823C38.1273 24.9794 38.2568 26.1692 38.417 27.3607C38.4429 27.5569 38.468 27.7532 38.4921 27.9495C38.6339 29.1043 38.8002 30.1274 39.4189 31.1841C39.4716 31.2778 39.5243 31.3714 39.5785 31.4679C39.7435 31.7555 39.9143 32.0402 40.0868 32.3248C40.5404 33.0829 40.9831 33.8439 41.4085 34.6129C41.4713 34.7265 41.4713 34.7265 41.5354 34.8423C41.7426 35.2172 41.9487 35.5925 42.154 35.9681C42.23 36.1063 42.3061 36.2444 42.3822 36.3825C42.4821 36.5654 42.4821 36.5654 42.5841 36.752C42.7482 37.0226 42.9213 37.2339 43.1467 37.4705C43.1876 36.6533 43.2182 35.8364 43.2368 35.0187C43.2457 34.6386 43.2578 34.2591 43.2779 33.8793C43.3834 31.8286 43.1358 30.4079 41.6142 28.6852C41.347 28.3773 41.1284 28.0611 40.909 27.7291C40.8437 27.6334 40.7783 27.5376 40.711 27.439C40.6485 27.3469 40.586 27.2549 40.5217 27.16C39.75 26.0293 38.9662 24.9045 38.1763 23.7823C38.1353 23.7823 38.0942 23.7823 38.052 23.7823ZM19.2887 24.492C19.1415 24.8525 19.1963 24.9506 19.3403 25.3038C19.3818 25.407 19.4233 25.5102 19.4661 25.6165C19.5122 25.7277 19.5582 25.839 19.6057 25.9536C19.6522 26.0677 19.6987 26.1818 19.7465 26.2993C19.8451 26.5407 19.9443 26.7819 20.044 27.0229C20.1969 27.3933 20.3476 27.7641 20.4981 28.1351C20.594 28.3691 20.69 28.6031 20.7862 28.837C20.8315 28.9486 20.8768 29.0602 20.9235 29.1752C20.9875 29.3291 20.9875 29.3291 21.0528 29.486C21.0902 29.5767 21.1275 29.6674 21.166 29.7609C21.2543 29.9852 21.2543 29.9852 21.5254 30.0687C21.8365 30.0848 22.1445 30.095 22.4559 30.1008C22.5507 30.1029 22.6456 30.1051 22.7432 30.1072C23.0544 30.114 23.3655 30.1199 23.6767 30.1258C23.782 30.1279 23.8874 30.1301 23.996 30.1323C25.9483 30.172 27.8978 30.1784 29.8508 30.1701C29.8508 29.3336 29.8508 28.4971 29.8508 27.6353C29.4618 27.5188 29.0727 27.4024 28.6718 27.2824C28.1406 27.1233 27.6095 26.9642 27.0783 26.8051C26.9411 26.764 26.8039 26.7229 26.6626 26.6806C25.2388 26.2541 23.8152 25.8272 22.3938 25.3955C22.2915 25.3644 22.1892 25.3334 22.0838 25.3013C21.6097 25.1573 21.1357 25.0129 20.6618 24.8682C20.4953 24.8176 20.3289 24.7669 20.1624 24.7162C20.0196 24.6726 19.8769 24.629 19.7297 24.5841C19.4495 24.4864 19.4495 24.4864 19.2887 24.492ZM51.3022 27.1861C51.2137 27.243 51.1251 27.2998 51.0339 27.3583C50.9376 27.4205 50.8413 27.4826 50.742 27.5466C49.7923 28.1554 48.8278 28.7452 47.8492 29.3228C47.754 29.3793 47.6588 29.4358 47.5608 29.494C47.4761 29.5439 47.3914 29.5939 47.3042 29.6453C47.2444 29.6846 47.1846 29.724 47.123 29.7646C47.123 29.798 47.123 29.8315 47.123 29.866C48.5808 29.7918 50.0254 29.6199 51.4721 29.4604C51.5349 29.1521 51.5969 28.8436 51.6585 28.5352C51.6762 28.4484 51.694 28.3616 51.7123 28.2722C51.8022 27.8181 51.8671 27.3873 51.8449 26.9255C51.6223 26.9255 51.4708 27.0772 51.3022 27.1861ZM31.4662 28.345C31.4371 28.7167 31.4196 29.0882 31.4041 29.4604C31.3958 29.5648 31.3874 29.6692 31.3789 29.7768C31.365 30.2201 31.356 30.5459 31.6698 30.9195C31.921 31.1269 32.1783 31.3094 32.4603 31.4883C32.5694 31.5638 32.6785 31.6394 32.7909 31.7172C32.9386 31.8109 32.9386 31.8109 33.0894 31.9065C33.6719 32.2876 34.2171 32.6918 34.7591 33.1106C35.2837 33.5156 35.8094 33.9089 36.3745 34.2766C36.9396 34.6444 37.4652 35.0377 37.9899 35.4427C38.6349 35.9404 39.2902 36.4121 39.9838 36.8646C40.4287 37.157 40.8563 37.4647 41.2828 37.7747C41.3238 37.7078 41.3648 37.6409 41.407 37.5719C41.2753 37.3086 41.1351 37.0571 40.9823 36.802C40.9365 36.7238 40.8907 36.6456 40.8435 36.5651C40.6931 36.3089 40.5414 36.0532 40.3896 35.7975C40.1825 35.4461 39.9759 35.0945 39.7693 34.7428C39.7178 34.6553 39.6663 34.5678 39.6132 34.4777C39.3048 33.9528 39.0035 33.4257 38.7112 32.8947C38.6447 32.7745 38.5783 32.6542 38.5098 32.5303C38.389 32.3104 38.2692 32.0901 38.1507 31.8693C38.0968 31.7717 38.0429 31.674 37.9874 31.5734C37.9425 31.4902 37.8975 31.4069 37.8511 31.3211C37.4703 30.793 36.9665 30.5071 36.3017 30.2442C36.0832 30.1567 36.0832 30.1567 35.8604 30.0674C35.7056 30.0066 35.5508 29.9458 35.3959 29.885C35.0818 29.7598 34.7681 29.634 34.4543 29.5083C34.3778 29.4778 34.3014 29.4473 34.2226 29.4159C33.4782 29.1182 32.75 28.7994 32.0244 28.4726C31.7356 28.3298 31.7356 28.3298 31.4662 28.345Z" fill="#282828"/>
</svg>
