<svg width="31" height="28" viewBox="0 0 31 28" fill="none" xmlns="http://www.w3.org/2000/svg">
<g clip-path="url(#clip0_6003_3790)">
<path fill-rule="evenodd" clip-rule="evenodd" d="M0.570312 2.8C0.570313 2.05739 0.886383 1.3452 1.44899 0.820101C2.0116 0.294999 2.77466 0 3.57031 0L27.5703 0C28.366 0 29.129 0.294999 29.6916 0.820101C30.2542 1.3452 30.5703 2.05739 30.5703 2.8V10.2667L28.9703 9.1448C27.2372 7.9316 25.0933 7.34259 22.9323 7.48593C20.7713 7.62927 18.7383 8.49533 17.2064 9.9251C15.6745 11.3549 14.7465 13.2524 14.593 15.2693C14.4394 17.2863 15.0705 19.2872 16.3703 20.9048L16.5703 21.1549V28H3.57031C2.77466 28 2.0116 27.705 1.44899 27.1799C0.886383 26.6548 0.570313 25.9426 0.570313 25.2L0.570312 2.8ZM16.5703 9.33333H6.57031V7.46667H16.5703V9.33333ZM6.57031 14.9333H12.5703V13.0667H6.57031V14.9333Z" fill="#282828"/>
<path fill-rule="evenodd" clip-rule="evenodd" d="M23.5713 9.33325C22.1927 9.33307 20.8448 9.71282 19.6965 10.4249C18.5483 11.1369 17.6508 12.1496 17.1168 13.3358C16.5828 14.522 16.436 15.829 16.6947 17.0929C16.9535 18.3567 17.6063 19.521 18.5713 20.4399V27.0666C18.5713 27.2399 18.623 27.4098 18.7207 27.5573C18.8183 27.7047 18.958 27.8239 19.1241 27.9014C19.2902 27.9789 19.4762 28.0117 19.6611 27.9962C19.8461 27.9806 20.0227 27.9173 20.1713 27.8133L23.5713 25.4333L26.9713 27.8133C27.1199 27.9173 27.2965 27.9806 27.4815 27.9962C27.6665 28.0117 27.8524 27.9789 28.0185 27.9014C28.1846 27.8239 28.3243 27.7047 28.422 27.5573C28.5196 27.4098 28.5713 27.2399 28.5713 27.0666V20.4399C29.5363 19.521 30.1892 18.3567 30.4479 17.0929C30.7067 15.829 30.5598 14.522 30.0258 13.3358C29.4918 12.1496 28.5944 11.1369 27.4461 10.4249C26.2979 9.71282 24.9499 9.33307 23.5713 9.33325ZM20.5713 25.1999V21.7709C21.4813 22.1741 22.4973 22.3999 23.5713 22.3999C24.6453 22.3999 25.6613 22.1759 26.5713 21.7709V25.1999L24.1713 23.5199C23.9982 23.3988 23.7877 23.3333 23.5713 23.3333C23.3549 23.3333 23.1444 23.3988 22.9713 23.5199L20.5713 25.1999Z" fill="#282828"/>
</g>
<defs>
<clipPath id="clip0_6003_3790">
<rect width="30" height="28" fill="white" transform="translate(0.570312)"/>
</clipPath>
</defs>
</svg>
