<svg width="514" height="544" viewBox="0 0 514 544" fill="none" xmlns="http://www.w3.org/2000/svg">
<path d="M175.966 15.0015C176.486 15.0027 177.006 15.004 177.541 15.0052C191.597 15.0582 204.762 17.032 218.399 20.2954C218.925 20.4204 219.451 20.5455 219.994 20.6743C248.599 27.668 274.604 43.9948 295.022 64.0676C296.358 65.354 297.695 66.6369 299.061 67.8937C299.915 68.6812 300.736 69.5004 301.556 70.3208C301.556 70.696 301.556 71.0712 301.556 71.4577C302.144 71.6453 302.732 71.8329 303.338 72.0262C304.798 73.5111 306.052 75.155 307.343 76.7763C308.14 77.7737 308.947 78.7624 309.755 79.7516C318.352 90.3826 325.152 102.209 331.345 114.249C332.65 116.783 334.013 119.28 335.412 121.767C336.989 124.572 338.515 127.394 339.992 130.248C342.507 135.081 345.079 139.885 347.663 144.684C348.131 145.555 348.6 146.426 349.068 147.296C352.267 153.244 355.486 159.18 358.711 165.115C360.939 169.225 363.12 173.354 365.267 177.503C366.87 180.587 368.524 183.639 370.214 186.68C373.621 192.848 376.887 199.082 380.144 205.324C380.772 206.526 381.401 207.728 382.029 208.93C383.337 211.433 384.644 213.937 385.951 216.44C387.605 219.61 389.262 222.778 390.918 225.947C392.214 228.425 393.509 230.904 394.803 233.383C395.413 234.55 396.022 235.716 396.632 236.882C400.871 244.988 405.003 253.139 409.066 261.327C409.699 262.599 410.332 263.872 410.966 265.144C411.704 266.627 412.442 268.109 413.178 269.593C414.904 273.055 416.684 276.488 418.481 279.916C420.759 284.268 422.992 288.641 425.214 293.019C425.433 293.449 425.651 293.879 425.876 294.322C429.045 300.567 432.15 306.837 435.186 313.143C437.921 318.818 440.715 324.466 443.516 330.112C447.732 338.613 451.902 347.133 456.026 355.675C458.054 359.874 460.084 364.072 462.115 368.27C462.356 368.769 462.597 369.267 462.846 369.781C466.318 376.958 469.823 384.119 473.355 391.27C476.468 397.578 479.498 403.92 482.498 410.278C485.3 416.212 488.198 422.095 491.169 427.953C494.111 433.759 496.955 439.605 499.777 445.465C501.107 448.223 502.458 450.97 503.824 453.712C510.674 467.5 510.674 467.5 512.418 474.503C512.523 474.895 512.629 475.286 512.737 475.69C513.83 480.168 513.868 484.673 513.865 489.248C513.866 489.664 513.866 490.079 513.866 490.508C513.844 497.262 513.257 503.426 510.636 509.748C510.383 510.371 510.383 510.371 510.124 511.007C507.629 516.963 504.331 521.968 499.944 526.802C499.561 527.227 499.177 527.651 498.782 528.088C489.214 537.9 474.516 543.503 460.658 543.981C446.267 544.296 434.043 540.727 423.366 531.092C411.375 519.834 403.618 505.256 395.866 491.188C394.317 488.395 392.727 485.624 391.135 482.853C384.689 471.591 378.504 460.192 372.832 448.555C371.492 445.812 370.101 443.098 368.675 440.395C366.823 436.885 365.057 433.343 363.321 429.78C362.058 427.196 360.745 424.64 359.394 422.097C354.378 412.611 349.761 402.9 345.286 393.171C343.054 388.32 340.693 383.527 338.31 378.743C333.879 369.84 329.675 360.851 325.537 351.82C322.809 345.868 320.069 339.925 317.006 334.122C315.892 331.997 314.874 329.839 313.881 327.66C311.396 322.261 308.834 316.895 306.27 311.53C306.069 311.108 305.868 310.686 305.66 310.252C303.409 305.537 301.141 300.829 298.845 296.134C297.595 293.575 296.373 291.005 295.163 288.429C293.068 283.969 290.92 279.552 288.595 275.198C286.668 271.558 284.912 267.845 283.142 264.134C280.885 259.408 278.539 254.784 275.926 250.231C274.709 248.04 273.61 245.814 272.525 243.562C270.619 239.615 268.557 235.768 266.42 231.932C264.634 228.718 262.922 225.474 261.239 222.209C256.768 213.57 251.831 205.168 246.875 196.777C245.895 195.111 244.93 193.44 243.977 191.76C243.696 191.266 243.415 190.772 243.125 190.264C242.604 189.347 242.083 188.43 241.564 187.513C237.268 179.942 232.654 172.571 227.902 165.255C227.561 164.726 227.219 164.196 226.867 163.651C224.652 160.26 222.284 157.061 219.698 153.921C219.024 153.1 218.352 152.278 217.682 151.454C217.391 151.101 217.1 150.748 216.801 150.384C216.023 149.338 216.023 149.338 215.437 148.104C214.88 146.865 214.88 146.865 213.053 146.496C212.199 145.645 212.199 145.645 211.271 144.542C203.559 135.913 192.427 128.18 180.384 126.599C179.857 126.524 179.331 126.448 178.788 126.371C166.165 124.941 153.831 129.531 143.892 136.79C141.625 138.546 139.453 140.36 137.335 142.28C136.382 143.128 135.404 143.945 134.426 144.766C127.784 150.52 124.191 156.958 120.43 164.651C119.854 165.796 119.277 166.94 118.697 168.083C117.582 170.29 116.477 172.5 115.379 174.714C113.353 178.793 111.236 182.827 109.107 186.857C106.473 191.853 103.889 196.865 101.385 201.922C98.1977 208.355 94.9462 214.741 91.3988 221.001C89.486 224.385 87.7388 227.831 86.0222 231.309C82.2643 238.872 78.3555 246.362 74.4355 253.848C73.4348 255.76 72.4356 257.672 71.4362 259.585C69.5497 263.194 67.6621 266.802 65.774 270.411C63.6393 274.49 61.5059 278.571 59.3726 282.651C56.2146 288.692 53.0558 294.732 49.8961 300.772C49.0491 302.391 48.2023 304.01 47.3554 305.629C46.247 307.749 45.1381 309.867 44.0287 311.986C43.5994 312.807 43.17 313.627 42.7407 314.448C42.39 315.118 42.0392 315.787 41.6779 316.477C40.5535 318.649 39.4783 320.839 38.4235 323.041C36.7578 326.476 34.9679 329.821 33.0777 333.146C31.3693 336.176 29.8369 339.272 28.3219 342.393C27.015 345.082 25.6701 347.749 24.2794 350.399C24.0897 350.762 23.9 351.126 23.7045 351.5C22.5304 353.742 21.3334 355.971 20.1238 358.195C13.2345 370.963 9.31367 385.103 13.8059 399.375C16.532 407.55 20.7729 414.386 27.1379 420.499C27.5751 420.93 28.0123 421.362 28.4627 421.806C38.4352 431.063 50.689 433.859 64.229 433.689C76.6026 433.362 87.7629 427.317 96.1994 418.804C100.69 413.788 104.703 408.377 108.513 402.876C108.778 402.494 109.042 402.112 109.315 401.718C113.423 395.742 117.133 389.615 120.613 383.284C123.288 378.442 126.103 373.726 129.785 369.514C131.817 367.158 133.455 364.699 135.093 362.088C139.421 355.271 144.815 349.371 151.279 344.323C151.984 343.758 151.984 343.758 152.704 343.182C164.873 334.044 180.25 330.375 195.473 332.088C209.743 334 221.869 340.797 230.643 351.776C239.839 364.239 241.503 379.971 238.92 394.708C237.726 400.774 235.808 406.669 233.842 412.54C233.664 413.073 233.485 413.607 233.302 414.156C223.123 444.145 207.466 475.159 183.354 497.242C181.871 498.65 180.402 500.066 178.957 501.51C174.79 505.627 170.319 509.152 165.535 512.591C164.991 512.988 164.447 513.385 163.887 513.794C145.163 527.194 123.74 535.403 100.791 539.309C100.196 539.411 99.6017 539.513 98.9889 539.618C58.6705 546.17 14.0468 536.289 -21.3919 517.603C-22.5781 516.977 -23.7707 516.362 -24.9744 515.768C-37.4403 509.568 -48.5159 501.042 -58.3949 491.557C-58.8865 491.107 -59.378 490.656 -59.8845 490.192C-64.188 486.202 -67.8751 481.932 -71.4624 477.346C-71.7095 477.036 -71.9566 476.726 -72.2113 476.407C-79.4391 467.334 -84.9193 457.354 -89.3409 446.783C-89.7924 445.709 -90.2634 444.643 -90.7388 443.579C-94.2374 435.505 -96.1931 426.77 -97.783 418.189C-97.8777 417.683 -97.9723 417.177 -98.0697 416.656C-102.046 393.888 -99.475 369.438 -94.0336 347.166C-93.919 346.683 -93.8044 346.2 -93.6864 345.702C-90.0469 330.525 -84.1017 315.92 -77.3898 301.78C-76.5489 300.003 -75.7164 298.223 -74.8831 296.444C-69.3994 284.734 -63.8096 273.072 -58.1463 261.442C-55.6307 256.271 -53.149 251.089 -50.726 245.878C-49.0615 242.312 -47.2673 238.822 -45.4156 235.342C-43.0187 230.795 -40.7675 226.178 -38.4792 221.581C-36.7089 218.03 -34.9266 214.484 -33.145 210.938C-31.6697 207.999 -30.1998 205.059 -28.7424 202.113C-26.2227 197.025 -23.6909 191.962 -20.8806 187.015C-19.4931 184.572 -18.1786 182.102 -16.8907 179.609C-15.1367 176.218 -13.3215 172.862 -11.4707 169.519C-9.67216 166.269 -7.904 163.009 -6.1991 159.713C-1.58819 150.827 3.24573 142.073 8.38409 133.456C10.1209 130.542 11.8151 127.618 13.4393 124.645C22.8515 107.592 33.3144 90.3618 46.1452 75.437C46.3983 75.1362 46.6515 74.8354 46.9123 74.5255C50.9277 69.7621 55.3381 65.3848 59.8438 61.0476C60.3842 60.5251 60.9246 60.0026 61.4814 59.4643C65.0963 56.0206 68.8685 52.8756 72.8742 49.8558C73.2714 49.5526 73.6687 49.2494 74.0779 48.9369C103.001 27.0531 139.1 14.8441 175.966 15.0015Z" fill="#1F1F1F" fill-opacity="0.7"/>
<path d="M106.21 0.459725C106.297 0.45993 106.384 0.460135 106.474 0.460346C108.827 0.469216 111.032 0.799735 113.315 1.34617C113.403 1.36711 113.491 1.38805 113.582 1.40962C118.372 2.5807 122.727 5.3146 126.146 8.67575C126.369 8.89114 126.593 9.10597 126.822 9.31641C126.965 9.44828 127.103 9.58545 127.24 9.72283C127.24 9.78565 127.24 9.84848 127.24 9.91321C127.338 9.94462 127.437 9.97603 127.538 10.0084C127.783 10.257 127.993 10.5323 128.209 10.8038C128.342 10.9708 128.477 11.1364 128.613 11.302C130.052 13.0821 131.191 15.0624 132.228 17.0785C132.446 17.5028 132.675 17.921 132.909 18.3375C133.173 18.8072 133.428 19.2796 133.676 19.7575C134.097 20.5668 134.528 21.3711 134.96 22.1748C135.039 22.3206 135.117 22.4664 135.196 22.6123C135.731 23.6081 136.27 24.6022 136.81 25.5959C137.183 26.2841 137.549 26.9756 137.908 27.6702C138.176 28.1866 138.453 28.6978 138.736 29.207C139.307 30.2398 139.854 31.2836 140.399 32.3288C140.504 32.5301 140.61 32.7314 140.715 32.9327C140.934 33.3519 141.153 33.771 141.372 34.1903C141.649 34.721 141.926 35.2516 142.203 35.7821C142.42 36.1971 142.637 36.6122 142.854 37.0273C142.956 37.2226 143.058 37.418 143.16 37.6133C143.87 38.9706 144.562 40.3353 145.242 41.7064C145.348 41.9195 145.454 42.1325 145.56 42.3456C145.684 42.5939 145.807 42.8421 145.931 43.0906C146.22 43.6702 146.518 44.2451 146.819 44.8191C147.2 45.5479 147.574 46.2801 147.946 47.0132C147.983 47.0852 148.019 47.1572 148.057 47.2313C148.588 48.2771 149.107 49.327 149.616 50.3829C150.074 51.3332 150.542 52.2789 151.011 53.2243C151.717 54.6478 152.415 56.0745 153.105 57.5048C153.445 58.208 153.785 58.911 154.125 59.6139C154.165 59.6974 154.206 59.7808 154.247 59.8669C154.829 61.0687 155.416 62.2678 156.007 63.4651C156.528 64.5214 157.036 65.5833 157.538 66.648C158.007 67.6416 158.493 68.6267 158.99 69.6076C159.483 70.5798 159.959 71.5588 160.431 72.5399C160.654 73.0018 160.88 73.4618 161.109 73.9209C162.256 76.2297 162.256 76.2297 162.548 77.4024C162.566 77.4679 162.583 77.5335 162.602 77.6011C162.785 78.3509 162.791 79.1053 162.791 79.8713C162.791 79.941 162.791 80.0106 162.791 80.0823C162.787 81.2132 162.689 82.2454 162.25 83.3041C162.207 83.4084 162.207 83.4084 162.164 83.5148C161.746 84.5122 161.194 85.3503 160.459 86.1598C160.395 86.2308 160.331 86.3019 160.265 86.3751C158.663 88.0181 156.202 88.9562 153.881 89.0363C151.471 89.0891 149.425 88.4914 147.637 86.878C145.629 84.993 144.33 82.552 143.032 80.1962C142.772 79.7285 142.506 79.2645 142.24 78.8005C141.16 76.9148 140.125 75.006 139.175 73.0574C138.95 72.5981 138.717 72.1436 138.479 71.691C138.169 71.1033 137.873 70.5102 137.582 69.9135C137.371 69.4809 137.151 69.053 136.925 68.6271C136.085 67.0386 135.312 65.4126 134.562 63.7835C134.188 62.9711 133.793 62.1687 133.394 61.3675C132.652 59.8768 131.948 58.3715 131.255 56.8593C130.799 55.8627 130.34 54.8675 129.827 53.8958C129.64 53.5401 129.47 53.1786 129.303 52.8138C128.887 51.9097 128.458 51.0112 128.029 50.1128C127.995 50.0422 127.962 49.9716 127.927 49.8988C127.55 49.1093 127.17 48.321 126.786 47.5348C126.576 47.1063 126.372 46.676 126.169 46.2445C125.818 45.4977 125.459 44.7582 125.069 44.0291C124.747 43.4196 124.453 42.7979 124.156 42.1764C123.778 41.3851 123.386 40.6108 122.948 39.8484C122.744 39.4816 122.56 39.1089 122.379 38.7318C122.059 38.0709 121.714 37.4267 121.356 36.7843C121.057 36.2461 120.771 35.7029 120.489 35.1562C119.74 33.7096 118.913 32.3027 118.083 30.8976C117.919 30.6187 117.758 30.3389 117.598 30.0576C117.551 29.9749 117.504 29.8922 117.456 29.807C117.368 29.6535 117.281 29.5 117.194 29.3464C116.475 28.0787 115.702 26.8445 114.907 25.6194C114.849 25.5308 114.792 25.4421 114.733 25.3507C114.362 24.7829 113.966 24.2473 113.533 23.7216C113.42 23.5841 113.307 23.4464 113.195 23.3085C113.146 23.2494 113.098 23.1902 113.048 23.1293C112.917 22.9541 112.917 22.9541 112.819 22.7476C112.726 22.54 112.726 22.54 112.42 22.4782C112.277 22.3358 112.277 22.3358 112.122 22.151C110.83 20.7061 108.966 19.4113 106.95 19.1466C106.862 19.1339 106.773 19.1213 106.682 19.1083C104.569 18.8688 102.504 19.6374 100.839 20.8529C100.46 21.147 100.096 21.4508 99.7414 21.7723C99.5817 21.9142 99.418 22.0511 99.2541 22.1885C98.142 23.1521 97.5404 24.2301 96.9105 25.5183C96.8141 25.71 96.7174 25.9015 96.6205 26.093C96.4338 26.4624 96.2486 26.8325 96.0648 27.2033C95.7255 27.8863 95.3711 28.5618 95.0145 29.2366C94.5735 30.0731 94.1408 30.9124 93.7215 31.7591C93.1878 32.8364 92.6434 33.9058 92.0494 34.9539C91.729 35.5206 91.4365 36.0976 91.149 36.68C90.5198 37.9464 89.8653 39.2005 89.2089 40.4541C89.0413 40.7743 88.874 41.0945 88.7066 41.4147C88.3908 42.019 88.0747 42.6233 87.7585 43.2275C87.4011 43.9106 87.0438 44.5939 86.6866 45.2771C86.1578 46.2886 85.6289 47.3001 85.0998 48.3114C84.958 48.5826 84.8162 48.8537 84.6744 49.1248C84.4888 49.4796 84.3031 49.8344 84.1173 50.1892C84.0454 50.3266 83.9735 50.464 83.9016 50.6014C83.8429 50.7136 83.7842 50.8257 83.7237 50.9413C83.5354 51.3048 83.3554 51.6716 83.1787 52.0404C82.8998 52.6156 82.6001 53.1756 82.2836 53.7325C81.9975 54.2398 81.7409 54.7581 81.4873 55.2808C81.2684 55.7311 81.0432 56.1776 80.8103 56.6214C80.7786 56.6822 80.7468 56.7431 80.7141 56.8057C80.5175 57.1811 80.317 57.5544 80.1145 57.9269C78.9609 60.0648 78.3044 62.4325 79.0566 64.8223C79.5131 66.1913 80.2232 67.3359 81.289 68.3594C81.3622 68.4317 81.4354 68.5039 81.5108 68.5784C83.1807 70.1284 85.2326 70.5966 87.4998 70.5681C89.5718 70.5133 91.4405 69.5011 92.8532 68.0757C93.6052 67.2358 94.2771 66.3297 94.9151 65.4085C94.9594 65.3446 95.0037 65.2806 95.0494 65.2147C95.7373 64.214 96.3585 63.188 96.9413 62.1279C97.3892 61.3171 97.8605 60.5275 98.477 59.8221C98.8173 59.4277 99.0917 59.0158 99.3659 58.5787C100.09 57.4371 100.994 56.4493 102.076 55.604C102.194 55.5094 102.194 55.5094 102.315 55.4129C104.352 53.8827 106.927 53.2684 109.476 53.5552C111.866 53.8754 113.896 55.0135 115.365 56.8519C116.905 58.9389 117.184 61.5732 116.751 64.0408C116.551 65.0566 116.23 66.0436 115.901 67.0267C115.871 67.1161 115.841 67.2054 115.811 67.2974C114.106 72.319 111.485 77.5123 107.447 81.2099C107.199 81.4457 106.953 81.6829 106.711 81.9246C106.013 82.614 105.264 83.2042 104.463 83.7801C104.372 83.8466 104.281 83.9131 104.187 83.9816C101.052 86.2253 97.4648 87.6 93.6221 88.254C93.5225 88.271 93.4229 88.2881 93.3203 88.3057C86.5691 89.4029 79.0969 87.7483 73.1628 84.6193C72.9641 84.5146 72.7644 84.4116 72.5629 84.3121C70.4755 83.2739 68.6209 81.8462 66.9667 80.2581C66.8844 80.1826 66.8021 80.1071 66.7173 80.0294C65.9967 79.3613 65.3792 78.6463 64.7786 77.8783C64.7372 77.8265 64.6958 77.7746 64.6532 77.7212C63.4429 76.2019 62.5252 74.5308 61.7848 72.7607C61.7092 72.5809 61.6304 72.4024 61.5508 72.2242C60.9649 70.8722 60.6375 69.4096 60.3712 67.9727C60.3554 67.888 60.3395 67.8033 60.3232 67.716C59.6573 63.9035 60.0879 59.8094 60.9991 56.08C61.0183 55.9991 61.0374 55.9182 61.0572 55.8349C61.6666 53.2935 62.6621 50.848 63.786 48.4802C63.9268 48.1827 64.0662 47.8847 64.2058 47.5866C65.124 45.6259 66.06 43.6732 67.0083 41.7256C67.4296 40.8599 67.8451 39.9921 68.2508 39.1196C68.5295 38.5225 68.83 37.938 69.1401 37.3552C69.5414 36.5939 69.9184 35.8209 70.3015 35.051C70.598 34.4564 70.8964 33.8626 71.1947 33.2688C71.4418 32.7769 71.6879 32.2845 71.9319 31.7911C72.3539 30.9392 72.7778 30.0915 73.2484 29.2631C73.4807 28.8539 73.7008 28.4403 73.9165 28.023C74.2102 27.4551 74.5141 26.8932 74.8241 26.3334C75.1252 25.7891 75.4213 25.2432 75.7068 24.6913C76.4789 23.2035 77.2883 21.7376 78.1487 20.2947C78.4395 19.8068 78.7232 19.3172 78.9952 18.8193C80.5712 15.9639 82.3232 13.0787 84.4717 10.5795C84.5141 10.5292 84.5565 10.4788 84.6002 10.4269C85.2725 9.62929 86.0111 8.89631 86.7655 8.17005C86.856 8.08256 86.9465 7.99508 87.0397 7.90494C87.645 7.32829 88.2767 6.80166 88.9474 6.29602C89.014 6.24524 89.0805 6.19446 89.149 6.14215C93.9921 2.47774 100.037 0.43336 106.21 0.459725Z" fill="white"/>
</svg>
