<svg width="514" height="529" viewBox="0 0 514 529" fill="none" xmlns="http://www.w3.org/2000/svg">
<path d="M175.966 0.00150418C176.486 0.00272932 177.006 0.00395446 177.541 0.00521672C191.597 0.0581884 204.762 2.03205 218.399 5.29538C218.925 5.42042 219.451 5.54545 219.994 5.67427C248.599 12.668 274.604 28.9948 295.022 49.0676C296.358 50.354 297.695 51.6369 299.061 52.8937C299.915 53.6812 300.736 54.5004 301.556 55.3208C301.556 55.696 301.556 56.0712 301.556 56.4577C302.144 56.6453 302.732 56.8329 303.338 57.0262C304.798 58.5111 306.052 60.155 307.343 61.7763C308.14 62.7737 308.947 63.7624 309.755 64.7516C318.352 75.3826 325.152 87.2088 331.345 99.2487C332.65 101.783 334.013 104.28 335.412 106.767C336.989 109.572 338.515 112.394 339.992 115.248C342.507 120.081 345.079 124.885 347.663 129.684C348.131 130.555 348.6 131.426 349.068 132.296C352.267 138.244 355.486 144.18 358.711 150.115C360.939 154.225 363.12 158.354 365.267 162.503C366.87 165.587 368.524 168.639 370.214 171.68C373.621 177.848 376.887 184.082 380.144 190.324C380.772 191.526 381.401 192.728 382.029 193.93C383.337 196.433 384.644 198.937 385.951 201.44C387.605 204.61 389.262 207.778 390.918 210.947C392.214 213.425 393.509 215.904 394.803 218.383C395.413 219.55 396.022 220.716 396.632 221.882C400.871 229.988 405.003 238.139 409.066 246.327C409.699 247.599 410.332 248.872 410.966 250.144C411.704 251.627 412.442 253.109 413.178 254.593C414.904 258.055 416.684 261.488 418.481 264.916C420.759 269.268 422.992 273.641 425.214 278.019C425.433 278.449 425.651 278.879 425.876 279.322C429.045 285.567 432.15 291.837 435.186 298.143C437.921 303.818 440.715 309.466 443.516 315.112C447.732 323.613 451.902 332.133 456.026 340.675C458.054 344.874 460.084 349.072 462.115 353.27C462.356 353.769 462.597 354.267 462.846 354.781C466.318 361.958 469.823 369.119 473.355 376.27C476.468 382.578 479.498 388.92 482.498 395.278C485.3 401.212 488.198 407.095 491.169 412.953C494.111 418.759 496.955 424.605 499.777 430.465C501.107 433.223 502.458 435.97 503.824 438.712C510.674 452.5 510.674 452.5 512.418 459.503C512.523 459.895 512.629 460.286 512.737 460.69C513.83 465.168 513.868 469.673 513.865 474.248C513.866 474.664 513.866 475.079 513.866 475.508C513.844 482.262 513.257 488.426 510.636 494.748C510.383 495.371 510.383 495.371 510.124 496.007C507.629 501.963 504.331 506.968 499.944 511.802C499.561 512.227 499.177 512.651 498.782 513.088C489.214 522.9 474.516 528.503 460.658 528.981C446.267 529.296 434.043 525.727 423.366 516.092C411.375 504.834 403.618 490.256 395.866 476.188C394.317 473.395 392.727 470.624 391.135 467.853C384.689 456.591 378.504 445.192 372.832 433.555C371.492 430.812 370.101 428.098 368.675 425.395C366.823 421.885 365.057 418.343 363.321 414.78C362.058 412.196 360.745 409.64 359.394 407.097C354.378 397.611 349.761 387.9 345.286 378.171C343.054 373.32 340.693 368.527 338.31 363.743C333.879 354.84 329.675 345.851 325.537 336.82C322.809 330.868 320.069 324.925 317.006 319.122C315.892 316.997 314.874 314.839 313.881 312.66C311.396 307.261 308.834 301.895 306.27 296.53C306.069 296.108 305.868 295.686 305.66 295.252C303.409 290.537 301.141 285.829 298.845 281.134C297.595 278.575 296.373 276.005 295.163 273.429C293.068 268.969 290.92 264.552 288.595 260.198C286.668 256.558 284.912 252.845 283.142 249.134C280.885 244.408 278.539 239.784 275.926 235.231C274.709 233.04 273.61 230.814 272.525 228.562C270.619 224.615 268.557 220.768 266.42 216.932C264.634 213.718 262.922 210.474 261.239 207.209C256.768 198.57 251.831 190.168 246.875 181.777C245.895 180.111 244.93 178.44 243.977 176.76C243.696 176.266 243.415 175.772 243.125 175.264C242.604 174.347 242.083 173.43 241.564 172.513C237.268 164.942 232.654 157.571 227.902 150.255C227.561 149.726 227.219 149.196 226.867 148.651C224.652 145.26 222.284 142.061 219.698 138.921C219.024 138.1 218.352 137.278 217.682 136.454C217.391 136.101 217.1 135.748 216.801 135.384C216.023 134.338 216.023 134.338 215.437 133.104C214.88 131.865 214.88 131.865 213.053 131.496C212.199 130.645 212.199 130.645 211.271 129.542C203.559 120.913 192.427 113.18 180.384 111.599C179.857 111.524 179.331 111.448 178.788 111.371C166.165 109.941 153.831 114.531 143.892 121.79C141.625 123.546 139.453 125.36 137.335 127.28C136.382 128.128 135.404 128.945 134.426 129.766C127.784 135.52 124.191 141.958 120.43 149.651C119.854 150.796 119.277 151.94 118.697 153.083C117.582 155.29 116.477 157.5 115.379 159.714C113.353 163.793 111.236 167.827 109.107 171.857C106.473 176.853 103.889 181.865 101.385 186.922C98.1977 193.355 94.9462 199.741 91.3988 206.001C89.486 209.385 87.7388 212.831 86.0222 216.309C82.2643 223.872 78.3555 231.362 74.4355 238.848C73.4348 240.76 72.4356 242.672 71.4362 244.585C69.5497 248.194 67.6621 251.802 65.774 255.411C63.6393 259.49 61.5059 263.571 59.3726 267.651C56.2146 273.692 53.0558 279.732 49.8961 285.772C49.0491 287.391 48.2023 289.01 47.3554 290.629C46.247 292.749 45.1381 294.867 44.0287 296.986C43.5994 297.807 43.17 298.627 42.7407 299.448C42.39 300.118 42.0392 300.787 41.6779 301.477C40.5535 303.649 39.4783 305.839 38.4235 308.041C36.7578 311.476 34.9679 314.821 33.0777 318.146C31.3693 321.176 29.8369 324.272 28.3219 327.393C27.015 330.082 25.6701 332.749 24.2794 335.399C24.0897 335.762 23.9 336.126 23.7045 336.5C22.5304 338.742 21.3334 340.971 20.1238 343.195C13.2345 355.963 9.31367 370.103 13.8059 384.375C16.532 392.55 20.7729 399.386 27.1379 405.499C27.5751 405.93 28.0123 406.362 28.4627 406.806C38.4352 416.063 50.689 418.859 64.229 418.689C76.6026 418.362 87.7629 412.317 96.1994 403.804C100.69 398.788 104.703 393.377 108.513 387.876C108.778 387.494 109.042 387.112 109.315 386.718C113.423 380.742 117.133 374.615 120.613 368.284C123.288 363.442 126.103 358.726 129.785 354.514C131.817 352.158 133.455 349.699 135.093 347.088C139.421 340.271 144.815 334.371 151.279 329.323C151.984 328.758 151.984 328.758 152.704 328.182C164.873 319.044 180.25 315.375 195.473 317.088C209.743 319 221.869 325.797 230.643 336.776C239.839 349.239 241.503 364.971 238.92 379.708C237.726 385.774 235.808 391.669 233.842 397.54C233.664 398.073 233.485 398.607 233.302 399.156C223.123 429.145 207.466 460.159 183.354 482.242C181.871 483.65 180.402 485.066 178.957 486.51C174.79 490.627 170.319 494.152 165.535 497.591C164.991 497.988 164.447 498.385 163.887 498.794C145.163 512.194 123.74 520.403 100.791 524.309C100.196 524.411 99.6017 524.513 98.9889 524.618C58.6705 531.17 14.0468 521.289 -21.3919 502.603C-22.5781 501.977 -23.7707 501.362 -24.9744 500.768C-37.4403 494.568 -48.5159 486.042 -58.3949 476.557C-58.8865 476.107 -59.378 475.656 -59.8845 475.192C-64.188 471.202 -67.8751 466.932 -71.4624 462.346C-71.7095 462.036 -71.9566 461.726 -72.2113 461.407C-79.4391 452.334 -84.9193 442.354 -89.3409 431.783C-89.7924 430.709 -90.2634 429.643 -90.7388 428.579C-94.2374 420.505 -96.1931 411.77 -97.783 403.189C-97.8777 402.683 -97.9723 402.177 -98.0697 401.656C-102.046 378.888 -99.475 354.438 -94.0336 332.166C-93.919 331.683 -93.8044 331.2 -93.6864 330.702C-90.0469 315.525 -84.1017 300.92 -77.3898 286.78C-76.5489 285.003 -75.7164 283.223 -74.8831 281.444C-69.3994 269.734 -63.8096 258.072 -58.1463 246.442C-55.6307 241.271 -53.149 236.089 -50.726 230.878C-49.0615 227.312 -47.2673 223.822 -45.4156 220.342C-43.0187 215.795 -40.7675 211.178 -38.4792 206.581C-36.7089 203.03 -34.9266 199.484 -33.145 195.938C-31.6697 192.999 -30.1998 190.059 -28.7424 187.113C-26.2227 182.025 -23.6909 176.962 -20.8806 172.015C-19.4931 169.572 -18.1786 167.102 -16.8907 164.609C-15.1367 161.218 -13.3215 157.862 -11.4707 154.519C-9.67216 151.269 -7.904 148.009 -6.1991 144.713C-1.58819 135.827 3.24573 127.073 8.38409 118.456C10.1209 115.542 11.8151 112.618 13.4393 109.645C22.8515 92.5923 33.3144 75.3618 46.1452 60.437C46.3983 60.1362 46.6515 59.8354 46.9123 59.5255C50.9277 54.7621 55.3381 50.3848 59.8438 46.0476C60.3842 45.5251 60.9246 45.0026 61.4814 44.4643C65.0963 41.0206 68.8685 37.8756 72.8742 34.8558C73.2714 34.5526 73.6687 34.2494 74.0779 33.9369C103.001 12.0531 139.1 -0.155946 175.966 0.00150418Z" fill="#1F1F1F" fill-opacity="0.7"/>
<path d="M385.99 0.000354236C386.113 0.000642757 386.235 0.000931279 386.361 0.00122854C389.671 0.0137034 392.772 0.478549 395.983 1.24707C396.107 1.27651 396.231 1.30596 396.359 1.3363C403.095 2.98332 409.219 6.82832 414.028 11.5555C414.343 11.8584 414.657 12.1605 414.979 12.4565C415.18 12.642 415.374 12.8349 415.567 13.0281C415.567 13.1165 415.567 13.2048 415.567 13.2958C415.705 13.34 415.844 13.3842 415.986 13.4297C416.33 13.7794 416.626 14.1666 416.93 14.5484C417.117 14.7833 417.307 15.0161 417.498 15.2491C419.522 17.7527 421.124 20.5378 422.582 23.3732C422.889 23.97 423.21 24.5581 423.54 25.1438C423.911 25.8044 424.271 26.4688 424.619 27.141C425.211 28.2792 425.817 29.4104 426.425 30.5407C426.535 30.7458 426.646 30.9508 426.756 31.1559C427.509 32.5565 428.267 33.9546 429.027 35.3522C429.551 36.32 430.065 37.2925 430.571 38.2695C430.948 38.9958 431.338 39.7147 431.736 40.4308C432.538 41.8834 433.307 43.3515 434.074 44.8214C434.222 45.1045 434.37 45.3877 434.518 45.6708C434.826 46.2603 435.134 46.8498 435.442 47.4394C435.831 48.1858 436.222 48.932 436.612 49.6782C436.917 50.2618 437.222 50.8456 437.527 51.4294C437.67 51.7042 437.814 51.9789 437.957 52.2535C438.956 54.1625 439.929 56.0819 440.885 58.0102C441.034 58.3099 441.184 58.6095 441.333 58.9092C441.507 59.2583 441.681 59.6075 441.854 59.9569C442.26 60.7722 442.68 61.5806 443.103 62.388C443.639 63.4129 444.165 64.4427 444.688 65.4738C444.74 65.575 444.791 65.6762 444.844 65.7805C445.591 67.2514 446.322 68.7279 447.037 70.2129C447.681 71.5494 448.339 72.8795 448.999 74.2091C449.991 76.2111 450.973 78.2176 451.945 80.2293C452.422 81.2182 452.9 82.2069 453.379 83.1955C453.435 83.3129 453.492 83.4303 453.551 83.5513C454.368 85.2415 455.194 86.928 456.026 88.6119C456.759 90.0975 457.472 91.591 458.179 93.0884C458.839 94.4858 459.521 95.8712 460.221 97.2508C460.914 98.6181 461.583 99.995 462.248 101.375C462.561 102.024 462.879 102.671 463.201 103.317C464.814 106.564 464.814 106.564 465.225 108.213C465.25 108.306 465.275 108.398 465.3 108.493C465.558 109.547 465.567 110.608 465.566 111.686C465.566 111.784 465.566 111.882 465.566 111.983C465.561 113.573 465.423 115.025 464.805 116.514C464.746 116.66 464.746 116.66 464.685 116.81C464.097 118.213 463.321 119.391 462.287 120.53C462.197 120.63 462.107 120.73 462.014 120.833C459.76 123.144 456.299 124.463 453.035 124.576C449.646 124.65 446.768 123.809 444.253 121.54C441.429 118.889 439.603 115.456 437.777 112.143C437.412 111.485 437.038 110.832 436.663 110.18C435.145 107.528 433.688 104.843 432.352 102.103C432.037 101.457 431.709 100.817 431.373 100.181C430.937 99.3544 430.521 98.5202 430.113 97.6811C429.815 97.0725 429.506 96.4707 429.188 95.8718C428.006 93.6378 426.919 91.3509 425.865 89.0596C425.34 87.9172 424.784 86.7886 424.222 85.6617C423.179 83.5652 422.189 81.4481 421.214 79.3215C420.572 77.9198 419.927 76.5201 419.205 75.1536C418.943 74.6532 418.703 74.1448 418.469 73.6318C417.884 72.3602 417.281 71.0966 416.677 69.8331C416.63 69.7337 416.582 69.6344 416.533 69.5321C416.003 68.4217 415.469 67.3131 414.928 66.2074C414.634 65.6047 414.346 64.9995 414.061 64.3927C413.568 63.3424 413.062 62.3022 412.514 61.2769C412.061 60.4196 411.647 59.5453 411.23 58.6712C410.699 57.5583 410.146 56.4693 409.531 55.397C409.244 54.8812 408.986 54.357 408.73 53.8266C408.281 52.8972 407.796 51.9911 407.292 51.0877C406.872 50.3307 406.469 49.5668 406.072 48.7979C405.019 46.7634 403.856 44.7847 402.689 42.8086C402.459 42.4163 402.231 42.0227 402.007 41.6272C401.941 41.5109 401.875 41.3946 401.806 41.2747C401.684 41.0589 401.561 40.843 401.439 40.6269C400.427 38.8441 399.34 37.1082 398.221 35.3853C398.141 35.2606 398.06 35.1358 397.977 35.0073C397.456 34.2088 396.898 33.4554 396.289 32.7161C396.13 32.5228 395.972 32.3291 395.814 32.1351C395.746 32.052 395.677 31.9688 395.607 31.8831C395.424 31.6368 395.424 31.6368 395.286 31.3462C395.154 31.0543 395.154 31.0543 394.724 30.9674C394.523 30.7671 394.523 30.7671 394.305 30.5072C392.488 28.4751 389.867 26.654 387.031 26.2818C386.907 26.264 386.783 26.2462 386.655 26.2279C383.682 25.8912 380.777 26.9721 378.437 28.6816C377.903 29.0952 377.391 29.5225 376.893 29.9746C376.668 30.1742 376.438 30.3667 376.207 30.56C374.643 31.9151 373.797 33.4313 372.911 35.243C372.776 35.5126 372.64 35.782 372.503 36.0513C372.241 36.5709 371.98 37.0913 371.722 37.6128C371.245 38.5734 370.746 39.5234 370.245 40.4725C369.625 41.649 369.016 42.8293 368.426 44.0202C367.676 45.5353 366.91 47.0393 366.075 48.5134C365.624 49.3103 365.213 50.1218 364.808 50.941C363.923 52.7221 363.003 54.4859 362.08 56.249C361.844 56.6992 361.609 57.1496 361.373 57.5999C360.929 58.4499 360.485 59.2997 360.04 60.1494C359.537 61.1102 359.035 62.0712 358.532 63.0321C357.789 64.4547 357.045 65.8772 356.301 67.2996C356.101 67.6809 355.902 68.0622 355.702 68.4435C355.441 68.9426 355.18 69.4416 354.919 69.9405C354.818 70.1338 354.717 70.327 354.616 70.5202C354.533 70.678 354.45 70.8357 354.365 70.9982C354.1 71.5096 353.847 72.0253 353.599 72.544C353.207 73.353 352.785 74.1406 352.34 74.9238C351.938 75.6373 351.577 76.3663 351.22 77.1015C350.912 77.7347 350.595 78.3627 350.268 78.9868C350.223 79.0724 350.179 79.1579 350.133 79.2461C349.856 79.774 349.574 80.299 349.289 80.8229C347.667 83.8297 346.743 87.1597 347.801 90.5207C348.443 92.446 349.442 94.0559 350.941 95.4953C351.044 95.5969 351.147 95.6986 351.253 95.8033C353.602 97.9832 356.487 98.6418 359.676 98.6016C362.59 98.5246 365.218 97.1011 367.205 95.0963C368.263 93.915 369.208 92.6407 370.105 91.3452C370.167 91.2552 370.23 91.1652 370.294 91.0725C371.261 89.6651 372.135 88.2222 372.955 86.7313C373.585 85.5909 374.247 84.4804 375.114 83.4883C375.593 82.9336 375.979 82.3543 376.365 81.7396C377.384 80.1341 378.654 78.7448 380.176 77.556C380.343 77.423 380.343 77.4229 380.512 77.2872C383.378 75.1351 386.999 74.2711 390.584 74.6745C393.945 75.1249 396.8 76.7254 398.867 79.311C401.032 82.2462 401.424 85.9511 400.816 89.4215C400.535 90.8501 400.083 92.2384 399.62 93.621C399.578 93.7467 399.536 93.8723 399.493 94.0017C397.096 101.064 393.408 108.368 387.73 113.568C387.381 113.9 387.035 114.234 386.695 114.574C385.713 115.543 384.66 116.373 383.534 117.183C383.406 117.277 383.278 117.37 383.146 117.467C378.736 120.622 373.691 122.555 368.286 123.475C368.146 123.499 368.006 123.523 367.862 123.548C358.367 125.091 347.858 122.764 339.512 118.363C339.233 118.216 338.952 118.071 338.669 117.931C335.733 116.471 333.125 114.463 330.798 112.23C330.682 112.124 330.567 112.017 330.447 111.908C329.434 110.969 328.565 109.963 327.721 108.883C327.662 108.81 327.604 108.737 327.544 108.662C325.842 106.525 324.552 104.175 323.51 101.685C323.404 101.432 323.293 101.181 323.181 100.931C322.357 99.0294 321.897 96.9723 321.522 94.9514C321.5 94.8323 321.478 94.7132 321.455 94.5904C320.518 89.2284 321.124 83.4704 322.405 78.2254C322.432 78.1116 322.459 77.9979 322.487 77.8807C323.344 74.3064 324.744 70.867 326.325 67.537C326.523 67.1186 326.719 66.6994 326.915 66.2802C328.206 63.5227 329.523 60.7763 330.857 58.0372C331.449 56.8197 332.033 55.5992 332.604 54.3721C332.996 53.5323 333.419 52.7103 333.855 51.8906C334.419 50.8199 334.949 49.7327 335.488 48.65C335.905 47.8137 336.325 46.9786 336.744 46.1435C337.092 45.4516 337.438 44.7591 337.781 44.0652C338.375 42.8671 338.971 41.6748 339.633 40.5097C339.959 39.9343 340.269 39.3526 340.572 38.7656C340.985 37.967 341.413 37.1768 341.849 36.3893C342.272 35.6239 342.689 34.8562 343.09 34.08C344.176 31.9874 345.314 29.9258 346.525 27.8966C346.934 27.2103 347.333 26.5217 347.715 25.8216C349.932 21.8056 352.396 17.7478 355.417 14.233C355.477 14.1621 355.537 14.0913 355.598 14.0183C356.544 12.8965 357.582 11.8657 358.643 10.8443C358.771 10.7212 358.898 10.5982 359.029 10.4714C359.88 9.66039 360.769 8.91974 361.712 8.20859C361.806 8.13717 361.899 8.06576 361.996 7.99218C368.807 2.83851 377.308 -0.0367253 385.99 0.000354236Z" fill="white"/>
</svg>
