<?xml version="1.0" encoding="UTF-8"?>
<svg xmlns="http://www.w3.org/2000/svg" xmlns:xlink="http://www.w3.org/1999/xlink" width="px" height="px" viewBox="0 0 8 8" version="1.1">
<defs>
<clipPath id="clip1">
  <path d="M 0 0.1875 L 8 0.1875 L 8 7.945312 L 0 7.945312 Z M 0 0.1875 "/>
</clipPath>
<clipPath id="clip2">
  <path d="M 2 1 L 6 1 L 6 7.945312 L 2 7.945312 Z M 2 1 "/>
</clipPath>
</defs>
<g id="surface1">
<g clip-path="url(#clip1)" clip-rule="nonzero">
<path style=" stroke:none;fill-rule:nonzero;fill:rgb(9.411765%,46.666667%,94.901961%);fill-opacity:1;" d="M 8 4.066406 C 8 1.921875 6.210938 0.1875 4 0.1875 C 1.789062 0.1875 0 1.921875 0 4.066406 C 0 6 1.460938 7.605469 3.375 7.898438 L 3.375 5.1875 L 2.359375 5.1875 L 2.359375 4.066406 L 3.375 4.066406 L 3.375 3.210938 C 3.375 2.238281 3.972656 1.703125 4.886719 1.703125 C 5.324219 1.703125 5.78125 1.777344 5.78125 1.777344 L 5.78125 2.730469 L 5.277344 2.730469 C 4.78125 2.730469 4.625 3.03125 4.625 3.335938 L 4.625 4.066406 L 5.734375 4.066406 L 5.558594 5.1875 L 4.625 5.1875 L 4.625 7.898438 C 6.539062 7.605469 8 6 8 4.066406 Z M 8 4.066406 "/>
</g>
<g clip-path="url(#clip2)" clip-rule="nonzero">
<path style=" stroke:none;fill-rule:nonzero;fill:rgb(100%,100%,100%);fill-opacity:1;" d="M 5.558594 5.1875 L 5.734375 4.066406 L 4.625 4.066406 L 4.625 3.335938 C 4.625 3.03125 4.78125 2.730469 5.277344 2.730469 L 5.78125 2.730469 L 5.78125 1.777344 C 5.78125 1.777344 5.324219 1.703125 4.886719 1.703125 C 3.972656 1.703125 3.375 2.238281 3.375 3.210938 L 3.375 4.066406 L 2.359375 4.066406 L 2.359375 5.1875 L 3.375 5.1875 L 3.375 7.898438 C 3.582031 7.929688 3.789062 7.945312 4 7.945312 C 4.210938 7.945312 4.417969 7.929688 4.625 7.898438 L 4.625 5.1875 Z M 5.558594 5.1875 "/>
</g>
</g>
</svg>
