<svg width="13" height="10" viewBox="0 0 13 10" fill="none" xmlns="http://www.w3.org/2000/svg">
<path d="M5.91359 9.88913C5.92305 9.88911 5.93251 9.88909 5.94225 9.88907C6.19809 9.8881 6.43771 9.85217 6.68592 9.79278C6.6955 9.7905 6.70507 9.78823 6.71494 9.78588C7.23561 9.65859 7.70892 9.36141 8.08056 8.99606C8.10488 8.97265 8.12921 8.9493 8.15409 8.92642C8.16962 8.91209 8.18458 8.89718 8.19948 8.88225C8.19948 8.87542 8.19948 8.86859 8.19948 8.86155C8.21019 8.85814 8.22089 8.85472 8.23192 8.85121C8.25849 8.82418 8.28133 8.79426 8.30482 8.76475C8.31932 8.74659 8.33403 8.7286 8.34873 8.71059C8.5052 8.51709 8.62898 8.30184 8.7417 8.0827C8.76544 8.03657 8.79026 7.99112 8.81572 7.94585C8.84442 7.89479 8.8722 7.84344 8.89909 7.79149C8.94485 7.70352 8.99167 7.61609 9.0387 7.52874C9.04723 7.51289 9.05575 7.49704 9.06428 7.48118C9.1225 7.37294 9.1811 7.26488 9.23978 7.15686C9.28034 7.08206 9.32004 7.0069 9.35913 6.93139C9.38829 6.87526 9.4184 6.81969 9.44915 6.76435C9.51118 6.65208 9.57062 6.53862 9.6299 6.42501C9.64134 6.40313 9.65277 6.38124 9.66421 6.35936C9.68802 6.3138 9.71181 6.26824 9.7356 6.22267C9.76571 6.16498 9.79585 6.10731 9.82601 6.04964C9.8496 6.00453 9.87316 5.95941 9.89672 5.91429C9.90781 5.89306 9.91891 5.87182 9.93001 5.8506C10.0072 5.70306 10.0824 5.55471 10.1563 5.40568C10.1678 5.38251 10.1794 5.35935 10.1909 5.3362C10.2043 5.30921 10.2178 5.28222 10.2312 5.25522C10.2626 5.19221 10.295 5.12972 10.3277 5.06733C10.3692 4.98812 10.4098 4.90852 10.4502 4.82883C10.4542 4.82101 10.4582 4.81318 10.4623 4.80512C10.52 4.69145 10.5765 4.57733 10.6317 4.46256C10.6815 4.35926 10.7324 4.25646 10.7834 4.1537C10.8601 3.99897 10.936 3.84389 11.0111 3.68841C11.048 3.61198 11.0849 3.53557 11.1219 3.45916C11.1263 3.45008 11.1307 3.44101 11.1352 3.43166C11.1984 3.30103 11.2622 3.17068 11.3265 3.04054C11.3831 2.92572 11.4383 2.81029 11.4929 2.69456C11.5439 2.58656 11.5966 2.47948 11.6507 2.37285C11.7043 2.26718 11.756 2.16076 11.8074 2.05412C11.8316 2.00392 11.8562 1.95391 11.881 1.90401C12.0057 1.65305 12.0057 1.65305 12.0375 1.52557C12.0394 1.51845 12.0413 1.51132 12.0433 1.50398C12.0632 1.42247 12.0639 1.34047 12.0638 1.2572C12.0638 1.24963 12.0638 1.24207 12.0638 1.23427C12.0634 1.11134 12.0527 0.99914 12.005 0.884065C12.0004 0.872725 12.0004 0.872725 11.9957 0.861157C11.9503 0.752748 11.8903 0.661651 11.8104 0.573656C11.8034 0.565933 11.7965 0.558211 11.7893 0.550255C11.6151 0.371662 11.3476 0.269687 11.0954 0.260984C10.8334 0.255249 10.6109 0.320212 10.4166 0.495587C10.1984 0.700485 10.0572 0.965823 9.91607 1.22189C9.88787 1.27273 9.85893 1.32317 9.82995 1.3736C9.71263 1.57858 9.60005 1.78605 9.49682 1.99787C9.47241 2.04779 9.44711 2.0972 9.42115 2.14639C9.38745 2.21027 9.3553 2.27474 9.32371 2.3396C9.30071 2.38663 9.27681 2.43315 9.25223 2.47943C9.16092 2.6521 9.07689 2.82884 8.99544 3.00593C8.95481 3.09423 8.91184 3.18146 8.86847 3.26855C8.78782 3.43058 8.7113 3.59421 8.63599 3.75857C8.58633 3.8669 8.53645 3.97508 8.4807 4.0807C8.46043 4.11937 8.44189 4.15867 8.42382 4.19832C8.37859 4.29659 8.33196 4.39425 8.2853 4.49191C8.28163 4.49959 8.27797 4.50726 8.27419 4.51517C8.23321 4.60099 8.19194 4.68668 8.15015 4.77213C8.1274 4.81871 8.10515 4.86549 8.08312 4.91239C8.04499 4.99356 8.0059 5.07395 7.96358 5.1532C7.92852 5.21946 7.89655 5.28703 7.86434 5.35459C7.82326 5.4406 7.78055 5.52477 7.733 5.60764C7.71084 5.64751 7.69084 5.68802 7.67109 5.72902C7.6364 5.80085 7.59887 5.87088 7.55998 5.9407C7.52746 5.99921 7.49631 6.05825 7.46567 6.11767C7.38429 6.27492 7.29443 6.42785 7.20422 6.58058C7.18639 6.61089 7.16882 6.64131 7.15147 6.67188C7.14636 6.68087 7.14124 6.68986 7.13597 6.69912C7.12649 6.71581 7.117 6.73249 7.10755 6.74919C7.02937 6.88699 6.94537 7.02115 6.8589 7.15431C6.85268 7.16395 6.84646 7.17359 6.84005 7.18352C6.79973 7.24523 6.75664 7.30346 6.70957 7.3606C6.6973 7.37554 6.68506 7.39051 6.67287 7.4055C6.66757 7.41193 6.66228 7.41836 6.65683 7.42498C6.64267 7.44402 6.64267 7.44402 6.632 7.46648C6.62186 7.48904 6.62186 7.48904 6.58862 7.49576C6.57307 7.51124 6.57307 7.51124 6.55618 7.53132C6.41581 7.68838 6.21319 7.82913 5.994 7.8579C5.98441 7.85927 5.97482 7.86065 5.96494 7.86206C5.73519 7.88809 5.5107 7.80455 5.32979 7.67242C5.28852 7.64046 5.24899 7.60743 5.21045 7.57249C5.1931 7.55706 5.17531 7.54218 5.15749 7.52724C5.03661 7.42251 4.97121 7.30533 4.90274 7.1653C4.89227 7.14447 4.88176 7.12364 4.87122 7.10284C4.85092 7.06268 4.83079 7.02245 4.81082 6.98215C4.77393 6.90791 4.73541 6.83448 4.69665 6.76112C4.64872 6.6702 4.60168 6.57897 4.55611 6.48693C4.49809 6.36983 4.43891 6.25359 4.37435 6.13966C4.33953 6.07807 4.30773 6.01535 4.27648 5.95204C4.20808 5.81438 4.13694 5.67806 4.06559 5.5418C4.04737 5.507 4.02919 5.47219 4.011 5.43739C3.97666 5.3717 3.9423 5.30602 3.90794 5.24034C3.86908 5.16608 3.83025 5.09181 3.79142 5.01754C3.73394 4.90759 3.67645 4.79765 3.61894 4.68772C3.60352 4.65825 3.58811 4.62878 3.57269 4.59931C3.55252 4.56074 3.53234 4.52217 3.51214 4.48361C3.50433 4.46867 3.49651 4.45374 3.4887 4.4388C3.48232 4.42661 3.47593 4.41442 3.46936 4.40186C3.44889 4.36234 3.42932 4.32248 3.41012 4.28239C3.3798 4.21987 3.34723 4.15899 3.31282 4.09846C3.28172 4.04331 3.25383 3.98697 3.22626 3.93015C3.20247 3.88121 3.17799 3.83268 3.15268 3.78444C3.14923 3.77783 3.14577 3.77121 3.14222 3.7644C3.12084 3.7236 3.09906 3.68302 3.07704 3.64253C2.95165 3.41015 2.88028 3.15278 2.96205 2.89301C3.01167 2.74421 3.08886 2.61978 3.20471 2.50853C3.21267 2.50068 3.22062 2.49282 3.22882 2.48473C3.41033 2.31625 3.63337 2.26535 3.87982 2.26845C4.10503 2.27441 4.30817 2.38443 4.46172 2.53937C4.54346 2.63067 4.6165 2.72916 4.68584 2.82929C4.69066 2.83624 4.69548 2.8432 4.70044 2.85036C4.77522 2.95913 4.84274 3.07066 4.90609 3.18589C4.95478 3.27403 5.00601 3.35985 5.07302 3.43652C5.11001 3.4794 5.13983 3.52417 5.16964 3.57168C5.24841 3.69577 5.34658 3.80315 5.46425 3.89502C5.47709 3.90531 5.47709 3.90531 5.49018 3.9158C5.71168 4.08213 5.99156 4.14891 6.26863 4.11772C6.52837 4.08292 6.74908 3.95922 6.90877 3.75938C7.07616 3.53253 7.10644 3.24618 7.05943 2.97796C7.03769 2.86755 7.00278 2.76025 6.96701 2.65339C6.96376 2.64368 6.96051 2.63397 6.95717 2.62397C6.7719 2.07813 6.48692 1.51363 6.04805 1.1117C6.02106 1.08607 5.99433 1.06029 5.96803 1.03401C5.89218 0.959077 5.8108 0.894924 5.72372 0.83233C5.71382 0.825101 5.70393 0.817871 5.69373 0.810423C5.35293 0.566532 4.963 0.417109 4.5453 0.346024C4.53447 0.344168 4.52365 0.342313 4.51249 0.340401C3.77864 0.221133 2.96643 0.400986 2.3214 0.741107C2.29981 0.752491 2.2781 0.763679 2.25619 0.774492C2.0293 0.887345 1.82771 1.04253 1.64789 1.21517C1.63895 1.22337 1.63 1.23157 1.62078 1.24002C1.54245 1.31264 1.47534 1.39037 1.41005 1.47384C1.40555 1.47948 1.40105 1.48511 1.39642 1.49092C1.26486 1.65606 1.16511 1.83771 1.08464 2.03012C1.07642 2.04966 1.06784 2.06906 1.05919 2.08843C0.995512 2.23539 0.959916 2.39438 0.930977 2.55057C0.929255 2.55978 0.927533 2.56898 0.925758 2.57847C0.853378 2.99289 0.90018 3.43791 0.999222 3.84329C1.00131 3.85208 1.00339 3.86087 1.00554 3.86993C1.07178 4.14618 1.18 4.412 1.30216 4.66937C1.31747 4.70171 1.33262 4.73411 1.34779 4.7665C1.4476 4.97963 1.54934 5.19189 1.65242 5.40359C1.69821 5.49769 1.74338 5.59202 1.78748 5.68686C1.81777 5.75177 1.85043 5.81529 1.88414 5.87864C1.92776 5.9614 1.96874 6.04543 2.01039 6.12911C2.04261 6.19374 2.07505 6.25828 2.10748 6.32283C2.13433 6.37631 2.16108 6.42983 2.18761 6.48345C2.23347 6.57606 2.27956 6.6682 2.33071 6.75825C2.35596 6.80273 2.37989 6.84768 2.40333 6.89305C2.43525 6.95477 2.46829 7.01585 2.50198 7.07671C2.53471 7.13586 2.5669 7.1952 2.59793 7.25519C2.68185 7.41692 2.76984 7.57626 2.86336 7.73309C2.89497 7.78614 2.92581 7.83936 2.95537 7.89347C3.12669 8.20385 3.31713 8.51747 3.55067 8.78912C3.55527 8.7946 3.55988 8.80007 3.56463 8.80572C3.63771 8.89241 3.71799 8.97209 3.8 9.05103C3.80984 9.06054 3.81967 9.07005 3.82981 9.07985C3.8956 9.14253 3.96426 9.19977 4.03717 9.25474C4.0444 9.26026 4.05163 9.26577 4.05908 9.27146C4.58551 9.66978 5.24257 9.892 5.91359 9.88913Z" fill="white"/>
</svg>
