<svg width="12" height="10" viewBox="0 0 12 10" fill="none" xmlns="http://www.w3.org/2000/svg">
<path d="M5.83573 9.88864C5.84504 9.88862 5.85435 9.8886 5.86395 9.88858C6.11582 9.8876 6.35172 9.85111 6.59608 9.79079C6.60551 9.78848 6.61494 9.78617 6.62466 9.78379C7.13725 9.65452 7.60323 9.35275 7.96911 8.98173C7.99305 8.95795 8.017 8.93424 8.04149 8.91101C8.05679 8.89646 8.07151 8.88131 8.08619 8.86615C8.08619 8.85921 8.08619 8.85228 8.08619 8.84513C8.09672 8.84167 8.10726 8.8382 8.11812 8.83463C8.14428 8.80718 8.16676 8.7768 8.18989 8.74683C8.20416 8.72839 8.21864 8.71012 8.23312 8.69183C8.38716 8.49534 8.50902 8.27675 8.62 8.05421C8.64337 8.00737 8.6678 7.96121 8.69287 7.91524C8.72113 7.86339 8.74847 7.81124 8.77494 7.75849C8.82 7.66915 8.86609 7.58037 8.9124 7.49166C8.92079 7.47556 8.92918 7.45947 8.93757 7.44337C8.9949 7.33345 9.05258 7.22371 9.11036 7.11402C9.15028 7.03806 9.18937 6.96173 9.22785 6.88505C9.25656 6.82805 9.2862 6.77162 9.31648 6.71542C9.37755 6.60141 9.43606 6.48619 9.49443 6.37082C9.50569 6.3486 9.51695 6.32638 9.52821 6.30416C9.55165 6.25789 9.57507 6.21162 9.59849 6.16534C9.62813 6.10676 9.65781 6.0482 9.6875 5.98964C9.71072 5.94383 9.73392 5.89801 9.75711 5.85219C9.76803 5.83062 9.77896 5.80906 9.78989 5.7875C9.86584 5.63768 9.93988 5.48703 10.0127 5.33569C10.024 5.31216 10.0354 5.28865 10.0467 5.26513C10.06 5.23773 10.0732 5.21032 10.0864 5.1829C10.1173 5.11891 10.1492 5.05546 10.1814 4.99209C10.2222 4.91165 10.2622 4.83083 10.3021 4.7499C10.306 4.74196 10.3099 4.73401 10.3139 4.72582C10.3707 4.61039 10.4263 4.4945 10.4807 4.37795C10.5297 4.27305 10.5798 4.16865 10.63 4.0643C10.7056 3.90717 10.7803 3.74969 10.8542 3.5918C10.8905 3.51418 10.9269 3.43659 10.9633 3.359C10.9676 3.34978 10.9719 3.34057 10.9764 3.33107C11.0386 3.19841 11.1014 3.06605 11.1647 2.93388C11.2205 2.81729 11.2748 2.70007 11.3285 2.58254C11.3787 2.47287 11.4307 2.36413 11.4839 2.25585C11.5366 2.14854 11.5876 2.04047 11.6382 1.93217C11.662 1.88119 11.6862 1.83041 11.7107 1.77974C11.8334 1.52489 11.8334 1.52489 11.8647 1.39544C11.8666 1.3882 11.8684 1.38096 11.8704 1.37351C11.89 1.29073 11.8907 1.20747 11.8906 1.1229C11.8906 1.11522 11.8906 1.10753 11.8906 1.09962C11.8902 0.974782 11.8797 0.860843 11.8327 0.743983C11.8282 0.732469 11.8282 0.732469 11.8236 0.720721C11.7789 0.610631 11.7198 0.518123 11.6412 0.428763C11.6343 0.420921 11.6274 0.413079 11.6203 0.404999C11.4489 0.223638 11.1855 0.120082 10.9372 0.111245C10.6793 0.10542 10.4603 0.171391 10.2689 0.349483C10.0541 0.557559 9.91507 0.827009 9.77616 1.08704C9.7484 1.13867 9.7199 1.18989 9.69138 1.24111C9.57587 1.44926 9.46504 1.65995 9.36341 1.87506C9.33938 1.92575 9.31447 1.97592 9.28891 2.02588C9.25573 2.09075 9.22409 2.15622 9.19298 2.22208C9.17034 2.26984 9.14682 2.31708 9.12261 2.36408C9.03272 2.53942 8.95 2.71891 8.8698 2.89874C8.8298 2.98841 8.7875 3.07699 8.7448 3.16543C8.6654 3.32998 8.59007 3.49614 8.51592 3.66305C8.46704 3.77306 8.41792 3.88292 8.36304 3.99017C8.34309 4.02944 8.32483 4.06935 8.30704 4.10961C8.26251 4.20941 8.21661 4.30859 8.17067 4.40776C8.16706 4.41555 8.16345 4.42335 8.15974 4.43138C8.11939 4.51853 8.07876 4.60554 8.03761 4.69232C8.01521 4.73962 7.99331 4.78713 7.97163 4.83475C7.93409 4.91719 7.89561 4.99882 7.85394 5.0793C7.81942 5.14658 7.78795 5.2152 7.75623 5.28381C7.71579 5.37116 7.67375 5.45662 7.62693 5.54078C7.60511 5.58127 7.58543 5.62241 7.56598 5.66404C7.53183 5.73699 7.49488 5.8081 7.45659 5.87901C7.42458 5.93842 7.39391 5.99837 7.36375 6.05872C7.28363 6.21841 7.19516 6.37371 7.10635 6.5288C7.0888 6.55959 7.0715 6.59048 7.05442 6.62152C7.04939 6.63065 7.04435 6.63978 7.03916 6.64918C7.02982 6.66613 7.02048 6.68307 7.01118 6.70003C6.93421 6.83996 6.85152 6.9762 6.76638 7.11143C6.76025 7.12121 6.75413 7.131 6.74782 7.14109C6.70813 7.20376 6.6657 7.26289 6.61936 7.32092C6.60729 7.33609 6.59524 7.35129 6.58323 7.36652C6.57802 7.37304 6.57281 7.37957 6.56744 7.3863C6.55351 7.40563 6.55351 7.40563 6.543 7.42843C6.53302 7.45135 6.53302 7.45135 6.50029 7.45817C6.48499 7.47389 6.48499 7.47389 6.46836 7.49429C6.33017 7.65378 6.13068 7.79671 5.91489 7.82592C5.90545 7.82732 5.89601 7.82871 5.88628 7.83015C5.66009 7.85658 5.43908 7.77174 5.26097 7.63757C5.22035 7.60511 5.18143 7.57157 5.14349 7.53609C5.1264 7.52042 5.10889 7.50531 5.09135 7.49014C4.97234 7.38378 4.90796 7.26479 4.84055 7.12259C4.83023 7.10143 4.81989 7.08029 4.80951 7.05916C4.78953 7.01837 4.76972 6.97752 4.75005 6.93659C4.71374 6.8612 4.67581 6.78664 4.63765 6.71215C4.59046 6.61981 4.54415 6.52717 4.49929 6.4337C4.44217 6.31479 4.38391 6.19675 4.32034 6.08105C4.28606 6.0185 4.25476 5.95481 4.224 5.89052C4.15666 5.75073 4.08662 5.6123 4.01637 5.47392C3.99844 5.43858 3.98054 5.40323 3.96263 5.36789C3.92882 5.30118 3.895 5.23448 3.86117 5.16779C3.82291 5.09238 3.78468 5.01696 3.74646 4.94154C3.68987 4.82988 3.63326 4.71824 3.57664 4.6066C3.56147 4.57667 3.54629 4.54675 3.53112 4.51682C3.51126 4.47765 3.49139 4.43849 3.47151 4.39932C3.46381 4.38416 3.45612 4.36899 3.44843 4.35383C3.44214 4.34145 3.43586 4.32906 3.42938 4.31631C3.40923 4.27618 3.38997 4.2357 3.37106 4.19498C3.34122 4.1315 3.30914 4.06968 3.27527 4.00821C3.24466 3.95221 3.2172 3.89499 3.19005 3.83729C3.16663 3.78759 3.14253 3.73831 3.11761 3.68932C3.11421 3.6826 3.11082 3.67589 3.10731 3.66897C3.08627 3.62753 3.06482 3.58633 3.04315 3.54521C2.9197 3.30922 2.84944 3.04786 2.92994 2.78407C2.97879 2.63296 3.05478 2.50661 3.16884 2.39363C3.17667 2.38566 3.1845 2.37768 3.19258 2.36946C3.37128 2.19837 3.59085 2.14668 3.83348 2.14983C4.05521 2.15588 4.25519 2.2676 4.40636 2.42495C4.48684 2.51766 4.55874 2.61768 4.62701 2.71936C4.63175 2.72642 4.6365 2.73349 4.64139 2.74076C4.715 2.85122 4.78148 2.96447 4.84384 3.08149C4.89178 3.17099 4.94221 3.25815 5.00819 3.33601C5.0446 3.37955 5.07396 3.42501 5.10331 3.47326C5.18085 3.59927 5.27751 3.70831 5.39335 3.80162C5.40599 3.81206 5.40599 3.81206 5.41888 3.82271C5.63694 3.99162 5.91249 4.05944 6.18526 4.02777C6.44097 3.99243 6.65826 3.86681 6.81548 3.66387C6.98028 3.4335 7.01008 3.14272 6.9638 2.87034C6.9424 2.75821 6.90804 2.64926 6.87281 2.54074C6.86962 2.53088 6.86642 2.52102 6.86313 2.51086C6.68073 1.95656 6.40017 1.38331 5.96811 0.975144C5.94153 0.949124 5.91521 0.92294 5.88932 0.896257C5.81465 0.820159 5.73453 0.755012 5.6488 0.691446C5.63906 0.684106 5.62932 0.676764 5.61928 0.669201C5.28376 0.421529 4.89987 0.269791 4.48864 0.197602C4.47799 0.195718 4.46733 0.193833 4.45635 0.191892C3.73388 0.070776 2.93425 0.253417 2.29922 0.59881C2.27796 0.610371 2.25659 0.621732 2.23503 0.632712C2.01165 0.747315 1.81318 0.904909 1.63616 1.08022C1.62735 1.08855 1.61854 1.09688 1.60946 1.10546C1.53235 1.1792 1.46628 1.25813 1.402 1.3429C1.39757 1.34862 1.39314 1.35435 1.38858 1.36024C1.25906 1.52795 1.16086 1.71241 1.08163 1.9078C1.07354 1.92765 1.0651 1.94735 1.05658 1.96702C0.993886 2.11626 0.958842 2.27771 0.930351 2.43632C0.928656 2.44567 0.926961 2.45502 0.925214 2.46466C0.853955 2.88549 0.900032 3.33742 0.997539 3.74908C0.999592 3.75801 1.00164 3.76693 1.00376 3.77613C1.06898 4.05666 1.17551 4.32661 1.29578 4.58797C1.31085 4.62081 1.32577 4.65371 1.3407 4.68661C1.43896 4.90304 1.53913 5.11859 1.64061 5.33356C1.68569 5.42913 1.73016 5.52492 1.77358 5.62123C1.8034 5.68714 1.83555 5.75165 1.86874 5.81599C1.91168 5.90003 1.95202 5.98536 1.99303 6.07033C2.02475 6.13597 2.05669 6.20151 2.08861 6.26706C2.11505 6.32136 2.14139 6.37571 2.1675 6.43017C2.21266 6.52421 2.25802 6.61778 2.30838 6.70923C2.33325 6.75439 2.3568 6.80005 2.37988 6.84612C2.41131 6.90879 2.44384 6.97082 2.477 7.03262C2.50923 7.09269 2.54091 7.15295 2.57146 7.21387C2.65409 7.37811 2.74071 7.53992 2.83278 7.69918C2.8639 7.75305 2.89426 7.80709 2.92337 7.86204C3.09203 8.17724 3.27951 8.49572 3.50943 8.77158C3.51397 8.77714 3.5185 8.7827 3.52318 8.78843C3.59513 8.87647 3.67416 8.95738 3.7549 9.03755C3.76458 9.04721 3.77427 9.05686 3.78425 9.06681C3.84902 9.13047 3.91662 9.1886 3.98839 9.24441C3.99551 9.25002 4.00263 9.25562 4.00996 9.2614C4.52824 9.66589 5.17511 9.89155 5.83573 9.88864Z" fill="#282828"/>
</svg>
