<svg width="8" height="8" viewBox="0 0 8 8" fill="none" xmlns="http://www.w3.org/2000/svg">
<path d="M7.59764 3.59644C7.59762 3.60321 7.5976 3.60998 7.59759 3.61696C7.59686 3.80014 7.56999 3.9717 7.52555 4.14942C7.52385 4.15628 7.52214 4.16314 7.52039 4.17021C7.42516 4.543 7.20284 4.88189 6.92951 5.14799C6.91199 5.1654 6.89452 5.18282 6.87741 5.20063C6.86668 5.21176 6.85553 5.22246 6.84436 5.23314C6.83925 5.23314 6.83414 5.23314 6.82888 5.23314C6.82632 5.2408 6.82377 5.24846 6.82114 5.25636C6.80092 5.27539 6.77853 5.29174 6.75645 5.30856C6.74287 5.31894 6.72941 5.32947 6.71594 5.33999C6.57118 5.45202 6.41014 5.54065 6.2462 5.62136C6.21169 5.63836 6.17768 5.65613 6.14381 5.67436C6.10562 5.69491 6.0672 5.7148 6.02834 5.73405C5.96252 5.76681 5.89711 5.80034 5.83176 5.83402C5.8199 5.84012 5.80805 5.84622 5.79619 5.85232C5.71521 5.89401 5.63436 5.93597 5.55355 5.97799C5.49759 6.00702 5.44136 6.03545 5.38487 6.06344C5.34288 6.08432 5.30131 6.10588 5.2599 6.1279C5.17591 6.17231 5.09103 6.21486 5.00604 6.25731C4.98967 6.2655 4.97329 6.27369 4.95692 6.28188C4.92284 6.29893 4.88875 6.31596 4.85466 6.33299C4.8115 6.35455 4.76836 6.37613 4.72521 6.39773C4.69147 6.41461 4.65771 6.43149 4.62395 6.44836C4.60807 6.4563 4.59218 6.46424 4.5763 6.47219C4.46592 6.52743 4.35494 6.58128 4.24345 6.63422C4.22612 6.64247 4.20879 6.65073 4.19147 6.65899C4.17128 6.66861 4.15109 6.67822 4.13089 6.68782C4.08375 6.7103 4.037 6.73351 3.99032 6.75693C3.93106 6.78662 3.87151 6.81571 3.8119 6.84467C3.80604 6.84752 3.80019 6.85036 3.79416 6.8533C3.70911 6.8946 3.62374 6.93506 3.53788 6.97463C3.46059 7.01027 3.38369 7.04668 3.30681 7.08319C3.19105 7.13813 3.07503 7.19247 2.95871 7.24622C2.90153 7.27265 2.84437 7.29911 2.78721 7.32557C2.78042 7.32871 2.77363 7.33186 2.76663 7.33509C2.6689 7.38034 2.57139 7.42602 2.47402 7.47205C2.38813 7.51263 2.30177 7.55211 2.21519 7.59121C2.13439 7.62773 2.05429 7.66549 1.97451 7.70421C1.89546 7.74255 1.81584 7.7796 1.73606 7.81639C1.6985 7.83372 1.66109 7.85132 1.62376 7.86912C1.43601 7.9584 1.43601 7.9584 1.34064 7.98112C1.33531 7.9825 1.32998 7.98387 1.32449 7.98529C1.26351 7.99953 1.20216 8.00003 1.13986 7.99999C1.1342 7.99999 1.12854 8 1.12271 8C1.03074 7.99971 0.946803 7.99206 0.860712 7.9579C0.852229 7.9546 0.852229 7.9546 0.843575 7.95124C0.762471 7.91872 0.694319 7.87574 0.628488 7.81857C0.62271 7.81357 0.616933 7.80857 0.610981 7.80342C0.477371 7.67873 0.401081 7.48718 0.39457 7.30658C0.390279 7.11903 0.43888 6.95974 0.570082 6.82059C0.723372 6.66432 0.921878 6.56323 1.11345 6.46221C1.15148 6.44202 1.18922 6.42129 1.22695 6.40055C1.38029 6.31654 1.53551 6.23594 1.69398 6.16202C1.73133 6.14455 1.76829 6.12643 1.80509 6.10785C1.85288 6.08371 1.90111 6.0607 1.94964 6.03808C1.98482 6.02161 2.01962 6.0045 2.05425 5.9869C2.18342 5.92152 2.31565 5.86136 2.44814 5.80304C2.5142 5.77394 2.57945 5.74318 2.64461 5.71213C2.76583 5.65438 2.88824 5.5996 3.01121 5.54567C3.09225 5.51012 3.17318 5.4744 3.2522 5.43449C3.28113 5.41997 3.31053 5.4067 3.34019 5.39376C3.41371 5.36137 3.48678 5.32799 3.55984 5.29458C3.56558 5.29195 3.57132 5.28933 3.57724 5.28663C3.64144 5.25729 3.70554 5.22774 3.76948 5.19781C3.80432 5.18152 3.83932 5.16559 3.8744 5.14982C3.93513 5.12252 3.99528 5.09453 4.05456 5.06423C4.10413 5.03912 4.15468 5.01624 4.20523 4.99317C4.26958 4.96376 4.33254 4.93318 4.39454 4.89913C4.42437 4.88326 4.45468 4.86895 4.48535 4.8548C4.53909 4.82997 4.59148 4.80309 4.64371 4.77525C4.68748 4.75197 4.73165 4.72966 4.77611 4.70773C4.89375 4.64946 5.00816 4.58511 5.12242 4.52053C5.1451 4.50776 5.16786 4.49518 5.19073 4.48276C5.19745 4.4791 5.20418 4.47544 5.21111 4.47166C5.22359 4.46487 5.23607 4.45808 5.24856 4.45131C5.35165 4.39533 5.45202 4.33519 5.55164 4.27327C5.55885 4.26882 5.56607 4.26437 5.5735 4.25978C5.61967 4.23091 5.66323 4.20006 5.70598 4.16635C5.71715 4.15757 5.72835 4.14881 5.73957 4.14008C5.74438 4.13629 5.74919 4.1325 5.75414 4.12859C5.76839 4.11846 5.76839 4.11846 5.78518 4.11082C5.80207 4.10356 5.80207 4.10356 5.80709 4.07975C5.81867 4.06863 5.81867 4.06863 5.8337 4.05653C5.9512 3.95603 6.05649 3.81095 6.07802 3.65401C6.07905 3.64714 6.08007 3.64028 6.08113 3.63321C6.1006 3.4687 6.0381 3.30797 5.93926 3.17843C5.91534 3.14889 5.89064 3.12058 5.86449 3.09299C5.85295 3.08056 5.84182 3.06783 5.83064 3.05507C5.75229 2.96852 5.66463 2.9217 5.55987 2.87267C5.54428 2.86517 5.5287 2.85765 5.51314 2.8501C5.48309 2.83557 5.453 2.82116 5.42284 2.80685C5.3673 2.78044 5.31237 2.75286 5.25749 2.72511C5.18947 2.69079 5.12122 2.65711 5.05236 2.62448C4.96476 2.58294 4.8778 2.54057 4.79256 2.49434C4.74648 2.46941 4.69956 2.44664 4.6522 2.42427C4.54921 2.3753 4.44723 2.32436 4.34528 2.27327C4.31925 2.26023 4.29321 2.24721 4.26717 2.23418C4.21802 2.2096 4.16889 2.185 4.11975 2.16039C4.0642 2.13257 4.00864 2.10477 3.95307 2.07697C3.87082 2.03581 3.78857 1.99465 3.70632 1.95347C3.68428 1.94243 3.66223 1.9314 3.64018 1.92036C3.61133 1.90591 3.58247 1.89146 3.55362 1.87701C3.54245 1.87141 3.53128 1.86581 3.5201 1.86022C3.51098 1.85565 3.50186 1.85108 3.49246 1.84637C3.4629 1.83171 3.43308 1.8177 3.40308 1.80396C3.35631 1.78225 3.31077 1.75892 3.26548 1.73429C3.22423 1.71202 3.18208 1.69205 3.13957 1.67231C3.10295 1.65528 3.06665 1.63775 3.03056 1.61963C3.02561 1.61716 3.02066 1.61468 3.01557 1.61214C2.98504 1.59683 2.95468 1.58124 2.92439 1.56547C2.75054 1.47569 2.55799 1.42459 2.36366 1.48314C2.25233 1.51866 2.15925 1.57393 2.07602 1.65688C2.07014 1.66258 2.06426 1.66828 2.05821 1.67415C1.93217 1.80411 1.89409 1.9638 1.89641 2.14026C1.90086 2.30151 1.98317 2.44696 2.09909 2.5569C2.16739 2.61543 2.24108 2.66772 2.31598 2.71737C2.32119 2.72082 2.32639 2.72427 2.33175 2.72783C2.41312 2.78137 2.49656 2.82971 2.58276 2.87507C2.6487 2.90993 2.71291 2.94661 2.77027 2.99459C2.80235 3.02107 2.83584 3.04243 2.87139 3.06377C2.96422 3.12017 3.04455 3.19046 3.11329 3.27471C3.12098 3.2839 3.12098 3.2839 3.12883 3.29328C3.25326 3.45187 3.30323 3.65226 3.2799 3.85064C3.25386 4.03662 3.16131 4.19464 3.01181 4.30899C2.8421 4.42884 2.62787 4.45051 2.42721 4.41686C2.34461 4.40129 2.26434 4.3763 2.18439 4.35068C2.17713 4.34836 2.16986 4.34603 2.16238 4.34364C1.75402 4.21099 1.33171 4.00694 1.03101 3.69271C1.01184 3.67339 0.992551 3.65424 0.972893 3.63541C0.916831 3.58111 0.868837 3.52284 0.822008 3.46049C0.8166 3.4534 0.811192 3.44632 0.805619 3.43902C0.623158 3.19501 0.511372 2.91582 0.45819 2.61674C0.456802 2.60899 0.455414 2.60124 0.453983 2.59325C0.364757 2.06782 0.499309 1.48628 0.753762 1.02443C0.762279 1.00897 0.770648 0.993432 0.778738 0.977746C0.863167 0.815288 0.979267 0.670949 1.10842 0.542204C1.11455 0.535798 1.12069 0.529392 1.12701 0.522792C1.18134 0.466708 1.23949 0.418657 1.30194 0.371906C1.30615 0.368686 1.31037 0.365465 1.31471 0.362147C1.43826 0.267953 1.57416 0.196535 1.71811 0.138911C1.73272 0.133028 1.74724 0.126889 1.76173 0.120693C1.87168 0.075099 1.99062 0.0496121 2.10747 0.0288917C2.11436 0.0276588 2.12124 0.0264258 2.12834 0.0251555C2.43838 -0.0266691 2.77131 0.00684149 3.07458 0.0777556C3.08116 0.0792486 3.08774 0.0807416 3.09451 0.0822799C3.30118 0.12971 3.50005 0.207189 3.6926 0.29466C3.71679 0.305618 3.74103 0.316468 3.76526 0.327327C3.92471 0.398791 4.08351 0.471639 4.24188 0.545443C4.31228 0.578228 4.38285 0.610569 4.45381 0.642147C4.50237 0.663838 4.54989 0.687221 4.59729 0.711353C4.6592 0.742589 4.72206 0.771927 4.78466 0.801748C4.83302 0.82482 4.8813 0.848046 4.92959 0.871264C4.9696 0.890491 5.00964 0.909647 5.04976 0.92864C5.11904 0.961478 5.18797 0.994472 5.25534 1.0311C5.28862 1.04918 5.32225 1.06631 5.35619 1.08309C5.40236 1.10595 5.44806 1.12961 5.49359 1.15373C5.53784 1.17717 5.58223 1.20021 5.62712 1.22243C5.74811 1.28252 5.86732 1.34551 5.98465 1.41248C6.02433 1.43511 6.06414 1.45719 6.10463 1.47836C6.33683 1.60102 6.57146 1.73737 6.77469 1.90459C6.77879 1.90789 6.78288 1.91118 6.7871 1.91458C6.85197 1.96691 6.91157 2.02439 6.97063 2.08311C6.97774 2.09015 6.98486 2.09719 6.99219 2.10445C7.03908 2.15156 7.08191 2.20072 7.12303 2.25292C7.12716 2.2581 7.13129 2.26328 7.13554 2.26861C7.43353 2.64554 7.59978 3.11599 7.59764 3.59644Z" fill="white"/>
</svg>
