<svg version="1.2" xmlns="http://www.w3.org/2000/svg" viewBox="0 0 24 24" width="24" height="24">
	<title>Google_1</title>
	<style>
		.s0 { fill: #fcfcfc } 
		.s1 { fill: #ffc107 } 
		.s2 { fill: #ff3d00 } 
		.s3 { fill: #4caf50 } 
		.s4 { fill: #1976d2 } 
	</style>
	<g>
		<path fill-rule="evenodd" class="s0" d="m12 24c-6.6 0-12-5.4-12-12 0-6.6 5.4-12 12-12 6.6 0 12 5.4 12 12 0 6.6-5.4 12-12 12z"/>
	</g>
	<path class="s1" d="m20.6 10.3h-0.7v-0.1h-7.9v3.5h4.9c-0.7 2.1-2.6 3.5-4.9 3.5-2.9 0-5.3-2.3-5.3-5.2 0-2.9 2.4-5.3 5.3-5.3 1.3 0 2.6 0.6 3.5 1.4l2.5-2.5c-1.6-1.5-3.7-2.4-6-2.4-4.8 0-8.8 4-8.8 8.8 0 4.8 4 8.7 8.8 8.7 4.8 0 8.7-3.9 8.7-8.7q0-0.9-0.1-1.7z"/>
	<path class="s2" d="m4.3 7.9l2.8 2.1c0.8-1.9 2.7-3.3 4.9-3.3 1.3 0 2.6 0.6 3.5 1.4l2.5-2.5c-1.6-1.5-3.7-2.4-6-2.4-3.4 0-6.3 1.9-7.7 4.7z"/>
	<path class="s3" d="m12 20.7c2.3 0 4.3-0.8 5.9-2.2l-2.7-2.3c-0.9 0.7-2.1 1.1-3.2 1-2.3 0-4.2-1.4-4.9-3.4l-2.9 2.2c1.5 2.8 4.4 4.7 7.8 4.7z"/>
	<path class="s4" d="m20.6 10.3h-0.7v-0.1h-7.9v3.5h4.9c-0.3 1-0.9 1.9-1.7 2.5l2.7 2.3c-0.2 0.2 2.8-2.1 2.8-6.5q0-0.9-0.1-1.7z"/>
</svg>