<svg width="20" height="20" viewBox="0 0 20 20" fill="none" xmlns="http://www.w3.org/2000/svg">
<g clip-path="url(#clip0_6003_4614)">
<path d="M17.8952 -0.00973213C17.9303 -0.0105378 17.9655 -0.0113435 18.0017 -0.0121735C18.5787 -0.0154896 19.056 0.227633 19.4618 0.626865C19.8809 1.06088 20.0243 1.58794 20.0195 2.17929C20.0198 2.2269 20.02 2.27452 20.0203 2.32357C20.0208 2.45417 20.0206 2.58475 20.0201 2.71535C20.0198 2.8568 20.0203 2.99824 20.0207 3.13969C20.0214 3.41617 20.0213 3.69265 20.0208 3.96913C20.0205 4.19398 20.0204 4.41883 20.0206 4.64368C20.0206 4.67578 20.0206 4.70787 20.0207 4.74093C20.0207 4.80614 20.0208 4.87135 20.0208 4.93656C20.0213 5.54696 20.0208 6.15736 20.0199 6.76777C20.0192 7.29069 20.0193 7.8136 20.0201 8.33652C20.0209 8.94485 20.0212 9.55318 20.0207 10.1615C20.0207 10.2265 20.0206 10.2914 20.0206 10.3564C20.0206 10.3883 20.0205 10.4203 20.0205 10.4532C20.0204 10.6776 20.0206 10.902 20.021 11.1264C20.0214 11.4001 20.0213 11.6738 20.0205 11.9476C20.0201 12.087 20.0199 12.2265 20.0204 12.3659C20.021 12.5176 20.0203 12.6692 20.0195 12.8208C20.0199 12.8642 20.0202 12.9077 20.0206 12.9525C20.0149 13.5241 19.8123 14.0122 19.4186 14.4263C18.9165 14.8976 18.3744 15.0202 17.7064 15.0109C17.1886 14.9925 16.7444 14.7322 16.3708 14.3851C16.0348 14.0241 15.8156 13.5363 15.8149 13.04C15.8147 12.9999 15.8146 12.9598 15.8144 12.9184C15.8144 12.8746 15.8145 12.8308 15.8145 12.7856C15.8144 12.7389 15.8143 12.6921 15.8142 12.6439C15.8139 12.5143 15.8138 12.3846 15.8137 12.2549C15.8137 12.115 15.8134 11.9751 15.8131 11.8352C15.8126 11.5293 15.8123 11.2234 15.8122 10.9175C15.8121 10.7264 15.8119 10.5354 15.8117 10.3443C15.8113 9.81495 15.8108 9.28563 15.8107 8.75631C15.8107 8.72244 15.8107 8.68858 15.8107 8.65368C15.8107 8.60276 15.8107 8.60276 15.8107 8.55081C15.8106 8.48202 15.8106 8.41323 15.8106 8.34444C15.8106 8.29325 15.8106 8.29325 15.8106 8.24104C15.8104 7.6884 15.8098 7.13576 15.8088 6.58313C15.8079 6.01542 15.8074 5.44771 15.8074 4.88001C15.8073 4.56139 15.8071 4.24278 15.8064 3.92417C15.8058 3.6528 15.8056 3.38144 15.8059 3.11007C15.8061 2.97173 15.8061 2.83339 15.8055 2.69505C15.8049 2.54476 15.8052 2.39448 15.8056 2.24419C15.8053 2.20089 15.805 2.15759 15.8047 2.11298C15.8084 1.5211 16.0148 0.98678 16.4261 0.556827C16.8502 0.17207 17.3324 -0.00658789 17.8952 -0.00973213Z" fill="#666666"/>
<path d="M13.9738 3.75021C14.3564 4.07431 14.6181 4.5091 14.7263 5.00006C14.7303 5.11088 14.7321 5.22074 14.7321 5.33156C14.7322 5.36534 14.7324 5.39912 14.7325 5.43393C14.7329 5.54733 14.7331 5.66073 14.7332 5.77414C14.7335 5.85537 14.7337 5.93661 14.734 6.01784C14.7348 6.28486 14.7352 6.55188 14.7356 6.81891C14.7358 6.91089 14.7359 7.00288 14.7361 7.09486C14.7369 7.52714 14.7374 7.95942 14.7377 8.3917C14.7381 8.89028 14.7391 9.38884 14.7407 9.88741C14.7419 10.273 14.7425 10.6586 14.7426 11.0442C14.7427 11.2744 14.7431 11.5045 14.744 11.7347C14.7449 11.9514 14.7451 12.1682 14.7447 12.3849C14.7447 12.4642 14.7449 12.5435 14.7455 12.6228C14.7501 13.3437 14.6231 13.9024 14.1161 14.4419C13.6374 14.9025 13.0718 15.0198 12.4331 15.0109C11.9153 14.9926 11.471 14.7323 11.0975 14.3851C10.7149 13.9741 10.5408 13.4658 10.5409 12.9125C10.5407 12.8794 10.5406 12.8463 10.5405 12.8121C10.54 12.7012 10.5399 12.5903 10.5397 12.4793C10.5395 12.3997 10.5392 12.3202 10.5389 12.2406C10.5381 11.9792 10.5377 11.7179 10.5373 11.4565C10.5372 11.3664 10.537 11.2763 10.5368 11.1862C10.5361 10.7627 10.5355 10.3391 10.5352 9.91562C10.5348 9.42751 10.5338 8.9394 10.5322 8.45129C10.5311 8.07356 10.5305 7.69583 10.5303 7.3181C10.5303 7.09272 10.5299 6.86736 10.5289 6.64199C10.528 6.4297 10.5278 6.21742 10.5282 6.00513C10.5283 5.92757 10.528 5.85001 10.5275 5.77244C10.5227 5.03975 10.6406 4.47983 11.1326 3.90631C11.9434 3.18333 13.0887 3.10161 13.9738 3.75021Z" fill="#666666"/>
<path d="M10.859 15.1171C10.8942 15.132 10.8942 15.132 10.93 15.1471C11.5326 15.4066 11.9598 15.7837 12.2653 16.3671C12.2924 16.458 12.3186 16.5491 12.3434 16.6406C12.3791 16.6404 12.4148 16.6403 12.4516 16.6401C13.3211 16.6367 14.1907 16.6341 15.0602 16.6325C15.4807 16.6317 15.9012 16.6306 16.3217 16.6288C16.6882 16.6272 17.0548 16.6262 17.4214 16.6259C17.6154 16.6257 17.8094 16.6252 18.0035 16.6241C18.1863 16.623 18.369 16.6227 18.5518 16.6229C18.6188 16.6229 18.6857 16.6226 18.7526 16.622C19.4977 16.6156 19.4977 16.6156 19.7598 16.8663C19.9846 17.1115 20.0196 17.3055 20.0144 17.6371C19.9875 17.8853 19.8692 18.0338 19.6896 18.1982C19.4788 18.3445 19.2955 18.3691 19.0419 18.3687C18.9988 18.3688 18.9988 18.3688 18.9548 18.3689C18.8589 18.3691 18.763 18.3686 18.6671 18.3682C18.5982 18.3682 18.5293 18.3682 18.4603 18.3682C18.2735 18.3683 18.0867 18.3678 17.8999 18.3673C17.7045 18.3668 17.5092 18.3667 17.3139 18.3666C16.9441 18.3664 16.5743 18.3657 16.2045 18.365C15.7835 18.3641 15.3624 18.3637 14.9414 18.3633C14.0754 18.3625 13.2094 18.3611 12.3434 18.3593C12.3358 18.3832 12.3282 18.407 12.3204 18.4316C12.3051 18.4787 12.3051 18.4787 12.2895 18.5268C12.2794 18.5579 12.2694 18.589 12.2591 18.621C12.0632 19.156 11.5887 19.5435 11.0911 19.7807C11.0141 19.8157 10.9368 19.8496 10.859 19.8828C10.8242 19.8978 10.7894 19.9128 10.7536 19.9282C10.2862 20.0893 9.59383 20.078 9.14027 19.8828C9.11684 19.8729 9.09341 19.863 9.06927 19.8528C8.46671 19.5933 8.03949 19.2162 7.73402 18.6328C7.70683 18.542 7.68063 18.4508 7.65589 18.3593C7.62018 18.3595 7.58447 18.3596 7.54767 18.3598C6.67815 18.3632 5.80863 18.3658 4.9391 18.3674C4.5186 18.3682 4.09811 18.3693 3.67761 18.3711C3.31104 18.3727 2.94448 18.3737 2.57791 18.374C2.38387 18.3742 2.18984 18.3747 1.9958 18.3759C1.81301 18.3769 1.63024 18.3772 1.44745 18.377C1.38051 18.3771 1.31357 18.3774 1.24663 18.378C0.501532 18.3843 0.501532 18.3843 0.239501 18.1336C0.0146958 17.8885 -0.0203265 17.6944 -0.015161 17.3628C0.011797 17.1146 0.13009 16.9662 0.309699 16.8017C0.520498 16.6555 0.703782 16.6308 0.957338 16.6312C0.986091 16.6311 1.01484 16.6311 1.04447 16.631C1.14037 16.6309 1.23627 16.6313 1.33217 16.6317C1.40109 16.6317 1.47002 16.6317 1.53894 16.6317C1.72576 16.6317 1.91257 16.6321 2.09939 16.6327C2.29474 16.6332 2.49008 16.6332 2.68543 16.6333C3.05521 16.6335 3.425 16.6342 3.79478 16.635C4.21582 16.6358 4.63686 16.6363 5.0579 16.6367C5.9239 16.6375 6.7899 16.6388 7.65589 16.6406C7.66348 16.6168 7.67108 16.5929 7.6789 16.5684C7.68911 16.5369 7.69931 16.5055 7.70982 16.4731C7.71983 16.442 7.72984 16.4109 7.74016 16.3789C7.93609 15.8439 8.41058 15.4565 8.90817 15.2193C8.98514 15.1842 9.06248 15.1503 9.14027 15.1171C9.17506 15.1021 9.20985 15.0871 9.2457 15.0717C9.71304 14.9106 10.4054 14.9219 10.859 15.1171ZM9.37464 16.9531C9.22297 17.1637 9.16871 17.3566 9.17933 17.6171C9.23434 17.876 9.36001 18.0582 9.57484 18.2129C9.77081 18.3157 9.98742 18.3478 10.2044 18.3017C10.4488 18.2177 10.6274 18.0871 10.7499 17.8535C10.8314 17.6428 10.8472 17.4288 10.7736 17.2143C10.6671 16.9771 10.5193 16.8139 10.2731 16.7187C9.92781 16.6359 9.62977 16.698 9.37464 16.9531Z" fill="#666666"/>
<path d="M8.67222 7.07034C9.07759 7.40742 9.36357 7.87569 9.45347 8.39847C9.45702 8.46656 9.45873 8.53476 9.45895 8.60295C9.45918 8.64335 9.4594 8.68376 9.45963 8.72538C9.4597 8.79126 9.4597 8.79126 9.45976 8.85846C9.46005 8.92833 9.46005 8.92833 9.46035 8.99962C9.46082 9.12715 9.46111 9.25468 9.46129 9.38221C9.4614 9.46207 9.46156 9.54192 9.46174 9.62177C9.46227 9.87212 9.46265 10.1225 9.4628 10.3728C9.46298 10.6608 9.46366 10.9489 9.46479 11.2369C9.46564 11.4601 9.46603 11.6834 9.46608 11.9066C9.46612 12.0396 9.46635 12.1727 9.46705 12.3057C9.46772 12.4544 9.46765 12.6032 9.46739 12.7519C9.46775 12.7953 9.46811 12.8388 9.46848 12.8835C9.46534 13.477 9.25997 14.012 8.84739 14.4432C8.31482 14.9264 7.74362 15.0316 7.05212 15.0072C6.84621 14.9922 6.66971 14.9319 6.48472 14.8438C6.4542 14.8301 6.42369 14.8164 6.39225 14.8023C5.83123 14.5227 5.52077 14.049 5.31284 13.4766C5.2762 13.3543 5.26863 13.2442 5.26803 13.1166C5.26775 13.0754 5.26747 13.0342 5.26718 12.9917C5.26708 12.9467 5.26697 12.9017 5.26687 12.8553C5.26661 12.8077 5.26635 12.7601 5.26609 12.711C5.26532 12.5533 5.26486 12.3955 5.26447 12.2377C5.26431 12.1832 5.26415 12.1287 5.26399 12.0742C5.26325 11.8179 5.26269 11.5616 5.26237 11.3053C5.26198 11.0105 5.26096 10.7157 5.25938 10.4209C5.25819 10.1924 5.25762 9.96397 5.25749 9.73548C5.2574 9.59934 5.25706 9.46321 5.25607 9.32706C5.25498 9.1747 5.25515 9.02234 5.25542 8.86997C5.25467 8.8035 5.25467 8.8035 5.25391 8.73568C5.25777 8.13496 5.47875 7.6555 5.88169 7.21683C6.64477 6.48849 7.83596 6.45441 8.67222 7.07034Z" fill="#666666"/>
<path d="M3.26526 10.3248C3.73734 10.6594 4.01947 11.0832 4.16009 11.6457C4.18402 11.7926 4.18546 11.9379 4.18628 12.0864C4.1865 12.1181 4.18672 12.1497 4.18695 12.1823C4.18732 12.2492 4.18757 12.3161 4.18773 12.3831C4.1881 12.4841 4.18931 12.5852 4.19055 12.6862C4.19493 13.3623 4.0547 13.9388 3.57226 14.4431C3.14816 14.8279 2.66596 15.0065 2.10315 15.0097C2.05043 15.0109 2.05043 15.0109 1.99664 15.0121C1.41457 15.0155 0.94342 14.769 0.533932 14.3682C0.227384 14.0475 -0.00326352 13.6113 -0.00764036 13.1581C-0.00801566 13.1265 -0.00839095 13.0949 -0.00877762 13.0624C-0.00902664 13.0116 -0.00902664 13.0116 -0.00928068 12.9598C-0.00950334 12.9246 -0.009726 12.8893 -0.00995541 12.853C-0.0103241 12.7783 -0.0105796 12.7036 -0.0107303 12.629C-0.0111077 12.5158 -0.0123192 12.4027 -0.0135531 12.2895C-0.0138084 12.2167 -0.0140134 12.1439 -0.0141635 12.0712C-0.0146458 12.0378 -0.0151281 12.0044 -0.015625 11.97C-0.0135806 11.4065 0.236668 10.9331 0.625485 10.5378C1.33605 9.85168 2.45015 9.80098 3.26526 10.3248Z" fill="#666666"/>
</g>
<defs>
<clipPath id="clip0_6003_4614">
<rect width="20" height="20" fill="white"/>
</clipPath>
</defs>
</svg>
