<svg width="22" height="19" viewBox="0 0 22 19" fill="none" xmlns="http://www.w3.org/2000/svg">
<path d="M11 2.99999L10.46 3.51999C10.53 3.59257 10.6138 3.65031 10.7066 3.68974C10.7994 3.72918 10.8992 3.74951 11 3.74951C11.1008 3.74951 11.2006 3.72918 11.2934 3.68974C11.3862 3.65031 11.47 3.59257 11.54 3.51999L11 2.99999ZM8.426 15.822C6.91 14.627 5.253 13.46 3.938 11.98C2.65 10.528 1.75 8.83499 1.75 6.63699H0.25C0.25 9.30299 1.36 11.337 2.817 12.976C4.247 14.586 6.071 15.876 7.497 17L8.426 15.822ZM1.75 6.63699C1.75 4.48699 2.965 2.68299 4.624 1.92399C6.236 1.18699 8.402 1.38199 10.46 3.51999L11.54 2.48099C9.1 -0.0560138 6.264 -0.475014 4 0.559986C1.786 1.57299 0.25 3.92499 0.25 6.63699H1.75ZM7.497 17C8.01 17.404 8.56 17.834 9.117 18.16C9.674 18.486 10.31 18.75 11 18.75V17.25C10.69 17.25 10.326 17.13 9.874 16.865C9.421 16.601 8.952 16.237 8.426 15.822L7.497 17ZM14.503 17C15.929 15.875 17.753 14.587 19.183 12.976C20.64 11.336 21.75 9.30299 21.75 6.63699H20.25C20.25 8.83499 19.35 10.528 18.062 11.98C16.747 13.46 15.09 14.627 13.574 15.822L14.503 17ZM21.75 6.63699C21.75 3.92499 20.215 1.57299 18 0.559986C15.736 -0.475014 12.902 -0.0560138 10.46 2.47999L11.54 3.51999C13.598 1.38299 15.764 1.18699 17.376 1.92399C19.035 2.68299 20.25 4.48599 20.25 6.63699H21.75ZM13.574 15.822C13.048 16.237 12.579 16.601 12.126 16.865C11.673 17.129 11.31 17.25 11 17.25V18.75C11.69 18.75 12.326 18.485 12.883 18.16C13.441 17.834 13.99 17.404 14.503 17L13.574 15.822Z" fill="#3221FF"/>
</svg>
