<svg width="103" height="89" viewBox="0 0 103 89" fill="none" xmlns="http://www.w3.org/2000/svg">
<path d="M46.21 0.000251872C46.297 0.000457019 46.3841 0.000662166 46.4737 0.00087353C48.8274 0.00974353 51.0318 0.340262 53.3152 0.886702C53.4034 0.907638 53.4915 0.928575 53.5823 0.950146C58.3722 2.12123 62.7266 4.85513 66.1456 8.21627C66.3694 8.43167 66.5932 8.6465 66.822 8.85694C66.965 8.9888 67.1025 9.12598 67.2397 9.26336C67.2397 9.32618 67.2397 9.389 67.2397 9.45373C67.3382 9.48515 67.4366 9.51656 67.5381 9.54892C67.7826 9.79757 67.9926 10.0728 68.2087 10.3443C68.3422 10.5113 68.4774 10.6769 68.6127 10.8425C70.0522 12.6227 71.1909 14.6029 72.2279 16.619C72.4464 17.0433 72.6746 17.4615 72.9089 17.878C73.173 18.3477 73.4285 18.8201 73.6759 19.298C74.0968 20.1073 74.5276 20.9117 74.9603 21.7153C75.0387 21.8611 75.1171 22.007 75.1955 22.1528C75.7312 23.1486 76.2703 24.1427 76.8102 25.1365C77.1833 25.8246 77.5485 26.5161 77.9081 27.2108C78.1764 27.7272 78.4534 28.2383 78.7363 28.7475C79.3069 29.7803 79.8537 30.8242 80.3991 31.8693C80.5044 32.0706 80.6096 32.272 80.7148 32.4733C80.9339 32.8924 81.1527 33.3116 81.3715 33.7308C81.6485 34.2615 81.9259 34.7921 82.2033 35.3226C82.4203 35.7376 82.6371 36.1527 82.8539 36.5678C82.9559 36.7632 83.058 36.9585 83.1601 37.1538C83.8699 38.5111 84.5618 39.8758 85.242 41.2469C85.348 41.46 85.4541 41.6731 85.5602 41.8861C85.6838 42.1344 85.8074 42.3827 85.9307 42.6311C86.2196 43.2108 86.5178 43.7856 86.8186 44.3597C87.2001 45.0884 87.574 45.8206 87.9461 46.5537C87.9827 46.6257 88.0192 46.6977 88.0569 46.7719C88.5875 47.8177 89.1074 48.8675 89.6158 49.9234C90.0738 50.8737 90.5416 51.8195 91.0107 52.7648C91.7167 54.1883 92.4148 55.615 93.1055 57.0454C93.445 57.7485 93.785 58.4515 94.1251 59.1544C94.1654 59.2379 94.2058 59.3214 94.2474 59.4074C94.8288 60.6092 95.4157 61.8083 96.0071 63.0056C96.5285 64.0619 97.0358 65.1239 97.5381 66.1885C98.0074 67.1821 98.4926 68.1672 98.9902 69.1482C99.4827 70.1203 99.9588 71.0993 100.431 72.0804C100.654 72.5423 100.88 73.0023 101.109 73.4614C102.256 75.7702 102.256 75.7702 102.548 76.9429C102.566 77.0085 102.583 77.074 102.602 77.1416C102.785 77.8914 102.791 78.6458 102.791 79.4119C102.791 79.4815 102.791 79.5511 102.791 79.6228C102.787 80.7538 102.689 81.786 102.25 82.8446C102.207 82.949 102.207 82.949 102.164 83.0554C101.746 84.0527 101.194 84.8908 100.459 85.7003C100.395 85.7714 100.331 85.8424 100.265 85.9156C98.6628 87.5586 96.2016 88.4968 93.8811 88.5768C91.4713 88.6296 89.4245 88.0319 87.6367 86.4185C85.6288 84.5335 84.3299 82.0925 83.0318 79.7368C82.7724 79.269 82.5061 78.805 82.2396 78.341C81.1602 76.4553 80.1245 74.5466 79.1748 72.5979C78.9503 72.1387 78.7175 71.6841 78.4787 71.2316C78.1686 70.6438 77.8729 70.0508 77.5823 69.4541C77.3707 69.0214 77.1508 68.5935 76.9246 68.1676C76.0846 66.5792 75.3116 64.9532 74.5622 63.324C74.1885 62.5116 73.7932 61.7092 73.3942 60.908C72.6522 59.4173 71.9483 57.912 71.2554 56.3999C70.7986 55.4033 70.3396 54.408 69.8268 53.4364C69.6403 53.0806 69.4697 52.7191 69.3035 52.3543C68.8874 51.4502 68.4584 50.5518 68.0292 49.6533C67.9954 49.5827 67.9617 49.5121 67.927 49.4393C67.55 48.6498 67.1703 47.8616 66.7858 47.0754C66.5765 46.6469 66.3718 46.2165 66.1692 45.7851C65.8184 45.0383 65.4588 44.2987 65.0695 43.5696C64.7468 42.9601 64.4528 42.3385 64.1564 41.7169C63.7785 40.9256 63.3856 40.1513 62.9481 39.3889C62.7443 39.0221 62.5603 38.6494 62.3786 38.2723C62.0594 37.6114 61.7142 36.9672 61.3564 36.3248C61.0572 35.7866 60.7706 35.2434 60.4888 34.6967C59.7401 33.2501 58.9134 31.8432 58.0835 30.4381C57.9195 30.1592 57.7578 29.8794 57.5982 29.5982C57.5512 29.5155 57.5041 29.4328 57.4557 29.3475C57.3684 29.1941 57.2811 29.0406 57.1941 28.8869C56.4749 27.6193 55.7022 26.385 54.9066 25.16C54.8494 25.0713 54.7922 24.9826 54.7332 24.8912C54.3623 24.3235 53.9658 23.7878 53.5328 23.2621C53.42 23.1247 53.3074 22.987 53.1952 22.849C53.1465 22.7899 53.0978 22.7307 53.0476 22.6698C52.9174 22.4947 52.9174 22.4947 52.8192 22.2881C52.726 22.0805 52.726 22.0805 52.4201 22.0187C52.2771 21.8763 52.2771 21.8763 52.1217 21.6915C50.8304 20.2466 48.9663 18.9518 46.9498 18.6871C46.8616 18.6745 46.7733 18.6618 46.6825 18.6488C44.5688 18.4094 42.5035 19.1779 40.8392 20.3934C40.4595 20.6875 40.0958 20.9913 39.7414 21.3128C39.5817 21.4547 39.418 21.5916 39.2541 21.7291C38.142 22.6926 37.5404 23.7706 36.9105 25.0588C36.8141 25.2505 36.7174 25.4421 36.6205 25.6335C36.4338 26.0029 36.2486 26.373 36.0648 26.7438C35.7255 27.4268 35.3711 28.1023 35.0145 28.7772C34.5735 29.6137 34.1408 30.4529 33.7215 31.2997C33.1878 32.3769 32.6434 33.4463 32.0494 34.4945C31.729 35.0611 31.4365 35.6381 31.149 36.2205C30.5198 37.4869 29.8653 38.741 29.2089 39.9947C29.0413 40.3148 28.874 40.635 28.7066 40.9552C28.3908 41.5596 28.0747 42.1638 27.7585 42.768C27.4011 43.4511 27.0438 44.1344 26.6866 44.8177C26.1578 45.8292 25.6289 46.8406 25.0998 47.852C24.958 48.1231 24.8162 48.3942 24.6744 48.6653C24.4888 49.0202 24.3031 49.375 24.1173 49.7297C24.0454 49.8671 23.9735 50.0045 23.9016 50.1419C23.8429 50.2541 23.7842 50.3662 23.7237 50.4818C23.5354 50.8454 23.3554 51.2121 23.1787 51.5809C22.8998 52.1561 22.6001 52.7161 22.2836 53.273C21.9975 53.7803 21.7409 54.2987 21.4873 54.8214C21.2684 55.2717 21.0432 55.7181 20.8103 56.1619C20.7786 56.2227 20.7468 56.2836 20.7141 56.3463C20.5175 56.7216 20.317 57.0949 20.1145 57.4674C18.9609 59.6053 18.3044 61.9731 19.0566 64.3628C19.5131 65.7318 20.2232 66.8765 21.289 67.8999C21.3622 67.9722 21.4354 68.0445 21.5108 68.1189C23.1807 69.6689 25.2326 70.1372 27.4998 70.1086C29.5718 70.0538 31.4405 69.0417 32.8532 67.6162C33.6052 66.7763 34.2771 65.8702 34.9151 64.9491C34.9594 64.8851 35.0037 64.8211 35.0494 64.7552C35.7373 63.7545 36.3585 62.7285 36.9413 61.6684C37.3892 60.8576 37.8605 60.068 38.477 59.3626C38.8173 58.9682 39.0917 58.5563 39.3659 58.1192C40.0905 56.9777 40.9937 55.9898 42.0762 55.1446C42.1943 55.05 42.1943 55.05 42.3148 54.9534C44.3525 53.4233 46.9273 52.8089 49.4763 53.0958C51.8658 53.416 53.8963 54.554 55.3654 56.3924C56.9054 58.4794 57.1839 61.1138 56.7514 63.5813C56.5515 64.5971 56.2303 65.5842 55.9012 66.5673C55.8713 66.6566 55.8415 66.7459 55.8107 66.8379C54.1063 71.8595 51.4845 77.0528 47.4471 80.7505C47.1987 80.9862 46.9528 81.2234 46.7108 81.4651C46.0131 82.1545 45.2644 82.7447 44.4633 83.3206C44.3722 83.3871 44.2812 83.4536 44.1874 83.5221C41.0521 85.7659 37.4648 87.1405 33.6221 87.7945C33.5225 87.8116 33.4229 87.8286 33.3203 87.8462C26.5691 88.9434 19.0969 87.2888 13.1628 84.1598C12.9641 84.0551 12.7644 83.9522 12.5629 83.8527C10.4755 82.8145 8.62091 81.3868 6.96669 79.7986C6.88438 79.7231 6.80207 79.6477 6.71726 79.5699C5.99666 78.9019 5.37925 78.1868 4.77856 77.4189C4.73718 77.367 4.6958 77.3152 4.65317 77.2617C3.44288 75.7424 2.52524 74.0713 1.78484 72.3012C1.70925 72.1214 1.63037 71.9429 1.55076 71.7648C0.964934 70.4128 0.637458 68.9501 0.371225 67.5132C0.355383 67.4285 0.339541 67.3438 0.323219 67.2565C-0.342666 63.444 0.0879051 59.3499 0.999069 55.6205C1.01825 55.5396 1.03744 55.4588 1.0572 55.3754C1.66662 52.834 2.66213 50.3885 3.78604 48.0208C3.92684 47.7233 4.06625 47.4252 4.20577 47.1272C5.124 45.1665 6.06001 43.2137 7.00831 41.2662C7.42956 40.4004 7.8451 39.5326 8.25084 38.6601C8.52955 38.063 8.82999 37.4786 9.14006 36.8958C9.5414 36.1344 9.91836 35.3614 10.3015 34.5915C10.598 33.9969 10.8964 33.4032 11.1947 32.8094C11.4418 32.3174 11.6879 31.825 11.9319 31.3316C12.3539 30.4797 12.7778 29.632 13.2484 28.8036C13.4807 28.3944 13.7008 27.9808 13.9165 27.5635C14.2102 26.9957 14.5141 26.4337 14.8241 25.8739C15.1252 25.3297 15.4213 24.7838 15.7068 24.2319C16.4789 22.744 17.2883 21.2781 18.1487 19.8353C18.4395 19.3473 18.7232 18.8577 18.9952 18.3599C20.5712 15.5044 22.3232 12.6192 24.4717 10.1201C24.5141 10.0697 24.5565 10.0193 24.6002 9.96742C25.2725 9.16981 26.0111 8.43683 26.7655 7.71058C26.856 7.62309 26.9465 7.5356 27.0397 7.44546C27.645 6.86882 28.2767 6.34219 28.9474 5.83654C29.014 5.78577 29.0805 5.73499 29.149 5.68267C33.9921 2.01827 40.0368 -0.0261128 46.21 0.000251872Z" fill="white"/>
</svg>
