<svg width="9" height="10" viewBox="0 0 9 10" fill="none" xmlns="http://www.w3.org/2000/svg">
<path d="M8.60838 4.41823C8.60836 4.42574 8.60834 4.43326 8.60832 4.44101C8.60755 4.64435 8.57865 4.83479 8.53088 5.03206C8.52905 5.03968 8.52722 5.04729 8.52533 5.05513C8.42295 5.46895 8.18394 5.84514 7.89009 6.14051C7.87126 6.15984 7.85248 6.17918 7.83408 6.19895C7.82255 6.2113 7.81056 6.22318 7.79855 6.23503C7.79306 6.23503 7.78757 6.23503 7.78191 6.23503C7.77916 6.24354 7.77641 6.25204 7.77358 6.26081C7.75185 6.28193 7.72778 6.30008 7.70405 6.31875C7.68945 6.33028 7.67497 6.34196 7.66049 6.35365C7.50486 6.47801 7.33174 6.57639 7.15548 6.66598C7.11839 6.68485 7.08183 6.70457 7.04542 6.72481C7.00435 6.74762 6.96305 6.76969 6.92127 6.79107C6.85052 6.82744 6.7802 6.86465 6.70994 6.90203C6.69719 6.90881 6.68444 6.91558 6.67169 6.92236C6.58463 6.96863 6.49772 7.0152 6.41085 7.06185C6.35069 7.09408 6.29023 7.12563 6.2295 7.1567C6.18435 7.17988 6.13967 7.20381 6.09515 7.22825C6.00486 7.27755 5.9136 7.32479 5.82223 7.37191C5.80463 7.381 5.78703 7.39009 5.76943 7.39918C5.73279 7.4181 5.69614 7.43701 5.65949 7.45592C5.61309 7.47985 5.5667 7.50381 5.52032 7.52778C5.48404 7.54652 5.44775 7.56525 5.41146 7.58398C5.39438 7.59279 5.37731 7.60161 5.36023 7.61044C5.24157 7.67175 5.12226 7.73153 5.00239 7.7903C4.98376 7.79945 4.96513 7.80862 4.94651 7.81779C4.9248 7.82846 4.9031 7.83914 4.88138 7.84979C4.8307 7.87475 4.78044 7.90051 4.73026 7.9265C4.66655 7.95946 4.60254 7.99176 4.53844 8.02391C4.53215 8.02707 4.52586 8.03022 4.51937 8.03348C4.42794 8.07932 4.33616 8.12423 4.24385 8.16816C4.16077 8.20773 4.07809 8.24814 3.99544 8.28867C3.87099 8.34966 3.74626 8.40997 3.62121 8.46964C3.55974 8.49897 3.49828 8.52835 3.43683 8.55772C3.42953 8.56121 3.42223 8.5647 3.41471 8.56829C3.30965 8.61852 3.20481 8.66923 3.10014 8.72032C3.00779 8.76536 2.91495 8.80919 2.82187 8.85259C2.73501 8.89313 2.64889 8.93505 2.56313 8.97803C2.47814 9.02059 2.39255 9.06172 2.30677 9.10255C2.2664 9.12179 2.22618 9.14133 2.18604 9.16109C1.9842 9.26019 1.9842 9.26019 1.88167 9.28541C1.87594 9.28694 1.87021 9.28846 1.8643 9.29004C1.79875 9.30585 1.7328 9.3064 1.66582 9.30636C1.65974 9.30636 1.65365 9.30637 1.64738 9.30637C1.54851 9.30604 1.45827 9.29755 1.36572 9.25964C1.3566 9.25597 1.3566 9.25597 1.34729 9.25224C1.2601 9.21615 1.18683 9.16844 1.11606 9.10497C1.10985 9.09942 1.10364 9.09387 1.09724 9.08815C0.953596 8.94975 0.871579 8.73712 0.86458 8.53665C0.859967 8.32846 0.912216 8.15163 1.05327 7.99718C1.21806 7.82371 1.43147 7.71149 1.63742 7.59935C1.67831 7.57694 1.71888 7.55394 1.75945 7.53091C1.9243 7.43766 2.09117 7.34819 2.26154 7.26614C2.30168 7.24674 2.34142 7.22663 2.38099 7.206C2.43237 7.17921 2.48422 7.15366 2.53638 7.12855C2.57421 7.11027 2.61162 7.09128 2.64885 7.07174C2.78772 6.99917 2.92988 6.93239 3.07231 6.86764C3.14332 6.83535 3.21348 6.80121 3.28352 6.76673C3.41385 6.70263 3.54545 6.64182 3.67765 6.58196C3.76477 6.54249 3.85178 6.50284 3.93673 6.45854C3.96783 6.44243 3.99944 6.42769 4.03133 6.41333C4.11037 6.37738 4.18892 6.34032 4.26746 6.30323C4.27363 6.30032 4.27981 6.29741 4.28617 6.29441C4.35519 6.26184 4.42411 6.22904 4.49284 6.19582C4.5303 6.17773 4.56793 6.16005 4.60564 6.14255C4.67093 6.11224 4.73559 6.08117 4.79933 6.04754C4.85262 6.01967 4.90696 5.99426 4.9613 5.96866C5.03048 5.93601 5.09817 5.90207 5.16483 5.86427C5.19689 5.84666 5.22948 5.83076 5.26245 5.81506C5.32022 5.7875 5.37655 5.75767 5.4327 5.72676C5.47976 5.70091 5.52724 5.67615 5.57504 5.6518C5.70151 5.58712 5.82451 5.5157 5.94735 5.444C5.97173 5.42983 5.9962 5.41587 6.02078 5.40208C6.02801 5.39802 6.03524 5.39395 6.04269 5.38976C6.05611 5.38222 6.06953 5.37468 6.08296 5.36717C6.19379 5.30503 6.30169 5.23828 6.40879 5.16954C6.41654 5.1646 6.4243 5.15966 6.43228 5.15456C6.48192 5.12252 6.52875 5.08827 6.57471 5.05086C6.58673 5.04111 6.59877 5.03138 6.61083 5.02169C6.616 5.01748 6.62117 5.01328 6.62649 5.00894C6.64181 4.99769 6.64181 4.99769 6.65987 4.98921C6.67801 4.98115 6.67801 4.98115 6.68341 4.95473C6.69587 4.94238 6.69587 4.94238 6.71202 4.92895C6.83834 4.81739 6.95154 4.65634 6.97468 4.48213C6.97579 4.47451 6.97689 4.46689 6.97803 4.45904C6.99896 4.27643 6.93177 4.09801 6.8255 3.95422C6.79979 3.92143 6.77323 3.89001 6.74513 3.85938C6.73272 3.84558 6.72075 3.83145 6.70874 3.81728C6.6245 3.72121 6.53026 3.66923 6.41763 3.61481C6.40088 3.60649 6.38413 3.59813 6.36739 3.58976C6.33509 3.57363 6.30274 3.55763 6.27032 3.54175C6.21061 3.51244 6.15156 3.48182 6.09256 3.45102C6.01943 3.41292 5.94606 3.37553 5.87203 3.33931C5.77785 3.2932 5.68436 3.24617 5.59272 3.19485C5.54319 3.16718 5.49274 3.1419 5.44182 3.11707C5.33111 3.06271 5.22147 3.00616 5.11187 2.94945C5.08388 2.93498 5.05589 2.92052 5.02789 2.90606C4.97506 2.87877 4.92223 2.85147 4.86941 2.82415C4.80969 2.79327 4.74995 2.76241 4.69022 2.73155C4.60179 2.68586 4.51336 2.64017 4.42494 2.59446C4.40124 2.58221 4.37754 2.56996 4.35384 2.55771C4.32282 2.54167 4.2918 2.52563 4.26078 2.50958C4.24877 2.50337 4.23676 2.49716 4.22475 2.49095C4.21494 2.48587 4.20513 2.4808 4.19503 2.47557C4.16325 2.45931 4.13119 2.44375 4.09894 2.42849C4.04866 2.4044 3.9997 2.37851 3.95101 2.35116C3.90666 2.32645 3.86134 2.30428 3.81565 2.28236C3.77628 2.26346 3.73725 2.244 3.69845 2.22388C3.69313 2.22114 3.68781 2.21839 3.68233 2.21557C3.64952 2.19858 3.61688 2.18127 3.58432 2.16377C3.39741 2.0641 3.19041 2.00738 2.98149 2.07237C2.8618 2.11181 2.76173 2.17316 2.67225 2.26523C2.66594 2.27156 2.65962 2.27788 2.65311 2.2844C2.5176 2.42866 2.47667 2.60593 2.47916 2.8018C2.48395 2.9808 2.57244 3.14225 2.69706 3.2643C2.77049 3.32926 2.8497 3.38731 2.93023 3.44242C2.93583 3.44625 2.94142 3.45008 2.94718 3.45403C3.03467 3.51346 3.12436 3.56712 3.21704 3.61747C3.28793 3.65617 3.35696 3.69689 3.41863 3.75015C3.45311 3.77955 3.48912 3.80325 3.52733 3.82694C3.62713 3.88954 3.71349 3.96757 3.78739 4.06109C3.79566 4.0713 3.79566 4.0713 3.8041 4.0817C3.93787 4.25775 3.99159 4.4802 3.96651 4.70041C3.93851 4.90684 3.83902 5.08226 3.6783 5.20918C3.49584 5.34222 3.26554 5.36629 3.04981 5.32892C2.961 5.31165 2.87471 5.2839 2.78876 5.25547C2.78095 5.25289 2.77314 5.25031 2.7651 5.24765C2.32609 5.1004 1.87207 4.8739 1.5488 4.5251C1.52819 4.50364 1.50745 4.48239 1.48632 4.46149C1.42605 4.40121 1.37445 4.33653 1.32411 4.26732C1.31829 4.25945 1.31248 4.25159 1.30649 4.24349C1.11033 3.97262 0.990149 3.66271 0.932976 3.33072C0.931483 3.32212 0.929991 3.31351 0.928453 3.30465C0.832528 2.72139 0.977181 2.07586 1.25074 1.56319C1.25989 1.54603 1.26889 1.52878 1.27759 1.51137C1.36835 1.33103 1.49317 1.17081 1.63202 1.0279C1.63861 1.02078 1.64521 1.01367 1.65201 1.00635C1.71041 0.944091 1.77293 0.890752 1.84006 0.838857C1.8446 0.835282 1.84913 0.831708 1.8538 0.828024C1.98662 0.723465 2.13272 0.644187 2.28747 0.580223C2.30319 0.573692 2.31879 0.566877 2.33437 0.56C2.45257 0.509388 2.58044 0.481097 2.70606 0.458096C2.71347 0.456728 2.72087 0.455359 2.7285 0.453949C3.06181 0.396422 3.41974 0.43362 3.74578 0.512337C3.75285 0.513995 3.75992 0.515652 3.76721 0.51736C3.98939 0.570009 4.20319 0.656014 4.41019 0.75311C4.4362 0.765275 4.46226 0.777319 4.48831 0.789372C4.65973 0.868701 4.83045 0.949564 5.00071 1.03149C5.0764 1.06788 5.15226 1.10378 5.22854 1.13884C5.28075 1.16291 5.33184 1.18887 5.38279 1.21566C5.44935 1.25033 5.51693 1.2829 5.58424 1.316C5.63622 1.34161 5.68813 1.36739 5.74004 1.39317C5.78305 1.41451 5.8261 1.43577 5.86923 1.45686C5.94371 1.49331 6.01782 1.52993 6.09025 1.57059C6.12602 1.59066 6.16218 1.60967 6.19866 1.62831C6.24831 1.65368 6.29743 1.67994 6.34638 1.70671C6.39396 1.73273 6.44168 1.75831 6.48993 1.78297C6.62001 1.84968 6.74816 1.9196 6.8743 1.99394C6.91696 2.01906 6.95977 2.04357 7.00329 2.06707C7.25293 2.20323 7.50517 2.35458 7.72365 2.5402C7.72806 2.54386 7.73246 2.54752 7.737 2.5513C7.80673 2.60938 7.87081 2.67319 7.9343 2.73837C7.94195 2.74618 7.9496 2.754 7.95748 2.76206C8.00789 2.81435 8.05393 2.86892 8.09814 2.92687C8.10258 2.93261 8.10702 2.93836 8.11159 2.94428C8.43195 3.36268 8.61068 3.8849 8.60838 4.41823Z" fill="#FF0022"/>
</svg>
