<?xml version="1.0" encoding="UTF-8"?>
<svg xmlns="http://www.w3.org/2000/svg" xmlns:xlink="http://www.w3.org/1999/xlink" width="px" height="px" viewBox="0 0 7 7" version="1.1">
<g id="surface1">
<path style=" stroke:none;fill-rule:nonzero;fill:rgb(100%,75.686276%,2.745098%);fill-opacity:1;" d="M 6.359375 3.011719 L 6.125 3.011719 L 6.125 3 L 3.5 3 L 3.5 4.128906 L 5.148438 4.128906 C 4.90625 4.785156 4.261719 5.253906 3.5 5.253906 C 2.535156 5.253906 1.75 4.496094 1.75 3.566406 C 1.75 2.632812 2.535156 1.875 3.5 1.875 C 3.945312 1.875 4.351562 2.039062 4.660156 2.304688 L 5.484375 1.507812 C 4.964844 1.039062 4.269531 0.75 3.5 0.75 C 1.890625 0.75 0.582031 2.007812 0.582031 3.566406 C 0.582031 5.121094 1.890625 6.378906 3.5 6.378906 C 5.109375 6.378906 6.417969 5.121094 6.417969 3.566406 C 6.417969 3.375 6.398438 3.191406 6.359375 3.011719 Z M 6.359375 3.011719 "/>
<path style=" stroke:none;fill-rule:nonzero;fill:rgb(100%,23.921569%,0%);fill-opacity:1;" d="M 0.917969 2.253906 L 1.878906 2.933594 C 2.136719 2.3125 2.765625 1.875 3.5 1.875 C 3.945312 1.875 4.351562 2.039062 4.660156 2.304688 L 5.484375 1.507812 C 4.964844 1.039062 4.269531 0.75 3.5 0.75 C 2.378906 0.75 1.40625 1.359375 0.917969 2.253906 Z M 0.917969 2.253906 "/>
<path style=" stroke:none;fill-rule:nonzero;fill:rgb(29.803923%,68.627453%,31.37255%);fill-opacity:1;" d="M 3.5 6.378906 C 4.253906 6.378906 4.9375 6.101562 5.457031 5.648438 L 4.554688 4.910156 C 4.25 5.132812 3.878906 5.253906 3.5 5.253906 C 2.742188 5.253906 2.097656 4.789062 1.855469 4.136719 L 0.902344 4.84375 C 1.386719 5.753906 2.367188 6.378906 3.5 6.378906 Z M 3.5 6.378906 "/>
<path style=" stroke:none;fill-rule:nonzero;fill:rgb(9.803922%,46.27451%,82.352942%);fill-opacity:1;" d="M 6.359375 3.011719 L 6.125 3.011719 L 6.125 3 L 3.5 3 L 3.5 4.128906 L 5.148438 4.128906 C 5.035156 4.441406 4.824219 4.710938 4.550781 4.914062 L 4.554688 4.910156 L 5.457031 5.648438 C 5.390625 5.707031 6.417969 4.972656 6.417969 3.566406 C 6.417969 3.375 6.398438 3.191406 6.359375 3.011719 Z M 6.359375 3.011719 "/>
</g>
</svg>
