<svg width="20" height="21" viewBox="0 0 20 21" fill="none" xmlns="http://www.w3.org/2000/svg">
<path d="M10.2033 3.91846C10.6484 3.92091 11.7619 3.93167 12.9451 3.97907L13.3646 3.99736C14.5559 4.05376 15.7461 4.15011 16.3364 4.31471C17.1239 4.53592 17.7428 5.18137 17.9519 5.99956C18.285 7.2988 18.3267 9.83462 18.3319 10.4483L18.3326 10.5755V10.5844C18.3326 10.5844 18.3326 10.5875 18.3326 10.5934L18.3319 10.7205C18.3267 11.3342 18.285 13.87 17.9519 15.1693C17.7399 15.9905 17.1209 16.636 16.3364 16.8541C15.7461 17.0187 14.5559 17.115 13.3646 17.1715L12.9451 17.1897C11.7619 17.2371 10.6484 17.2479 10.2033 17.2504L10.0079 17.251H9.99927C9.99927 17.251 9.99635 17.251 9.9906 17.251L9.79544 17.2504C8.85344 17.2452 4.91479 17.2026 3.66211 16.8541C2.87469 16.6329 2.25579 15.9875 2.04658 15.1693C1.71352 13.87 1.67189 11.3342 1.66669 10.7205V10.4483C1.67189 9.83462 1.71352 7.2988 2.04658 5.99956C2.25869 5.17834 2.87759 4.53289 3.66211 4.31471C4.91479 3.96615 8.85344 3.92364 9.79544 3.91846H10.2033ZM8.33261 7.66774V13.501L13.3326 10.5844L8.33261 7.66774Z" fill="white"/>
</svg>
