<svg width="20" height="20" viewBox="0 0 20 20" fill="none" xmlns="http://www.w3.org/2000/svg">
<path d="M1.63218 1.71392C1.66166 1.71385 1.69114 1.71378 1.72152 1.71371C1.82016 1.71353 1.91881 1.71362 2.01745 1.71372C2.08895 1.71365 2.16045 1.71356 2.23194 1.71345C2.42832 1.71321 2.62469 1.71322 2.82107 1.71326C3.03289 1.71327 3.24472 1.71305 3.45654 1.71287C3.87151 1.71254 4.28647 1.71244 4.70144 1.71242C5.03872 1.7124 5.376 1.71232 5.71328 1.71219C6.66944 1.71185 7.62561 1.71167 8.58177 1.7117C8.63332 1.7117 8.68487 1.7117 8.73798 1.7117C8.76378 1.7117 8.78958 1.7117 8.81616 1.71171C9.62678 1.71173 10.4374 1.71144 11.248 1.7109C12.159 1.7103 13.0699 1.70997 13.9808 1.71C14.4631 1.71001 14.9453 1.70991 15.4276 1.70949C15.8381 1.70913 16.2487 1.70905 16.6593 1.70931C16.8687 1.70944 17.0782 1.70944 17.2876 1.7091C17.4795 1.7088 17.6713 1.70885 17.8631 1.70919C17.9324 1.70925 18.0017 1.70918 18.0711 1.70896C19.0432 1.70611 19.0432 1.70611 19.3756 2.03144C19.5473 2.22932 19.654 2.38122 19.6539 2.64941C19.654 2.68843 19.654 2.72744 19.6541 2.76764C19.654 2.81061 19.6539 2.85359 19.6538 2.89787C19.6538 2.96621 19.6538 2.96621 19.6539 3.03593C19.6539 3.1626 19.6538 3.28926 19.6536 3.41593C19.6534 3.55245 19.6535 3.68897 19.6535 3.82549C19.6535 4.06208 19.6534 4.29868 19.6532 4.53527C19.6529 4.87735 19.6528 5.21943 19.6527 5.5615C19.6527 6.11648 19.6524 6.67145 19.652 7.22642C19.6517 7.76559 19.6514 8.30476 19.6512 8.84393C19.6512 8.87749 19.6512 8.91105 19.6512 8.94563C19.6511 9.2081 19.651 9.47057 19.651 9.73303C19.6506 11.02 19.6498 12.307 19.6491 13.5939C16.1299 13.5939 12.6108 13.5939 8.98501 13.5939C8.90767 13.4135 8.83033 13.233 8.75064 13.0471C8.64946 12.8945 8.55389 12.7568 8.43814 12.6174C8.40702 12.5796 8.40702 12.5796 8.37527 12.5411C8.02893 12.1605 7.46993 11.8663 6.9521 11.8306C6.21532 11.7998 5.59494 11.9238 5.02993 12.4318C4.66051 12.7792 4.50329 13.1138 4.29751 13.5939C2.99556 13.5939 1.69361 13.5939 0.3522 13.5939C0.348755 12.181 0.34587 10.7681 0.344221 9.35514C0.344026 9.18831 0.343824 9.02148 0.343617 8.85466C0.343576 8.82144 0.343535 8.78823 0.343493 8.75401C0.342813 8.21632 0.341581 7.67862 0.340145 7.14092C0.338684 6.58916 0.337816 6.03739 0.337499 5.48562C0.337285 5.14518 0.336608 4.80474 0.335338 4.4643C0.334512 4.23081 0.334263 3.99733 0.334466 3.76385C0.334566 3.62916 0.334413 3.49448 0.333574 3.35979C0.332797 3.21363 0.332984 3.06751 0.333411 2.92135C0.332955 2.87895 0.3325 2.83654 0.332031 2.79285C0.334412 2.49132 0.391902 2.27998 0.593747 2.0525C0.637328 2.01549 0.637328 2.01549 0.68179 1.97773C0.710744 1.95245 0.739697 1.92717 0.769528 1.90113C1.02679 1.71632 1.32498 1.713 1.63218 1.71392ZM2.73501 3.90644C2.73501 5.04082 2.73501 6.17519 2.73501 7.34394C4.70728 7.34394 6.67954 7.34394 8.71158 7.34394C8.71158 6.20957 8.71158 5.07519 8.71158 3.90644C6.73931 3.90644 4.76704 3.90644 2.73501 3.90644ZM12.8913 3.90644C12.8913 5.09238 12.8913 6.27832 12.8913 7.50019C13.1233 7.50019 13.3553 7.50019 13.5944 7.50019C13.5968 7.55014 13.5991 7.60009 13.6016 7.65156C13.6049 7.71829 13.6082 7.78502 13.6115 7.85175C13.613 7.88453 13.6145 7.91731 13.6161 7.95109C13.6264 8.1541 13.6448 8.35349 13.6725 8.55488C13.8162 8.49385 13.9133 8.40504 14.0265 8.29853C14.2079 8.13075 14.394 7.97195 14.5864 7.81681C14.6913 7.73482 14.6913 7.73482 14.7905 7.63338C14.9394 7.51009 15.0737 7.51146 15.2611 7.51349C15.2948 7.51308 15.3285 7.51267 15.3633 7.51225C15.4718 7.51115 15.5803 7.51136 15.6888 7.51164C15.7561 7.51115 15.8233 7.51057 15.8905 7.5099C16.1391 7.50805 16.3878 7.50789 16.6364 7.50752C17.1923 7.5051 17.7482 7.50268 18.3209 7.50019C18.3209 6.31425 18.3209 5.12832 18.3209 3.90644C16.5292 3.90644 14.7374 3.90644 12.8913 3.90644ZM10.3064 4.45164C10.2651 4.47578 10.2238 4.49993 10.1813 4.5248C10.1378 4.55036 10.0943 4.57591 10.0495 4.60224C10.0066 4.62734 9.96366 4.65244 9.91946 4.67831C9.8032 4.74639 9.68698 4.81453 9.57095 4.883C9.53478 4.89951 9.4986 4.91602 9.46134 4.93303C9.36345 4.99524 9.36345 4.99524 9.34789 5.12094C9.34288 5.31721 9.34288 5.31721 9.34159 5.51353C9.34146 5.59778 9.33842 5.68161 9.3352 5.7658C9.32519 6.04783 9.32519 6.04783 9.44267 6.2936C9.53456 6.35584 9.62585 6.40046 9.7272 6.4455C9.79224 6.4838 9.85689 6.52277 9.92114 6.56239C9.98582 6.60004 10.0506 6.63758 10.1154 6.675C10.1485 6.69443 10.1817 6.71387 10.2159 6.73389C10.2475 6.75222 10.2792 6.77055 10.3118 6.78944C10.3544 6.8142 10.3544 6.8142 10.398 6.83947C10.4677 6.88102 10.4677 6.88102 10.5475 6.87519C10.5475 6.0373 10.5475 5.19941 10.5475 4.33613C10.464 4.33613 10.3751 4.41141 10.3064 4.45164ZM5.57681 9.54365C5.36043 9.87595 5.30829 10.1923 5.3522 10.5861C5.43532 10.9432 5.67108 11.2462 5.9772 11.4455C6.30725 11.6276 6.65831 11.6614 7.02548 11.576C7.36042 11.4569 7.64651 11.208 7.81802 10.8971C7.96698 10.5795 7.98354 10.2519 7.89859 9.91245C7.7706 9.56361 7.54628 9.29435 7.21499 9.12128C6.56638 8.85744 6.03776 9.0699 5.57681 9.54365Z" fill="#666666"/>
<path d="M0.351636 14.1797C6.71961 14.1797 13.0876 14.1797 19.6485 14.1797C19.6485 15.3288 19.6485 15.3288 19.4083 15.6039C19.3796 15.6286 19.3509 15.6533 19.3214 15.6787C19.2929 15.704 19.2644 15.7293 19.235 15.7553C19.0359 15.8925 18.8361 15.9098 18.6003 15.9085C18.57 15.9086 18.5398 15.9088 18.5086 15.9089C18.4072 15.9093 18.3057 15.9091 18.2043 15.9089C18.1308 15.909 18.0574 15.9092 17.984 15.9094C17.7821 15.9099 17.5802 15.9099 17.3784 15.9098C17.1607 15.9098 16.943 15.9102 16.7253 15.9106C16.2988 15.9112 15.8723 15.9114 15.4457 15.9115C15.0991 15.9115 14.7524 15.9117 14.4058 15.9119C13.5832 15.9125 12.7605 15.913 11.9379 15.9129C11.8984 15.9129 11.8984 15.9129 11.8582 15.9129C11.7249 15.9129 11.5915 15.9129 11.4582 15.9129C11.4317 15.9129 11.4052 15.9129 11.3779 15.9129C11.3244 15.9129 11.2708 15.9129 11.2173 15.9129C10.3841 15.9129 9.55096 15.9134 8.71779 15.9145C7.7817 15.9157 6.84561 15.9164 5.90952 15.9163C5.41389 15.9163 4.91826 15.9165 4.42263 15.9173C4.00067 15.9181 3.57872 15.9182 3.15675 15.9177C2.94144 15.9174 2.72614 15.9174 2.51083 15.9181C2.3137 15.9187 2.11659 15.9186 1.91946 15.9179C1.84817 15.9178 1.77688 15.918 1.70559 15.9184C0.953744 15.9227 0.953744 15.9227 0.642316 15.6569C0.618096 15.6278 0.593876 15.5988 0.568922 15.5688C0.543996 15.5399 0.519071 15.5109 0.49339 15.4811C0.210438 15.0787 0.351636 14.7267 0.351636 14.1797Z" fill="#666666"/>
<path d="M6.73813 16.4781C6.81706 16.4776 6.896 16.477 6.97493 16.4762C7.18914 16.4746 7.40329 16.4752 7.61751 16.4763C7.84168 16.4772 8.06584 16.4764 8.29001 16.4758C8.66647 16.4752 9.04291 16.476 9.41936 16.4777C9.8546 16.4796 10.2898 16.479 10.725 16.4771C11.0987 16.4755 11.4724 16.4752 11.846 16.4762C12.0692 16.4767 12.2924 16.4768 12.5156 16.4756C12.7254 16.4746 12.9352 16.4753 13.145 16.4773C13.222 16.4778 13.299 16.4777 13.376 16.4769C13.9584 16.4716 13.9584 16.4716 14.1195 16.6003C14.181 16.6907 14.2203 16.7727 14.2578 16.8751C14.2839 16.9178 14.3101 16.9605 14.337 17.0045C14.4117 17.133 14.4863 17.2615 14.5605 17.3902C14.587 17.4356 14.6135 17.4809 14.64 17.5263C14.6777 17.5915 14.6777 17.5915 14.7162 17.658C14.7388 17.6971 14.7615 17.7362 14.7848 17.7765C14.8437 17.8906 14.8847 18.0024 14.9219 18.1251C14.8564 18.2176 14.8024 18.2743 14.6887 18.2961C14.5875 18.3016 14.4873 18.3022 14.386 18.3012C14.3471 18.3014 14.3082 18.3017 14.268 18.3019C14.1372 18.3026 14.0063 18.3021 13.8754 18.3016C13.7818 18.3018 13.6881 18.3021 13.5944 18.3024C13.3662 18.303 13.1379 18.3029 12.9097 18.3025C12.7242 18.3021 12.5388 18.3021 12.3533 18.3023C12.3269 18.3023 12.3005 18.3023 12.2733 18.3023C12.2197 18.3024 12.1661 18.3024 12.1125 18.3025C11.6098 18.3029 11.107 18.3024 10.6042 18.3016C10.1728 18.3009 9.74126 18.301 9.30977 18.3017C8.80883 18.3026 8.30789 18.3029 7.80694 18.3024C7.75354 18.3024 7.70013 18.3023 7.64673 18.3023C7.62045 18.3022 7.59417 18.3022 7.5671 18.3022C7.38182 18.3021 7.19654 18.3023 7.01127 18.3027C6.76195 18.3031 6.51264 18.3028 6.26333 18.3019C6.17168 18.3017 6.08003 18.3017 5.98838 18.3021C5.86356 18.3025 5.73878 18.302 5.61396 18.3012C5.55917 18.3017 5.55917 18.3017 5.50328 18.3023C5.25734 18.2993 5.25734 18.2993 5.13253 18.202C5.11457 18.1766 5.09662 18.1512 5.07812 18.1251C5.12941 17.9558 5.19519 17.811 5.28381 17.658C5.30894 17.6146 5.33407 17.5711 5.35995 17.5263C5.37304 17.5039 5.38613 17.4815 5.39961 17.4584C5.43903 17.391 5.47808 17.3233 5.51712 17.2556C5.59115 17.1281 5.66525 17.0009 5.74219 16.8751C5.75282 16.8461 5.76346 16.8171 5.77441 16.7872C5.95226 16.3959 6.37028 16.4743 6.73813 16.4781Z" fill="#666666"/>
<path d="M14.4596 4.83187C14.4878 4.83154 14.5161 4.83122 14.5452 4.83088C14.6388 4.82994 14.7323 4.8296 14.8259 4.82934C14.8909 4.82899 14.956 4.82863 15.021 4.82827C15.1574 4.82763 15.2938 4.82733 15.4302 4.82721C15.6049 4.827 15.7795 4.82553 15.9542 4.82375C16.0886 4.82259 16.2229 4.8223 16.3573 4.82226C16.4217 4.8221 16.4861 4.82161 16.5505 4.8208C16.6406 4.81975 16.7307 4.81994 16.8209 4.82042C16.8721 4.82023 16.9234 4.82003 16.9762 4.81982C17.1445 4.85001 17.2021 4.90528 17.3054 5.03915C17.3274 5.17831 17.3274 5.17831 17.3054 5.31259C17.2325 5.40497 17.1757 5.45557 17.071 5.5079C16.9819 5.5123 16.8927 5.51413 16.8035 5.51481C16.776 5.51507 16.7485 5.51533 16.7201 5.51559C16.6289 5.51636 16.5377 5.51682 16.4465 5.51721C16.3998 5.51745 16.3998 5.51745 16.3521 5.51769C16.1873 5.5185 16.0224 5.51906 15.8576 5.51943C15.6873 5.51986 15.5171 5.52121 15.3469 5.52276C15.2159 5.52378 15.085 5.5241 14.9541 5.52425C14.8913 5.52444 14.8286 5.52489 14.7658 5.52561C14.6779 5.52657 14.5901 5.52653 14.5022 5.52626C14.4272 5.5266 14.4272 5.5266 14.3507 5.52695C14.1959 5.50448 14.1318 5.46352 14.0242 5.35165C13.9876 5.21514 13.9705 5.12329 14.0144 4.98788C14.1378 4.82129 14.2671 4.83343 14.4596 4.83187Z" fill="#666666"/>
<path d="M14.416 5.92692C14.4562 5.92654 14.4963 5.92617 14.5377 5.92579C14.5811 5.92582 14.6244 5.92586 14.669 5.92589C14.7136 5.92573 14.7581 5.92556 14.804 5.92539C14.8983 5.92516 14.9926 5.92514 15.0869 5.92531C15.2312 5.92544 15.3756 5.92452 15.5199 5.92353C15.6115 5.92344 15.703 5.92341 15.7945 5.92345C15.8378 5.92309 15.881 5.92273 15.9256 5.92236C15.9659 5.92261 16.0062 5.92285 16.0477 5.9231C16.083 5.92308 16.1184 5.92305 16.1549 5.92303C16.2688 5.94054 16.3224 5.97701 16.4062 6.05483C16.4542 6.18917 16.458 6.32365 16.4185 6.46011C16.3358 6.56246 16.2477 6.59759 16.1178 6.61215C16.0834 6.61245 16.0489 6.61275 16.0134 6.61306C15.9742 6.61355 15.9349 6.61405 15.8945 6.61457C15.8523 6.61465 15.8102 6.61474 15.7668 6.61483C15.7015 6.61522 15.7015 6.61522 15.6348 6.61562C15.5428 6.61601 15.4508 6.6162 15.3587 6.61618C15.2179 6.61635 15.0772 6.61777 14.9364 6.61925C14.847 6.61948 14.7576 6.61964 14.6681 6.61971C14.626 6.62027 14.584 6.62083 14.5406 6.62141C14.2494 6.61964 14.2494 6.61964 14.0954 6.52963C14.0021 6.42051 13.9844 6.35435 13.9844 6.21108C14.0803 6.0001 14.1872 5.92808 14.416 5.92692Z" fill="#666666"/>
<path d="M5 4.80469C5.14126 4.84 5.22975 4.87938 5.35431 4.95041C5.39258 4.97214 5.43085 4.99386 5.47028 5.01625C5.51006 5.03909 5.54984 5.06192 5.59082 5.08545C5.62969 5.10753 5.66857 5.12961 5.70862 5.15236C5.82427 5.21826 5.93951 5.28484 6.05469 5.35156C6.09299 5.3734 6.1313 5.39523 6.17077 5.41773C6.20648 5.43844 6.2422 5.45916 6.27899 5.4805C6.31106 5.49894 6.34313 5.51739 6.37617 5.53639C6.39899 5.55274 6.4218 5.56909 6.44531 5.58594C6.44531 5.61172 6.44531 5.6375 6.44531 5.66406C6.40401 5.68707 6.40401 5.68707 6.36187 5.71054C6.23502 5.78125 6.10823 5.85205 5.98145 5.92285C5.93814 5.94697 5.89484 5.97109 5.85022 5.99594C5.61484 6.12748 5.38202 6.2615 5.15318 6.40417C5.07812 6.44531 5.07812 6.44531 5 6.44531C5 5.90391 5 5.3625 5 4.80469Z" fill="#666666"/>
</svg>
