<svg width="20" height="20" viewBox="0 0 20 20" fill="none" xmlns="http://www.w3.org/2000/svg">
<g clip-path="url(#clip0_1_64975)">
<path d="M17.8952 -0.0102204C17.9303 -0.0110261 17.9655 -0.0118317 18.0017 -0.0126618C18.5787 -0.0159779 19.056 0.227145 19.4618 0.626376C19.8809 1.06039 20.0243 1.58745 20.0195 2.17881C20.0198 2.22642 20.02 2.27403 20.0203 2.32308C20.0208 2.45369 20.0206 2.58426 20.0201 2.71486C20.0198 2.85631 20.0203 2.99776 20.0207 3.1392C20.0214 3.41569 20.0213 3.69216 20.0208 3.96865C20.0205 4.1935 20.0204 4.41834 20.0206 4.6432C20.0206 4.67529 20.0206 4.70738 20.0207 4.74044C20.0207 4.80565 20.0208 4.87086 20.0208 4.93607C20.0213 5.54647 20.0208 6.15687 20.0199 6.76728C20.0192 7.2902 20.0193 7.81311 20.0201 8.33603C20.0209 8.94436 20.0212 9.55269 20.0207 10.161C20.0207 10.226 20.0206 10.2909 20.0206 10.3559C20.0206 10.3878 20.0205 10.4198 20.0205 10.4527C20.0204 10.6771 20.0206 10.9015 20.021 11.1259C20.0214 11.3996 20.0213 11.6733 20.0205 11.9471C20.0201 12.0865 20.0199 12.226 20.0204 12.3655C20.021 12.5171 20.0203 12.6687 20.0195 12.8203C20.0199 12.8638 20.0202 12.9072 20.0206 12.952C20.0149 13.5236 19.8123 14.0118 19.4186 14.4258C18.9165 14.8971 18.3744 15.0197 17.7064 15.0104C17.1886 14.992 16.7444 14.7317 16.3708 14.3846C16.0348 14.0236 15.8156 13.5358 15.8149 13.0395C15.8147 12.9994 15.8146 12.9593 15.8144 12.9179C15.8144 12.8741 15.8145 12.8303 15.8145 12.7851C15.8144 12.7384 15.8143 12.6916 15.8142 12.6434C15.8139 12.5138 15.8138 12.3841 15.8137 12.2544C15.8137 12.1145 15.8134 11.9746 15.8131 11.8347C15.8126 11.5288 15.8123 11.2229 15.8122 10.9171C15.8121 10.726 15.8119 10.5349 15.8117 10.3438C15.8113 9.81446 15.8108 9.28514 15.8107 8.75582C15.8107 8.72196 15.8107 8.68809 15.8107 8.65319C15.8107 8.60227 15.8107 8.60227 15.8107 8.55032C15.8106 8.48153 15.8106 8.41274 15.8106 8.34395C15.8106 8.29276 15.8106 8.29276 15.8106 8.24055C15.8104 7.68791 15.8098 7.13527 15.8088 6.58264C15.8079 6.01493 15.8074 5.44723 15.8074 4.87952C15.8073 4.5609 15.8071 4.24229 15.8064 3.92368C15.8058 3.65231 15.8056 3.38095 15.8059 3.10959C15.8061 2.97124 15.8061 2.8329 15.8055 2.69456C15.8049 2.54427 15.8052 2.39399 15.8056 2.24371C15.8053 2.20041 15.805 2.15711 15.8047 2.11249C15.8084 1.52061 16.0148 0.986292 16.4261 0.556338C16.8502 0.171581 17.3324 -0.00707617 17.8952 -0.0102204Z" fill="#666666"/>
<path d="M13.9738 3.74972C14.3564 4.07382 14.6181 4.50861 14.7263 4.99957C14.7303 5.11039 14.7321 5.22025 14.7321 5.33108C14.7322 5.36486 14.7324 5.39864 14.7325 5.43344C14.7329 5.54684 14.7331 5.66024 14.7332 5.77365C14.7335 5.85488 14.7337 5.93612 14.734 6.01735C14.7348 6.28437 14.7352 6.5514 14.7356 6.81842C14.7358 6.9104 14.7359 7.00239 14.7361 7.09438C14.7369 7.52666 14.7374 7.95893 14.7377 8.39121C14.7381 8.88979 14.7391 9.38835 14.7407 9.88693C14.7419 10.2725 14.7425 10.6581 14.7426 11.0437C14.7427 11.2739 14.7431 11.504 14.744 11.7342C14.7449 11.951 14.7451 12.1677 14.7447 12.3844C14.7447 12.4637 14.7449 12.543 14.7455 12.6223C14.7501 13.3433 14.6231 13.9019 14.1161 14.4414C13.6374 14.902 13.0718 15.0193 12.4331 15.0104C11.9153 14.9921 11.471 14.7318 11.0975 14.3846C10.7149 13.9736 10.5408 13.4653 10.5409 12.912C10.5407 12.8789 10.5406 12.8458 10.5405 12.8116C10.54 12.7007 10.5399 12.5898 10.5397 12.4788C10.5395 12.3993 10.5392 12.3197 10.5389 12.2401C10.5381 11.9787 10.5377 11.7174 10.5373 11.456C10.5372 11.3659 10.537 11.2758 10.5368 11.1857C10.5361 10.7622 10.5355 10.3387 10.5352 9.91513C10.5348 9.42702 10.5338 8.93891 10.5322 8.4508C10.5311 8.07307 10.5305 7.69534 10.5303 7.31761C10.5303 7.09223 10.5299 6.86687 10.5289 6.6415C10.528 6.42921 10.5278 6.21693 10.5282 6.00465C10.5283 5.92708 10.528 5.84952 10.5275 5.77195C10.5227 5.03926 10.6406 4.47934 11.1326 3.90582C11.9434 3.18284 13.0887 3.10112 13.9738 3.74972Z" fill="#666666"/>
<path d="M10.859 15.1171C10.8942 15.132 10.8942 15.132 10.93 15.1471C11.5326 15.4066 11.9598 15.7837 12.2653 16.3671C12.2924 16.458 12.3186 16.5491 12.3434 16.6406C12.3791 16.6404 12.4148 16.6403 12.4516 16.6401C13.3211 16.6367 14.1907 16.6341 15.0602 16.6325C15.4807 16.6317 15.9012 16.6306 16.3217 16.6288C16.6882 16.6272 17.0548 16.6262 17.4214 16.6259C17.6154 16.6257 17.8094 16.6252 18.0035 16.6241C18.1863 16.623 18.369 16.6227 18.5518 16.6229C18.6188 16.6229 18.6857 16.6226 18.7526 16.622C19.4977 16.6156 19.4977 16.6156 19.7598 16.8663C19.9846 17.1115 20.0196 17.3055 20.0144 17.6371C19.9875 17.8853 19.8692 18.0338 19.6896 18.1982C19.4788 18.3445 19.2955 18.3691 19.0419 18.3687C18.9988 18.3688 18.9988 18.3688 18.9548 18.3689C18.8589 18.3691 18.763 18.3686 18.6671 18.3682C18.5982 18.3682 18.5293 18.3682 18.4603 18.3682C18.2735 18.3683 18.0867 18.3678 17.8999 18.3673C17.7045 18.3668 17.5092 18.3667 17.3139 18.3666C16.9441 18.3664 16.5743 18.3657 16.2045 18.365C15.7835 18.3641 15.3624 18.3637 14.9414 18.3633C14.0754 18.3625 13.2094 18.3611 12.3434 18.3593C12.3358 18.3832 12.3282 18.407 12.3204 18.4316C12.3051 18.4787 12.3051 18.4787 12.2895 18.5268C12.2794 18.5579 12.2694 18.589 12.2591 18.621C12.0632 19.156 11.5887 19.5435 11.0911 19.7807C11.0141 19.8157 10.9368 19.8496 10.859 19.8828C10.8242 19.8978 10.7894 19.9128 10.7536 19.9282C10.2862 20.0893 9.59383 20.078 9.14027 19.8828C9.11684 19.8729 9.09341 19.863 9.06927 19.8528C8.46671 19.5933 8.03949 19.2162 7.73402 18.6328C7.70683 18.542 7.68063 18.4508 7.65589 18.3593C7.62018 18.3595 7.58447 18.3596 7.54767 18.3598C6.67815 18.3632 5.80863 18.3658 4.9391 18.3674C4.5186 18.3682 4.09811 18.3693 3.67761 18.3711C3.31104 18.3727 2.94448 18.3737 2.57791 18.374C2.38387 18.3742 2.18984 18.3747 1.9958 18.3759C1.81301 18.3769 1.63024 18.3772 1.44745 18.377C1.38051 18.3771 1.31357 18.3774 1.24663 18.378C0.501532 18.3843 0.501532 18.3843 0.239501 18.1336C0.0146958 17.8885 -0.0203265 17.6944 -0.015161 17.3628C0.011797 17.1146 0.13009 16.9662 0.309699 16.8017C0.520498 16.6555 0.703782 16.6308 0.957338 16.6312C0.986091 16.6311 1.01484 16.6311 1.04447 16.631C1.14037 16.6309 1.23627 16.6313 1.33217 16.6317C1.40109 16.6317 1.47002 16.6317 1.53894 16.6317C1.72576 16.6317 1.91257 16.6321 2.09939 16.6327C2.29474 16.6332 2.49008 16.6332 2.68543 16.6333C3.05521 16.6335 3.425 16.6342 3.79478 16.635C4.21582 16.6358 4.63686 16.6363 5.0579 16.6367C5.9239 16.6375 6.7899 16.6388 7.65589 16.6406C7.66348 16.6168 7.67108 16.5929 7.6789 16.5684C7.68911 16.5369 7.69931 16.5055 7.70982 16.4731C7.71983 16.442 7.72984 16.4109 7.74016 16.3789C7.93609 15.8439 8.41058 15.4565 8.90817 15.2193C8.98514 15.1842 9.06248 15.1503 9.14027 15.1171C9.17506 15.1021 9.20985 15.0871 9.2457 15.0717C9.71304 14.9106 10.4054 14.9219 10.859 15.1171ZM9.37464 16.9531C9.22297 17.1637 9.16871 17.3566 9.17933 17.6171C9.23434 17.876 9.36001 18.0582 9.57484 18.2129C9.77081 18.3157 9.98742 18.3478 10.2044 18.3017C10.4488 18.2177 10.6274 18.0871 10.7499 17.8535C10.8314 17.6428 10.8472 17.4288 10.7736 17.2143C10.6671 16.9771 10.5193 16.8139 10.2731 16.7187C9.92781 16.6359 9.62977 16.698 9.37464 16.9531Z" fill="#666666"/>
<path d="M8.67222 7.06985C9.07759 7.40693 9.36357 7.8752 9.45347 8.39798C9.45702 8.46607 9.45873 8.53428 9.45895 8.60246C9.45918 8.64286 9.4594 8.68327 9.45963 8.7249C9.4597 8.79077 9.4597 8.79077 9.45976 8.85797C9.46005 8.92785 9.46005 8.92785 9.46035 8.99913C9.46082 9.12666 9.46111 9.25419 9.46129 9.38172C9.4614 9.46158 9.46156 9.54143 9.46174 9.62128C9.46227 9.87163 9.46265 10.122 9.4628 10.3723C9.46298 10.6604 9.46366 10.9484 9.46479 11.2364C9.46564 11.4596 9.46603 11.6829 9.46608 11.9061C9.46612 12.0392 9.46635 12.1722 9.46705 12.3052C9.46772 12.454 9.46765 12.6027 9.46739 12.7514C9.46775 12.7948 9.46811 12.8383 9.46848 12.883C9.46534 13.4765 9.25997 14.0115 8.84739 14.4427C8.31482 14.9259 7.74362 15.0311 7.05212 15.0067C6.84621 14.9917 6.66971 14.9314 6.48472 14.8433C6.4542 14.8296 6.42369 14.8159 6.39225 14.8018C5.83123 14.5222 5.52077 14.0485 5.31284 13.4761C5.2762 13.3538 5.26863 13.2437 5.26803 13.1161C5.26775 13.0749 5.26747 13.0337 5.26718 12.9912C5.26708 12.9462 5.26697 12.9012 5.26687 12.8548C5.26661 12.8072 5.26635 12.7596 5.26609 12.7106C5.26532 12.5528 5.26486 12.395 5.26447 12.2372C5.26431 12.1827 5.26415 12.1282 5.26399 12.0737C5.26325 11.8174 5.26269 11.5611 5.26237 11.3048C5.26198 11.01 5.26096 10.7152 5.25938 10.4204C5.25819 10.192 5.25762 9.96348 5.25749 9.735C5.2574 9.59885 5.25706 9.46272 5.25607 9.32658C5.25498 9.17421 5.25515 9.02186 5.25542 8.86948C5.25467 8.80301 5.25467 8.80301 5.25391 8.73519C5.25777 8.13448 5.47875 7.65501 5.88169 7.21634C6.64477 6.488 7.83596 6.45392 8.67222 7.06985Z" fill="#666666"/>
<path d="M3.26526 10.3253C3.73734 10.6599 4.01947 11.0837 4.16009 11.6461C4.18402 11.7931 4.18546 11.9384 4.18628 12.0869C4.1865 12.1186 4.18672 12.1502 4.18695 12.1828C4.18732 12.2497 4.18757 12.3166 4.18773 12.3835C4.1881 12.4846 4.18931 12.5857 4.19055 12.6867C4.19493 13.3628 4.0547 13.9393 3.57226 14.4436C3.14816 14.8284 2.66596 15.007 2.10315 15.0102C2.05043 15.0114 2.05043 15.0114 1.99664 15.0126C1.41457 15.016 0.94342 14.7695 0.533932 14.3687C0.227384 14.048 -0.00326352 13.6118 -0.00764036 13.1586C-0.00801566 13.127 -0.00839095 13.0954 -0.00877762 13.0629C-0.00902664 13.0121 -0.00902664 13.0121 -0.00928068 12.9603C-0.00950334 12.925 -0.009726 12.8898 -0.00995541 12.8534C-0.0103241 12.7788 -0.0105796 12.7041 -0.0107303 12.6294C-0.0111077 12.5163 -0.0123192 12.4031 -0.0135531 12.29C-0.0138084 12.2172 -0.0140134 12.1444 -0.0141635 12.0716C-0.0146458 12.0383 -0.0151281 12.0049 -0.015625 11.9705C-0.0135806 11.407 0.236668 10.9335 0.625485 10.5383C1.33605 9.85216 2.45015 9.80146 3.26526 10.3253Z" fill="#666666"/>
</g>
<defs>
<clipPath id="clip0_1_64975">
<rect width="20" height="20" fill="white"/>
</clipPath>
</defs>
</svg>
