<svg width="38" height="33" viewBox="0 0 38 33" fill="none" xmlns="http://www.w3.org/2000/svg">
<path d="M34.0716 0.333252H15.024V5.88881H19.7859V8.11103H4.30971C2.2859 8.11103 0.738281 9.55547 0.738281 11.4444V23.6666C0.738281 25.5555 2.2859 26.9999 4.30971 26.9999H5.50019V32.6666L13.0002 26.9999H20.9764V19.2221H34.0716C36.0954 19.2221 37.643 17.7777 37.643 15.8888V3.66658C37.643 1.7777 36.0954 0.333252 34.0716 0.333252ZM13.5954 22.4444L13.0002 20.6666H9.30971L8.59542 22.4444H5.73828L9.66685 12.5555H12.524L16.4526 22.4444H13.5954ZM31.6907 13.6666V15.8888C30.143 15.8888 28.4764 15.4444 27.0478 14.7777C25.6192 15.4444 23.9526 15.7777 22.2859 15.8888L22.1669 13.6666C23.0002 13.6666 23.8335 13.5555 24.6669 13.3332C23.5954 12.3332 22.8811 11.111 22.524 9.77769H25.024C25.3811 10.7777 26.0954 11.5555 26.9288 12.2221C28.2383 11.2221 29.0716 9.77769 29.1907 8.11103H22.0478V5.88881H25.6192V3.66658H28.0002V5.88881H31.9288L32.0478 6.99992C32.1669 9.33325 31.2145 11.6666 29.4288 13.3332C30.2621 13.5555 30.9764 13.6666 31.6907 13.6666Z" fill="#282828"/>
</svg>
