<svg width="7" height="9" viewBox="0 0 7 9" fill="none" xmlns="http://www.w3.org/2000/svg">
<path d="M6.99998 4.09644C6.99996 4.10321 6.99995 4.10998 6.99993 4.11696C6.99923 4.30014 6.97311 4.4717 6.92993 4.64942C6.92827 4.65628 6.92662 4.66314 6.92492 4.67021C6.83237 5.043 6.61633 5.38189 6.35071 5.64799C6.33369 5.6654 6.31671 5.68282 6.30008 5.70063C6.28966 5.71176 6.27882 5.72246 6.26797 5.73314C6.263 5.73314 6.25804 5.73314 6.25292 5.73314C6.25044 5.7408 6.24796 5.74846 6.2454 5.75636C6.22575 5.77539 6.204 5.79174 6.18254 5.80856C6.16935 5.81894 6.15626 5.82947 6.14317 5.83999C6.0025 5.95202 5.84601 6.04065 5.68669 6.12136C5.65316 6.13836 5.62011 6.15613 5.5872 6.17436C5.55008 6.19491 5.51275 6.2148 5.47498 6.23405C5.41103 6.26681 5.34746 6.30034 5.28396 6.33402C5.27243 6.34012 5.26091 6.34622 5.24939 6.35232C5.17069 6.39401 5.09213 6.43597 5.0136 6.47799C4.95922 6.50702 4.90458 6.53545 4.84968 6.56344C4.80887 6.58432 4.76848 6.60588 4.72824 6.6279C4.64662 6.67231 4.56413 6.71486 4.48154 6.75731C4.46563 6.7655 4.44972 6.77369 4.43381 6.78188C4.40069 6.79893 4.36757 6.81596 4.33444 6.83299C4.2925 6.85455 4.25057 6.87613 4.20864 6.89773C4.17585 6.91461 4.14305 6.93149 4.11024 6.94836C4.09481 6.9563 4.07937 6.96424 4.06394 6.97219C3.95667 7.02743 3.84883 7.08128 3.74048 7.13422C3.72364 7.14247 3.7068 7.15073 3.68997 7.15899C3.67035 7.16861 3.65073 7.17822 3.63109 7.18782C3.58529 7.2103 3.53986 7.23351 3.49449 7.25693C3.43691 7.28662 3.37904 7.31571 3.32111 7.34467C3.31542 7.34752 3.30973 7.35036 3.30387 7.3533C3.22123 7.3946 3.13826 7.43506 3.05482 7.47463C2.97972 7.51027 2.90499 7.54668 2.83028 7.58319C2.71779 7.63813 2.60505 7.69247 2.49201 7.74622C2.43645 7.77265 2.38089 7.79911 2.32535 7.82557C2.31875 7.82871 2.31215 7.83186 2.30535 7.83509C2.21038 7.88034 2.11562 7.92602 2.021 7.97205C1.93753 8.01263 1.85361 8.05211 1.76948 8.09121C1.69096 8.12773 1.61311 8.16549 1.53559 8.20421C1.45877 8.24255 1.3814 8.2796 1.30387 8.31639C1.26737 8.33372 1.23102 8.35132 1.19474 8.36912C1.01229 8.4584 1.01229 8.4584 0.919617 8.48112C0.914436 8.4825 0.909255 8.48387 0.903917 8.48529C0.844659 8.49953 0.785048 8.50003 0.724508 8.49999C0.719006 8.49999 0.713504 8.5 0.707836 8.5C0.618466 8.49971 0.536896 8.49206 0.453235 8.4579C0.444992 8.4546 0.444992 8.4546 0.436582 8.45124C0.357767 8.41872 0.291539 8.37574 0.227566 8.31857C0.221952 8.31357 0.216338 8.30857 0.210553 8.30342C0.0807152 8.17873 0.00657892 7.98718 0.000252247 7.80658C-0.00391817 7.61903 0.0433111 7.45974 0.170809 7.32059C0.319772 7.16432 0.512674 7.06323 0.698833 6.96221C0.735797 6.94202 0.772465 6.92129 0.809134 6.90055C0.958149 6.81654 1.10899 6.73594 1.26298 6.66202C1.29927 6.64455 1.33519 6.62643 1.37095 6.60785C1.4174 6.58371 1.46427 6.5607 1.51142 6.53808C1.54561 6.52161 1.57943 6.5045 1.61308 6.4869C1.73861 6.42152 1.8671 6.36136 1.99585 6.30304C2.06004 6.27394 2.12346 6.24318 2.18677 6.21213C2.30457 6.15438 2.42353 6.0996 2.54302 6.04567C2.62178 6.01012 2.70043 5.9744 2.77721 5.93449C2.80533 5.91997 2.83389 5.9067 2.86272 5.89376C2.93417 5.86137 3.00517 5.82799 3.07616 5.79458C3.08175 5.79195 3.08733 5.78933 3.09308 5.78663C3.15547 5.75729 3.21776 5.72774 3.27989 5.69781C3.31375 5.68152 3.34776 5.66559 3.38185 5.64982C3.44087 5.62252 3.49931 5.59453 3.55693 5.56423C3.6051 5.53912 3.65422 5.51624 3.70334 5.49317C3.76587 5.46376 3.82706 5.43318 3.88731 5.39913C3.91629 5.38326 3.94575 5.36895 3.97555 5.3548C4.02777 5.32997 4.07868 5.30309 4.12944 5.27525C4.17198 5.25197 4.2149 5.22966 4.2581 5.20773C4.37242 5.14946 4.4836 5.08511 4.59464 5.02053C4.61668 5.00776 4.63879 4.99518 4.66102 4.98276C4.66755 4.9791 4.67409 4.97544 4.68082 4.97166C4.69295 4.96487 4.70508 4.95808 4.71722 4.95131C4.8174 4.89533 4.91493 4.83519 5.01174 4.77327C5.01875 4.76882 5.02576 4.76437 5.03298 4.75978C5.07785 4.73091 5.12018 4.70006 5.16172 4.66635C5.17258 4.65757 5.18346 4.64881 5.19437 4.64008C5.19904 4.63629 5.20371 4.6325 5.20853 4.62859C5.22237 4.61846 5.22237 4.61846 5.23869 4.61082C5.2551 4.60356 5.2551 4.60356 5.25998 4.57975C5.27123 4.56863 5.27123 4.56863 5.28584 4.55653C5.40002 4.45603 5.50234 4.31095 5.52326 4.15401C5.52426 4.14714 5.52526 4.14028 5.52629 4.13321C5.54521 3.9687 5.48447 3.80797 5.38842 3.67843C5.36518 3.64889 5.34117 3.62058 5.31576 3.59299C5.30455 3.58056 5.29373 3.56783 5.28287 3.55507C5.20673 3.46852 5.12154 3.4217 5.01974 3.37267C5.00459 3.36517 4.98945 3.35765 4.97432 3.3501C4.94513 3.33557 4.91588 3.32116 4.88658 3.30685C4.83261 3.28044 4.77923 3.25286 4.7259 3.22511C4.65979 3.19079 4.59347 3.15711 4.52656 3.12448C4.44143 3.08294 4.35692 3.04057 4.27409 2.99434C4.22931 2.96941 4.18371 2.94664 4.13769 2.92427C4.03761 2.8753 3.93851 2.82436 3.83944 2.77327C3.81414 2.76023 3.78883 2.74721 3.76353 2.73418C3.71577 2.7096 3.66802 2.685 3.62028 2.66039C3.56629 2.63257 3.5123 2.60477 3.4583 2.57697C3.37837 2.53581 3.29844 2.49465 3.21852 2.45347C3.19709 2.44243 3.17567 2.4314 3.15424 2.42036C3.1262 2.40591 3.09816 2.39146 3.07013 2.37701C3.05927 2.37141 3.04841 2.36581 3.03755 2.36022C3.02869 2.35565 3.01983 2.35108 3.0107 2.34637C2.98197 2.33171 2.95299 2.3177 2.92384 2.30396C2.87839 2.28225 2.83413 2.25892 2.79012 2.23429C2.75003 2.21202 2.70907 2.19205 2.66776 2.17231C2.63218 2.15528 2.5969 2.13775 2.56183 2.11963C2.55702 2.11716 2.55221 2.11468 2.54726 2.11214C2.51759 2.09683 2.4881 2.08124 2.45866 2.06547C2.28971 1.97569 2.1026 1.92459 1.91375 1.98314C1.80557 2.01866 1.71511 2.07393 1.63423 2.15688C1.62852 2.16258 1.62281 2.16828 1.61693 2.17415C1.49444 2.30411 1.45744 2.4638 1.45969 2.64026C1.46402 2.80151 1.54401 2.94696 1.65665 3.0569C1.72303 3.11543 1.79463 3.16772 1.86743 3.21737C1.87248 3.22082 1.87754 3.22427 1.88275 3.22783C1.96182 3.28137 2.0429 3.32971 2.12668 3.37507C2.19075 3.40993 2.25315 3.44661 2.30889 3.49459C2.34006 3.52107 2.37261 3.54243 2.40715 3.56377C2.49736 3.62017 2.57543 3.69046 2.64222 3.77471C2.6497 3.7839 2.6497 3.7839 2.65733 3.79328C2.77825 3.95187 2.8268 4.15226 2.80413 4.35064C2.77882 4.53662 2.68889 4.69464 2.54361 4.80899C2.37869 4.92884 2.17051 4.95051 1.97551 4.91686C1.89524 4.90129 1.81724 4.8763 1.73955 4.85068C1.73249 4.84836 1.72543 4.84603 1.71816 4.84364C1.32133 4.71099 0.910934 4.50694 0.618726 4.19271C0.600098 4.17339 0.581352 4.15424 0.56225 4.13541C0.50777 4.08111 0.46113 4.02284 0.415624 3.96049C0.410368 3.9534 0.405112 3.94632 0.399698 3.93902C0.222387 3.69501 0.113756 3.41582 0.0620761 3.11674C0.0607266 3.10899 0.0593777 3.10124 0.0579877 3.09325C-0.0287199 2.56782 0.102034 1.98628 0.349304 1.52443C0.35758 1.50897 0.365714 1.49343 0.373575 1.47775C0.455621 1.31529 0.568443 1.17095 0.693948 1.0422C0.699912 1.0358 0.705875 1.02939 0.712019 1.02279C0.764812 0.966708 0.82132 0.918657 0.882006 0.871906C0.886103 0.868686 0.8902 0.865465 0.894421 0.862147C1.01448 0.767953 1.14654 0.696535 1.28642 0.638911C1.30063 0.633028 1.31474 0.626889 1.32882 0.620693C1.43566 0.575099 1.55125 0.549612 1.66479 0.528892C1.67149 0.527659 1.67818 0.526426 1.68508 0.525156C1.98636 0.473331 2.3099 0.506841 2.60461 0.577756C2.611 0.579249 2.61739 0.580742 2.62398 0.58228C2.82481 0.62971 3.01807 0.707189 3.20518 0.79466C3.22869 0.805618 3.25224 0.816468 3.27579 0.827327C3.43074 0.898791 3.58505 0.971639 3.73896 1.04544C3.80737 1.07823 3.87595 1.11057 3.9449 1.14215C3.99209 1.16384 4.03827 1.18722 4.08433 1.21135C4.14449 1.24259 4.20558 1.27193 4.26642 1.30175C4.31341 1.32482 4.36033 1.34805 4.40725 1.37126C4.44613 1.39049 4.48504 1.40965 4.52403 1.42864C4.59135 1.46148 4.65834 1.49447 4.72381 1.5311C4.75614 1.54918 4.78883 1.56631 4.82181 1.58309C4.86668 1.60595 4.91108 1.62961 4.95533 1.65373C4.99833 1.67717 5.04147 1.70021 5.08509 1.72243C5.20266 1.78252 5.31851 1.84551 5.43253 1.91248C5.47109 1.93511 5.50978 1.95719 5.54912 1.97836C5.77477 2.10102 6.00277 2.23737 6.20027 2.40459C6.20425 2.40789 6.20823 2.41118 6.21233 2.41458C6.27536 2.46691 6.33328 2.52439 6.39067 2.58311C6.39759 2.59015 6.4045 2.59719 6.41163 2.60445C6.45719 2.65156 6.49881 2.70072 6.53877 2.75292C6.54278 2.7581 6.54679 2.76328 6.55093 2.76861C6.84051 3.14554 7.00206 3.61599 6.99998 4.09644Z" fill="#282828"/>
</svg>
