<svg width="614" height="529" viewBox="0 0 614 529" fill="none" xmlns="http://www.w3.org/2000/svg">
<path d="M275.966 0.00150418C276.486 0.00272932 277.006 0.00395446 277.541 0.00521672C291.597 0.0581884 304.762 2.03205 318.399 5.29538C318.925 5.42042 319.451 5.54545 319.994 5.67427C348.599 12.668 374.604 28.9948 395.022 49.0676C396.358 50.3539 397.695 51.6369 399.061 52.8937C399.915 53.6812 400.736 54.5004 401.556 55.3208C401.556 55.696 401.556 56.0712 401.556 56.4577C402.144 56.6453 402.732 56.8329 403.338 57.0262C404.798 58.5111 406.052 60.155 407.343 61.7763C408.14 62.7737 408.947 63.7624 409.755 64.7516C418.352 75.3826 425.152 87.2088 431.345 99.2487C432.65 101.783 434.013 104.28 435.412 106.767C436.989 109.572 438.515 112.394 439.992 115.248C442.507 120.081 445.079 124.885 447.663 129.684C448.131 130.555 448.6 131.426 449.068 132.296C452.267 138.244 455.486 144.18 458.711 150.115C460.939 154.225 463.12 158.354 465.267 162.503C466.87 165.587 468.524 168.639 470.214 171.68C473.621 177.848 476.887 184.082 480.144 190.324C480.772 191.526 481.401 192.728 482.029 193.93C483.337 196.433 484.644 198.937 485.951 201.44C487.605 204.61 489.262 207.778 490.919 210.947C492.214 213.425 493.509 215.904 494.803 218.383C495.413 219.55 496.022 220.716 496.632 221.882C500.871 229.988 505.003 238.139 509.066 246.327C509.699 247.599 510.332 248.872 510.966 250.144C511.704 251.627 512.442 253.109 513.178 254.593C514.904 258.055 516.684 261.488 518.481 264.916C520.759 269.268 522.992 273.641 525.214 278.019C525.433 278.449 525.651 278.879 525.876 279.322C529.045 285.567 532.15 291.837 535.186 298.143C537.921 303.818 540.715 309.466 543.516 315.112C547.732 323.613 551.902 332.133 556.026 340.675C558.054 344.874 560.084 349.072 562.115 353.27C562.356 353.769 562.597 354.267 562.846 354.781C566.318 361.958 569.823 369.119 573.355 376.27C576.468 382.578 579.498 388.92 582.498 395.278C585.3 401.212 588.198 407.095 591.169 412.953C594.111 418.759 596.954 424.605 599.777 430.465C601.107 433.223 602.458 435.97 603.824 438.712C610.674 452.5 610.674 452.5 612.418 459.503C612.523 459.895 612.629 460.286 612.737 460.69C613.83 465.168 613.868 469.673 613.866 474.248C613.866 474.664 613.866 475.079 613.866 475.508C613.844 482.262 613.257 488.426 610.636 494.748C610.383 495.371 610.383 495.371 610.124 496.007C607.629 501.963 604.331 506.968 599.944 511.802C599.561 512.227 599.177 512.651 598.782 513.088C589.214 522.9 574.516 528.503 560.658 528.981C546.267 529.296 534.043 525.727 523.366 516.092C511.375 504.834 503.618 490.256 495.866 476.188C494.317 473.395 492.727 470.624 491.135 467.853C484.689 456.591 478.504 445.192 472.832 433.555C471.492 430.812 470.101 428.098 468.675 425.395C466.823 421.885 465.057 418.343 463.321 414.78C462.058 412.196 460.745 409.64 459.394 407.097C454.378 397.611 449.761 387.9 445.286 378.171C443.054 373.32 440.693 368.527 438.31 363.743C433.879 354.84 429.675 345.851 425.537 336.82C422.809 330.868 420.069 324.925 417.006 319.122C415.892 316.997 414.873 314.839 413.881 312.66C411.396 307.261 408.834 301.895 406.27 296.53C406.069 296.108 405.868 295.686 405.66 295.252C403.409 290.537 401.141 285.829 398.845 281.134C397.595 278.575 396.373 276.005 395.163 273.429C393.068 268.969 390.92 264.552 388.595 260.198C386.668 256.558 384.912 252.845 383.142 249.134C380.885 244.408 378.539 239.784 375.926 235.231C374.709 233.04 373.61 230.814 372.525 228.562C370.619 224.615 368.557 220.768 366.42 216.932C364.634 213.718 362.922 210.474 361.239 207.209C356.768 198.57 351.831 190.168 346.875 181.777C345.895 180.111 344.93 178.44 343.977 176.76C343.696 176.266 343.415 175.772 343.125 175.264C342.604 174.347 342.083 173.43 341.564 172.513C337.268 164.942 332.654 157.571 327.902 150.255C327.561 149.726 327.219 149.196 326.867 148.651C324.652 145.26 322.284 142.061 319.698 138.921C319.024 138.1 318.352 137.278 317.682 136.454C317.391 136.101 317.1 135.748 316.801 135.384C316.023 134.338 316.023 134.338 315.437 133.104C314.88 131.865 314.88 131.865 313.053 131.496C312.199 130.645 312.199 130.645 311.271 129.542C303.559 120.913 292.427 113.18 280.384 111.599C279.857 111.524 279.331 111.448 278.788 111.371C266.165 109.941 253.831 114.531 243.892 121.79C241.625 123.546 239.453 125.36 237.335 127.28C236.382 128.128 235.404 128.945 234.426 129.766C227.784 135.52 224.191 141.958 220.43 149.651C219.854 150.796 219.277 151.94 218.697 153.083C217.582 155.29 216.477 157.5 215.379 159.714C213.353 163.793 211.236 167.827 209.107 171.857C206.473 176.853 203.889 181.865 201.385 186.922C198.198 193.355 194.946 199.741 191.399 206.001C189.486 209.385 187.739 212.831 186.022 216.309C182.264 223.872 178.356 231.362 174.435 238.848C173.435 240.76 172.436 242.672 171.436 244.585C169.55 248.194 167.662 251.802 165.774 255.411C163.639 259.49 161.506 263.571 159.373 267.651C156.215 273.692 153.056 279.732 149.896 285.772C149.049 287.391 148.202 289.01 147.355 290.629C146.247 292.748 145.138 294.867 144.029 296.986C143.599 297.807 143.17 298.627 142.741 299.448C142.39 300.118 142.039 300.787 141.678 301.477C140.553 303.649 139.478 305.839 138.423 308.041C136.758 311.476 134.968 314.821 133.078 318.146C131.369 321.176 129.837 324.272 128.322 327.393C127.015 330.082 125.67 332.749 124.279 335.399C124.09 335.762 123.9 336.126 123.705 336.5C122.53 338.742 121.333 340.971 120.124 343.195C113.234 355.963 109.314 370.103 113.806 384.375C116.532 392.55 120.773 399.386 127.138 405.499C127.575 405.93 128.012 406.362 128.463 406.806C138.435 416.063 150.689 418.859 164.229 418.689C176.603 418.362 187.763 412.317 196.199 403.804C200.69 398.788 204.703 393.377 208.513 387.876C208.778 387.494 209.042 387.112 209.315 386.718C213.423 380.742 217.133 374.615 220.613 368.284C223.288 363.442 226.103 358.726 229.785 354.514C231.817 352.158 233.455 349.699 235.093 347.088C239.421 340.271 244.815 334.371 251.279 329.323C251.984 328.758 251.984 328.758 252.704 328.182C264.873 319.044 280.25 315.375 295.473 317.088C309.743 319 321.869 325.797 330.643 336.776C339.839 349.239 341.503 364.971 338.92 379.708C337.726 385.774 335.808 391.669 333.842 397.54C333.664 398.073 333.485 398.607 333.302 399.156C323.123 429.145 307.466 460.159 283.354 482.242C281.871 483.65 280.402 485.066 278.957 486.51C274.79 490.627 270.319 494.152 265.535 497.591C264.991 497.988 264.447 498.385 263.887 498.794C245.163 512.194 223.74 520.403 200.791 524.309C200.196 524.411 199.602 524.513 198.989 524.618C158.67 531.17 114.047 521.289 78.6081 502.603C77.4219 501.977 76.2293 501.362 75.0256 500.768C62.5597 494.568 51.4841 486.042 41.6051 476.557C41.1135 476.107 40.622 475.656 40.1155 475.192C35.812 471.202 32.1249 466.932 28.5376 462.346C28.2905 462.036 28.0434 461.726 27.7887 461.407C20.5609 452.334 15.0807 442.354 10.6591 431.783C10.2076 430.709 9.73657 429.643 9.26116 428.579C5.76259 420.505 3.8069 411.77 2.21696 403.189C2.12235 402.683 2.02774 402.177 1.93026 401.656C-2.0464 378.888 0.52497 354.438 5.96644 332.166C6.08101 331.683 6.19557 331.2 6.31361 330.702C9.95307 315.525 15.8983 300.92 22.6102 286.78C23.4511 285.003 24.2836 283.223 25.1169 281.444C30.6006 269.734 36.1904 258.072 41.8537 246.442C44.3693 241.271 46.851 236.089 49.274 230.878C50.9385 227.312 52.7327 223.822 54.5844 220.342C56.9813 215.795 59.2325 211.178 61.5208 206.581C63.2911 203.03 65.0734 199.484 66.855 195.938C68.3303 192.999 69.8002 190.059 71.2576 187.113C73.7773 182.025 76.3091 176.962 79.1194 172.015C80.5069 169.572 81.8214 167.102 83.1093 164.609C84.8633 161.218 86.6785 157.862 88.5293 154.519C90.3278 151.269 92.096 148.009 93.8009 144.713C98.4118 135.827 103.246 127.073 108.384 118.456C110.121 115.542 111.815 112.618 113.439 109.645C122.851 92.5923 133.314 75.3618 146.145 60.437C146.398 60.1362 146.651 59.8354 146.912 59.5255C150.928 54.7621 155.338 50.3848 159.844 46.0476C160.384 45.5251 160.925 45.0026 161.481 44.4643C165.096 41.0206 168.869 37.8756 172.874 34.8558C173.271 34.5526 173.669 34.2494 174.078 33.9369C203.001 12.0531 239.1 -0.155946 275.966 0.00150418Z" fill="#1F1F1F" fill-opacity="0.7"/>
<path d="M484.795 100C484.917 100.001 485.038 100.001 485.164 100.001C488.459 100.014 491.544 100.476 494.741 101.241C494.864 101.271 494.988 101.3 495.115 101.33C501.82 102.969 507.916 106.797 512.702 111.502C513.015 111.803 513.328 112.104 513.649 112.399C513.849 112.583 514.041 112.775 514.233 112.967C514.233 113.055 514.233 113.143 514.233 113.234C514.371 113.278 514.509 113.322 514.651 113.367C514.993 113.715 515.287 114.101 515.59 114.481C515.777 114.714 515.966 114.946 516.155 115.178C518.17 117.67 519.765 120.442 521.216 123.264C521.522 123.858 521.842 124.444 522.17 125.027C522.539 125.684 522.897 126.346 523.243 127.015C523.832 128.148 524.435 129.274 525.041 130.398C525.151 130.603 525.261 130.807 525.37 131.011C526.12 132.405 526.875 133.797 527.631 135.188C528.153 136.151 528.664 137.119 529.168 138.091C529.543 138.814 529.931 139.53 530.327 140.243C531.126 141.688 531.891 143.15 532.655 144.613C532.802 144.895 532.949 145.176 533.097 145.458C533.403 146.045 533.71 146.632 534.016 147.219C534.404 147.962 534.792 148.704 535.18 149.447C535.484 150.028 535.788 150.609 536.091 151.19C536.234 151.463 536.377 151.737 536.52 152.01C537.513 153.91 538.482 155.821 539.434 157.74C539.583 158.038 539.731 158.337 539.88 158.635C540.053 158.982 540.226 159.33 540.398 159.678C540.803 160.489 541.22 161.294 541.641 162.098C542.175 163.118 542.699 164.143 543.22 165.169C543.271 165.27 543.322 165.37 543.375 165.474C544.117 166.938 544.845 168.408 545.557 169.886C546.198 171.216 546.853 172.54 547.51 173.864C548.498 175.856 549.475 177.853 550.442 179.856C550.917 180.84 551.393 181.824 551.869 182.808C551.926 182.925 551.982 183.042 552.041 183.162C552.854 184.845 553.676 186.523 554.504 188.199C555.234 189.678 555.944 191.165 556.647 192.655C557.304 194.046 557.983 195.425 558.68 196.798C559.369 198.159 560.036 199.529 560.697 200.903C561.009 201.549 561.326 202.193 561.646 202.836C563.252 206.068 563.252 206.068 563.66 207.71C563.685 207.801 563.71 207.893 563.735 207.988C563.991 209.037 564 210.093 564 211.166C564 211.263 564 211.361 564 211.461C563.995 213.044 563.857 214.489 563.243 215.971C563.183 216.117 563.183 216.117 563.123 216.266C562.538 217.662 561.765 218.836 560.737 219.969C560.647 220.068 560.557 220.168 560.464 220.27C558.221 222.57 554.776 223.883 551.528 223.996C548.154 224.069 545.289 223.233 542.786 220.974C539.976 218.335 538.157 214.918 536.34 211.621C535.977 210.966 535.604 210.316 535.231 209.667C533.72 207.027 532.27 204.355 530.941 201.627C530.627 200.984 530.301 200.348 529.966 199.715C529.532 198.892 529.118 198.062 528.712 197.226C528.415 196.621 528.108 196.022 527.791 195.425C526.615 193.202 525.533 190.926 524.484 188.645C523.961 187.508 523.407 186.385 522.849 185.263C521.81 183.176 520.825 181.069 519.855 178.952C519.215 177.557 518.573 176.164 517.855 174.804C517.594 174.306 517.355 173.8 517.122 173.289C516.54 172.023 515.939 170.766 515.339 169.508C515.291 169.409 515.244 169.31 515.195 169.208C514.668 168.103 514.136 167 513.598 165.899C513.305 165.299 513.018 164.697 512.735 164.093C512.244 163.047 511.74 162.012 511.195 160.992C510.744 160.138 510.332 159.268 509.917 158.398C509.388 157.29 508.838 156.206 508.226 155.139C507.94 154.626 507.683 154.104 507.428 153.576C506.982 152.651 506.498 151.749 505.998 150.85C505.579 150.096 505.178 149.336 504.783 148.571C503.735 146.546 502.578 144.576 501.416 142.609C501.186 142.219 500.96 141.827 500.737 141.433C500.671 141.318 500.605 141.202 500.537 141.083C500.415 140.868 500.293 140.653 500.171 140.438C499.164 138.663 498.082 136.935 496.969 135.221C496.889 135.096 496.809 134.972 496.726 134.844C496.207 134.05 495.652 133.3 495.046 132.564C494.888 132.371 494.73 132.179 494.573 131.986C494.505 131.903 494.437 131.82 494.366 131.735C494.184 131.489 494.184 131.489 494.047 131.2C493.916 130.91 493.916 130.91 493.488 130.823C493.288 130.624 493.288 130.624 493.07 130.365C491.263 128.343 488.653 126.53 485.83 126.159C485.707 126.142 485.583 126.124 485.456 126.106C482.497 125.771 479.606 126.847 477.276 128.548C476.745 128.96 476.236 129.385 475.739 129.835C475.516 130.034 475.287 130.225 475.057 130.418C473.501 131.767 472.658 133.276 471.777 135.079C471.642 135.347 471.506 135.615 471.371 135.883C471.109 136.401 470.85 136.919 470.593 137.438C470.118 138.394 469.622 139.339 469.123 140.284C468.505 141.455 467.899 142.63 467.313 143.815C466.565 145.323 465.803 146.82 464.972 148.288C464.523 149.081 464.114 149.888 463.711 150.704C462.831 152.477 461.914 154.232 460.995 155.987C460.761 156.435 460.527 156.883 460.292 157.332C459.85 158.178 459.408 159.024 458.965 159.869C458.465 160.826 457.965 161.782 457.465 162.739C456.724 164.155 455.984 165.571 455.243 166.986C455.045 167.366 454.846 167.745 454.648 168.125C454.388 168.622 454.128 169.118 453.868 169.615C453.767 169.807 453.667 170 453.566 170.192C453.484 170.349 453.402 170.506 453.317 170.668C453.053 171.177 452.801 171.69 452.554 172.206C452.164 173.011 451.744 173.795 451.301 174.575C450.9 175.285 450.541 176.011 450.186 176.742C449.88 177.373 449.565 177.998 449.239 178.619C449.194 178.704 449.15 178.789 449.104 178.877C448.829 179.403 448.548 179.925 448.265 180.447C446.65 183.439 445.731 186.754 446.784 190.099C447.423 192.016 448.417 193.618 449.909 195.051C450.011 195.152 450.114 195.253 450.219 195.357C452.557 197.527 455.429 198.183 458.603 198.143C461.503 198.066 464.119 196.649 466.097 194.654C467.15 193.478 468.09 192.209 468.983 190.92C469.045 190.83 469.107 190.741 469.171 190.648C470.134 189.248 471.004 187.811 471.82 186.327C472.447 185.192 473.107 184.087 473.969 183.1C474.446 182.547 474.83 181.971 475.214 181.359C476.228 179.761 477.493 178.378 479.008 177.195C479.173 177.062 479.173 177.062 479.342 176.927C482.194 174.785 485.799 173.925 489.367 174.327C492.712 174.775 495.554 176.368 497.611 178.942C499.767 181.863 500.157 185.551 499.551 189.005C499.271 190.427 498.822 191.809 498.361 193.185C498.319 193.31 498.277 193.435 498.234 193.564C495.848 200.594 492.178 207.863 486.526 213.04C486.179 213.37 485.834 213.702 485.496 214.04C484.519 215.005 483.471 215.831 482.349 216.638C482.222 216.731 482.095 216.824 481.963 216.92C477.574 220.061 472.553 221.985 467.173 222.9C467.034 222.924 466.894 222.948 466.751 222.973C457.3 224.509 446.84 222.193 438.533 217.812C438.255 217.666 437.975 217.522 437.693 217.382C434.771 215.929 432.175 213.93 429.859 211.707C429.744 211.602 429.629 211.496 429.51 211.387C428.501 210.452 427.637 209.451 426.796 208.376C426.738 208.303 426.68 208.231 426.621 208.156C424.927 206.029 423.642 203.69 422.605 201.212C422.5 200.96 422.389 200.71 422.278 200.461C421.458 198.568 420.999 196.521 420.627 194.509C420.604 194.391 420.582 194.272 420.559 194.15C419.627 188.813 420.23 183.082 421.505 177.861C421.532 177.748 421.559 177.635 421.587 177.518C422.44 173.96 423.834 170.537 425.407 167.223C425.604 166.806 425.799 166.389 425.994 165.972C427.28 163.227 428.59 160.493 429.918 157.767C430.507 156.555 431.089 155.34 431.657 154.119C432.047 153.283 432.468 152.465 432.902 151.649C433.464 150.583 433.991 149.501 434.528 148.423C434.943 147.591 435.36 146.76 435.778 145.929C436.124 145.24 436.468 144.551 436.81 143.86C437.401 142.667 437.994 141.481 438.653 140.321C438.978 139.748 439.286 139.169 439.588 138.585C439.999 137.79 440.425 137.004 440.859 136.22C441.28 135.458 441.695 134.694 442.094 133.921C443.175 131.839 444.308 129.786 445.513 127.767C445.92 127.084 446.317 126.398 446.698 125.701C448.904 121.704 451.356 117.665 454.364 114.167C454.423 114.096 454.483 114.026 454.544 113.953C455.485 112.836 456.519 111.81 457.575 110.794C457.702 110.671 457.828 110.549 457.959 110.423C458.806 109.615 459.69 108.878 460.629 108.17C460.723 108.099 460.816 108.028 460.912 107.955C467.691 102.825 476.153 99.9634 484.795 100Z" fill="white"/>
</svg>
