<svg width="16" height="17" viewBox="0 0 16 17" fill="none" xmlns="http://www.w3.org/2000/svg">
<rect x="0.5" y="1" width="15" height="15" rx="7.5" fill="white" stroke="#282828"/>
<path d="M7.88062 12.0554C7.88739 12.0554 7.89416 12.0553 7.90114 12.0553C8.08432 12.0546 8.25588 12.0281 8.4336 11.9842C8.44046 11.9825 8.44732 11.9809 8.45439 11.9791C8.82718 11.8851 9.16607 11.6656 9.43217 11.3958C9.44958 11.3785 9.467 11.3613 9.48481 11.3444C9.49593 11.3338 9.50664 11.3228 9.51731 11.3117C9.51731 11.3067 9.51731 11.3017 9.51731 11.2965C9.52498 11.2939 9.53264 11.2914 9.54054 11.2888C9.55957 11.2689 9.57592 11.2468 9.59273 11.225C9.60312 11.2116 9.61365 11.1983 9.62417 11.185C9.7362 11.0421 9.82483 10.8831 9.90554 10.7212C9.92254 10.6872 9.94031 10.6536 9.95854 10.6202C9.97909 10.5825 9.99898 10.5445 10.0182 10.5062C10.051 10.4412 10.0845 10.3766 10.1182 10.3121C10.1243 10.3004 10.1304 10.2887 10.1365 10.277C10.1782 10.1971 10.2201 10.1172 10.2622 10.0375C10.2912 9.98222 10.3196 9.92671 10.3476 9.87095C10.3685 9.82949 10.3901 9.78845 10.4121 9.74758C10.4565 9.66466 10.499 9.58087 10.5415 9.49696C10.5497 9.4808 10.5579 9.46464 10.5661 9.44848C10.5831 9.41483 10.6001 9.38118 10.6172 9.34752C10.6387 9.30492 10.6603 9.26232 10.6819 9.21973C10.6988 9.18642 10.7157 9.1531 10.7325 9.11977C10.7405 9.10409 10.7484 9.08841 10.7564 9.07273C10.8116 8.96376 10.8655 8.85421 10.9184 8.74413C10.9267 8.72703 10.9349 8.70993 10.9432 8.69282C10.9528 8.67289 10.9624 8.65296 10.972 8.63302C10.9945 8.58648 11.0177 8.54033 11.0411 8.49425C11.0708 8.43575 11.0999 8.37697 11.1289 8.31811C11.1317 8.31233 11.1345 8.30655 11.1375 8.3006C11.1788 8.21664 11.2192 8.13236 11.2588 8.0476C11.2945 7.97131 11.3309 7.89538 11.3674 7.81949C11.4223 7.70521 11.4766 7.59068 11.5304 7.47585C11.5568 7.41941 11.5833 7.36297 11.6098 7.30654C11.6129 7.29984 11.616 7.29314 11.6193 7.28623C11.6645 7.18975 11.7102 7.09349 11.7562 6.99737C11.7968 6.91257 11.8363 6.82732 11.8754 6.74185C11.9119 6.66208 11.9497 6.583 11.9884 6.50425C12.0267 6.42621 12.0638 6.34762 12.1006 6.26885C12.1179 6.23178 12.1355 6.19484 12.1533 6.15799C12.2426 5.97264 12.2426 5.97264 12.2653 5.8785C12.2667 5.87324 12.268 5.86797 12.2695 5.86255C12.2837 5.80235 12.2842 5.74179 12.2842 5.68029C12.2842 5.6747 12.2842 5.66912 12.2842 5.66336C12.2839 5.57257 12.2762 5.4897 12.2421 5.40471C12.2388 5.39634 12.2388 5.39634 12.2354 5.3878C12.2029 5.30773 12.1599 5.24045 12.1027 5.17546C12.0977 5.16976 12.0927 5.16406 12.0876 5.15818C11.9629 5.02628 11.7714 4.95097 11.5908 4.94454C11.4032 4.94031 11.2439 4.98828 11.1048 5.11781C10.9485 5.26913 10.8474 5.4651 10.7464 5.65421C10.7262 5.69176 10.7055 5.72901 10.6847 5.76626C10.6007 5.91764 10.5201 6.07088 10.4462 6.22731C10.4287 6.26418 10.4106 6.30067 10.392 6.337C10.3679 6.38418 10.3449 6.43179 10.3223 6.4797C10.3058 6.51443 10.2887 6.54878 10.2711 6.58297C10.2057 6.71049 10.1455 6.84102 10.0872 6.97181C10.0581 7.03703 10.0274 7.10145 9.99631 7.16577C9.93856 7.28544 9.88378 7.40628 9.82985 7.52767C9.7943 7.60768 9.75858 7.68758 9.71867 7.76558C9.70415 7.79414 9.69088 7.82316 9.67794 7.85244C9.64555 7.92503 9.61217 7.99715 9.57876 8.06928C9.57613 8.07495 9.57351 8.08062 9.57081 8.08646C9.54146 8.14984 9.51192 8.21312 9.48199 8.27623C9.4657 8.31064 9.44977 8.34518 9.434 8.37982C9.4067 8.43977 9.37871 8.49914 9.34841 8.55767C9.3233 8.6066 9.30042 8.65651 9.27735 8.7064C9.24794 8.76993 9.21736 8.83209 9.18331 8.8933C9.16744 8.92274 9.15313 8.95266 9.13898 8.98294C9.11415 9.03599 9.08727 9.08771 9.05943 9.13928C9.03615 9.18249 9.01384 9.22609 8.99191 9.26998C8.93364 9.38611 8.86929 9.49906 8.80471 9.61186C8.79194 9.63424 8.77936 9.65671 8.76694 9.67929C8.76328 9.68593 8.75962 9.69257 8.75584 9.69941C8.74905 9.71173 8.74226 9.72405 8.73549 9.73638C8.67951 9.83815 8.61937 9.93723 8.55745 10.0356C8.553 10.0427 8.54855 10.0498 8.54396 10.0572C8.51509 10.1027 8.48424 10.1457 8.45053 10.1879C8.44175 10.199 8.43299 10.21 8.42426 10.2211C8.42047 10.2258 8.41668 10.2306 8.41277 10.2355C8.40264 10.2495 8.40264 10.2495 8.395 10.2661C8.38774 10.2828 8.38774 10.2828 8.36393 10.2878C8.35281 10.2992 8.35281 10.2992 8.34071 10.314C8.24021 10.43 8.09513 10.534 7.93819 10.5552C7.93132 10.5562 7.92446 10.5572 7.91739 10.5583C7.75288 10.5775 7.59215 10.5158 7.46261 10.4182C7.43307 10.3946 7.40476 10.3702 7.37717 10.3444C7.36474 10.333 7.35201 10.322 7.33925 10.311C7.2527 10.2337 7.20588 10.1471 7.15685 10.0437C7.14935 10.0283 7.14183 10.0129 7.13428 9.99757C7.11975 9.96791 7.10534 9.9382 7.09103 9.90843C7.06462 9.8536 7.03704 9.79937 7.00929 9.7452C6.97497 9.67804 6.94129 9.61067 6.90866 9.54269C6.86712 9.45621 6.82475 9.37036 6.77852 9.28622C6.75359 9.24073 6.73082 9.19441 6.70845 9.14765C6.65948 9.04598 6.60854 8.94531 6.55745 8.84467C6.54441 8.81897 6.53139 8.79326 6.51836 8.76755C6.49378 8.71904 6.46918 8.67053 6.44457 8.62203C6.41675 8.56718 6.38895 8.51233 6.36115 8.45748C6.31999 8.37628 6.27883 8.29508 6.23765 8.21389C6.22661 8.19213 6.21557 8.17036 6.20454 8.1486C6.19009 8.12011 6.17564 8.09163 6.16118 8.06314C6.15559 8.05211 6.14999 8.04108 6.1444 8.03005C6.13983 8.02105 6.13526 8.01205 6.13055 8.00277C6.11589 7.97358 6.10188 7.94414 6.08814 7.91453C6.06643 7.86836 6.0431 7.8234 6.01847 7.7787C5.9962 7.73797 5.97623 7.69636 5.95649 7.65439C5.93946 7.61825 5.92193 7.5824 5.90381 7.54678C5.90134 7.54189 5.89886 7.53701 5.89632 7.53198C5.88101 7.50184 5.86542 7.47187 5.84965 7.44197C5.75987 7.27034 5.70877 7.08026 5.76732 6.88842C5.80284 6.77852 5.85811 6.68662 5.94106 6.60446C5.94676 6.59866 5.95246 6.59286 5.95833 6.58688C6.08829 6.46245 6.24798 6.42486 6.42444 6.42715C6.58569 6.43155 6.73114 6.5128 6.84108 6.62724C6.89961 6.69466 6.9519 6.7674 7.00155 6.84135C7.005 6.84649 7.00845 6.85163 7.01201 6.85692C7.06555 6.93725 7.11389 7.01961 7.15925 7.10472C7.19411 7.16981 7.23079 7.2332 7.27877 7.28983C7.30525 7.32149 7.32661 7.35455 7.34795 7.38964C7.40435 7.48129 7.47464 7.56059 7.55889 7.62845C7.56808 7.63604 7.56808 7.63604 7.57746 7.64379C7.73605 7.76663 7.93644 7.81595 8.13482 7.79292C8.3208 7.76722 8.47882 7.67586 8.59316 7.52827C8.71302 7.36073 8.73469 7.14925 8.70104 6.95116C8.68547 6.86961 8.66048 6.79037 8.63486 6.71144C8.63254 6.70427 8.63021 6.6971 8.62782 6.68972C8.49517 6.28659 8.29112 5.86968 7.97689 5.57283C7.95757 5.55391 7.93842 5.53487 7.91959 5.51546C7.86529 5.46012 7.80702 5.41274 7.74467 5.36651C7.73758 5.36117 7.7305 5.35583 7.7232 5.35033C7.47919 5.1702 7.2 5.05985 6.90092 5.00735C6.89317 5.00598 6.88542 5.00461 6.87743 5.00319C6.352 4.91511 5.77046 5.04794 5.30861 5.29913C5.29315 5.30754 5.27761 5.3158 5.26193 5.32379C5.09947 5.40714 4.95513 5.52175 4.82638 5.64925C4.81998 5.65531 4.81357 5.66137 4.80697 5.66761C4.75089 5.72124 4.70284 5.77864 4.65609 5.84029C4.65287 5.84445 4.64964 5.84862 4.64633 5.8529C4.55213 5.97487 4.48071 6.10903 4.42309 6.25113C4.41721 6.26556 4.41107 6.27989 4.40487 6.2942C4.35928 6.40273 4.33379 6.52015 4.31307 6.63551C4.31184 6.64231 4.31061 6.64911 4.30934 6.65611C4.25751 6.96218 4.29102 7.29085 4.36194 7.59024C4.36343 7.59673 4.36492 7.60322 4.36646 7.60991C4.41389 7.81394 4.49137 8.01026 4.57884 8.20034C4.5898 8.22422 4.60065 8.24815 4.61151 8.27208C4.68297 8.42948 4.75582 8.58625 4.82962 8.74259C4.86241 8.81209 4.89475 8.88176 4.92633 8.9518C4.94802 8.99974 4.9714 9.04666 4.99553 9.09344C5.02677 9.15457 5.05611 9.21662 5.08593 9.27842C5.109 9.32616 5.13223 9.37383 5.15544 9.42149C5.17467 9.46099 5.19383 9.50052 5.21282 9.54012C5.24566 9.60852 5.27865 9.67657 5.31528 9.74307C5.33336 9.77592 5.35049 9.80912 5.36727 9.84263C5.39013 9.88821 5.41379 9.93332 5.43791 9.97827C5.46135 10.022 5.48439 10.0658 5.50661 10.1101C5.5667 10.2295 5.62969 10.3472 5.69666 10.463C5.71929 10.5022 5.74137 10.5415 5.76254 10.5815C5.8852 10.8107 6.02155 11.0423 6.18877 11.243C6.19207 11.247 6.19536 11.2511 6.19876 11.2552C6.25109 11.3193 6.30857 11.3781 6.36729 11.4364C6.37433 11.4434 6.38137 11.4504 6.38863 11.4577C6.43574 11.504 6.4849 11.5463 6.5371 11.5868C6.54228 11.5909 6.54746 11.595 6.55279 11.5992C6.92972 11.8934 7.40017 12.0575 7.88062 12.0554Z" fill="#282828"/>
</svg>
