<svg width="16" height="16" viewBox="0 0 16 16" fill="none" xmlns="http://www.w3.org/2000/svg">
<g clip-path="url(#clip0_152_868)">
<rect x="0.5" y="0.5" width="15" height="15" rx="7.5" fill="#282828" stroke="#282828"/>
<path d="M7.20971 11.5554C7.21658 11.5554 7.22346 11.5553 7.23055 11.5553C7.41662 11.5546 7.59088 11.5285 7.7714 11.4853C7.77836 11.4836 7.78533 11.482 7.79251 11.4803C8.17117 11.3877 8.5154 11.1716 8.78568 10.9059C8.80337 10.8888 8.82107 10.8719 8.83916 10.8552C8.85046 10.8448 8.86133 10.834 8.87217 10.8231C8.87217 10.8181 8.87217 10.8132 8.87217 10.808C8.87996 10.8056 8.88774 10.8031 8.89576 10.8005C8.91509 10.7809 8.9317 10.7591 8.94878 10.7376C8.95933 10.7244 8.97002 10.7114 8.98072 10.6983C9.09451 10.5575 9.18453 10.401 9.26651 10.2416C9.28378 10.2081 9.30182 10.175 9.32035 10.1421C9.34122 10.1049 9.36142 10.0676 9.38098 10.0298C9.41426 9.96584 9.44831 9.90226 9.48251 9.83873C9.48871 9.8272 9.49491 9.81567 9.50111 9.80414C9.54346 9.72542 9.58607 9.64683 9.62875 9.56827C9.65825 9.51387 9.68712 9.45921 9.71555 9.40429C9.73676 9.36347 9.75866 9.32306 9.78102 9.28281C9.82613 9.20116 9.86936 9.11864 9.91248 9.03602C9.92079 9.0201 9.92911 9.00419 9.93743 8.98827C9.95475 8.95514 9.97205 8.922 9.98935 8.88886C10.0112 8.8469 10.0332 8.80496 10.0551 8.76302C10.0723 8.73021 10.0894 8.6974 10.1065 8.66458C10.1146 8.64914 10.1227 8.6337 10.1307 8.61826C10.1868 8.51096 10.2415 8.40307 10.2953 8.29468C10.3037 8.27784 10.3121 8.26099 10.3205 8.24415C10.3302 8.22453 10.34 8.2049 10.3498 8.18526C10.3726 8.13943 10.3962 8.09399 10.42 8.04861C10.4501 7.991 10.4797 7.93312 10.5091 7.87516C10.512 7.86947 10.5149 7.86378 10.5178 7.85792C10.5598 7.77524 10.6009 7.69225 10.6411 7.60878C10.6773 7.53365 10.7143 7.45889 10.7514 7.38415C10.8072 7.27162 10.8624 7.15884 10.917 7.04576C10.9438 6.99017 10.9707 6.9346 10.9976 6.87903C11.0007 6.87243 11.0039 6.86583 11.0072 6.85903C11.0532 6.76403 11.0996 6.66923 11.1463 6.57458C11.1876 6.49108 11.2277 6.40713 11.2674 6.32296C11.3045 6.24441 11.3428 6.16654 11.3822 6.08899C11.4211 6.01214 11.4587 5.93475 11.4961 5.85719C11.5137 5.82068 11.5316 5.78431 11.5497 5.74801C11.6404 5.5655 11.6404 5.5655 11.6634 5.47279C11.6648 5.46761 11.6662 5.46242 11.6677 5.45708C11.6821 5.3978 11.6826 5.33817 11.6826 5.27761C11.6826 5.27211 11.6826 5.2666 11.6826 5.26093C11.6823 5.17153 11.6745 5.08993 11.6398 5.00624C11.6365 4.99799 11.6365 4.99799 11.6331 4.98958C11.6 4.91073 11.5564 4.84448 11.4983 4.78049C11.4932 4.77487 11.4882 4.76925 11.4829 4.76347C11.3563 4.63358 11.1617 4.55942 10.9783 4.55309C10.7878 4.54892 10.626 4.59616 10.4846 4.72371C10.3259 4.87273 10.2232 5.0657 10.1206 5.25193C10.1001 5.2889 10.079 5.32558 10.058 5.36227C9.97264 5.51134 9.89077 5.66223 9.81569 5.81628C9.79794 5.85258 9.77953 5.88851 9.76066 5.92429C9.73615 5.97075 9.71277 6.01764 9.68979 6.06481C9.67307 6.09901 9.65569 6.13284 9.6378 6.16651C9.5714 6.29208 9.51029 6.42062 9.45105 6.54941C9.4215 6.61363 9.39025 6.67707 9.35871 6.74041C9.30005 6.85825 9.24441 6.97725 9.18963 7.09679C9.15352 7.17557 9.11724 7.25425 9.0767 7.33106C9.06195 7.35919 9.04847 7.38777 9.03532 7.4166C9.00243 7.48808 8.96852 7.5591 8.93458 7.63013C8.93192 7.63571 8.92925 7.64129 8.92651 7.64704C8.8967 7.70946 8.86669 7.77177 8.83629 7.83392C8.81974 7.8678 8.80356 7.90182 8.78755 7.93593C8.75982 7.99496 8.73139 8.05343 8.70061 8.11106C8.67511 8.15925 8.65186 8.20839 8.62843 8.25753C8.59855 8.32008 8.56749 8.38129 8.53291 8.44157C8.51679 8.47056 8.50225 8.50003 8.48788 8.52984C8.46266 8.58208 8.43536 8.63301 8.40708 8.68379C8.38343 8.72634 8.36077 8.76928 8.33849 8.8125C8.2793 8.92686 8.21395 9.03808 8.14835 9.14916C8.13538 9.1712 8.1226 9.19333 8.10998 9.21556C8.10626 9.2221 8.10254 9.22863 8.09871 9.23537C8.09181 9.2475 8.08491 9.25964 8.07804 9.27178C8.02118 9.372 7.96009 9.46957 7.8972 9.56641C7.89268 9.57342 7.88815 9.58043 7.88349 9.58766C7.85417 9.63254 7.82283 9.67489 7.7886 9.71644C7.77968 9.72731 7.77078 9.7382 7.76191 9.7491C7.75806 9.75378 7.75421 9.75845 7.75024 9.76327C7.73995 9.77712 7.73995 9.77712 7.73218 9.79345C7.72481 9.80986 7.72481 9.80986 7.70063 9.81474C7.68933 9.826 7.68933 9.826 7.67704 9.84061C7.57496 9.95483 7.4276 10.0572 7.26818 10.0781C7.26121 10.0791 7.25424 10.0801 7.24705 10.0811C7.07996 10.1001 6.91669 10.0393 6.78512 9.94322C6.75511 9.91998 6.72636 9.89596 6.69833 9.87054C6.68571 9.85933 6.67277 9.8485 6.65981 9.83764C6.5719 9.76147 6.52434 9.67625 6.47454 9.57441C6.46692 9.55926 6.45928 9.54411 6.45162 9.52898C6.43686 9.49977 6.42222 9.47052 6.40769 9.44121C6.38086 9.38721 6.35285 9.33381 6.32466 9.28046C6.2898 9.21433 6.25559 9.14799 6.22245 9.08105C6.18025 8.99589 6.13721 8.91135 6.09025 8.82849C6.06493 8.7837 6.04181 8.73808 6.01908 8.69204C5.96934 8.59192 5.9176 8.49278 5.8657 8.39368C5.85246 8.36837 5.83923 8.34306 5.826 8.31774C5.80103 8.26997 5.77604 8.2222 5.75105 8.17444C5.72279 8.12043 5.69455 8.06642 5.66631 8.0124C5.62451 7.93244 5.58269 7.85248 5.54087 7.77253C5.52966 7.7511 5.51845 7.72967 5.50724 7.70823C5.49256 7.68018 5.47789 7.65213 5.4632 7.62409C5.45752 7.61323 5.45183 7.60236 5.44615 7.5915C5.44151 7.58264 5.43686 7.57377 5.43208 7.56463C5.4172 7.53589 5.40296 7.5069 5.389 7.47774C5.36695 7.43228 5.34326 7.388 5.31824 7.34398C5.29562 7.30387 5.27534 7.2629 5.25528 7.22157C5.23798 7.18598 5.22018 7.15068 5.20177 7.1156C5.19926 7.11079 5.19675 7.10598 5.19416 7.10103C5.17862 7.07135 5.16277 7.04184 5.14676 7.0124C5.05557 6.84339 5.00366 6.65621 5.06313 6.46729C5.09922 6.35907 5.15535 6.26858 5.23961 6.18767C5.2454 6.18196 5.25118 6.17624 5.25715 6.17036C5.38916 6.04783 5.55136 6.01081 5.7306 6.01307C5.89439 6.01739 6.04212 6.09741 6.1538 6.2101C6.21325 6.2765 6.26637 6.34813 6.3168 6.42095C6.3203 6.426 6.32381 6.43106 6.32742 6.43627C6.3818 6.51538 6.43091 6.59649 6.47698 6.68029C6.51239 6.74439 6.54965 6.80681 6.59838 6.86257C6.62528 6.89375 6.64697 6.92631 6.66865 6.96087C6.72594 7.05111 6.79734 7.12921 6.88291 7.19603C6.89225 7.2035 6.89225 7.2035 6.90177 7.21113C7.06286 7.3321 7.26641 7.38067 7.46791 7.35799C7.65682 7.33268 7.81733 7.24271 7.93347 7.09738C8.05521 6.93239 8.07723 6.72414 8.04304 6.52907C8.02723 6.44877 8.00185 6.37074 7.97583 6.29302C7.97347 6.28596 7.9711 6.2789 7.96867 6.27162C7.83393 5.87465 7.62667 5.4641 7.3075 5.17179C7.28787 5.15315 7.26842 5.1344 7.2493 5.11529C7.19414 5.06079 7.13495 5.01414 7.07162 4.96861C7.06442 4.96336 7.05722 4.9581 7.04981 4.95268C6.80195 4.77531 6.51837 4.66663 6.21458 4.61494C6.20671 4.61359 6.19884 4.61224 6.19073 4.61085C5.65702 4.52411 5.06632 4.65491 4.5972 4.90227C4.5815 4.91055 4.56571 4.91868 4.54978 4.92655C4.38477 5.00862 4.23815 5.12149 4.10738 5.24704C4.10088 5.253 4.09437 5.25897 4.08766 5.26512C4.0307 5.31793 3.98189 5.37446 3.9344 5.43517C3.93113 5.43926 3.92786 5.44336 3.92449 5.44758C3.82881 5.56769 3.75627 5.6998 3.69774 5.83973C3.69176 5.85394 3.68553 5.86806 3.67923 5.88214C3.63292 5.98902 3.60703 6.10465 3.58599 6.21824C3.58473 6.22494 3.58348 6.23163 3.58219 6.23853C3.52955 6.53993 3.56359 6.86358 3.63562 7.1584C3.63714 7.16479 3.63865 7.17119 3.64022 7.17778C3.68839 7.37868 3.76709 7.57201 3.85594 7.75919C3.86707 7.78271 3.87809 7.80627 3.88912 7.82983C3.96171 7.98483 4.03571 8.1392 4.11067 8.29316C4.14397 8.3616 4.17682 8.4302 4.2089 8.49918C4.23093 8.54638 4.25468 8.59259 4.27919 8.63866C4.31092 8.69885 4.34072 8.75996 4.37101 8.82081C4.39445 8.86782 4.41804 8.91476 4.44162 8.9617C4.46115 9.00059 4.48061 9.03952 4.4999 9.07852C4.53326 9.14587 4.56677 9.21288 4.60397 9.27837C4.62234 9.31072 4.63974 9.34341 4.65679 9.37641C4.68001 9.4213 4.70403 9.46572 4.72853 9.50998C4.75234 9.553 4.77575 9.59615 4.79832 9.63978C4.85935 9.7574 4.92334 9.87329 4.99136 9.98735C5.01435 10.0259 5.03678 10.0646 5.05828 10.104C5.18287 10.3297 5.32137 10.5578 5.49122 10.7554C5.49457 10.7594 5.49792 10.7633 5.50137 10.7674C5.55452 10.8305 5.61291 10.8884 5.67255 10.9458C5.6797 10.9528 5.68686 10.9597 5.69423 10.9668C5.74208 11.0124 5.79201 11.054 5.84504 11.094C5.8503 11.098 5.85555 11.102 5.86097 11.1062C6.24383 11.3958 6.72169 11.5575 7.20971 11.5554Z" fill="white"/>
</g>
<defs>
<clipPath id="clip0_152_868">
<rect width="16" height="16" fill="white"/>
</clipPath>
</defs>
</svg>
