<svg width="20" height="20" viewBox="0 0 20 20" fill="none" xmlns="http://www.w3.org/2000/svg">
<g clip-path="url(#clip0_1_64997)">
<path d="M3.5213 -0.0135082C3.58371 -0.013475 3.64612 -0.0134938 3.70853 -0.01356C3.87669 -0.0135934 4.04485 -0.0129079 4.21302 -0.0120865C4.38923 -0.0113503 4.56544 -0.0112848 4.74165 -0.011146C5.07477 -0.0107829 5.40788 -0.00982262 5.741 -0.00864413C6.12048 -0.00733097 6.49996 -0.00668912 6.87944 -0.0061017C7.65954 -0.00487919 8.43964 -0.00282002 9.21974 -0.0002044C9.10915 0.110568 8.99831 0.220815 8.88512 0.328928C7.56423 1.60655 6.77287 3.34379 6.71181 5.18824C6.68958 6.56457 7.01096 7.97941 7.77443 9.14042C7.79165 9.16662 7.80886 9.19283 7.8266 9.21982C8.10751 9.64191 8.4146 10.0154 8.77342 10.3736C8.83104 10.4313 8.88796 10.4898 8.94356 10.5494C10.1486 11.8222 12.0046 12.4071 13.7119 12.4607C14.3515 12.467 14.9965 12.3816 15.6124 12.2088C15.7041 12.1873 15.7041 12.1873 15.8604 12.1873C15.864 12.6746 15.8668 13.1619 15.8685 13.6492C15.8693 13.8754 15.8704 14.1017 15.8722 14.328C15.8739 14.5466 15.8748 14.7652 15.8752 14.9838C15.8755 15.067 15.876 15.1501 15.8769 15.2333C15.878 15.3503 15.8782 15.4672 15.8781 15.5842C15.8789 15.6352 15.8789 15.6352 15.8798 15.6873C15.878 15.9595 15.8223 16.2351 15.6358 16.4433C15.4608 16.6036 15.2862 16.6894 15.0458 16.6889C15.0087 16.689 14.9716 16.6891 14.9334 16.6892C14.8932 16.6889 14.853 16.6886 14.8116 16.6884C14.7475 16.6884 14.7475 16.6884 14.6822 16.6884C14.5412 16.6883 14.4002 16.6877 14.2593 16.6871C14.1615 16.687 14.0636 16.6869 13.9658 16.6868C13.7348 16.6865 13.5038 16.6859 13.2728 16.6851C12.9838 16.6841 12.6949 16.6837 12.406 16.6833C11.8908 16.6825 11.3756 16.6811 10.8604 16.6795C10.8608 16.7323 10.8608 16.7323 10.8612 16.7862C10.8635 17.1184 10.8653 17.4505 10.8664 17.7827C10.8671 17.9535 10.8679 18.1243 10.8692 18.295C10.8705 18.4599 10.8712 18.6248 10.8715 18.7897C10.8717 18.8525 10.8721 18.9153 10.8728 18.9782C10.8736 19.0663 10.8737 19.1545 10.8737 19.2427C10.8741 19.3179 10.8741 19.3179 10.8745 19.3946C10.8565 19.5688 10.8034 19.701 10.6832 19.8297C10.4415 20.0145 10.2654 20.0382 9.96193 19.9998C9.83579 19.9438 9.74843 19.8604 9.64943 19.7654C9.59185 19.7133 9.53428 19.6612 9.47669 19.6091C9.41513 19.5531 9.35407 19.4965 9.29314 19.4398C9.18037 19.3354 9.06558 19.2341 8.9492 19.1339C8.88488 19.077 8.82175 19.0189 8.75908 18.9602C8.73997 18.9424 8.72087 18.9246 8.70118 18.9062C8.64619 18.8548 8.59147 18.8031 8.53676 18.7513C8.44163 18.6742 8.40114 18.6443 8.28224 18.6326C8.21192 18.673 8.21192 18.673 8.1498 18.7388C8.11329 18.7739 8.11329 18.7739 8.07605 18.8097C8.05064 18.8351 8.02522 18.8604 7.99904 18.8865C7.94622 18.9376 7.89338 18.9886 7.8405 19.0396C7.80282 19.0763 7.80282 19.0763 7.76438 19.1138C7.66536 19.2094 7.56197 19.2992 7.45751 19.3887C7.4006 19.4383 7.34475 19.4891 7.28935 19.5404C6.78365 20.0078 6.78365 20.0078 6.4634 20.0218C6.25692 20.0109 6.13967 19.9726 5.97756 19.8435C5.8425 19.6451 5.80189 19.5186 5.80357 19.2737C5.80354 19.2455 5.80352 19.2172 5.8035 19.1882C5.80361 19.0958 5.80482 19.0035 5.80605 18.9111C5.80634 18.8467 5.80656 18.7822 5.80672 18.7178C5.80731 18.549 5.80884 18.3802 5.81058 18.2113C5.81218 18.0388 5.81289 17.8662 5.81368 17.6937C5.81535 17.3556 5.81801 17.0175 5.82131 16.6795C5.78662 16.6797 5.75194 16.68 5.7162 16.6803C5.38754 16.6826 5.05887 16.6844 4.7302 16.6856C4.56127 16.6862 4.39235 16.687 4.22342 16.6883C4.06006 16.6896 3.8967 16.6903 3.73333 16.6906C3.67135 16.6908 3.60938 16.6912 3.5474 16.6919C2.77207 16.6995 2.14594 16.5029 1.56349 15.9764C1.53585 15.9519 1.5082 15.9274 1.47972 15.9022C1.10241 15.5487 0.822623 15.0794 0.801752 14.5547C0.800951 14.4611 0.800993 14.3675 0.801727 14.274C0.801575 14.2216 0.801354 14.1692 0.801072 14.1168C0.800499 13.9739 0.800891 13.8311 0.801452 13.6882C0.801888 13.5337 0.801419 13.3791 0.801068 13.2246C0.800525 12.9223 0.800818 12.6201 0.801407 12.3178C0.802067 11.9654 0.80194 11.613 0.801794 11.2607C0.801565 10.6317 0.802117 10.0028 0.803081 9.37379C0.804015 8.76418 0.804292 8.15457 0.803882 7.54495C0.803436 6.88039 0.803362 6.21582 0.803925 5.55126C0.803984 5.48032 0.804044 5.40938 0.804103 5.33844C0.804133 5.30354 0.804162 5.26865 0.804193 5.23269C0.804378 4.98737 0.804306 4.74204 0.804139 4.49672C0.803946 4.19751 0.804183 3.89831 0.804956 3.5991C0.80534 3.44659 0.805542 3.29408 0.805233 3.14157C0.804956 3.00169 0.805228 2.86183 0.805921 2.72195C0.806151 2.64795 0.805814 2.57395 0.80545 2.49995C0.810579 1.80158 1.04889 1.21777 1.53954 0.724435C1.57322 0.691554 1.60691 0.658673 1.64162 0.624796C1.66443 0.60118 1.68724 0.577564 1.71074 0.553232C2.20114 0.0826998 2.87376 -0.0183609 3.5213 -0.0135082ZM2.73308 13.5949C2.7153 13.6211 2.69753 13.6472 2.67922 13.6741C2.66074 13.7003 2.64226 13.7266 2.62322 13.7536C2.50322 13.9558 2.51442 14.1866 2.54006 14.4139C2.63155 14.6496 2.7934 14.7985 3.00636 14.929C3.19045 15.0015 3.3818 15.0046 3.57741 15.0042C3.65246 15.0042 3.65246 15.0042 3.72902 15.0042C3.78304 15.004 3.83705 15.0038 3.89107 15.0036C3.94678 15.0035 4.0025 15.0035 4.05822 15.0034C4.20425 15.0033 4.35027 15.0029 4.4963 15.0025C4.67184 15.002 4.84738 15.0018 5.02292 15.0016C5.28905 15.0012 5.55518 15.0005 5.82131 14.9998C5.82131 14.4584 5.82131 13.917 5.82131 13.3592C5.34989 13.3546 5.34989 13.3546 4.87846 13.3515C4.68601 13.3506 4.49357 13.3495 4.30113 13.3474C4.14587 13.3457 3.99062 13.3447 3.83535 13.3443C3.7763 13.3441 3.71724 13.3435 3.65819 13.3427C3.15215 13.3335 3.15215 13.3335 2.73308 13.5949ZM10.8604 13.3592C10.8604 13.9006 10.8604 14.442 10.8604 14.9998C11.9432 14.9998 13.026 14.9998 14.1416 14.9998C14.1416 14.4584 14.1416 13.917 14.1416 13.3592C13.0588 13.3592 11.976 13.3592 10.8604 13.3592Z" fill="#666666"/>
<path d="M15.1936 0.156663C15.2227 0.164619 15.2518 0.172575 15.2818 0.180772C15.9308 0.361142 16.5452 0.66896 17.0686 1.09416C17.0983 1.11778 17.0983 1.11778 17.1286 1.14187C17.6193 1.53325 18.0229 1.96658 18.3577 2.50041C18.3725 2.52397 18.3873 2.54752 18.4025 2.57179C19.1247 3.74049 19.3936 5.23661 19.0856 6.58277C18.8181 7.63413 18.341 8.52824 17.5764 9.29729C17.5582 9.31566 17.54 9.33403 17.5212 9.35296C16.5309 10.3375 15.1473 10.8551 13.7605 10.872C12.3379 10.8657 11.0377 10.3358 9.99829 9.37541C9.9634 9.34374 9.9285 9.31207 9.89255 9.27944C9.28957 8.70685 8.8697 7.96551 8.59204 7.18791C8.56984 7.12681 8.56984 7.12681 8.54718 7.06447C8.24125 6.15473 8.21135 5.11101 8.43579 4.1801C8.44229 4.15287 8.44878 4.12564 8.45548 4.09759C8.66203 3.26335 9.05042 2.52807 9.60767 1.87541C9.63355 1.84429 9.65943 1.81318 9.6861 1.78111C10.3716 0.984294 11.2958 0.441877 12.303 0.156663C12.3296 0.14889 12.3563 0.141116 12.3838 0.133107C13.2605 -0.111737 14.3214 -0.0960592 15.1936 0.156663ZM13.0554 2.89195C12.9453 3.06449 12.9182 3.23883 12.9173 3.44034C12.9169 3.48623 12.9165 3.53213 12.9161 3.57942C12.9162 3.62849 12.9162 3.67757 12.9162 3.72814C12.9161 3.77908 12.9159 3.83003 12.9157 3.88253C12.9154 3.99016 12.9154 4.09778 12.9156 4.20541C12.9159 4.34262 12.9152 4.4798 12.9143 4.617C12.9136 4.74878 12.9137 4.88054 12.9138 5.01231C12.9134 5.06123 12.9131 5.11015 12.9127 5.16055C12.915 5.58941 12.9756 5.81155 13.2787 6.1185C13.3254 6.16424 13.3254 6.16424 13.3731 6.21089C13.4053 6.24312 13.4375 6.27535 13.4707 6.30855C13.5387 6.37631 13.6069 6.44383 13.6753 6.51112C13.7798 6.61398 13.8835 6.71765 13.987 6.82147C14.0533 6.88736 14.1197 6.95321 14.1861 7.019C14.217 7.04988 14.2479 7.08077 14.2797 7.11259C14.4979 7.3262 14.6776 7.47802 14.9959 7.47844C15.25 7.4709 15.3856 7.42058 15.5719 7.24208C15.7357 7.06492 15.8059 6.90956 15.8333 6.66789C15.8078 6.41756 15.7459 6.24481 15.5513 6.0758C15.507 6.0418 15.4624 6.00806 15.4178 5.97453C14.6405 5.37386 14.6405 5.37386 14.5565 4.88637C14.5047 4.42891 14.5224 3.96189 14.5609 3.50382C14.5786 3.26544 14.5546 3.10808 14.4514 2.89104C14.3708 2.79224 14.3708 2.79224 14.2756 2.7177C14.2454 2.69197 14.2152 2.66624 14.1841 2.63973C13.7889 2.35266 13.3334 2.57058 13.0554 2.89195Z" fill="#666666"/>
</g>
<defs>
<clipPath id="clip0_1_64997">
<rect width="20" height="20" fill="white"/>
</clipPath>
</defs>
</svg>
