<svg width="16" height="16" viewBox="0 0 16 16" fill="none" xmlns="http://www.w3.org/2000/svg">
<path d="M1.96733 1.8358C1.98856 1.83569 2.0098 1.83558 2.03168 1.83547C2.1028 1.83518 2.17391 1.83533 2.24503 1.83549C2.29655 1.83537 2.34807 1.83522 2.39959 1.83506C2.54115 1.83467 2.6827 1.83468 2.82425 1.83476C2.97693 1.83477 3.1296 1.83442 3.28228 1.83413C3.58138 1.83361 3.88049 1.83344 4.1796 1.8334C4.42271 1.83337 4.66582 1.83324 4.90894 1.83305C5.59812 1.83249 6.28731 1.83221 6.9765 1.83225C7.03223 1.83226 7.03223 1.83226 7.0891 1.83226C7.1263 1.83226 7.1635 1.83227 7.20183 1.83227C7.80484 1.83229 8.40784 1.8317 9.01084 1.83081C9.62992 1.82992 10.249 1.82949 10.8681 1.82954C11.2157 1.82956 11.5633 1.82939 11.9109 1.82872C12.2068 1.82815 12.5027 1.82801 12.7987 1.82843C12.9497 1.82864 13.1006 1.82864 13.2516 1.8281C13.3899 1.82761 13.5282 1.8277 13.6664 1.82824C13.7164 1.82834 13.7664 1.82822 13.8163 1.82788C14.0771 1.82618 14.3027 1.82971 14.5311 1.96884C14.5514 1.98066 14.5717 1.99248 14.5927 2.00466C14.8093 2.1361 14.9309 2.35589 14.9998 2.59384C15.0077 2.68614 15.0077 2.68614 15.0079 2.78499C15.0081 2.82285 15.0083 2.86072 15.0085 2.89973C15.0084 2.94148 15.0083 2.98323 15.0082 3.02498C15.0083 3.06954 15.0084 3.1141 15.0086 3.15866C15.009 3.28098 15.009 3.40329 15.0089 3.5256C15.0089 3.65757 15.0092 3.78954 15.0095 3.92151C15.0101 4.18001 15.0102 4.43851 15.0103 4.69701C15.0103 4.90714 15.0104 5.11727 15.0106 5.3274C15.0112 5.9232 15.0115 6.51901 15.0114 7.11481C15.0114 7.14693 15.0114 7.17905 15.0114 7.21214C15.0114 7.24429 15.0114 7.27645 15.0114 7.30958C15.0114 7.83074 15.012 8.3519 15.0129 8.87306C15.0138 9.40824 15.0142 9.94341 15.0141 10.4786C15.0141 10.779 15.0143 11.0795 15.015 11.3799C15.0155 11.6357 15.0157 11.8915 15.0152 12.1473C15.015 12.2778 15.015 12.4082 15.0156 12.5387C15.0161 12.6583 15.016 12.7778 15.0154 12.8973C15.0153 12.9608 15.0158 13.0244 15.0163 13.0879C15.0145 13.3162 14.9909 13.4893 14.8748 13.6876C14.863 13.708 14.8512 13.7284 14.839 13.7494C14.7074 13.9653 14.4878 14.0885 14.2498 14.1563C14.1467 14.1642 14.1467 14.1642 14.0323 14.1644C14.0005 14.1645 14.0005 14.1645 13.968 14.1647C13.8968 14.165 13.8257 14.1649 13.7546 14.1647C13.7031 14.1648 13.6516 14.165 13.6001 14.1651C13.4585 14.1655 13.317 14.1655 13.1754 14.1654C13.0227 14.1654 12.87 14.1658 12.7174 14.1661C12.4183 14.1666 12.1192 14.1667 11.8201 14.1668C11.5769 14.1668 11.3338 14.1669 11.0907 14.1671C10.4015 14.1677 9.71234 14.168 9.02315 14.1679C8.96742 14.1679 8.96742 14.1679 8.91055 14.1679C8.87335 14.1679 8.83615 14.1679 8.79782 14.1679C8.19481 14.1679 7.59181 14.1685 6.98881 14.1694C6.36973 14.1703 5.75065 14.1707 5.13157 14.1706C4.78397 14.1706 4.43638 14.1708 4.08878 14.1715C3.79284 14.172 3.49691 14.1722 3.20097 14.1717C3.04998 14.1715 2.899 14.1715 2.74802 14.1721C2.60975 14.1726 2.47149 14.1725 2.33322 14.1719C2.28325 14.1718 2.23328 14.172 2.18332 14.1723C1.92258 14.174 1.69696 14.1705 1.46857 14.0313C1.44825 14.0195 1.42792 14.0077 1.40698 13.9955C1.1903 13.8641 1.06879 13.6443 0.999825 13.4063C0.991919 13.314 0.991919 13.314 0.991785 13.2152C0.991584 13.1773 0.991382 13.1395 0.991175 13.1005C0.991267 13.0587 0.991365 13.017 0.991468 12.9752C0.991351 12.9306 0.991207 12.8861 0.991039 12.8415C0.990657 12.7192 0.990665 12.5969 0.990739 12.4746C0.990751 12.3426 0.990406 12.2106 0.99011 12.0787C0.989591 11.8202 0.989419 11.5617 0.989384 11.3032C0.989354 11.093 0.989226 10.8829 0.989028 10.6728C0.988477 10.077 0.988189 9.48118 0.988236 8.88537C0.988239 8.85326 0.988241 8.82114 0.988244 8.78805C0.988246 8.75589 0.988249 8.72374 0.988251 8.69061C0.988277 8.16944 0.987679 7.64828 0.986797 7.12712C0.9859 6.59195 0.985468 6.05677 0.985522 5.5216C0.985543 5.22116 0.985371 4.92072 0.984698 4.62028C0.984129 4.36448 0.983993 4.10869 0.984418 3.85289C0.984622 3.72242 0.984625 3.59195 0.984083 3.46147C0.983592 3.34193 0.983681 3.22241 0.984226 3.10287C0.984367 3.03933 0.983895 2.9758 0.983398 2.91227C0.98512 2.68398 1.00877 2.51089 1.12482 2.31259C1.13665 2.29218 1.14847 2.27177 1.16065 2.25075C1.33419 1.96599 1.64455 1.83618 1.96733 1.8358ZM1.58381 2.59189C1.48832 2.76518 1.49557 2.93273 1.49677 3.1257C1.49682 3.15253 1.49686 3.17936 1.49691 3.20701C1.49708 3.29233 1.49747 3.37766 1.49787 3.46298C1.49803 3.52099 1.49817 3.57899 1.4983 3.63699C1.49864 3.77886 1.49918 3.92073 1.49983 4.06259C1.91572 4.06477 2.33161 4.06643 2.74751 4.06745C2.94063 4.06794 3.13375 4.0686 3.32687 4.06966C3.51329 4.07068 3.6997 4.07124 3.88611 4.07149C3.95719 4.07166 4.02827 4.072 4.09935 4.0725C4.19899 4.07319 4.29862 4.07328 4.39827 4.07324C4.42758 4.07357 4.45689 4.07391 4.48709 4.07426C4.69872 4.07326 4.85305 4.04469 5.01545 3.89853C5.05412 3.85599 5.05412 3.85599 5.09358 3.81259C5.12862 3.77797 5.16378 3.74348 5.19904 3.70908C5.29259 3.61553 5.37968 3.51799 5.46601 3.41782C5.54859 3.32393 5.63352 3.23236 5.71858 3.14072C5.83858 3.01128 5.95732 2.88114 6.0727 2.74753C6.15644 2.65124 6.24226 2.55679 6.32783 2.46213C6.37818 2.41452 6.37818 2.41452 6.37483 2.37509C5.78726 2.37217 5.1997 2.36997 4.61213 2.36862C4.33931 2.36797 4.0665 2.36709 3.79368 2.36566C3.55588 2.36442 3.31808 2.36361 3.08027 2.36333C2.95437 2.36317 2.82847 2.36279 2.70257 2.36188C2.58401 2.36103 2.46547 2.36077 2.34691 2.36095C2.30345 2.36092 2.25999 2.36067 2.21653 2.36019C1.92873 2.35717 1.76815 2.35772 1.58381 2.59189ZM6.9499 3.39841C6.7791 3.67293 6.73228 3.96223 6.80061 4.2778C6.8884 4.55883 7.05296 4.76947 7.31428 4.9083C7.57558 5.01281 7.87336 5.01383 8.1385 4.92001C8.4171 4.78719 8.57583 4.59827 8.68733 4.31259C8.76559 4.06175 8.73589 3.78984 8.63667 3.55026C8.51386 3.31822 8.34437 3.15419 8.09931 3.05698C7.67072 2.94654 7.23124 3.0359 6.9499 3.39841ZM9.4499 3.39841C9.27909 3.67293 9.23228 3.96223 9.30061 4.2778C9.3884 4.55883 9.55296 4.76947 9.81428 4.9083C10.0756 5.01281 10.3734 5.01383 10.6385 4.92001C10.9171 4.78719 11.0758 4.59827 11.1873 4.31259C11.2656 4.06175 11.2359 3.78984 11.1367 3.55026C11.0139 3.31822 10.8444 3.15419 10.5993 3.05698C10.1707 2.94654 9.73124 3.0359 9.4499 3.39841ZM11.9499 3.39841C11.7791 3.67293 11.7323 3.96223 11.8006 4.2778C11.8884 4.55883 12.053 4.76947 12.3143 4.9083C12.5756 5.01281 12.8734 5.01383 13.1385 4.92001C13.4171 4.78719 13.5758 4.59827 13.6873 4.31259C13.7656 4.06175 13.7359 3.78984 13.6367 3.55026C13.5139 3.31822 13.3444 3.15419 13.0993 3.05698C12.6707 2.94654 12.2312 3.0359 11.9499 3.39841ZM3.71858 6.78134C3.67948 6.81929 3.67948 6.81929 3.6396 6.858C3.11665 7.39625 2.89248 8.09459 2.89465 8.83358C2.90462 9.43318 3.08386 10.0123 3.43733 10.5001C3.45747 10.5283 3.47761 10.5565 3.49836 10.5855C3.94802 11.1751 4.64852 11.5237 5.37483 11.6251C6.18204 11.6884 6.9598 11.5267 7.59358 11.0001C8.17713 10.4968 8.53969 9.80813 8.60069 9.03496C8.64361 8.1963 8.40986 7.46756 7.85041 6.83798C7.34866 6.29742 6.66221 5.96733 5.92463 5.92563C5.06861 5.89802 4.33419 6.17659 3.71858 6.78134ZM9.41764 6.43271C9.35874 6.52541 9.35686 6.5798 9.37482 6.68759C9.43317 6.75955 9.47971 6.80254 9.56232 6.84384C9.60671 6.84691 9.65124 6.84806 9.69573 6.84823C9.72373 6.84841 9.75172 6.84859 9.78056 6.84877C9.82676 6.84882 9.82676 6.84882 9.87389 6.84888C9.90626 6.84903 9.93863 6.84919 9.97198 6.84935C10.0794 6.84981 10.1869 6.85002 10.2944 6.85019C10.3689 6.85037 10.4434 6.85055 10.5179 6.85073C10.6743 6.85106 10.8307 6.85124 10.9871 6.85135C11.1876 6.85152 11.3881 6.85227 11.5886 6.85316C11.7425 6.85374 11.8965 6.85391 12.0505 6.85395C12.1244 6.85405 12.1983 6.8543 12.2722 6.85471C12.3756 6.85524 12.479 6.85518 12.5824 6.85498C12.613 6.85527 12.6436 6.85556 12.6751 6.85585C12.8288 6.85491 12.9395 6.85354 13.0623 6.75009C13.1343 6.66209 13.1343 6.66209 13.1209 6.56259C13.0888 6.45258 13.0649 6.43265 12.9686 6.37509C12.8985 6.36108 12.8985 6.36108 12.8227 6.36298C12.7935 6.36267 12.7643 6.36236 12.7343 6.36204C12.7025 6.36218 12.6707 6.36232 12.6379 6.36247C12.6043 6.36225 12.5706 6.36204 12.536 6.36182C12.4246 6.36124 12.3133 6.36136 12.202 6.36154C12.1247 6.3614 12.0474 6.36123 11.9701 6.36105C11.8081 6.36077 11.646 6.36084 11.484 6.36115C11.2761 6.36151 11.0683 6.36088 10.8604 6.35997C10.7008 6.3594 10.5412 6.3594 10.3816 6.35958C10.3049 6.35959 10.2283 6.3594 10.1516 6.35901C10.0446 6.35855 9.93752 6.35888 9.83045 6.35941C9.79866 6.35911 9.76687 6.35881 9.73412 6.3585C9.56499 6.35828 9.56499 6.35828 9.41764 6.43271ZM10.4546 7.74518C10.3991 7.8118 10.3991 7.8118 10.3905 7.90634C10.4095 8.02044 10.4406 8.05527 10.5311 8.12509C10.6397 8.16131 10.7249 8.16053 10.8395 8.16088C10.8612 8.16099 10.8829 8.16109 10.9053 8.1612C10.9771 8.1615 11.0489 8.16156 11.1207 8.16159C11.1706 8.16169 11.2205 8.1618 11.2705 8.16191C11.3752 8.16209 11.4799 8.16215 11.5846 8.16213C11.7187 8.16213 11.8527 8.16256 11.9868 8.16309C12.0899 8.16344 12.1931 8.16351 12.2962 8.16349C12.3457 8.16353 12.3951 8.16366 12.4445 8.16391C12.5137 8.16421 12.5828 8.16412 12.652 8.16393C12.6914 8.16398 12.7307 8.16402 12.7712 8.16407C12.8728 8.15649 12.941 8.14042 13.0311 8.09384C13.0961 8.02632 13.0961 8.02632 13.1248 7.93759C13.101 7.82723 13.0799 7.76763 12.9998 7.68759C12.9215 7.68107 12.8465 7.67841 12.7681 7.67851C12.7442 7.6783 12.7203 7.67809 12.6957 7.67788C12.6165 7.67728 12.5373 7.67716 12.4581 7.67709C12.4031 7.67689 12.3482 7.67668 12.2932 7.67646C12.1779 7.67609 12.0625 7.67597 11.9472 7.67601C11.7994 7.67602 11.6516 7.67516 11.5038 7.67409C11.3902 7.67339 11.2766 7.67327 11.1631 7.6733C11.1086 7.67322 11.0541 7.67295 10.9996 7.67247C10.9233 7.67185 10.8471 7.67203 10.7709 7.67241C10.7484 7.67206 10.7258 7.67171 10.7026 7.67135C10.5966 7.67268 10.5403 7.68068 10.4546 7.74518ZM9.40607 9.06259C9.36169 9.15137 9.365 9.2143 9.37482 9.31259C9.41503 9.38688 9.41503 9.38688 9.49982 9.43759C9.611 9.4565 9.72128 9.45433 9.83382 9.45327C9.88482 9.45352 9.88482 9.45352 9.93686 9.45378C10.0494 9.45417 10.1619 9.45366 10.2744 9.45309C10.3524 9.4531 10.4305 9.45315 10.5086 9.45323C10.6722 9.45328 10.8358 9.4529 10.9995 9.45217C11.1887 9.45134 11.3778 9.45129 11.567 9.45165C11.7491 9.45199 11.9311 9.45179 12.1132 9.45135C12.1906 9.45121 12.2681 9.4512 12.3455 9.45132C12.4537 9.45142 12.5618 9.4509 12.6699 9.45022C12.7021 9.45036 12.7343 9.4505 12.7674 9.45064C12.7968 9.45034 12.8262 9.45003 12.8565 9.44971C12.8821 9.44963 12.9076 9.44956 12.934 9.44948C13.016 9.43468 13.0429 9.40877 13.0936 9.34384C13.1304 9.24378 13.1312 9.20275 13.0897 9.10361C13.0181 9.0154 12.984 9.00044 12.8748 8.96884C12.7695 8.95967 12.6645 8.95998 12.5589 8.96026C12.5271 8.9601 12.4954 8.95994 12.4627 8.95977C12.3579 8.95934 12.2532 8.95937 12.1484 8.95944C12.0755 8.95932 12.0026 8.95919 11.9297 8.95904C11.7769 8.9588 11.6242 8.95881 11.4714 8.95898C11.2757 8.95916 11.08 8.95863 10.8843 8.9579C10.7338 8.95744 10.5833 8.95742 10.4328 8.95751C10.3606 8.9575 10.2884 8.95733 10.2163 8.95702C10.1154 8.95663 10.0145 8.95684 9.91359 8.95721C9.88383 8.95697 9.85406 8.95673 9.8234 8.95648C9.66127 8.95777 9.54568 8.97029 9.40607 9.06259ZM8.7591 10.7226C8.6513 10.8788 8.64571 11.025 8.64448 11.2085C8.6442 11.2346 8.64391 11.2606 8.64362 11.2875C8.64317 11.3427 8.64289 11.3978 8.64278 11.4529C8.64241 11.5364 8.64087 11.6198 8.63929 11.7033C8.6329 12.1108 8.6329 12.1108 8.81233 12.4688C9.04108 12.6857 9.26015 12.7282 9.56736 12.7284C9.59889 12.7287 9.63042 12.7289 9.6629 12.7292C9.76691 12.73 9.87091 12.7302 9.97492 12.7304C10.0475 12.7307 10.12 12.731 10.1926 12.7313C10.3446 12.7318 10.4967 12.732 10.6487 12.7321C10.843 12.7323 11.0373 12.7335 11.2317 12.7349C11.3815 12.7358 11.5314 12.7361 11.6813 12.7361C11.7529 12.7362 11.8245 12.7366 11.8961 12.7373C11.9965 12.7381 12.0969 12.738 12.1974 12.7376C12.2266 12.738 12.2559 12.7385 12.286 12.739C12.5223 12.7364 12.7236 12.6676 12.9034 12.5102C13.1437 12.2617 13.1399 11.9415 13.137 11.6162C13.1365 11.5471 13.137 11.478 13.1376 11.4089C13.1381 11.1277 13.122 10.8892 12.9647 10.6485C12.702 10.3972 12.4289 10.3704 12.0791 10.3706C12.0502 10.3704 12.0214 10.3703 11.9917 10.3702C11.8968 10.3699 11.802 10.3699 11.7071 10.3698C11.6408 10.3697 11.5746 10.3696 11.5083 10.3695C11.3695 10.3693 11.2308 10.3693 11.092 10.3693C10.9147 10.3693 10.7374 10.3689 10.56 10.3683C10.4232 10.368 10.2864 10.3679 10.1495 10.3679C10.0842 10.3679 10.0188 10.3678 9.95346 10.3675C9.86186 10.3672 9.77027 10.3673 9.67867 10.3675C9.63863 10.3672 9.63863 10.3672 9.59777 10.367C9.24035 10.3688 8.99729 10.4467 8.7591 10.7226Z" fill="#666666"/>
<path d="M7.29956 6.93822C7.75022 7.32221 8.06938 7.87252 8.12488 8.46861C8.17174 9.16394 8.06035 9.79189 7.594 10.3364C7.57325 10.3594 7.55251 10.3824 7.53113 10.4061C7.51264 10.4275 7.49415 10.4489 7.4751 10.4709C7.05325 10.9288 6.45503 11.1491 5.84644 11.1941C5.21708 11.2153 4.61984 10.9931 4.14832 10.5799C3.70382 10.1636 3.39307 9.63767 3.36329 9.01671C3.34724 8.2452 3.52574 7.61969 4.06983 7.05186C4.94768 6.20993 6.35744 6.20071 7.29956 6.93822ZM4.68738 7.37486C4.53638 7.58249 4.49627 7.74885 4.49534 8.00704C4.49514 8.04491 4.49494 8.08278 4.49474 8.12179C4.4947 8.16232 4.49467 8.20285 4.49463 8.24461C4.49453 8.28711 4.49443 8.32961 4.49432 8.37211C4.49413 8.46102 4.49407 8.54993 4.49409 8.63885C4.49409 8.75211 4.49367 8.86536 4.49313 8.97862C4.49278 9.06637 4.49272 9.15412 4.49274 9.24188C4.49268 9.30372 4.49234 9.36556 4.492 9.4274C4.49288 9.77551 4.51412 10.0453 4.77137 10.3026C4.90924 10.4088 5.0585 10.473 5.23461 10.4651C5.46783 10.4273 5.63093 10.3422 5.82435 10.2095C5.85371 10.1899 5.88308 10.1704 5.91333 10.1503C6.00635 10.0883 6.09881 10.0256 6.19129 9.96275C6.25355 9.92118 6.31585 9.87965 6.37818 9.83818C6.96132 9.49431 6.96132 9.49431 7.34363 8.96861C7.37349 8.76402 7.35547 8.57335 7.24989 8.39346C7.17771 8.29982 7.09641 8.23765 6.99988 8.17174C6.98095 8.15852 6.96201 8.14531 6.9425 8.1317C6.87857 8.08734 6.81429 8.04353 6.74988 7.99986C6.71508 7.97624 6.71508 7.97624 6.67958 7.95213C6.52812 7.84964 6.37592 7.74833 6.22326 7.64765C6.14372 7.5951 6.06442 7.54221 5.98511 7.4893C5.93382 7.45541 5.88251 7.42153 5.83118 7.38768C5.80787 7.37205 5.78456 7.35643 5.76054 7.34033C5.4099 7.11081 4.98585 7.00178 4.68738 7.37486Z" fill="#666666"/>
<path d="M9.56067 10.8595C9.60795 10.8593 9.60795 10.8593 9.65618 10.859C9.76042 10.8586 9.86463 10.8591 9.96888 10.8597C10.0413 10.8597 10.1137 10.8596 10.186 10.8596C10.3378 10.8595 10.4895 10.8599 10.6412 10.8606C10.8359 10.8615 11.0305 10.8614 11.2251 10.861C11.3746 10.8608 11.5241 10.8611 11.6735 10.8614C11.7453 10.8616 11.8171 10.8616 11.8888 10.8615C11.9891 10.8614 12.0893 10.8619 12.1896 10.8626C12.2342 10.8624 12.2342 10.8624 12.2797 10.8621C12.4795 10.8644 12.4795 10.8644 12.5801 10.917C12.7082 11.0648 12.6646 11.3031 12.6656 11.4884C12.666 11.5352 12.6666 11.582 12.6675 11.6288C12.6689 11.6966 12.6694 11.7642 12.6697 11.832C12.6701 11.8725 12.6706 11.9129 12.6711 11.9547C12.654 12.08 12.6198 12.1304 12.5314 12.219C12.4602 12.2545 12.4204 12.2544 12.3414 12.255C12.3014 12.2554 12.3014 12.2554 12.2606 12.2558C12.2312 12.256 12.2019 12.2561 12.1717 12.2562C12.1408 12.2565 12.11 12.2567 12.0782 12.257C11.9758 12.2578 11.8734 12.2583 11.771 12.2587C11.7361 12.2589 11.7012 12.2591 11.6652 12.2593C11.4804 12.2601 11.2957 12.2607 11.1109 12.2611C10.9198 12.2617 10.7288 12.2631 10.5378 12.2647C10.391 12.2657 10.2443 12.2661 10.0976 12.2662C10.0272 12.2665 9.95673 12.2669 9.8863 12.2677C9.78776 12.2687 9.68927 12.2687 9.59072 12.2684C9.56158 12.2689 9.53243 12.2695 9.50241 12.27C9.36217 12.2686 9.30046 12.2645 9.18515 12.1782C9.10642 12.0677 9.10308 11.9748 9.10547 11.8438C9.1054 11.8201 9.10532 11.7963 9.10524 11.7718C9.10527 11.7218 9.10569 11.6718 9.10647 11.6217C9.10755 11.5452 9.10712 11.4689 9.10651 11.3924C9.10673 11.3436 9.10703 11.2949 9.10743 11.2462C9.10727 11.2234 9.10712 11.2006 9.10696 11.1771C9.10918 11.081 9.11673 11.0132 9.16926 10.9317C9.29392 10.8446 9.41206 10.858 9.56067 10.8595Z" fill="#666666"/>
<path d="M5.20894 7.5874C5.36254 7.64324 5.48978 7.72997 5.62496 7.82083C5.66967 7.85038 5.66967 7.85038 5.71529 7.88053C5.77821 7.9222 5.84104 7.96403 5.90377 8.006C5.99941 8.06998 6.09535 8.13349 6.19136 8.19693C6.25258 8.23755 6.31378 8.2782 6.37496 8.31888C6.40348 8.3378 6.432 8.35672 6.46138 8.37621C6.86535 8.6469 6.86535 8.6469 6.90035 8.79495C6.8456 9.035 6.54868 9.17226 6.35433 9.3024C6.32595 9.32148 6.29757 9.34056 6.26833 9.36022C6.20869 9.40024 6.14899 9.44018 6.08924 9.48005C5.99795 9.54108 5.907 9.60261 5.81606 9.66415C5.75787 9.7031 5.69966 9.74203 5.64144 9.78091C5.61438 9.7993 5.58733 9.81769 5.55945 9.83664C5.31649 9.99741 5.31649 9.99741 5.15621 10C5.01354 9.93345 5.01354 9.93345 4.96871 9.84378C4.96504 9.77825 4.9634 9.7126 4.96268 9.64697C4.96242 9.62679 4.96217 9.60661 4.96191 9.58581C4.96113 9.51893 4.96061 9.45205 4.96016 9.38516C4.96 9.36232 4.95983 9.33947 4.95966 9.31593C4.95882 9.19499 4.95822 9.07405 4.95777 8.9531C4.95725 8.82826 4.95585 8.70344 4.95425 8.5786C4.9532 8.48254 4.95284 8.38649 4.95267 8.29043C4.95246 8.24441 4.95198 8.1984 4.95123 8.15239C4.95024 8.0879 4.95024 8.02348 4.95047 7.95898C4.95022 7.92232 4.94997 7.88566 4.94971 7.84789C4.97783 7.70306 5.05623 7.599 5.20894 7.5874Z" fill="#666666"/>
<path d="M2.65426 2.99457C2.70245 2.99397 2.70245 2.99397 2.75161 2.99336C2.78644 2.99313 2.82127 2.9929 2.85716 2.99266C2.91068 2.99228 2.91068 2.99228 2.96529 2.99189C3.04089 2.99146 3.1165 2.99113 3.1921 2.99088C3.30788 2.99034 3.42364 2.98897 3.53941 2.98759C3.61277 2.98728 3.68614 2.98701 3.7595 2.9868C3.79421 2.98625 3.82891 2.98571 3.86466 2.98514C3.89699 2.98523 3.92931 2.98532 3.96261 2.98542C3.99101 2.98524 4.01942 2.98505 4.04868 2.98486C4.14895 3.00489 4.18629 3.04699 4.24998 3.12511C4.26658 3.18761 4.26658 3.18761 4.26561 3.25011C4.26593 3.27073 4.26625 3.29136 4.26658 3.31261C4.24245 3.40346 4.19658 3.44049 4.12498 3.50011C4.0491 3.51577 4.0491 3.51577 3.9636 3.51578C3.93148 3.51608 3.89936 3.51637 3.86627 3.51667C3.83176 3.51632 3.79725 3.51597 3.7617 3.51561C3.70831 3.51568 3.70831 3.51568 3.65383 3.51575C3.5786 3.51569 3.50337 3.51533 3.42814 3.51469C3.31291 3.51378 3.19773 3.51404 3.0825 3.51445C3.00942 3.51425 2.93634 3.51399 2.86326 3.51366C2.82875 3.51375 2.79425 3.51384 2.75869 3.51393C2.72657 3.51354 2.69445 3.51314 2.66136 3.51273C2.61904 3.51248 2.61904 3.51248 2.57586 3.51222C2.48398 3.49755 2.44142 3.47088 2.37498 3.40636C2.34049 3.28219 2.33075 3.21604 2.38475 3.09776C2.46775 2.99323 2.52619 2.99596 2.65426 2.99457Z" fill="#666666"/>
<path d="M12.9374 3.50018C13.09 3.57105 13.179 3.66003 13.2499 3.81268C13.2735 3.98767 13.2741 4.13565 13.1991 4.29705C13.0562 4.4475 12.959 4.50804 12.7499 4.5158C12.5408 4.50804 12.4436 4.4475 12.3007 4.29705C12.2257 4.13565 12.2263 3.98767 12.2499 3.81268C12.3898 3.51128 12.6295 3.45873 12.9374 3.50018Z" fill="#666666"/>
<path d="M10.4374 3.50018C10.59 3.57105 10.679 3.66003 10.7499 3.81268C10.7735 3.98767 10.7741 4.13565 10.6991 4.29705C10.5562 4.4475 10.459 4.50804 10.2499 4.5158C10.0408 4.50804 9.94361 4.4475 9.80068 4.29705C9.72575 4.13565 9.72635 3.98767 9.7499 3.81268C9.88984 3.51128 10.1295 3.45873 10.4374 3.50018Z" fill="#666666"/>
<path d="M7.9374 3.50018C8.09005 3.57105 8.17903 3.66003 8.2499 3.81268C8.27346 3.98767 8.27406 4.13565 8.19912 4.29705C8.0562 4.4475 7.959 4.50804 7.7499 4.5158C7.5408 4.50804 7.44361 4.4475 7.30068 4.29705C7.22575 4.13565 7.22635 3.98767 7.2499 3.81268C7.38984 3.51128 7.6295 3.45873 7.9374 3.50018Z" fill="#666666"/>
</svg>
